ISO-10303-21;
HEADER;
FILE_DESCRIPTION (( 'STEP AP214' ),
    '1' );
FILE_NAME ('WY_DCDC_JDK60.step',
    '2026-09-16T12:57:59',
    ( '' ),
    ( '' ),
    'SwSTEP 2.0',
    'SolidWorks 2025',
    '' );
FILE_SCHEMA (( 'AUTOMOTIVE_DESIGN' ));
ENDSEC;

DATA;
#1 = CARTESIAN_POINT ( 'NONE',  ( 23.35999999999999588, 10.43971427864676649, -3.499999999999999556 ) ) ;
#2 = ORIENTED_EDGE ( 'NONE', *, *, #1089, .T. ) ;
#3 = DIRECTION ( 'NONE',  ( 1.000000000000000000, 2.048885995248198400E-16, 0.000000000000000000 ) ) ;
#4 = VERTEX_POINT ( 'NONE', #992 ) ;
#5 = PLANE ( 'NONE',  #604 ) ;
#6 = CARTESIAN_POINT ( 'NONE',  ( 25.39999999999999503, 12.20000000000000639, 0.000000000000000000 ) ) ;
#7 = EDGE_LOOP ( 'NONE', ( #211, #925, #659, #873 ) ) ;
#8 = EDGE_CURVE ( 'NONE', #736, #792, #131, .T. ) ;
#9 = ADVANCED_FACE ( 'NONE', ( #1270 ), #385, .T. ) ;
#10 = DIRECTION ( 'NONE',  ( 0.000000000000000000, 0.000000000000000000, 1.000000000000000000 ) ) ;
#11 = DIRECTION ( 'NONE',  ( 1.000000000000000000, 0.000000000000000000, 0.000000000000000000 ) ) ;
#12 = CARTESIAN_POINT ( 'NONE',  ( -25.39999999999999503, -12.20000000000000639, 0.000000000000000000 ) ) ;
#13 = AXIS2_PLACEMENT_3D ( 'NONE', #273, #157, #450 ) ;
#14 = AXIS2_PLACEMENT_3D ( 'NONE', #1084, #10, #398 ) ;
#15 = FACE_OUTER_BOUND ( 'NONE', #715, .T. ) ;
#16 = CIRCLE ( 'NONE', #965, 0.5000000000000004441 ) ;
#17 = ORIENTED_EDGE ( 'NONE', *, *, #194, .F. ) ;
#18 = EDGE_CURVE ( 'NONE', #915, #294, #577, .T. ) ;
#19 = FACE_OUTER_BOUND ( 'NONE', #150, .T. ) ;
#20 = CARTESIAN_POINT ( 'NONE',  ( -24.90000000000000213, 12.19999999999999574, 12.19999999999999929 ) ) ;
#21 = AXIS2_PLACEMENT_3D ( 'NONE', #464, #153, #1253 ) ;
#22 = ORIENTED_EDGE ( 'NONE', *, *, #834, .F. ) ;
#23 = DIRECTION ( 'NONE',  ( -0.000000000000000000, 0.000000000000000000, 1.000000000000000000 ) ) ;
#24 = FACE_OUTER_BOUND ( 'NONE', #1011, .T. ) ;
#25 = CARTESIAN_POINT ( 'NONE',  ( 23.16000000000000014, 0.2797142786467652353, -3.499999999999999556 ) ) ;
#26 = ORIENTED_EDGE ( 'NONE', *, *, #501, .T. ) ;
#27 = CARTESIAN_POINT ( 'NONE',  ( 22.36000000000000654, -10.15999999999999481, -3.499999999999999556 ) ) ;
#28 = EDGE_LOOP ( 'NONE', ( #607, #210, #976, #90, #1192, #935, #637, #1208 ) ) ;
#29 = ADVANCED_FACE ( 'NONE', ( #1175 ), #1000, .T. ) ;
#30 = DIRECTION ( 'NONE',  ( 1.000000000000000000, 2.048885995248198400E-16, 0.000000000000000000 ) ) ;
#31 = EDGE_CURVE ( 'NONE', #102, #185, #276, .T. ) ;
#32 = CIRCLE ( 'NONE', #777, 0.5000000000000004441 ) ;
#33 = CIRCLE ( 'NONE', #940, 0.3000000000000085931 ) ;
#34 = AXIS2_PLACEMENT_3D ( 'NONE', #1106, #514, #126 ) ;
#35 = CARTESIAN_POINT ( 'NONE',  ( -22.85999999999999943, -2.540000000000004921, -3.499999999999999556 ) ) ;
#36 = EDGE_LOOP ( 'NONE', ( #341, #1203 ) ) ;
#37 = CARTESIAN_POINT ( 'NONE',  ( 22.36000000000000298, 0.2797142786467650688, -3.499999999999999556 ) ) ;
#38 = EDGE_CURVE ( 'NONE', #486, #749, #1150, .T. ) ;
#39 = CARTESIAN_POINT ( 'NONE',  ( 22.36000000000000654, -10.15999999999999481, -3.300000000000000711 ) ) ;
#40 = ORIENTED_EDGE ( 'NONE', *, *, #963, .F. ) ;
#41 = DIRECTION ( 'NONE',  ( 0.000000000000000000, 0.000000000000000000, 1.000000000000000000 ) ) ;
#42 = EDGE_LOOP ( 'NONE', ( #1262, #1211, #641, #155 ) ) ;
#43 = EDGE_CURVE ( 'NONE', #268, #657, #71, .T. ) ;
#44 = CARTESIAN_POINT ( 'NONE',  ( -22.36000000000000298, 7.619999999999995666, 0.000000000000000000 ) ) ;
#45 = ADVANCED_FACE ( 'NONE', ( #376 ), #98, .T. ) ;
#46 = FACE_OUTER_BOUND ( 'NONE', #584, .T. ) ;
#47 = ORIENTED_EDGE ( 'NONE', *, *, #829, .T. ) ;
#48 = DIRECTION ( 'NONE',  ( 1.000000000000000000, 0.000000000000000000, 0.000000000000000000 ) ) ;
#49 = CIRCLE ( 'NONE', #583, 0.5000000000000004441 ) ;
#50 = CIRCLE ( 'NONE', #236, 0.5000000000000004441 ) ;
#51 = ORIENTED_EDGE ( 'NONE', *, *, #1031, .F. ) ;
#52 = DIRECTION ( 'NONE',  ( 0.000000000000000000, 0.000000000000000000, -1.000000000000000000 ) ) ;
#53 = AXIS2_PLACEMENT_3D ( 'NONE', #594, #115, #613 ) ;
#54 = AXIS2_PLACEMENT_3D ( 'NONE', #518, #52, #340 ) ;
#55 = VERTEX_POINT ( 'NONE', #1166 ) ;
#56 = CARTESIAN_POINT ( 'NONE',  ( -22.55999999999999872, -2.540000000000004921, -3.499999999999999556 ) ) ;
#57 = FACE_OUTER_BOUND ( 'NONE', #796, .T. ) ;
#58 = EDGE_CURVE ( 'NONE', #449, #554, #148, .T. ) ;
#59 = EDGE_LOOP ( 'NONE', ( #1014, #490 ) ) ;
#60 = DIRECTION ( 'NONE',  ( 1.000000000000000000, 2.048885995248198400E-16, 0.000000000000000000 ) ) ;
#61 = LINE ( 'NONE', #669, #275 ) ;
#62 = LINE ( 'NONE', #1068, #627 ) ;
#63 = ORIENTED_EDGE ( 'NONE', *, *, #1260, .T. ) ;
#64 = CARTESIAN_POINT ( 'NONE',  ( 22.86000000000000298, -10.15999999999999481, -3.499999999999999556 ) ) ;
#65 = CARTESIAN_POINT ( 'NONE',  ( 23.36000000000000298, -10.15999999999999481, -3.300000000000000711 ) ) ;
#66 = CIRCLE ( 'NONE', #149, 0.5000000000000004441 ) ;
#67 = CARTESIAN_POINT ( 'NONE',  ( 22.85999999999999943, 0.2797142786467651243, -3.499999999999999556 ) ) ;
#68 = CONICAL_SURFACE ( 'NONE', #253, 0.3000000000000085931, 0.7853981633974532750 ) ;
#69 = ORIENTED_EDGE ( 'NONE', *, *, #444, .F. ) ;
#70 = CONICAL_SURFACE ( 'NONE', #606, 0.3000000000000085931, 0.7853981633974532750 ) ;
#71 = LINE ( 'NONE', #467, #544 ) ;
#72 = CARTESIAN_POINT ( 'NONE',  ( 22.85999999999999943, 0.2797142786467651243, -3.499999999999999556 ) ) ;
#73 = ORIENTED_EDGE ( 'NONE', *, *, #492, .T. ) ;
#74 = DIRECTION ( 'NONE',  ( -2.048885995248198400E-16, 1.000000000000000000, -0.000000000000000000 ) ) ;
#75 = DIRECTION ( 'NONE',  ( 0.000000000000000000, 0.000000000000000000, -1.000000000000000000 ) ) ;
#76 = ORIENTED_EDGE ( 'NONE', *, *, #444, .T. ) ;
#77 = CYLINDRICAL_SURFACE ( 'NONE', #667, 0.5000000000000004441 ) ;
#78 = DIRECTION ( 'NONE',  ( 6.829619984160665442E-17, -1.000000000000000000, 0.000000000000000000 ) ) ;
#79 = EDGE_LOOP ( 'NONE', ( #562, #663, #517 ) ) ;
#80 = DIRECTION ( 'NONE',  ( 0.000000000000000000, 0.000000000000000000, -1.000000000000000000 ) ) ;
#81 = EDGE_CURVE ( 'NONE', #325, #928, #220, .T. ) ;
#82 = EDGE_CURVE ( 'NONE', #185, #761, #665, .T. ) ;
#83 = DIRECTION ( 'NONE',  ( 0.000000000000000000, 0.000000000000000000, 1.000000000000000000 ) ) ;
#84 = ORIENTED_EDGE ( 'NONE', *, *, #81, .F. ) ;
#85 = DIRECTION ( 'NONE',  ( 0.000000000000000000, 0.000000000000000000, -1.000000000000000000 ) ) ;
#86 = ORIENTED_EDGE ( 'NONE', *, *, #727, .F. ) ;
#87 = LINE ( 'NONE', #482, #1163 ) ;
#88 = ADVANCED_FACE ( 'NONE', ( #971 ), #781, .T. ) ;
#89 = DIRECTION ( 'NONE',  ( 0.000000000000000000, 0.000000000000000000, -1.000000000000000000 ) ) ;
#90 = ORIENTED_EDGE ( 'NONE', *, *, #1090, .T. ) ;
#91 = CIRCLE ( 'NONE', #900, 0.5000000000000004441 ) ;
#92 = CIRCLE ( 'NONE', #690, 0.5000000000000004441 ) ;
#93 = DIRECTION ( 'NONE',  ( 0.000000000000000000, 0.000000000000000000, 1.000000000000000000 ) ) ;
#94 = ORIENTED_EDGE ( 'NONE', *, *, #177, .F. ) ;
#95 = DIRECTION ( 'NONE',  ( 0.000000000000000000, 0.000000000000000000, -1.000000000000000000 ) ) ;
#96 = FACE_OUTER_BOUND ( 'NONE', #945, .T. ) ;
#97 = VERTEX_POINT ( 'NONE', #284 ) ;
#98 = PLANE ( 'NONE',  #1264 ) ;
#99 = EDGE_LOOP ( 'NONE', ( #218, #739, #396, #197 ) ) ;
#100 = CARTESIAN_POINT ( 'NONE',  ( -24.89999999999999503, -12.70000000000000462, 0.000000000000000000 ) ) ;
#101 = LINE ( 'NONE', #597, #339 ) ;
#102 = VERTEX_POINT ( 'NONE', #674 ) ;
#103 = DIRECTION ( 'NONE',  ( 0.000000000000000000, 0.000000000000000000, 1.000000000000000000 ) ) ;
#104 = EDGE_LOOP ( 'NONE', ( #793, #416, #451 ) ) ;
#105 = CARTESIAN_POINT ( 'NONE',  ( -22.55999999999999872, -7.620000000000004547, -3.499999999999999556 ) ) ;
#106 = DIRECTION ( 'NONE',  ( 0.000000000000000000, 0.000000000000000000, -1.000000000000000000 ) ) ;
#107 = CONICAL_SURFACE ( 'NONE', #707, 0.3000000000000085931, 0.7853981633974532750 ) ;
#108 = AXIS2_PLACEMENT_3D ( 'NONE', #476, #875, #1066 ) ;
#109 = ORIENTED_EDGE ( 'NONE', *, *, #504, .T. ) ;
#110 = AXIS2_PLACEMENT_3D ( 'NONE', #847, #866, #1250 ) ;
#111 = AXIS2_PLACEMENT_3D ( 'NONE', #802, #533, #410 ) ;
#112 = FACE_OUTER_BOUND ( 'NONE', #999, .T. ) ;
#113 = AXIS2_PLACEMENT_3D ( 'NONE', #1199, #318, #891 ) ;
#114 = CARTESIAN_POINT ( 'NONE',  ( 22.56000000000000227, -10.15999999999999481, -3.499999999999999556 ) ) ;
#115 = DIRECTION ( 'NONE',  ( -0.000000000000000000, 0.000000000000000000, 1.000000000000000000 ) ) ;
#116 = ORIENTED_EDGE ( 'NONE', *, *, #525, .T. ) ;
#117 = CARTESIAN_POINT ( 'NONE',  ( 22.85999999999999943, 0.2797142786467651243, -3.499999999999999556 ) ) ;
#118 = EDGE_CURVE ( 'NONE', #1069, #521, #904, .T. ) ;
#119 = ADVANCED_FACE ( 'NONE', ( #1174 ), #290, .T. ) ;
#120 = DIRECTION ( 'NONE',  ( 0.000000000000000000, 0.000000000000000000, 1.000000000000000000 ) ) ;
#121 = VERTEX_POINT ( 'NONE', #995 ) ;
#122 = PRODUCT ( 'WY_DCDC_JDK60', 'WY_DCDC_JDK60', '', ( #738 ) ) ;
#123 = EDGE_CURVE ( 'NONE', #657, #4, #818, .T. ) ;
#124 = ADVANCED_FACE ( 'NONE', ( #15 ), #895, .T. ) ;
#125 = DIRECTION ( 'NONE',  ( 1.000000000000000000, 2.048885995248198400E-16, 0.000000000000000000 ) ) ;
#126 = DIRECTION ( 'NONE',  ( -1.000000000000000000, 0.000000000000000000, 0.000000000000000000 ) ) ;
#127 = DIRECTION ( 'NONE',  ( -1.000000000000000000, 0.000000000000000000, 0.000000000000000000 ) ) ;
#128 = EDGE_LOOP ( 'NONE', ( #1135, #26, #405, #317 ) ) ;
#129 = DIRECTION ( 'NONE',  ( 0.000000000000000000, 0.000000000000000000, -1.000000000000000000 ) ) ;
#130 = CARTESIAN_POINT ( 'NONE',  ( -24.89999999999999503, -12.20000000000000639, 12.69999999999999929 ) ) ;
#131 = CIRCLE ( 'NONE', #14, 0.5000000000000004441 ) ;
#132 = AXIS2_PLACEMENT_3D ( 'NONE', #820, #699, #932 ) ;
#133 = FACE_OUTER_BOUND ( 'NONE', #224, .T. ) ;
#134 = EDGE_LOOP ( 'NONE', ( #653, #1167, #612, #47 ) ) ;
#135 = AXIS2_PLACEMENT_3D ( 'NONE', #513, #696, #225 ) ;
#136 = CYLINDRICAL_SURFACE ( 'NONE', #480, 0.5000000000000004441 ) ;
#137 = AXIS2_PLACEMENT_3D ( 'NONE', #953, #541, #1036 ) ;
#138 = VERTEX_POINT ( 'NONE', #384 ) ;
#139 = EDGE_CURVE ( 'NONE', #554, #826, #888, .T. ) ;
#140 = LINE ( 'NONE', #621, #1117 ) ;
#141 = CARTESIAN_POINT ( 'NONE',  ( -23.16000000000000014, -2.540000000000004921, -3.499999999999999556 ) ) ;
#142 = EDGE_CURVE ( 'NONE', #55, #158, #964, .T. ) ;
#143 = CARTESIAN_POINT ( 'NONE',  ( 25.40000000000000213, -12.19999999999999574, 0.000000000000000000 ) ) ;
#144 = CARTESIAN_POINT ( 'NONE',  ( -25.39999999999999503, -12.70000000000000462, 0.000000000000000000 ) ) ;
#145 = ORIENTED_EDGE ( 'NONE', *, *, #1151, .T. ) ;
#146 = FACE_OUTER_BOUND ( 'NONE', #735, .T. ) ;
#147 = AXIS2_PLACEMENT_3D ( 'NONE', #208, #997, #798 ) ;
#148 = CIRCLE ( 'NONE', #882, 0.3000000000000085931 ) ;
#149 = AXIS2_PLACEMENT_3D ( 'NONE', #1202, #227, #238 ) ;
#150 = EDGE_LOOP ( 'NONE', ( #51, #723, #590, #681 ) ) ;
#151 = CYLINDRICAL_SURFACE ( 'NONE', #664, 0.5000000000000004441 ) ;
#152 = CIRCLE ( 'NONE', #1119, 0.3000000000000085931 ) ;
#153 = DIRECTION ( 'NONE',  ( -2.048885995248198400E-16, 1.000000000000000000, -0.000000000000000000 ) ) ;
#154 = AXIS2_PLACEMENT_3D ( 'NONE', #1239, #358, #1188 ) ;
#155 = ORIENTED_EDGE ( 'NONE', *, *, #1009, .F. ) ;
#156 = DIRECTION ( 'NONE',  ( 0.000000000000000000, 0.000000000000000000, 1.000000000000000000 ) ) ;
#157 = DIRECTION ( 'NONE',  ( 0.000000000000000000, 0.000000000000000000, -1.000000000000000000 ) ) ;
#158 = VERTEX_POINT ( 'NONE', #1179 ) ;
#159 = DIRECTION ( 'NONE',  ( -1.000000000000000000, 0.000000000000000000, 0.000000000000000000 ) ) ;
#160 = ADVANCED_FACE ( 'NONE', ( #570 ), #77, .T. ) ;
#161 =( NAMED_UNIT ( * ) SI_UNIT ( $, .STERADIAN. ) SOLID_ANGLE_UNIT ( ) );
#162 = ORIENTED_EDGE ( 'NONE', *, *, #786, .F. ) ;
#163 = CARTESIAN_POINT ( 'NONE',  ( 24.89999999999999503, 12.20000000000000639, 12.19999999999999929 ) ) ;
#164 = DIRECTION ( 'NONE',  ( -1.000000000000000000, 0.000000000000000000, 0.000000000000000000 ) ) ;
#165 = ORIENTED_EDGE ( 'NONE', *, *, #123, .T. ) ;
#166 = DIRECTION ( 'NONE',  ( 0.000000000000000000, 0.000000000000000000, -1.000000000000000000 ) ) ;
#167 = CARTESIAN_POINT ( 'NONE',  ( 22.86000000000000298, -10.15999999999999481, -3.300000000000000711 ) ) ;
#168 = ORIENTED_EDGE ( 'NONE', *, *, #1190, .T. ) ;
#169 = DIRECTION ( 'NONE',  ( 0.7071067811865515695, 5.828251248826602550E-17, 0.7071067811865435759 ) ) ;
#170 = CARTESIAN_POINT ( 'NONE',  ( -25.40000000000000213, 12.19999999999999574, 12.19999999999999929 ) ) ;
#171 = ORIENTED_EDGE ( 'NONE', *, *, #1195, .T. ) ;
#172 = CARTESIAN_POINT ( 'NONE',  ( -25.40000000000000213, 12.69999999999999396, 0.000000000000000000 ) ) ;
#173 = CIRCLE ( 'NONE', #1037, 0.2999999999999877764 ) ;
#174 = CARTESIAN_POINT ( 'NONE',  ( 22.36000000000000298, 0.2797142786467650688, 0.000000000000000000 ) ) ;
#175 = EDGE_LOOP ( 'NONE', ( #676, #860 ) ) ;
#176 = MECHANICAL_DESIGN_GEOMETRIC_PRESENTATION_REPRESENTATION (  '', ( #356 ), #692 ) ;
#177 = EDGE_CURVE ( 'NONE', #729, #1200, #856, .T. ) ;
#178 = EDGE_CURVE ( 'NONE', #775, #807, #92, .T. ) ;
#179 = EDGE_CURVE ( 'NONE', #328, #138, #302, .T. ) ;
#180 = DIRECTION ( 'NONE',  ( 1.000000000000000000, 1.707404996040165251E-16, 0.000000000000000000 ) ) ;
#181 = CARTESIAN_POINT ( 'NONE',  ( 22.85999999999999943, 0.2797142786467651243, 0.000000000000000000 ) ) ;
#182 = ORIENTED_EDGE ( 'NONE', *, *, #81, .T. ) ;
#183 = CARTESIAN_POINT ( 'NONE',  ( -22.85999999999999943, -7.620000000000004547, -3.499999999999999556 ) ) ;
#184 = DIRECTION ( 'NONE',  ( 0.000000000000000000, 0.000000000000000000, 1.000000000000000000 ) ) ;
#185 = VERTEX_POINT ( 'NONE', #1092 ) ;
#186 = CARTESIAN_POINT ( 'NONE',  ( -25.40000000000000213, 12.19999999999999574, 12.19999999999999929 ) ) ;
#187 = ADVANCED_FACE ( 'NONE', ( #315 ), #1017, .T. ) ;
#188 = ORIENTED_EDGE ( 'NONE', *, *, #1195, .F. ) ;
#189 = DIRECTION ( 'NONE',  ( -1.000000000000000000, -2.168404344971006896E-16, 0.000000000000000000 ) ) ;
#190 = CARTESIAN_POINT ( 'NONE',  ( -25.39999999999999503, -12.70000000000000462, 12.19999999999999929 ) ) ;
#191 = ORIENTED_EDGE ( 'NONE', *, *, #271, .T. ) ;
#192 = DIRECTION ( 'NONE',  ( -1.000000000000000000, 0.000000000000000000, 0.000000000000000000 ) ) ;
#193 = DIRECTION ( 'NONE',  ( 0.7071067811865515695, 5.828251248826602550E-17, 0.7071067811865435759 ) ) ;
#194 = EDGE_CURVE ( 'NONE', #892, #185, #605, .T. ) ;
#195 = DIRECTION ( 'NONE',  ( -1.000000000000000000, 0.000000000000000000, 0.000000000000000000 ) ) ;
#196 = DIRECTION ( 'NONE',  ( -1.000000000000000000, 0.000000000000000000, 0.000000000000000000 ) ) ;
#197 = ORIENTED_EDGE ( 'NONE', *, *, #539, .T. ) ;
#198 = AXIS2_PLACEMENT_3D ( 'NONE', #1155, #272, #1060 ) ;
#199 = VECTOR ( 'NONE', #184, 1000.000000000000000 ) ;
#200 = DIRECTION ( 'NONE',  ( 1.000000000000000000, 0.000000000000000000, 0.000000000000000000 ) ) ;
#201 = CONICAL_SURFACE ( 'NONE', #841, 0.3000000000000085931, 0.7853981633974532750 ) ;
#202 = EDGE_CURVE ( 'NONE', #552, #509, #704, .T. ) ;
#203 = ORIENTED_EDGE ( 'NONE', *, *, #894, .F. ) ;
#204 = CARTESIAN_POINT ( 'NONE',  ( -23.35999999999999943, -7.620000000000005436, -3.499999999999999556 ) ) ;
#205 = DIRECTION ( 'NONE',  ( -1.000000000000000000, 0.000000000000000000, 0.000000000000000000 ) ) ;
#206 = DIRECTION ( 'NONE',  ( 0.000000000000000000, 0.000000000000000000, -1.000000000000000000 ) ) ;
#207 = ORIENTED_EDGE ( 'NONE', *, *, #345, .T. ) ;
#208 = CARTESIAN_POINT ( 'NONE',  ( -22.85999999999999943, -2.540000000000004921, -3.499999999999999556 ) ) ;
#209 = DIRECTION ( 'NONE',  ( 1.000000000000000000, 2.048885995248198400E-16, 0.000000000000000000 ) ) ;
#210 = ORIENTED_EDGE ( 'NONE', *, *, #730, .T. ) ;
#211 = ORIENTED_EDGE ( 'NONE', *, *, #1151, .F. ) ;
#212 = LINE ( 'NONE', #599, #421 ) ;
#213 = ORIENTED_EDGE ( 'NONE', *, *, #177, .T. ) ;
#214 = DIRECTION ( 'NONE',  ( 0.000000000000000000, 0.000000000000000000, 1.000000000000000000 ) ) ;
#215 = CARTESIAN_POINT ( 'NONE',  ( 22.86000000000000298, -10.15999999999999481, 0.000000000000000000 ) ) ;
#216 = AXIS2_PLACEMENT_3D ( 'NONE', #399, #503, #386 ) ;
#217 = EDGE_CURVE ( 'NONE', #1200, #325, #926, .T. ) ;
#218 = ORIENTED_EDGE ( 'NONE', *, *, #579, .T. ) ;
#219 = CIRCLE ( 'NONE', #380, 0.3000000000000085931 ) ;
#220 = CIRCLE ( 'NONE', #1242, 0.5000000000000004441 ) ;
#221 = DIRECTION ( 'NONE',  ( 0.000000000000000000, 0.000000000000000000, 1.000000000000000000 ) ) ;
#222 = CONICAL_SURFACE ( 'NONE', #1079, 0.3000000000000085931, 0.7853981633974532750 ) ;
#223 = DIRECTION ( 'NONE',  ( 1.000000000000000000, 0.000000000000000000, 0.000000000000000000 ) ) ;
#224 = EDGE_LOOP ( 'NONE', ( #1111, #967, #1160, #706 ) ) ;
#225 = DIRECTION ( 'NONE',  ( -1.000000000000000000, 0.000000000000000000, 0.000000000000000000 ) ) ;
#226 = DIRECTION ( 'NONE',  ( -1.000000000000000000, -2.168404344971006896E-16, 0.000000000000000000 ) ) ;
#227 = DIRECTION ( 'NONE',  ( 0.000000000000000000, 0.000000000000000000, -1.000000000000000000 ) ) ;
#228 = EDGE_LOOP ( 'NONE', ( #1234, #378, #94, #1125 ) ) ;
#229 = LINE ( 'NONE', #1131, #1137 ) ;
#230 = ORIENTED_EDGE ( 'NONE', *, *, #458, .F. ) ;
#231 = CARTESIAN_POINT ( 'NONE',  ( 22.86000000000000298, -10.15999999999999481, -3.300000000000000711 ) ) ;
#232 = VERTEX_POINT ( 'NONE', #812 ) ;
#233 = CARTESIAN_POINT ( 'NONE',  ( -24.90000000000000213, 12.69999999999999396, 0.000000000000000000 ) ) ;
#234 = ORIENTED_EDGE ( 'NONE', *, *, #638, .F. ) ;
#235 = FACE_OUTER_BOUND ( 'NONE', #104, .T. ) ;
#236 = AXIS2_PLACEMENT_3D ( 'NONE', #316, #441, #327 ) ;
#237 = AXIS2_PLACEMENT_3D ( 'NONE', #983, #591, #787 ) ;
#238 = DIRECTION ( 'NONE',  ( 1.000000000000000000, 0.000000000000000000, 0.000000000000000000 ) ) ;
#239 = ORIENTED_EDGE ( 'NONE', *, *, #598, .F. ) ;
#240 = CIRCLE ( 'NONE', #303, 0.5000000000000004441 ) ;
#241 = CARTESIAN_POINT ( 'NONE',  ( -22.85999999999999943, 7.619999999999995666, -3.499999999999999556 ) ) ;
#242 = ADVANCED_FACE ( 'NONE', ( #112 ), #429, .T. ) ;
#243 = ORIENTED_EDGE ( 'NONE', *, *, #522, .F. ) ;
#244 = CARTESIAN_POINT ( 'NONE',  ( 23.35999999999999943, 0.2797142786467652353, -3.499999999999999556 ) ) ;
#245 = DIRECTION ( 'NONE',  ( -1.000000000000000000, 0.000000000000000000, 0.000000000000000000 ) ) ;
#246 = DIRECTION ( 'NONE',  ( 0.000000000000000000, 0.000000000000000000, 1.000000000000000000 ) ) ;
#247 = PLANE ( 'NONE',  #460 ) ;
#248 = ORIENTED_EDGE ( 'NONE', *, *, #178, .T. ) ;
#249 = ADVANCED_FACE ( 'NONE', ( #1191 ), #68, .T. ) ;
#250 = DIRECTION ( 'NONE',  ( 1.000000000000000000, 1.807003620809122370E-16, 0.000000000000000000 ) ) ;
#251 = AXIS2_PLACEMENT_3D ( 'NONE', #1259, #80, #366 ) ;
#252 = EDGE_CURVE ( 'NONE', #1096, #761, #323, .T. ) ;
#253 = AXIS2_PLACEMENT_3D ( 'NONE', #1098, #308, #330 ) ;
#254 = ORIENTED_EDGE ( 'NONE', *, *, #217, .T. ) ;
#255 = CARTESIAN_POINT ( 'NONE',  ( -24.89999999999999503, -12.20000000000000639, 12.19999999999999929 ) ) ;
#256 = SPHERICAL_SURFACE ( 'NONE', #53, 0.5000000000000000000 ) ;
#257 = ORIENTED_EDGE ( 'NONE', *, *, #730, .F. ) ;
#258 = CARTESIAN_POINT ( 'NONE',  ( 24.90000000000000213, -12.19999999999999574, 0.000000000000000000 ) ) ;
#259 = ORIENTED_EDGE ( 'NONE', *, *, #345, .F. ) ;
#260 = CARTESIAN_POINT ( 'NONE',  ( 24.89999999999999503, 12.70000000000000462, 0.000000000000000000 ) ) ;
#261 = CARTESIAN_POINT ( 'NONE',  ( -0.000000000000000000, 0.000000000000000000, 0.01269999999999999948 ) ) ;
#262 = DIRECTION ( 'NONE',  ( 1.000000000000000000, 2.168404344971006896E-16, 0.000000000000000000 ) ) ;
#263 = ORIENTED_EDGE ( 'NONE', *, *, #767, .T. ) ;
#264 = FACE_BOUND ( 'NONE', #59, .T. ) ;
#265 = EDGE_LOOP ( 'NONE', ( #961, #478, #1142, #581 ) ) ;
#266 = DIRECTION ( 'NONE',  ( 0.000000000000000000, 0.000000000000000000, 1.000000000000000000 ) ) ;
#267 = DIRECTION ( 'NONE',  ( 1.000000000000000000, 0.000000000000000000, 0.000000000000000000 ) ) ;
#268 = VERTEX_POINT ( 'NONE', #130 ) ;
#269 = EDGE_CURVE ( 'NONE', #121, #268, #212, .T. ) ;
#270 = ADVANCED_FACE ( 'NONE', ( #235 ), #713, .T. ) ;
#271 = EDGE_CURVE ( 'NONE', #1007, #4, #587, .T. ) ;
#272 = DIRECTION ( 'NONE',  ( 0.000000000000000000, 0.000000000000000000, -1.000000000000000000 ) ) ;
#273 = CARTESIAN_POINT ( 'NONE',  ( 22.86000000000000298, -10.15999999999999481, -3.499999999999999556 ) ) ;
#274 = MANIFOLD_SOLID_BREP ( 'NONE', #602 ) ;
#275 = VECTOR ( 'NONE', #1053, 1000.000000000000000 ) ;
#276 = CIRCLE ( 'NONE', #1162, 0.5000000000000004441 ) ;
#277 = EDGE_LOOP ( 'NONE', ( #1030, #559, #392, #1045 ) ) ;
#278 = PLANE ( 'NONE',  #319 ) ;
#279 = CIRCLE ( 'NONE', #1002, 0.5000000000000004441 ) ;
#280 = CARTESIAN_POINT ( 'NONE',  ( -23.35999999999999943, -2.540000000000004921, -3.499999999999999556 ) ) ;
#281 = ORIENTED_EDGE ( 'NONE', *, *, #525, .F. ) ;
#282 = VECTOR ( 'NONE', #630, 1000.000000000000000 ) ;
#283 = EDGE_CURVE ( 'NONE', #657, #102, #519, .T. ) ;
#284 = CARTESIAN_POINT ( 'NONE',  ( 22.36000000000000654, -10.15999999999999481, 0.000000000000000000 ) ) ;
#285 = ORIENTED_EDGE ( 'NONE', *, *, #726, .F. ) ;
#286 = DIRECTION ( 'NONE',  ( 0.000000000000000000, 0.000000000000000000, 1.000000000000000000 ) ) ;
#287 = CARTESIAN_POINT ( 'NONE',  ( 22.85999999999999943, 0.2797142786467651243, -3.300000000000000711 ) ) ;
#288 = EDGE_LOOP ( 'NONE', ( #248, #116, #63, #622 ) ) ;
#289 = ADVANCED_FACE ( 'NONE', ( #1148 ), #440, .T. ) ;
#290 = CYLINDRICAL_SURFACE ( 'NONE', #381, 0.5000000000000004441 ) ;
#291 = ORIENTED_EDGE ( 'NONE', *, *, #469, .F. ) ;
#292 = CARTESIAN_POINT ( 'NONE',  ( 24.89999999999999503, 12.20000000000000639, 12.19999999999999929 ) ) ;
#293 = CARTESIAN_POINT ( 'NONE',  ( -22.85999999999999943, 7.619999999999995666, -3.499999999999999556 ) ) ;
#294 = VERTEX_POINT ( 'NONE', #954 ) ;
#295 = EDGE_CURVE ( 'NONE', #803, #807, #62, .T. ) ;
#296 = DIRECTION ( 'NONE',  ( 1.000000000000000000, 0.000000000000000000, 0.000000000000000000 ) ) ;
#297 = PRODUCT_DEFINITION_CONTEXT ( 'detailed design', #1123, 'design' ) ;
#298 = ORIENTED_EDGE ( 'NONE', *, *, #1089, .F. ) ;
#299 = CARTESIAN_POINT ( 'NONE',  ( 23.35999999999999943, 0.2797142786467652353, 0.000000000000000000 ) ) ;
#300 = DIRECTION ( 'NONE',  ( 1.000000000000000000, 0.000000000000000000, 0.000000000000000000 ) ) ;
#301 = AXIS2_PLACEMENT_3D ( 'NONE', #689, #1176, #310 ) ;
#302 = CIRCLE ( 'NONE', #546, 0.5000000000000004441 ) ;
#303 = AXIS2_PLACEMENT_3D ( 'NONE', #994, #106, #810 ) ;
#304 = CARTESIAN_POINT ( 'NONE',  ( -22.85999999999999943, 7.619999999999995666, 0.000000000000000000 ) ) ;
#305 = ORIENTED_EDGE ( 'NONE', *, *, #82, .F. ) ;
#306 = CARTESIAN_POINT ( 'NONE',  ( 22.85999999999999588, 10.43971427864676649, -3.499999999999999556 ) ) ;
#307 = CARTESIAN_POINT ( 'NONE',  ( -22.55999999999999872, 7.619999999999995666, -3.499999999999999556 ) ) ;
#308 = DIRECTION ( 'NONE',  ( 0.000000000000000000, 0.000000000000000000, 1.000000000000000000 ) ) ;
#309 = EDGE_LOOP ( 'NONE', ( #1213, #824, #428, #1229 ) ) ;
#310 = DIRECTION ( 'NONE',  ( 1.000000000000000000, 0.000000000000000000, 0.000000000000000000 ) ) ;
#311 = DIRECTION ( 'NONE',  ( 0.000000000000000000, 0.000000000000000000, -1.000000000000000000 ) ) ;
#312 = EDGE_CURVE ( 'NONE', #1007, #565, #456, .T. ) ;
#313 = EDGE_CURVE ( 'NONE', #826, #1071, #1059, .T. ) ;
#314 = ADVANCED_FACE ( 'NONE', ( #580 ), #70, .T. ) ;
#315 = FACE_OUTER_BOUND ( 'NONE', #1050, .T. ) ;
#316 = CARTESIAN_POINT ( 'NONE',  ( -22.85999999999999943, 7.619999999999995666, -3.300000000000000711 ) ) ;
#317 = ORIENTED_EDGE ( 'NONE', *, *, #727, .T. ) ;
#318 = DIRECTION ( 'NONE',  ( 0.000000000000000000, 0.000000000000000000, -1.000000000000000000 ) ) ;
#319 = AXIS2_PLACEMENT_3D ( 'NONE', #172, #551, #876 ) ;
#320 = AXIS2_PLACEMENT_3D ( 'NONE', #889, #156, #1236 ) ;
#321 = ORIENTED_EDGE ( 'NONE', *, *, #142, .T. ) ;
#322 = VECTOR ( 'NONE', #614, 1000.000000000000000 ) ;
#323 = LINE ( 'NONE', #917, #322 ) ;
#324 = FACE_OUTER_BOUND ( 'NONE', #277, .T. ) ;
#325 = VERTEX_POINT ( 'NONE', #1241 ) ;
#326 = DIRECTION ( 'NONE',  ( 0.000000000000000000, 0.000000000000000000, 1.000000000000000000 ) ) ;
#327 = DIRECTION ( 'NONE',  ( 1.000000000000000000, 0.000000000000000000, 0.000000000000000000 ) ) ;
#328 = VERTEX_POINT ( 'NONE', #753 ) ;
#329 = CARTESIAN_POINT ( 'NONE',  ( 25.40000000000000213, -12.69999999999999396, 12.19999999999999929 ) ) ;
#330 = DIRECTION ( 'NONE',  ( -1.000000000000000000, -1.807003620809122370E-16, 0.000000000000000000 ) ) ;
#331 = DIRECTION ( 'NONE',  ( 0.000000000000000000, 0.000000000000000000, 1.000000000000000000 ) ) ;
#332 = ORIENTED_EDGE ( 'NONE', *, *, #829, .F. ) ;
#333 = EDGE_CURVE ( 'NONE', #552, #486, #152, .T. ) ;
#334 = LINE ( 'NONE', #1209, #549 ) ;
#335 = VERTEX_POINT ( 'NONE', #174 ) ;
#336 = CIRCLE ( 'NONE', #147, 0.2999999999999877764 ) ;
#337 = AXIS2_PLACEMENT_3D ( 'NONE', #1156, #644, #944 ) ;
#338 = CARTESIAN_POINT ( 'NONE',  ( 22.85999999999999588, 10.43971427864676649, -3.499999999999999556 ) ) ;
#339 = VECTOR ( 'NONE', #800, 1000.000000000000000 ) ;
#340 = DIRECTION ( 'NONE',  ( 1.000000000000000000, 2.048885995248198400E-16, 0.000000000000000000 ) ) ;
#341 = ORIENTED_EDGE ( 'NONE', *, *, #930, .T. ) ;
#342 = CARTESIAN_POINT ( 'NONE',  ( 22.85999999999999588, 10.43971427864676649, -3.499999999999999556 ) ) ;
#343 = ORIENTED_EDGE ( 'NONE', *, *, #1090, .F. ) ;
#344 = LINE ( 'NONE', #37, #282 ) ;
#345 = EDGE_CURVE ( 'NONE', #1146, #1154, #16, .T. ) ;
#346 = EDGE_CURVE ( 'NONE', #466, #1007, #473, .T. ) ;
#347 = EDGE_LOOP ( 'NONE', ( #230, #291 ) ) ;
#348 = FACE_OUTER_BOUND ( 'NONE', #1088, .T. ) ;
#349 = ORIENTED_EDGE ( 'NONE', *, *, #522, .T. ) ;
#350 = CARTESIAN_POINT ( 'NONE',  ( 22.36000000000000298, 0.2797142786467650688, -3.300000000000000711 ) ) ;
#351 = CYLINDRICAL_SURFACE ( 'NONE', #21, 0.5000000000000004441 ) ;
#352 = DIRECTION ( 'NONE',  ( 0.000000000000000000, 0.000000000000000000, 1.000000000000000000 ) ) ;
#353 = VERTEX_POINT ( 'NONE', #872 ) ;
#354 = DIRECTION ( 'NONE',  ( 1.000000000000000000, 2.048885995248198400E-16, 0.000000000000000000 ) ) ;
#355 = AXIS2_PLACEMENT_3D ( 'NONE', #1122, #326, #245 ) ;
#356 = STYLED_ITEM ( 'NONE', ( #1008 ), #274 ) ;
#357 = EDGE_LOOP ( 'NONE', ( #470, #1251, #1249, #203 ) ) ;
#358 = DIRECTION ( 'NONE',  ( 0.000000000000000000, 0.000000000000000000, -1.000000000000000000 ) ) ;
#359 = AXIS2_PLACEMENT_3D ( 'NONE', #287, #561, #262 ) ;
#360 =( LENGTH_UNIT ( ) NAMED_UNIT ( * ) SI_UNIT ( .MILLI., .METRE. ) );
#361 = DIRECTION ( 'NONE',  ( 1.000000000000000000, 0.000000000000000000, 0.000000000000000000 ) ) ;
#362 = ORIENTED_EDGE ( 'NONE', *, *, #38, .T. ) ;
#363 = AXIS2_PLACEMENT_3D ( 'NONE', #261, #764, #472 ) ;
#364 = DIRECTION ( 'NONE',  ( 0.000000000000000000, 0.000000000000000000, 1.000000000000000000 ) ) ;
#365 = ORIENTED_EDGE ( 'NONE', *, *, #947, .T. ) ;
#366 = DIRECTION ( 'NONE',  ( 1.000000000000000000, 0.000000000000000000, 0.000000000000000000 ) ) ;
#367 = EDGE_CURVE ( 'NONE', #232, #268, #710, .T. ) ;
#368 = DIRECTION ( 'NONE',  ( -0.000000000000000000, 0.000000000000000000, 1.000000000000000000 ) ) ;
#369 = ORIENTED_EDGE ( 'NONE', *, *, #139, .F. ) ;
#370 = DIRECTION ( 'NONE',  ( 0.000000000000000000, 0.000000000000000000, -1.000000000000000000 ) ) ;
#371 = ORIENTED_EDGE ( 'NONE', *, *, #786, .T. ) ;
#372 = DIRECTION ( 'NONE',  ( 0.000000000000000000, 0.000000000000000000, 1.000000000000000000 ) ) ;
#373 = EDGE_CURVE ( 'NONE', #729, #928, #1233, .T. ) ;
#374 = DIRECTION ( 'NONE',  ( -2.048885995248198400E-16, 1.000000000000000000, -0.000000000000000000 ) ) ;
#375 = ORIENTED_EDGE ( 'NONE', *, *, #673, .F. ) ;
#376 = FACE_OUTER_BOUND ( 'NONE', #757, .T. ) ;
#377 = AXIS2_PLACEMENT_3D ( 'NONE', #292, #885, #695 ) ;
#378 = ORIENTED_EDGE ( 'NONE', *, *, #1032, .T. ) ;
#379 = DIRECTION ( 'NONE',  ( 0.000000000000000000, 0.000000000000000000, -1.000000000000000000 ) ) ;
#380 = AXIS2_PLACEMENT_3D ( 'NONE', #1207, #534, #732 ) ;
#381 = AXIS2_PLACEMENT_3D ( 'NONE', #771, #693, #488 ) ;
#382 = DIRECTION ( 'NONE',  ( 0.000000000000000000, 0.000000000000000000, -1.000000000000000000 ) ) ;
#383 = VECTOR ( 'NONE', #596, 1000.000000000000000 ) ;
#384 = CARTESIAN_POINT ( 'NONE',  ( 23.35999999999999588, 10.43971427864676649, 0.000000000000000000 ) ) ;
#385 = CYLINDRICAL_SURFACE ( 'NONE', #108, 0.5000000000000004441 ) ;
#386 = DIRECTION ( 'NONE',  ( 1.000000000000000000, 0.000000000000000000, 0.000000000000000000 ) ) ;
#387 = CARTESIAN_POINT ( 'NONE',  ( -23.35999999999999943, 7.619999999999994778, -3.300000000000000711 ) ) ;
#388 = EDGE_LOOP ( 'NONE', ( #595, #188 ) ) ;
#389 = EDGE_CURVE ( 'NONE', #521, #1069, #547, .T. ) ;
#390 = EDGE_CURVE ( 'NONE', #826, #806, #778, .T. ) ;
#391 = DIRECTION ( 'NONE',  ( 1.000000000000000000, 0.000000000000000000, 0.000000000000000000 ) ) ;
#392 = ORIENTED_EDGE ( 'NONE', *, *, #1097, .F. ) ;
#393 = CARTESIAN_POINT ( 'NONE',  ( 22.85999999999999943, 0.2797142786467651243, -3.499999999999999556 ) ) ;
#394 = DIRECTION ( 'NONE',  ( 0.000000000000000000, 0.000000000000000000, 1.000000000000000000 ) ) ;
#395 = VERTEX_POINT ( 'NONE', #1169 ) ;
#396 = ORIENTED_EDGE ( 'NONE', *, *, #1206, .F. ) ;
#397 = CARTESIAN_POINT ( 'NONE',  ( 22.85999999999999943, 0.2797142786467651243, -3.499999999999999556 ) ) ;
#398 = DIRECTION ( 'NONE',  ( 1.000000000000000000, 2.168404344971006896E-16, 0.000000000000000000 ) ) ;
#399 = CARTESIAN_POINT ( 'NONE',  ( -22.85999999999999943, -2.540000000000004921, -3.300000000000000711 ) ) ;
#400 = FACE_OUTER_BOUND ( 'NONE', #265, .T. ) ;
#401 = VECTOR ( 'NONE', #415, 1000.000000000000000 ) ;
#402 = AXIS2_PLACEMENT_3D ( 'NONE', #215, #89, #300 ) ;
#403 = DIRECTION ( 'NONE',  ( 1.000000000000000000, 0.000000000000000000, 0.000000000000000000 ) ) ;
#404 = PRODUCT_DEFINITION_FORMATION_WITH_SPECIFIED_SOURCE ( 'ไป', '', #122, .NOT_KNOWN. ) ;
#405 = ORIENTED_EDGE ( 'NONE', *, *, #1004, .T. ) ;
#406 = DIRECTION ( 'NONE',  ( 0.000000000000000000, 0.000000000000000000, -1.000000000000000000 ) ) ;
#407 = CARTESIAN_POINT ( 'NONE',  ( -22.85999999999999943, -2.540000000000004921, -3.499999999999999556 ) ) ;
#408 = EDGE_CURVE ( 'NONE', #792, #736, #883, .T. ) ;
#409 = ORIENTED_EDGE ( 'NONE', *, *, #539, .F. ) ;
#410 = DIRECTION ( 'NONE',  ( -1.000000000000000000, 0.000000000000000000, 0.000000000000000000 ) ) ;
#411 = DIRECTION ( 'NONE',  ( 0.000000000000000000, 0.000000000000000000, 1.000000000000000000 ) ) ;
#412 = DIRECTION ( 'NONE',  ( 0.000000000000000000, 0.000000000000000000, 1.000000000000000000 ) ) ;
#413 = ORIENTED_EDGE ( 'NONE', *, *, #1048, .F. ) ;
#414 = DIRECTION ( 'NONE',  ( 0.000000000000000000, 0.000000000000000000, 1.000000000000000000 ) ) ;
#415 = DIRECTION ( 'NONE',  ( 0.000000000000000000, 0.000000000000000000, 1.000000000000000000 ) ) ;
#416 = ORIENTED_EDGE ( 'NONE', *, *, #194, .T. ) ;
#417 = DIRECTION ( 'NONE',  ( 0.000000000000000000, 0.000000000000000000, 1.000000000000000000 ) ) ;
#418 = CIRCLE ( 'NONE', #1263, 0.5000000000000004441 ) ;
#419 = ORIENTED_EDGE ( 'NONE', *, *, #633, .T. ) ;
#420 = AXIS2_PLACEMENT_3D ( 'NONE', #64, #364, #1041 ) ;
#421 = VECTOR ( 'NONE', #511, 1000.000000000000000 ) ;
#422 = DIRECTION ( 'NONE',  ( -0.7071067811865515695, -1.448781181118157608E-16, 0.7071067811865435759 ) ) ;
#423 = DIRECTION ( 'NONE',  ( 0.000000000000000000, 0.000000000000000000, -1.000000000000000000 ) ) ;
#424 = ORIENTED_EDGE ( 'NONE', *, *, #780, .F. ) ;
#425 = AXIS2_PLACEMENT_3D ( 'NONE', #258, #652, #956 ) ;
#426 = DIRECTION ( 'NONE',  ( -1.000000000000000000, 0.000000000000000000, 0.000000000000000000 ) ) ;
#427 = ADVANCED_FACE ( 'NONE', ( #1140 ), #1248, .T. ) ;
#428 = ORIENTED_EDGE ( 'NONE', *, *, #767, .F. ) ;
#429 = CYLINDRICAL_SURFACE ( 'NONE', #132, 0.5000000000000004441 ) ;
#430 = ADVANCED_FACE ( 'NONE', ( #760 ), #256, .T. ) ;
#431 = CARTESIAN_POINT ( 'NONE',  ( -2.499640914202801979E-15, 12.20000000000000107, 12.69999999999999929 ) ) ;
#432 = ORIENTED_EDGE ( 'NONE', *, *, #1097, .T. ) ;
#433 = CARTESIAN_POINT ( 'NONE',  ( -24.90000000000000213, 12.19999999999999574, 0.000000000000000000 ) ) ;
#434 = CARTESIAN_POINT ( 'NONE',  ( -22.85999999999999943, 7.619999999999995666, -3.499999999999999556 ) ) ;
#435 = CARTESIAN_POINT ( 'NONE',  ( -24.89999999999999503, -12.20000000000000639, 12.19999999999999929 ) ) ;
#436 = FACE_OUTER_BOUND ( 'NONE', #996, .T. ) ;
#437 = CONICAL_SURFACE ( 'NONE', #355, 0.2999999999999877764, 0.7853981633974532750 ) ;
#438 = VECTOR ( 'NONE', #979, 1000.000000000000000 ) ;
#439 = AXIS2_PLACEMENT_3D ( 'NONE', #117, #414, #226 ) ;
#440 = CONICAL_SURFACE ( 'NONE', #1164, 0.2999999999999877764, 0.7853981633974532750 ) ;
#441 = DIRECTION ( 'NONE',  ( 0.000000000000000000, 0.000000000000000000, 1.000000000000000000 ) ) ;
#442 = ADVANCED_FACE ( 'NONE', ( #568 ), #839, .T. ) ;
#443 = CIRCLE ( 'NONE', #301, 0.3000000000000085931 ) ;
#444 = EDGE_CURVE ( 'NONE', #1146, #121, #463, .T. ) ;
#445 = ORIENTED_EDGE ( 'NONE', *, *, #333, .T. ) ;
#446 = FACE_OUTER_BOUND ( 'NONE', #838, .T. ) ;
#447 = LINE ( 'NONE', #759, #862 ) ;
#448 = ADVANCED_FACE ( 'NONE', ( #1095 ), #222, .T. ) ;
#449 = VERTEX_POINT ( 'NONE', #911 ) ;
#450 = DIRECTION ( 'NONE',  ( 1.000000000000000000, 2.048885995248198400E-16, 0.000000000000000000 ) ) ;
#451 = ORIENTED_EDGE ( 'NONE', *, *, #31, .F. ) ;
#452 = PLANE ( 'NONE',  #1240 ) ;
#453 = EDGE_LOOP ( 'NONE', ( #1231, #1039, #629, #243 ) ) ;
#454 = DIRECTION ( 'NONE',  ( 1.000000000000000000, 0.000000000000000000, 0.000000000000000000 ) ) ;
#455 = CARTESIAN_POINT ( 'NONE',  ( 23.35999999999999588, 10.43971427864676649, -3.300000000000000711 ) ) ;
#456 = LINE ( 'NONE', #190, #1005 ) ;
#457 = VERTEX_POINT ( 'NONE', #25 ) ;
#458 = EDGE_CURVE ( 'NONE', #97, #806, #567, .T. ) ;
#459 = FACE_BOUND ( 'NONE', #745, .T. ) ;
#460 = AXIS2_PLACEMENT_3D ( 'NONE', #241, #737, #30 ) ;
#461 = VECTOR ( 'NONE', #794, 1000.000000000000000 ) ;
#462 = CARTESIAN_POINT ( 'NONE',  ( -24.90000000000000213, 12.19999999999999574, 12.19999999999999929 ) ) ;
#463 = CIRCLE ( 'NONE', #774, 0.5000000000000004441 ) ;
#464 = CARTESIAN_POINT ( 'NONE',  ( -24.89999999999999503, -12.70000000000000462, 12.19999999999999929 ) ) ;
#465 = DIRECTION ( 'NONE',  ( 0.000000000000000000, 0.000000000000000000, 1.000000000000000000 ) ) ;
#466 = VERTEX_POINT ( 'NONE', #988 ) ;
#467 = CARTESIAN_POINT ( 'NONE',  ( 2.083034095169001912E-15, -12.20000000000000107, 12.69999999999999929 ) ) ;
#468 = PLANE ( 'NONE',  #13 ) ;
#469 = EDGE_CURVE ( 'NONE', #806, #97, #240, .T. ) ;
#470 = ORIENTED_EDGE ( 'NONE', *, *, #673, .T. ) ;
#471 = CARTESIAN_POINT ( 'NONE',  ( 25.40000000000000213, -12.69999999999999396, 0.000000000000000000 ) ) ;
#472 = DIRECTION ( 'NONE',  ( 1.000000000000000000, 2.048885995248198400E-16, -0.000000000000000000 ) ) ;
#473 = LINE ( 'NONE', #864, #857 ) ;
#474 = ORIENTED_EDGE ( 'NONE', *, *, #346, .F. ) ;
#475 = CARTESIAN_POINT ( 'NONE',  ( 24.89999999999999503, 12.20000000000000639, 0.000000000000000000 ) ) ;
#476 = CARTESIAN_POINT ( 'NONE',  ( 22.85999999999999588, 10.43971427864676649, -3.499999999999999556 ) ) ;
#477 = FACE_OUTER_BOUND ( 'NONE', #913, .T. ) ;
#478 = ORIENTED_EDGE ( 'NONE', *, *, #390, .T. ) ;
#479 = CARTESIAN_POINT ( 'NONE',  ( 24.89999999999999503, 12.70000000000000462, 0.000000000000000000 ) ) ;
#480 = AXIS2_PLACEMENT_3D ( 'NONE', #433, #1118, #716 ) ;
#481 = EDGE_LOOP ( 'NONE', ( #536, #846, #671, #572 ) ) ;
#482 = CARTESIAN_POINT ( 'NONE',  ( -25.39999999999999503, -12.70000000000000462, 12.19999999999999929 ) ) ;
#483 = AXIS2_PLACEMENT_3D ( 'NONE', #1010, #120, #127 ) ;
#484 = DIRECTION ( 'NONE',  ( 0.000000000000000000, 0.000000000000000000, 1.000000000000000000 ) ) ;
#485 = AXIS2_PLACEMENT_3D ( 'NONE', #407, #1103, #493 ) ;
#486 = VERTEX_POINT ( 'NONE', #307 ) ;
#487 = ADVANCED_FACE ( 'NONE', ( #400 ), #1177, .T. ) ;
#488 = DIRECTION ( 'NONE',  ( -1.000000000000000000, 0.000000000000000000, 0.000000000000000000 ) ) ;
#489 = UNCERTAINTY_MEASURE_WITH_UNIT (LENGTH_MEASURE( 1.000000000000000082E-05 ), #360, 'distance_accuracy_value', 'NONE');
#490 = ORIENTED_EDGE ( 'NONE', *, *, #118, .F. ) ;
#491 = CARTESIAN_POINT ( 'NONE',  ( -23.16000000000000014, -7.620000000000004547, -3.499999999999999556 ) ) ;
#492 = EDGE_CURVE ( 'NONE', #1146, #185, #101, .T. ) ;
#493 = DIRECTION ( 'NONE',  ( -1.000000000000000000, 0.000000000000000000, 0.000000000000000000 ) ) ;
#494 = ORIENTED_EDGE ( 'NONE', *, *, #868, .F. ) ;
#495 = CARTESIAN_POINT ( 'NONE',  ( 24.90000000000000213, -12.19999999999999574, 12.19999999999999929 ) ) ;
#496 = VERTEX_POINT ( 'NONE', #1086 ) ;
#497 = CARTESIAN_POINT ( 'NONE',  ( 22.85999999999999943, 0.2797142786467651243, 0.000000000000000000 ) ) ;
#498 = LINE ( 'NONE', #12, #1143 ) ;
#499 = ADVANCED_FACE ( 'NONE', ( #898 ), #708, .T. ) ;
#500 = DIRECTION ( 'NONE',  ( 0.7071067811865515695, 5.828251248826602550E-17, 0.7071067811865435759 ) ) ;
#501 = EDGE_CURVE ( 'NONE', #529, #232, #498, .T. ) ;
#502 = ORIENTED_EDGE ( 'NONE', *, *, #908, .F. ) ;
#503 = DIRECTION ( 'NONE',  ( 0.000000000000000000, 0.000000000000000000, 1.000000000000000000 ) ) ;
#504 = EDGE_CURVE ( 'NONE', #486, #552, #670, .T. ) ;
#505 = CIRCLE ( 'NONE', #377, 0.5000000000000004441 ) ;
#506 = VECTOR ( 'NONE', #193, 1000.000000000000000 ) ;
#507 = CARTESIAN_POINT ( 'NONE',  ( -22.85999999999999943, -7.620000000000004547, -3.499999999999999556 ) ) ;
#508 = AXIS2_PLACEMENT_3D ( 'NONE', #972, #553, #60 ) ;
#509 = VERTEX_POINT ( 'NONE', #387 ) ;
#510 = VECTOR ( 'NONE', #969, 1000.000000000000000 ) ;
#511 = DIRECTION ( 'NONE',  ( -6.829619984160662977E-17, -1.000000000000000000, 0.000000000000000000 ) ) ;
#512 = LINE ( 'NONE', #491, #564 ) ;
#513 = CARTESIAN_POINT ( 'NONE',  ( -22.85999999999999943, 7.619999999999995666, -3.499999999999999556 ) ) ;
#514 = DIRECTION ( 'NONE',  ( 0.000000000000000000, 0.000000000000000000, 1.000000000000000000 ) ) ;
#515 = PRODUCT_DEFINITION_SHAPE ( 'NONE', 'NONE',  #1078 ) ;
#516 = DIRECTION ( 'NONE',  ( 0.000000000000000000, 0.000000000000000000, 1.000000000000000000 ) ) ;
#517 = ORIENTED_EDGE ( 'NONE', *, *, #367, .F. ) ;
#518 = CARTESIAN_POINT ( 'NONE',  ( 22.85999999999999588, 10.43971427864676649, -3.499999999999999556 ) ) ;
#519 = LINE ( 'NONE', #877, #510 ) ;
#520 = CYLINDRICAL_SURFACE ( 'NONE', #337, 0.5000000000000004441 ) ;
#521 = VERTEX_POINT ( 'NONE', #683 ) ;
#522 = EDGE_CURVE ( 'NONE', #807, #775, #1040, .T. ) ;
#523 = DIRECTION ( 'NONE',  ( 0.000000000000000000, 0.000000000000000000, 1.000000000000000000 ) ) ;
#524 = VECTOR ( 'NONE', #523, 1000.000000000000000 ) ;
#525 = EDGE_CURVE ( 'NONE', #807, #138, #886, .T. ) ;
#526 = CARTESIAN_POINT ( 'NONE',  ( -23.16000000000000014, 7.619999999999995666, -3.499999999999999556 ) ) ;
#527 = VECTOR ( 'NONE', #1212, 1000.000000000000000 ) ;
#528 = DIRECTION ( 'NONE',  ( 6.829619984160662977E-17, 1.000000000000000000, -0.000000000000000000 ) ) ;
#529 = VERTEX_POINT ( 'NONE', #905 ) ;
#530 = AXIS2_PLACEMENT_3D ( 'NONE', #743, #1247, #1228 ) ;
#531 = CARTESIAN_POINT ( 'NONE',  ( 22.35999999999999943, 10.43971427864676649, -3.499999999999999556 ) ) ;
#532 = EDGE_LOOP ( 'NONE', ( #332, #84 ) ) ;
#533 = DIRECTION ( 'NONE',  ( 0.000000000000000000, 0.000000000000000000, 1.000000000000000000 ) ) ;
#534 = DIRECTION ( 'NONE',  ( 0.000000000000000000, 0.000000000000000000, -1.000000000000000000 ) ) ;
#535 = DIRECTION ( 'NONE',  ( 6.829619984160662977E-17, 1.000000000000000000, -0.000000000000000000 ) ) ;
#536 = ORIENTED_EDGE ( 'NONE', *, *, #1032, .F. ) ;
#537 = DIRECTION ( 'NONE',  ( -0.000000000000000000, 0.000000000000000000, 1.000000000000000000 ) ) ;
#538 = ADVANCED_FACE ( 'NONE', ( #96 ), #784, .T. ) ;
#539 = EDGE_CURVE ( 'NONE', #854, #892, #588, .T. ) ;
#540 = DIRECTION ( 'NONE',  ( -6.829619984160662977E-17, -1.000000000000000000, 0.000000000000000000 ) ) ;
#541 = DIRECTION ( 'NONE',  ( 0.000000000000000000, 0.000000000000000000, 1.000000000000000000 ) ) ;
#542 = ORIENTED_EDGE ( 'NONE', *, *, #1087, .F. ) ;
#543 = VECTOR ( 'NONE', #1227, 999.9999999999998863 ) ;
#544 = VECTOR ( 'NONE', #180, 1000.000000000000000 ) ;
#545 = VECTOR ( 'NONE', #1018, 1000.000000000000000 ) ;
#546 = AXIS2_PLACEMENT_3D ( 'NONE', #575, #991, #200 ) ;
#547 = CIRCLE ( 'NONE', #1222, 0.5000000000000004441 ) ;
#548 = FACE_OUTER_BOUND ( 'NONE', #1183, .T. ) ;
#549 = VECTOR ( 'NONE', #1026, 999.9999999999998863 ) ;
#550 = VERTEX_POINT ( 'NONE', #791 ) ;
#551 = DIRECTION ( 'NONE',  ( 2.048885995248198400E-16, -1.000000000000000000, 0.000000000000000000 ) ) ;
#552 = VERTEX_POINT ( 'NONE', #691 ) ;
#553 = DIRECTION ( 'NONE',  ( 0.000000000000000000, 0.000000000000000000, -1.000000000000000000 ) ) ;
#554 = VERTEX_POINT ( 'NONE', #1082 ) ;
#555 = CARTESIAN_POINT ( 'NONE',  ( -22.85999999999999943, -2.540000000000004921, 0.000000000000000000 ) ) ;
#556 = ADVANCED_FACE ( 'NONE', ( #1182 ), #819, .T. ) ;
#557 = ORIENTED_EDGE ( 'NONE', *, *, #834, .T. ) ;
#558 = FACE_BOUND ( 'NONE', #532, .T. ) ;
#559 = ORIENTED_EDGE ( 'NONE', *, *, #312, .F. ) ;
#560 = DIRECTION ( 'NONE',  ( 1.000000000000000000, 0.000000000000000000, 0.000000000000000000 ) ) ;
#561 = DIRECTION ( 'NONE',  ( 0.000000000000000000, 0.000000000000000000, 1.000000000000000000 ) ) ;
#562 = ORIENTED_EDGE ( 'NONE', *, *, #868, .T. ) ;
#563 = PLANE ( 'NONE',  #508 ) ;
#564 = VECTOR ( 'NONE', #910, 1000.000000000000000 ) ;
#565 = VERTEX_POINT ( 'NONE', #720 ) ;
#566 = CARTESIAN_POINT ( 'NONE',  ( -23.35999999999999943, -2.540000000000004921, -3.300000000000000711 ) ) ;
#567 = CIRCLE ( 'NONE', #402, 0.5000000000000004441 ) ;
#568 = FACE_OUTER_BOUND ( 'NONE', #1258, .T. ) ;
#569 = ORIENTED_EDGE ( 'NONE', *, *, #1217, .T. ) ;
#570 = FACE_OUTER_BOUND ( 'NONE', #1170, .T. ) ;
#571 = CARTESIAN_POINT ( 'NONE',  ( 25.40000000000000213, -12.69999999999999396, 0.000000000000000000 ) ) ;
#572 = ORIENTED_EDGE ( 'NONE', *, *, #893, .F. ) ;
#573 = CARTESIAN_POINT ( 'NONE',  ( 23.36000000000000298, -10.15999999999999481, 0.000000000000000000 ) ) ;
#574 = ORIENTED_EDGE ( 'NONE', *, *, #894, .T. ) ;
#575 = CARTESIAN_POINT ( 'NONE',  ( 22.85999999999999588, 10.43971427864676649, 0.000000000000000000 ) ) ;
#576 = EDGE_CURVE ( 'NONE', #792, #335, #344, .T. ) ;
#577 = LINE ( 'NONE', #978, #506 ) ;
#578 = CARTESIAN_POINT ( 'NONE',  ( 22.85999999999999588, 10.43971427864676649, -3.499999999999999556 ) ) ;
#579 = EDGE_CURVE ( 'NONE', #892, #4, #624, .T. ) ;
#580 = FACE_OUTER_BOUND ( 'NONE', #1243, .T. ) ;
#581 = ORIENTED_EDGE ( 'NONE', *, *, #1128, .F. ) ;
#582 = CARTESIAN_POINT ( 'NONE',  ( -22.85999999999999943, -2.540000000000004921, -3.300000000000000711 ) ) ;
#583 = AXIS2_PLACEMENT_3D ( 'NONE', #462, #74, #266 ) ;
#584 = EDGE_LOOP ( 'NONE', ( #343, #86, #259, #234 ) ) ;
#585 = DIRECTION ( 'NONE',  ( 0.000000000000000000, 0.000000000000000000, 1.000000000000000000 ) ) ;
#586 = VECTOR ( 'NONE', #78, 1000.000000000000000 ) ;
#587 = CIRCLE ( 'NONE', #34, 0.5000000000000004441 ) ;
#588 = LINE ( 'NONE', #6, #840 ) ;
#589 = AXIS2_PLACEMENT_3D ( 'NONE', #167, #853, #650 ) ;
#590 = ORIENTED_EDGE ( 'NONE', *, *, #178, .F. ) ;
#591 = DIRECTION ( 'NONE',  ( 0.000000000000000000, 0.000000000000000000, 1.000000000000000000 ) ) ;
#592 = ORIENTED_EDGE ( 'NONE', *, *, #458, .T. ) ;
#593 = DIRECTION ( 'NONE',  ( 0.000000000000000000, 0.000000000000000000, 1.000000000000000000 ) ) ;
#594 = CARTESIAN_POINT ( 'NONE',  ( -24.90000000000000213, 12.19999999999999574, 12.19999999999999929 ) ) ;
#595 = ORIENTED_EDGE ( 'NONE', *, *, #947, .F. ) ;
#596 = DIRECTION ( 'NONE',  ( 0.000000000000000000, 0.000000000000000000, -1.000000000000000000 ) ) ;
#597 = CARTESIAN_POINT ( 'NONE',  ( -25.40000000000000213, 12.69999999999999396, 12.19999999999999929 ) ) ;
#598 = EDGE_CURVE ( 'NONE', #4, #1093, #934, .T. ) ;
#599 = CARTESIAN_POINT ( 'NONE',  ( -24.89999999999999858, 1.700575376056005456E-15, 12.69999999999999929 ) ) ;
#600 = CYLINDRICAL_SURFACE ( 'NONE', #1100, 0.5000000000000004441 ) ;
#601 = VECTOR ( 'NONE', #1153, 999.9999999999998863 ) ;
#602 = CLOSED_SHELL ( 'NONE', ( #556, #675, #29, #1220, #314, #734, #124, #270, #430, #811, #160, #688, #1257, #427, #1124, #1133, #1224, #1126, #1172, #769, #632, #538, #697, #1235, #711, #9, #45, #1001, #1171, #242, #1107, #966, #755, #748, #672, #1221, #487, #187, #948, #499, #119, #88, #1145, #249, #912, #442, #289, #448 ) ) ;
#603 = DIRECTION ( 'NONE',  ( 0.000000000000000000, 0.000000000000000000, 1.000000000000000000 ) ) ;
#604 = AXIS2_PLACEMENT_3D ( 'NONE', #1193, #1094, #214 ) ;
#605 = CIRCLE ( 'NONE', #111, 0.5000000000000004441 ) ;
#606 = AXIS2_PLACEMENT_3D ( 'NONE', #67, #1261, #980 ) ;
#607 = ORIENTED_EDGE ( 'NONE', *, *, #1073, .T. ) ;
#608 = VECTOR ( 'NONE', #593, 1000.000000000000000 ) ;
#609 = SURFACE_STYLE_USAGE ( .BOTH. , #1197 ) ;
#610 = AXIS2_PLACEMENT_3D ( 'NONE', #1225, #842, #1237 ) ;
#611 = DIRECTION ( 'NONE',  ( -1.000000000000000000, -2.048885995248198400E-16, 0.000000000000000000 ) ) ;
#612 = ORIENTED_EDGE ( 'NONE', *, *, #373, .T. ) ;
#613 = DIRECTION ( 'NONE',  ( 1.000000000000000000, 0.000000000000000000, 0.000000000000000000 ) ) ;
#614 = DIRECTION ( 'NONE',  ( 1.000000000000000000, 2.048885995248198400E-16, 0.000000000000000000 ) ) ;
#615 = DIRECTION ( 'NONE',  ( 1.000000000000000000, 2.048885995248198400E-16, 0.000000000000000000 ) ) ;
#616 = ORIENTED_EDGE ( 'NONE', *, *, #142, .F. ) ;
#617 = EDGE_CURVE ( 'NONE', #679, #729, #1029, .T. ) ;
#618 = CARTESIAN_POINT ( 'NONE',  ( -23.16000000000000014, -2.540000000000004921, -3.499999999999999556 ) ) ;
#619 = ORIENTED_EDGE ( 'NONE', *, *, #1217, .F. ) ;
#620 =( LENGTH_UNIT ( ) NAMED_UNIT ( * ) SI_UNIT ( .MILLI., .METRE. ) );
#621 = CARTESIAN_POINT ( 'NONE',  ( -22.55999999999999872, -2.540000000000004921, -3.499999999999999556 ) ) ;
#622 = ORIENTED_EDGE ( 'NONE', *, *, #645, .F. ) ;
#623 = PRODUCT_RELATED_PRODUCT_CATEGORY ( 'part', '', ( #122 ) ) ;
#624 = LINE ( 'NONE', #329, #527 ) ;
#625 = AXIS2_PLACEMENT_3D ( 'NONE', #1198, #813, #1025 ) ;
#626 = AXIS2_PLACEMENT_3D ( 'NONE', #186, #899, #103 ) ;
#627 = VECTOR ( 'NONE', #765, 1000.000000000000000 ) ;
#628 = DIRECTION ( 'NONE',  ( 1.000000000000000000, 0.000000000000000000, 0.000000000000000000 ) ) ;
#629 = ORIENTED_EDGE ( 'NONE', *, *, #768, .T. ) ;
#630 = DIRECTION ( 'NONE',  ( 0.000000000000000000, 0.000000000000000000, 1.000000000000000000 ) ) ;
#631 = ORIENTED_EDGE ( 'NONE', *, *, #139, .T. ) ;
#632 = ADVANCED_FACE ( 'NONE', ( #446 ), #247, .T. ) ;
#633 = EDGE_CURVE ( 'NONE', #550, #792, #334, .T. ) ;
#634 = DIRECTION ( 'NONE',  ( 1.000000000000000000, 2.048885995248198400E-16, 0.000000000000000000 ) ) ;
#635 = CARTESIAN_POINT ( 'NONE',  ( -22.85999999999999943, -2.540000000000004921, -3.499999999999999556 ) ) ;
#636 = APPLICATION_PROTOCOL_DEFINITION ( 'draft international standard', 'automotive_design', 1998, #1123 ) ;
#637 = ORIENTED_EDGE ( 'NONE', *, *, #1206, .T. ) ;
#638 = EDGE_CURVE ( 'NONE', #1096, #1146, #1114, .T. ) ;
#639 = FACE_BOUND ( 'NONE', #388, .T. ) ;
#640 = DIRECTION ( 'NONE',  ( -1.000000000000000000, 0.000000000000000000, 0.000000000000000000 ) ) ;
#641 = ORIENTED_EDGE ( 'NONE', *, *, #202, .T. ) ;
#642 = VECTOR ( 'NONE', #129, 1000.000000000000000 ) ;
#643 = VECTOR ( 'NONE', #1189, 1000.000000000000000 ) ;
#644 = DIRECTION ( 'NONE',  ( -1.000000000000000000, -2.048885995248198400E-16, 0.000000000000000000 ) ) ;
#645 = EDGE_CURVE ( 'NONE', #775, #328, #844, .T. ) ;
#646 = ORIENTED_EDGE ( 'NONE', *, *, #1190, .F. ) ;
#647 = FACE_OUTER_BOUND ( 'NONE', #1245, .T. ) ;
#648 = CIRCLE ( 'NONE', #530, 0.5000000000000004441 ) ;
#649 =( NAMED_UNIT ( * ) SI_UNIT ( $, .STERADIAN. ) SOLID_ANGLE_UNIT ( ) );
#650 = DIRECTION ( 'NONE',  ( 1.000000000000000000, 0.000000000000000000, 0.000000000000000000 ) ) ;
#651 = ORIENTED_EDGE ( 'NONE', *, *, #1265, .F. ) ;
#652 = DIRECTION ( 'NONE',  ( 0.000000000000000000, 0.000000000000000000, 1.000000000000000000 ) ) ;
#653 = ORIENTED_EDGE ( 'NONE', *, *, #217, .F. ) ;
#654 = DIRECTION ( 'NONE',  ( -0.7071067811865515695, -1.448781181118157608E-16, 0.7071067811865435759 ) ) ;
#655 = APPLICATION_PROTOCOL_DEFINITION ( 'draft international standard', 'automotive_design', 1998, #821 ) ;
#656 = CARTESIAN_POINT ( 'NONE',  ( 24.90000000000000213, -12.19999999999999574, 12.19999999999999929 ) ) ;
#657 = VERTEX_POINT ( 'NONE', #831 ) ;
#658 = CARTESIAN_POINT ( 'NONE',  ( -24.90000000000000213, 12.69999999999999396, 12.19999999999999929 ) ) ;
#659 = ORIENTED_EDGE ( 'NONE', *, *, #408, .F. ) ;
#660 = DIRECTION ( 'NONE',  ( 0.000000000000000000, 0.000000000000000000, 1.000000000000000000 ) ) ;
#661 = EDGE_CURVE ( 'NONE', #529, #496, #229, .T. ) ;
#662 = DIRECTION ( 'NONE',  ( -1.000000000000000000, 0.000000000000000000, 0.000000000000000000 ) ) ;
#663 = ORIENTED_EDGE ( 'NONE', *, *, #797, .T. ) ;
#664 = AXIS2_PLACEMENT_3D ( 'NONE', #975, #1043, #159 ) ;
#665 = LINE ( 'NONE', #479, #461 ) ;
#666 = CIRCLE ( 'NONE', #110, 0.5000000000000004441 ) ;
#667 = AXIS2_PLACEMENT_3D ( 'NONE', #475, #874, #192 ) ;
#668 = AXIS2_PLACEMENT_3D ( 'NONE', #495, #1083, #206 ) ;
#669 = CARTESIAN_POINT ( 'NONE',  ( -25.40000000000000213, 12.19999999999999574, 0.000000000000000000 ) ) ;
#670 = CIRCLE ( 'NONE', #113, 0.3000000000000085931 ) ;
#671 = ORIENTED_EDGE ( 'NONE', *, *, #617, .T. ) ;
#672 = ADVANCED_FACE ( 'NONE', ( #921 ), #1012, .F. ) ;
#673 = EDGE_CURVE ( 'NONE', #509, #749, #1268, .T. ) ;
#674 = CARTESIAN_POINT ( 'NONE',  ( 24.89999999999999503, 12.20000000000000639, 12.69999999999999929 ) ) ;
#675 = ADVANCED_FACE ( 'NONE', ( #1218 ), #437, .T. ) ;
#676 = ORIENTED_EDGE ( 'NONE', *, *, #179, .F. ) ;
#677 = CYLINDRICAL_SURFACE ( 'NONE', #1266, 0.5000000000000004441 ) ;
#678 = CARTESIAN_POINT ( 'NONE',  ( -22.85999999999999943, -2.540000000000004921, -3.499999999999999556 ) ) ;
#679 = VERTEX_POINT ( 'NONE', #618 ) ;
#680 = CARTESIAN_POINT ( 'NONE',  ( 23.16000000000000369, -10.15999999999999481, -3.499999999999999556 ) ) ;
#681 = ORIENTED_EDGE ( 'NONE', *, *, #768, .F. ) ;
#682 = CARTESIAN_POINT ( 'NONE',  ( 22.55999999999999517, 10.43971427864676649, -3.499999999999999556 ) ) ;
#683 = CARTESIAN_POINT ( 'NONE',  ( -23.35999999999999943, 7.619999999999994778, 0.000000000000000000 ) ) ;
#684 = ORIENTED_EDGE ( 'NONE', *, *, #312, .T. ) ;
#685 = CARTESIAN_POINT ( 'NONE',  ( 22.85999999999999588, 10.43971427864676649, -3.300000000000000711 ) ) ;
#686 = CIRCLE ( 'NONE', #251, 0.5000000000000004441 ) ;
#687 = EDGE_LOOP ( 'NONE', ( #1080, #867 ) ) ;
#688 = ADVANCED_FACE ( 'NONE', ( #46 ), #136, .T. ) ;
#689 = CARTESIAN_POINT ( 'NONE',  ( -22.85999999999999943, -7.620000000000004547, -3.499999999999999556 ) ) ;
#690 = AXIS2_PLACEMENT_3D ( 'NONE', #685, #1077, #1256 ) ;
#691 = CARTESIAN_POINT ( 'NONE',  ( -23.16000000000000014, 7.619999999999995666, -3.499999999999999556 ) ) ;
#692 =( GEOMETRIC_REPRESENTATION_CONTEXT ( 3 ) GLOBAL_UNCERTAINTY_ASSIGNED_CONTEXT ( ( #788 ) ) GLOBAL_UNIT_ASSIGNED_CONTEXT ( ( #620, #721, #161 ) ) REPRESENTATION_CONTEXT ( 'NONE', 'WORKASPACE' ) );
#693 = DIRECTION ( 'NONE',  ( 0.000000000000000000, 0.000000000000000000, 1.000000000000000000 ) ) ;
#694 = EDGE_LOOP ( 'NONE', ( #1178, #919, #619, #40 ) ) ;
#695 = DIRECTION ( 'NONE',  ( 0.000000000000000000, 0.000000000000000000, 1.000000000000000000 ) ) ;
#696 = DIRECTION ( 'NONE',  ( 0.000000000000000000, 0.000000000000000000, 1.000000000000000000 ) ) ;
#697 = ADVANCED_FACE ( 'NONE', ( #436 ), #1110, .T. ) ;
#698 = ORIENTED_EDGE ( 'NONE', *, *, #408, .T. ) ;
#699 = DIRECTION ( 'NONE',  ( 0.000000000000000000, 0.000000000000000000, 1.000000000000000000 ) ) ;
#700 = ORIENTED_EDGE ( 'NONE', *, *, #1173, .F. ) ;
#701 = CARTESIAN_POINT ( 'NONE',  ( 25.39999999999999503, 12.20000000000000639, 0.000000000000000000 ) ) ;
#702 = DIRECTION ( 'NONE',  ( 0.000000000000000000, 0.000000000000000000, 1.000000000000000000 ) ) ;
#703 = ORIENTED_EDGE ( 'NONE', *, *, #724, .T. ) ;
#704 = LINE ( 'NONE', #526, #773 ) ;
#705 = SPHERICAL_SURFACE ( 'NONE', #795, 0.5000000000000000000 ) ;
#706 = ORIENTED_EDGE ( 'NONE', *, *, #43, .T. ) ;
#707 = AXIS2_PLACEMENT_3D ( 'NONE', #1147, #372, #1232 ) ;
#708 = CYLINDRICAL_SURFACE ( 'NONE', #485, 0.5000000000000004441 ) ;
#709 = AXIS2_PLACEMENT_3D ( 'NONE', #833, #634, #331 ) ;
#710 = CIRCLE ( 'NONE', #731, 0.5000000000000004441 ) ;
#711 = ADVANCED_FACE ( 'NONE', ( #835 ), #916, .T. ) ;
#712 = VECTOR ( 'NONE', #654, 1000.000000000000000 ) ;
#713 = SPHERICAL_SURFACE ( 'NONE', #1141, 0.5000000000000000000 ) ;
#714 = DIRECTION ( 'NONE',  ( 0.000000000000000000, 0.000000000000000000, 1.000000000000000000 ) ) ;
#715 = EDGE_LOOP ( 'NONE', ( #76, #413, #878, #957 ) ) ;
#716 = DIRECTION ( 'NONE',  ( -1.000000000000000000, 0.000000000000000000, 0.000000000000000000 ) ) ;
#717 = FILL_AREA_STYLE_COLOUR ( '', #922 ) ;
#718 = CARTESIAN_POINT ( 'NONE',  ( -23.35999999999999943, -7.620000000000005436, -3.300000000000000711 ) ) ;
#719 = EDGE_LOOP ( 'NONE', ( #569, #703, #321, #1105 ) ) ;
#720 = CARTESIAN_POINT ( 'NONE',  ( -24.89999999999999503, -12.70000000000000462, 12.19999999999999929 ) ) ;
#721 =( NAMED_UNIT ( * ) PLANE_ANGLE_UNIT ( ) SI_UNIT ( $, .RADIAN. ) );
#722 = CARTESIAN_POINT ( 'NONE',  ( 0.000000000000000000, 0.000000000000000000, 12.69999999999999929 ) ) ;
#723 = ORIENTED_EDGE ( 'NONE', *, *, #295, .T. ) ;
#724 = EDGE_CURVE ( 'NONE', #294, #55, #816, .T. ) ;
#725 = DIRECTION ( 'NONE',  ( 1.000000000000000000, -6.829619984160662977E-17, 0.000000000000000000 ) ) ;
#726 = EDGE_CURVE ( 'NONE', #457, #736, #742, .T. ) ;
#727 = EDGE_CURVE ( 'NONE', #1154, #496, #61, .T. ) ;
#728 = VECTOR ( 'NONE', #714, 1000.000000000000000 ) ;
#729 = VERTEX_POINT ( 'NONE', #566 ) ;
#730 = EDGE_CURVE ( 'NONE', #395, #529, #879, .T. ) ;
#731 = AXIS2_PLACEMENT_3D ( 'NONE', #1254, #374, #832 ) ;
#732 = DIRECTION ( 'NONE',  ( 1.000000000000000000, 0.000000000000000000, 0.000000000000000000 ) ) ;
#733 = DIRECTION ( 'NONE',  ( 0.000000000000000000, 0.000000000000000000, 1.000000000000000000 ) ) ;
#734 = ADVANCED_FACE ( 'NONE', ( #758 ), #107, .T. ) ;
#735 = EDGE_LOOP ( 'NONE', ( #424, #239, #974, #474 ) ) ;
#736 = VERTEX_POINT ( 'NONE', #1246 ) ;
#737 = DIRECTION ( 'NONE',  ( 0.000000000000000000, 0.000000000000000000, -1.000000000000000000 ) ) ;
#738 = PRODUCT_CONTEXT ( 'NONE', #821, 'mechanical' ) ;
#739 = ORIENTED_EDGE ( 'NONE', *, *, #598, .T. ) ;
#740 = ADVANCED_BREP_SHAPE_REPRESENTATION ( 'WY_DCDC_JDK60', ( #274, #363 ), #822 ) ;
#741 = FACE_OUTER_BOUND ( 'NONE', #453, .T. ) ;
#742 = LINE ( 'NONE', #861, #601 ) ;
#743 = CARTESIAN_POINT ( 'NONE',  ( 22.85999999999999588, 10.43971427864676649, 0.000000000000000000 ) ) ;
#744 = DIRECTION ( 'NONE',  ( 0.000000000000000000, 0.000000000000000000, 1.000000000000000000 ) ) ;
#745 = EDGE_LOOP ( 'NONE', ( #162, #616 ) ) ;
#746 = VECTOR ( 'NONE', #733, 1000.000000000000000 ) ;
#747 = FACE_BOUND ( 'NONE', #175, .T. ) ;
#748 = ADVANCED_FACE ( 'NONE', ( #57 ), #278, .F. ) ;
#749 = VERTEX_POINT ( 'NONE', #1168 ) ;
#750 = DIRECTION ( 'NONE',  ( 6.829619984160665442E-17, -1.000000000000000000, 0.000000000000000000 ) ) ;
#751 = CIRCLE ( 'NONE', #610, 0.5000000000000004441 ) ;
#752 = CYLINDRICAL_SURFACE ( 'NONE', #137, 0.5000000000000004441 ) ;
#753 = CARTESIAN_POINT ( 'NONE',  ( 22.35999999999999943, 10.43971427864676649, 0.000000000000000000 ) ) ;
#754 = ORIENTED_EDGE ( 'NONE', *, *, #123, .F. ) ;
#755 = ADVANCED_FACE ( 'NONE', ( #946 ), #452, .F. ) ;
#756 = DIRECTION ( 'NONE',  ( 0.000000000000000000, 0.000000000000000000, 1.000000000000000000 ) ) ;
#757 = EDGE_LOOP ( 'NONE', ( #986, #145 ) ) ;
#758 = FACE_OUTER_BOUND ( 'NONE', #843, .T. ) ;
#759 = CARTESIAN_POINT ( 'NONE',  ( -22.36000000000000298, 7.619999999999995666, -3.499999999999999556 ) ) ;
#760 = FACE_OUTER_BOUND ( 'NONE', #1055, .T. ) ;
#761 = VERTEX_POINT ( 'NONE', #260 ) ;
#762 = LINE ( 'NONE', #571, #586 ) ;
#763 = DIRECTION ( 'NONE',  ( 0.000000000000000000, 0.000000000000000000, 1.000000000000000000 ) ) ;
#764 = DIRECTION ( 'NONE',  ( 0.000000000000000000, -0.000000000000000000, -1.000000000000000000 ) ) ;
#765 = DIRECTION ( 'NONE',  ( 0.7071067811865515695, 5.828251248826602550E-17, 0.7071067811865435759 ) ) ;
#766 = ORIENTED_EDGE ( 'NONE', *, *, #1073, .F. ) ;
#767 = EDGE_CURVE ( 'NONE', #1154, #121, #49, .T. ) ;
#768 = EDGE_CURVE ( 'NONE', #941, #775, #776, .T. ) ;
#769 = ADVANCED_FACE ( 'NONE', ( #477 ), #1047, .T. ) ;
#770 = VECTOR ( 'NONE', #411, 1000.000000000000000 ) ;
#771 = CARTESIAN_POINT ( 'NONE',  ( -22.85999999999999943, 7.619999999999995666, -3.499999999999999556 ) ) ;
#772 = VECTOR ( 'NONE', #611, 1000.000000000000000 ) ;
#773 = VECTOR ( 'NONE', #422, 1000.000000000000000 ) ;
#774 = AXIS2_PLACEMENT_3D ( 'NONE', #20, #209, #311 ) ;
#775 = VERTEX_POINT ( 'NONE', #968 ) ;
#776 = LINE ( 'NONE', #848, #712 ) ;
#777 = AXIS2_PLACEMENT_3D ( 'NONE', #890, #1181, #993 ) ;
#778 = LINE ( 'NONE', #1159, #199 ) ;
#779 = EDGE_LOOP ( 'NONE', ( #432, #191, #754 ) ) ;
#780 = EDGE_CURVE ( 'NONE', #1093, #466, #91, .T. ) ;
#781 = CYLINDRICAL_SURFACE ( 'NONE', #237, 0.5000000000000004441 ) ;
#782 = ORIENTED_EDGE ( 'NONE', *, *, #18, .F. ) ;
#783 = CARTESIAN_POINT ( 'NONE',  ( 25.39999999999999503, 12.20000000000000639, 12.19999999999999929 ) ) ;
#784 = CYLINDRICAL_SURFACE ( 'NONE', #1204, 0.5000000000000004441 ) ;
#785 = ORIENTED_EDGE ( 'NONE', *, *, #1058, .F. ) ;
#786 = EDGE_CURVE ( 'NONE', #158, #55, #686, .T. ) ;
#787 = DIRECTION ( 'NONE',  ( -1.000000000000000000, 0.000000000000000000, 0.000000000000000000 ) ) ;
#788 = UNCERTAINTY_MEASURE_WITH_UNIT (LENGTH_MEASURE( 1.000000000000000082E-05 ), #620, 'distance_accuracy_value', 'NONE');
#789 = ORIENTED_EDGE ( 'NONE', *, *, #963, .T. ) ;
#790 = CARTESIAN_POINT ( 'NONE',  ( 22.85999999999999588, 10.43971427864676649, -3.499999999999999556 ) ) ;
#791 = CARTESIAN_POINT ( 'NONE',  ( 22.55999999999999872, 0.2797142786467650688, -3.499999999999999556 ) ) ;
#792 = VERTEX_POINT ( 'NONE', #350 ) ;
#793 = ORIENTED_EDGE ( 'NONE', *, *, #924, .T. ) ;
#794 = DIRECTION ( 'NONE',  ( 0.000000000000000000, 0.000000000000000000, -1.000000000000000000 ) ) ;
#795 = AXIS2_PLACEMENT_3D ( 'NONE', #435, #537, #223 ) ;
#796 = EDGE_LOOP ( 'NONE', ( #884, #1075, #73, #981 ) ) ;
#797 = EDGE_CURVE ( 'NONE', #565, #268, #1201, .T. ) ;
#798 = DIRECTION ( 'NONE',  ( 1.000000000000000000, 0.000000000000000000, 0.000000000000000000 ) ) ;
#799 = VECTOR ( 'NONE', #500, 1000.000000000000000 ) ;
#800 = DIRECTION ( 'NONE',  ( 1.000000000000000000, 2.048885995248198400E-16, 0.000000000000000000 ) ) ;
#801 = ORIENTED_EDGE ( 'NONE', *, *, #1127, .F. ) ;
#802 = CARTESIAN_POINT ( 'NONE',  ( 24.89999999999999503, 12.20000000000000639, 12.19999999999999929 ) ) ;
#803 = VERTEX_POINT ( 'NONE', #1252 ) ;
#804 = FACE_OUTER_BOUND ( 'NONE', #1116, .T. ) ;
#805 = CARTESIAN_POINT ( 'NONE',  ( 22.85999999999999588, 10.43971427864676649, -3.300000000000000711 ) ) ;
#806 = VERTEX_POINT ( 'NONE', #573 ) ;
#807 = VERTEX_POINT ( 'NONE', #455 ) ;
#808 = DIRECTION ( 'NONE',  ( 1.000000000000000000, 0.000000000000000000, 0.000000000000000000 ) ) ;
#809 = CARTESIAN_POINT ( 'NONE',  ( -23.35999999999999943, 7.619999999999994778, -3.499999999999999556 ) ) ;
#810 = DIRECTION ( 'NONE',  ( 1.000000000000000000, 0.000000000000000000, 0.000000000000000000 ) ) ;
#811 = ADVANCED_FACE ( 'NONE', ( #647 ), #151, .T. ) ;
#812 = CARTESIAN_POINT ( 'NONE',  ( -25.39999999999999503, -12.20000000000000639, 12.19999999999999929 ) ) ;
#813 = DIRECTION ( 'NONE',  ( 0.000000000000000000, 0.000000000000000000, -1.000000000000000000 ) ) ;
#814 = ORIENTED_EDGE ( 'NONE', *, *, #373, .F. ) ;
#815 = AXIS2_PLACEMENT_3D ( 'NONE', #183, #763, #640 ) ;
#816 = LINE ( 'NONE', #1205, #1076 ) ;
#817 = AXIS2_PLACEMENT_3D ( 'NONE', #72, #370, #250 ) ;
#818 = CIRCLE ( 'NONE', #668, 0.5000000000000004441 ) ;
#819 = CONICAL_SURFACE ( 'NONE', #923, 0.3000000000000085931, 0.7853981633974532750 ) ;
#820 = CARTESIAN_POINT ( 'NONE',  ( 22.86000000000000298, -10.15999999999999481, -3.499999999999999556 ) ) ;
#821 = APPLICATION_CONTEXT ( 'automotive_design' ) ;
#822 =( GEOMETRIC_REPRESENTATION_CONTEXT ( 3 ) GLOBAL_UNCERTAINTY_ASSIGNED_CONTEXT ( ( #489 ) ) GLOBAL_UNIT_ASSIGNED_CONTEXT ( ( #360, #863, #649 ) ) REPRESENTATION_CONTEXT ( 'NONE', 'WORKASPACE' ) );
#823 = LINE ( 'NONE', #431, #772 ) ;
#824 = ORIENTED_EDGE ( 'NONE', *, *, #269, .F. ) ;
#825 = CARTESIAN_POINT ( 'NONE',  ( 25.40000000000000213, -12.19999999999999574, 0.000000000000000000 ) ) ;
#826 = VERTEX_POINT ( 'NONE', #65 ) ;
#827 = CARTESIAN_POINT ( 'NONE',  ( 24.89999999999999503, 12.20000000000000639, 12.19999999999999929 ) ) ;
#828 = DIRECTION ( 'NONE',  ( 0.000000000000000000, 0.000000000000000000, -1.000000000000000000 ) ) ;
#829 = EDGE_CURVE ( 'NONE', #928, #325, #418, .T. ) ;
#830 = ORIENTED_EDGE ( 'NONE', *, *, #1128, .T. ) ;
#831 = CARTESIAN_POINT ( 'NONE',  ( 24.90000000000000213, -12.19999999999999574, 12.69999999999999929 ) ) ;
#832 = DIRECTION ( 'NONE',  ( 0.000000000000000000, 0.000000000000000000, -1.000000000000000000 ) ) ;
#833 = CARTESIAN_POINT ( 'NONE',  ( 24.90000000000000213, -12.19999999999999574, 12.19999999999999929 ) ) ;
#834 = EDGE_CURVE ( 'NONE', #353, #915, #855, .T. ) ;
#835 = FACE_OUTER_BOUND ( 'NONE', #36, .T. ) ;
#836 = CIRCLE ( 'NONE', #1099, 0.5000000000000004441 ) ;
#837 = CIRCLE ( 'NONE', #962, 0.5000000000000004441 ) ;
#838 = EDGE_LOOP ( 'NONE', ( #445, #109 ) ) ;
#839 = CONICAL_SURFACE ( 'NONE', #135, 0.3000000000000085931, 0.7853981633974532750 ) ;
#840 = VECTOR ( 'NONE', #394, 1000.000000000000000 ) ;
#841 = AXIS2_PLACEMENT_3D ( 'NONE', #342, #246, #164 ) ;
#842 = DIRECTION ( 'NONE',  ( 0.000000000000000000, 0.000000000000000000, 1.000000000000000000 ) ) ;
#843 = EDGE_LOOP ( 'NONE', ( #369, #931, #1180, #1132 ) ) ;
#844 = LINE ( 'NONE', #531, #524 ) ;
#845 = FACE_OUTER_BOUND ( 'NONE', #134, .T. ) ;
#846 = ORIENTED_EDGE ( 'NONE', *, *, #1015, .F. ) ;
#847 = CARTESIAN_POINT ( 'NONE',  ( -22.85999999999999943, -7.620000000000004547, -3.300000000000000711 ) ) ;
#848 = CARTESIAN_POINT ( 'NONE',  ( 22.55999999999999517, 10.43971427864676649, -3.499999999999999556 ) ) ;
#849 = ORIENTED_EDGE ( 'NONE', *, *, #202, .F. ) ;
#850 = PLANE ( 'NONE',  #989 ) ;
#851 = DIRECTION ( 'NONE',  ( 1.000000000000000000, 0.000000000000000000, 0.000000000000000000 ) ) ;
#852 = FACE_OUTER_BOUND ( 'NONE', #309, .T. ) ;
#853 = DIRECTION ( 'NONE',  ( 0.000000000000000000, 0.000000000000000000, 1.000000000000000000 ) ) ;
#854 = VERTEX_POINT ( 'NONE', #701 ) ;
#855 = CIRCLE ( 'NONE', #154, 0.3000000000000085931 ) ;
#856 = CIRCLE ( 'NONE', #985, 0.5000000000000004441 ) ;
#857 = VECTOR ( 'NONE', #744, 1000.000000000000000 ) ;
#858 = DIRECTION ( 'NONE',  ( -1.000000000000000000, -2.048885995248198400E-16, 0.000000000000000000 ) ) ;
#859 = FACE_OUTER_BOUND ( 'NONE', #687, .T. ) ;
#860 = ORIENTED_EDGE ( 'NONE', *, *, #1260, .F. ) ;
#861 = CARTESIAN_POINT ( 'NONE',  ( 23.16000000000000014, 0.2797142786467652353, -3.499999999999999556 ) ) ;
#862 = VECTOR ( 'NONE', #1138, 1000.000000000000000 ) ;
#863 =( NAMED_UNIT ( * ) PLANE_ANGLE_UNIT ( ) SI_UNIT ( $, .RADIAN. ) );
#864 = CARTESIAN_POINT ( 'NONE',  ( 24.90000000000000213, -12.69999999999999396, 0.000000000000000000 ) ) ;
#865 = ORIENTED_EDGE ( 'NONE', *, *, #1015, .T. ) ;
#866 = DIRECTION ( 'NONE',  ( 0.000000000000000000, 0.000000000000000000, 1.000000000000000000 ) ) ;
#867 = ORIENTED_EDGE ( 'NONE', *, *, #1058, .T. ) ;
#868 = EDGE_CURVE ( 'NONE', #232, #565, #32, .T. ) ;
#869 = CARTESIAN_POINT ( 'NONE',  ( 24.90000000000000213, -12.19999999999999574, 0.000000000000000000 ) ) ;
#870 = EDGE_CURVE ( 'NONE', #915, #353, #443, .T. ) ;
#871 = EDGE_CURVE ( 'NONE', #1019, #158, #1081, .T. ) ;
#872 = CARTESIAN_POINT ( 'NONE',  ( -23.16000000000000014, -7.620000000000004547, -3.499999999999999556 ) ) ;
#873 = ORIENTED_EDGE ( 'NONE', *, *, #633, .F. ) ;
#874 = DIRECTION ( 'NONE',  ( 0.000000000000000000, 0.000000000000000000, 1.000000000000000000 ) ) ;
#875 = DIRECTION ( 'NONE',  ( 0.000000000000000000, 0.000000000000000000, 1.000000000000000000 ) ) ;
#876 = DIRECTION ( 'NONE',  ( 1.000000000000000000, 2.048885995248198400E-16, 0.000000000000000000 ) ) ;
#877 = CARTESIAN_POINT ( 'NONE',  ( 24.89999999999999858, 1.700575376056004273E-15, 12.69999999999999929 ) ) ;
#878 = ORIENTED_EDGE ( 'NONE', *, *, #31, .T. ) ;
#879 = CIRCLE ( 'NONE', #1104, 0.5000000000000004441 ) ;
#880 = DIRECTION ( 'NONE',  ( 0.000000000000000000, 0.000000000000000000, -1.000000000000000000 ) ) ;
#881 = CIRCLE ( 'NONE', #709, 0.5000000000000004441 ) ;
#882 = AXIS2_PLACEMENT_3D ( 'NONE', #1185, #880, #403 ) ;
#883 = CIRCLE ( 'NONE', #359, 0.5000000000000004441 ) ;
#884 = ORIENTED_EDGE ( 'NONE', *, *, #252, .F. ) ;
#885 = DIRECTION ( 'NONE',  ( -2.048885995248198400E-16, 1.000000000000000000, -0.000000000000000000 ) ) ;
#886 = LINE ( 'NONE', #1, #643 ) ;
#887 = ORIENTED_EDGE ( 'NONE', *, *, #924, .F. ) ;
#888 = LINE ( 'NONE', #680, #799 ) ;
#889 = CARTESIAN_POINT ( 'NONE',  ( -22.85999999999999943, 7.619999999999995666, -3.499999999999999556 ) ) ;
#890 = CARTESIAN_POINT ( 'NONE',  ( -24.89999999999999503, -12.20000000000000639, 12.19999999999999929 ) ) ;
#891 = DIRECTION ( 'NONE',  ( 1.000000000000000000, 0.000000000000000000, 0.000000000000000000 ) ) ;
#892 = VERTEX_POINT ( 'NONE', #783 ) ;
#893 = EDGE_CURVE ( 'NONE', #1200, #729, #1165, .T. ) ;
#894 = EDGE_CURVE ( 'NONE', #509, #521, #987, .T. ) ;
#895 = CYLINDRICAL_SURFACE ( 'NONE', #626, 0.5000000000000004441 ) ;
#896 = EDGE_LOOP ( 'NONE', ( #782, #22, #789, #646 ) ) ;
#897 = DIRECTION ( 'NONE',  ( 1.000000000000000000, 2.168404344971006896E-16, 0.000000000000000000 ) ) ;
#898 = FACE_OUTER_BOUND ( 'NONE', #1027, .T. ) ;
#899 = DIRECTION ( 'NONE',  ( 1.000000000000000000, 2.048885995248198400E-16, 0.000000000000000000 ) ) ;
#900 = AXIS2_PLACEMENT_3D ( 'NONE', #869, #379, #560 ) ;
#901 = AXIS2_PLACEMENT_3D ( 'NONE', #722, #423, #615 ) ;
#902 = VERTEX_POINT ( 'NONE', #299 ) ;
#903 = LINE ( 'NONE', #100, #383 ) ;
#904 = CIRCLE ( 'NONE', #1219, 0.5000000000000004441 ) ;
#905 = CARTESIAN_POINT ( 'NONE',  ( -25.39999999999999503, -12.20000000000000639, 0.000000000000000000 ) ) ;
#906 = AXIS2_PLACEMENT_3D ( 'NONE', #1194, #412, #205 ) ;
#907 = FILL_AREA_STYLE ('',( #717 ) ) ;
#908 = EDGE_CURVE ( 'NONE', #565, #395, #903, .T. ) ;
#909 = EDGE_CURVE ( 'NONE', #1149, #679, #336, .T. ) ;
#910 = DIRECTION ( 'NONE',  ( -0.7071067811865515695, -1.448781181118157608E-16, 0.7071067811865435759 ) ) ;
#911 = CARTESIAN_POINT ( 'NONE',  ( 22.56000000000000227, -10.15999999999999481, -3.499999999999999556 ) ) ;
#912 = ADVANCED_FACE ( 'NONE', ( #19 ), #943, .T. ) ;
#913 = EDGE_LOOP ( 'NONE', ( #1042, #168, #1064, #371 ) ) ;
#914 = DIRECTION ( 'NONE',  ( 1.000000000000000000, 0.000000000000000000, 0.000000000000000000 ) ) ;
#915 = VERTEX_POINT ( 'NONE', #105 ) ;
#916 = PLANE ( 'NONE',  #54 ) ;
#917 = CARTESIAN_POINT ( 'NONE',  ( -25.40000000000000213, 12.69999999999999396, 0.000000000000000000 ) ) ;
#918 = LINE ( 'NONE', #27, #401 ) ;
#919 = ORIENTED_EDGE ( 'NONE', *, *, #18, .T. ) ;
#920 = AXIS2_PLACEMENT_3D ( 'NONE', #929, #41, #1021 ) ;
#921 = FACE_OUTER_BOUND ( 'NONE', #128, .T. ) ;
#922 = COLOUR_RGB ( '',0.7921568627450980005, 0.8196078431372548767, 0.9333333333333333481 ) ;
#923 = AXIS2_PLACEMENT_3D ( 'NONE', #1016, #417, #426 ) ;
#924 = EDGE_CURVE ( 'NONE', #102, #892, #505, .T. ) ;
#925 = ORIENTED_EDGE ( 'NONE', *, *, #726, .T. ) ;
#926 = LINE ( 'NONE', #1024, #1038 ) ;
#927 = DIRECTION ( 'NONE',  ( 0.000000000000000000, 0.000000000000000000, -1.000000000000000000 ) ) ;
#928 = VERTEX_POINT ( 'NONE', #1271 ) ;
#929 = CARTESIAN_POINT ( 'NONE',  ( -22.85999999999999943, 7.619999999999995666, -3.300000000000000711 ) ) ;
#930 = EDGE_CURVE ( 'NONE', #941, #803, #1056, .T. ) ;
#931 = ORIENTED_EDGE ( 'NONE', *, *, #58, .F. ) ;
#932 = DIRECTION ( 'NONE',  ( -1.000000000000000000, 0.000000000000000000, 0.000000000000000000 ) ) ;
#933 = CARTESIAN_POINT ( 'NONE',  ( 24.90000000000000213, -12.69999999999999396, 12.19999999999999929 ) ) ;
#934 = LINE ( 'NONE', #825, #642 ) ;
#935 = ORIENTED_EDGE ( 'NONE', *, *, #1173, .T. ) ;
#936 = LINE ( 'NONE', #1013, #545 ) ;
#937 = DIRECTION ( 'NONE',  ( 0.000000000000000000, 0.000000000000000000, -1.000000000000000000 ) ) ;
#938 = AXIS2_PLACEMENT_3D ( 'NONE', #306, #286, #195 ) ;
#939 = VECTOR ( 'NONE', #169, 1000.000000000000000 ) ;
#940 = AXIS2_PLACEMENT_3D ( 'NONE', #338, #927, #48 ) ;
#941 = VERTEX_POINT ( 'NONE', #682 ) ;
#942 = VECTOR ( 'NONE', #352, 1000.000000000000000 ) ;
#943 = CONICAL_SURFACE ( 'NONE', #938, 0.3000000000000085931, 0.7853981633974532750 ) ;
#944 = DIRECTION ( 'NONE',  ( 0.000000000000000000, 1.000000000000000000, 0.000000000000000000 ) ) ;
#945 = EDGE_LOOP ( 'NONE', ( #651, #970, #574, #1034 ) ) ;
#946 = FACE_OUTER_BOUND ( 'NONE', #99, .T. ) ;
#947 = EDGE_CURVE ( 'NONE', #335, #902, #836, .T. ) ;
#948 = ADVANCED_FACE ( 'NONE', ( #1072 ), #600, .T. ) ;
#949 = ORIENTED_EDGE ( 'NONE', *, *, #576, .T. ) ;
#950 = DIRECTION ( 'NONE',  ( 0.000000000000000000, 0.000000000000000000, -1.000000000000000000 ) ) ;
#951 = ORIENTED_EDGE ( 'NONE', *, *, #501, .F. ) ;
#952 = DIRECTION ( 'NONE',  ( 0.000000000000000000, 0.000000000000000000, -1.000000000000000000 ) ) ;
#953 = CARTESIAN_POINT ( 'NONE',  ( -22.85999999999999943, -2.540000000000004921, -3.499999999999999556 ) ) ;
#954 = CARTESIAN_POINT ( 'NONE',  ( -22.36000000000000298, -7.620000000000004547, -3.300000000000000711 ) ) ;
#955 = ORIENTED_EDGE ( 'NONE', *, *, #973, .F. ) ;
#956 = DIRECTION ( 'NONE',  ( -1.000000000000000000, 0.000000000000000000, 0.000000000000000000 ) ) ;
#957 = ORIENTED_EDGE ( 'NONE', *, *, #492, .F. ) ;
#958 = DIRECTION ( 'NONE',  ( 1.000000000000000000, 0.000000000000000000, 0.000000000000000000 ) ) ;
#959 = SHAPE_DEFINITION_REPRESENTATION ( #515, #740 ) ;
#960 = DIRECTION ( 'NONE',  ( -1.000000000000000000, 0.000000000000000000, 0.000000000000000000 ) ) ;
#961 = ORIENTED_EDGE ( 'NONE', *, *, #1127, .T. ) ;
#962 = AXIS2_PLACEMENT_3D ( 'NONE', #231, #516, #914 ) ;
#963 = EDGE_CURVE ( 'NONE', #353, #1019, #512, .T. ) ;
#964 = CIRCLE ( 'NONE', #198, 0.5000000000000004441 ) ;
#965 = AXIS2_PLACEMENT_3D ( 'NONE', #1063, #465, #662 ) ;
#966 = ADVANCED_FACE ( 'NONE', ( #804 ), #5, .F. ) ;
#967 = ORIENTED_EDGE ( 'NONE', *, *, #1048, .T. ) ;
#968 = CARTESIAN_POINT ( 'NONE',  ( 22.35999999999999943, 10.43971427864676649, -3.300000000000000711 ) ) ;
#969 = DIRECTION ( 'NONE',  ( -6.829619984160665442E-17, 1.000000000000000000, -0.000000000000000000 ) ) ;
#970 = ORIENTED_EDGE ( 'NONE', *, *, #1009, .T. ) ;
#971 = FACE_OUTER_BOUND ( 'NONE', #719, .T. ) ;
#972 = CARTESIAN_POINT ( 'NONE',  ( -22.85999999999999943, -7.620000000000004547, -3.499999999999999556 ) ) ;
#973 = EDGE_CURVE ( 'NONE', #449, #1071, #1003, .T. ) ;
#974 = ORIENTED_EDGE ( 'NONE', *, *, #271, .F. ) ;
#975 = CARTESIAN_POINT ( 'NONE',  ( 24.90000000000000213, -12.69999999999999396, 12.19999999999999929 ) ) ;
#976 = ORIENTED_EDGE ( 'NONE', *, *, #661, .T. ) ;
#977 = DIRECTION ( 'NONE',  ( 0.000000000000000000, 0.000000000000000000, -1.000000000000000000 ) ) ;
#978 = CARTESIAN_POINT ( 'NONE',  ( -22.55999999999999872, -7.620000000000004547, -3.499999999999999556 ) ) ;
#979 = DIRECTION ( 'NONE',  ( -0.7071067811865515695, -1.448781181118157608E-16, 0.7071067811865435759 ) ) ;
#980 = DIRECTION ( 'NONE',  ( -1.000000000000000000, -1.807003620809122370E-16, 0.000000000000000000 ) ) ;
#981 = ORIENTED_EDGE ( 'NONE', *, *, #82, .T. ) ;
#982 = AXIS2_PLACEMENT_3D ( 'NONE', #255, #1035, #1158 ) ;
#983 = CARTESIAN_POINT ( 'NONE',  ( -22.85999999999999943, -7.620000000000004547, -3.499999999999999556 ) ) ;
#984 = CONICAL_SURFACE ( 'NONE', #420, 0.3000000000000085931, 0.7853981633974532750 ) ;
#985 = AXIS2_PLACEMENT_3D ( 'NONE', #582, #93, #296 ) ;
#986 = ORIENTED_EDGE ( 'NONE', *, *, #1087, .T. ) ;
#987 = LINE ( 'NONE', #809, #608 ) ;
#988 = CARTESIAN_POINT ( 'NONE',  ( 24.90000000000000213, -12.69999999999999396, 0.000000000000000000 ) ) ;
#989 = AXIS2_PLACEMENT_3D ( 'NONE', #1244, #1052, #354 ) ;
#990 = ORIENTED_EDGE ( 'NONE', *, *, #8, .T. ) ;
#991 = DIRECTION ( 'NONE',  ( 0.000000000000000000, 0.000000000000000000, -1.000000000000000000 ) ) ;
#992 = CARTESIAN_POINT ( 'NONE',  ( 25.40000000000000213, -12.19999999999999574, 12.19999999999999929 ) ) ;
#993 = DIRECTION ( 'NONE',  ( -1.000000000000000000, 0.000000000000000000, 0.000000000000000000 ) ) ;
#994 = CARTESIAN_POINT ( 'NONE',  ( 22.86000000000000298, -10.15999999999999481, 0.000000000000000000 ) ) ;
#995 = CARTESIAN_POINT ( 'NONE',  ( -24.90000000000000213, 12.19999999999999574, 12.69999999999999929 ) ) ;
#996 = EDGE_LOOP ( 'NONE', ( #865, #1023 ) ) ;
#997 = DIRECTION ( 'NONE',  ( 0.000000000000000000, 0.000000000000000000, -1.000000000000000000 ) ) ;
#998 = DIRECTION ( 'NONE',  ( 1.000000000000000000, 0.000000000000000000, 0.000000000000000000 ) ) ;
#999 = EDGE_LOOP ( 'NONE', ( #1223, #1113, #830, #592 ) ) ;
#1000 = CONICAL_SURFACE ( 'NONE', #320, 0.3000000000000085931, 0.7853981633974532750 ) ;
#1001 = ADVANCED_FACE ( 'NONE', ( #24 ), #677, .T. ) ;
#1002 = AXIS2_PLACEMENT_3D ( 'NONE', #181, #950, #1230 ) ;
#1003 = LINE ( 'NONE', #114, #438 ) ;
#1004 = EDGE_CURVE ( 'NONE', #232, #1154, #87, .T. ) ;
#1005 = VECTOR ( 'NONE', #1049, 1000.000000000000000 ) ;
#1006 = DIRECTION ( 'NONE',  ( -1.000000000000000000, 0.000000000000000000, 0.000000000000000000 ) ) ;
#1007 = VERTEX_POINT ( 'NONE', #933 ) ;
#1008 = PRESENTATION_STYLE_ASSIGNMENT (( #609 ) ) ;
#1009 = EDGE_CURVE ( 'NONE', #749, #509, #50, .T. ) ;
#1010 = CARTESIAN_POINT ( 'NONE',  ( -24.89999999999999503, -12.20000000000000639, 0.000000000000000000 ) ) ;
#1011 = EDGE_LOOP ( 'NONE', ( #298, #990, #949, #365 ) ) ;
#1012 = PLANE ( 'NONE',  #1020 ) ;
#1013 = CARTESIAN_POINT ( 'NONE',  ( -25.39999999999999503, -12.70000000000000462, 0.000000000000000000 ) ) ;
#1014 = ORIENTED_EDGE ( 'NONE', *, *, #389, .F. ) ;
#1015 = EDGE_CURVE ( 'NONE', #679, #1149, #173, .T. ) ;
#1016 = CARTESIAN_POINT ( 'NONE',  ( -22.85999999999999943, -7.620000000000004547, -3.499999999999999556 ) ) ;
#1017 = CYLINDRICAL_SURFACE ( 'NONE', #439, 0.5000000000000004441 ) ;
#1018 = DIRECTION ( 'NONE',  ( -1.000000000000000000, -1.707404996040165251E-16, 0.000000000000000000 ) ) ;
#1019 = VERTEX_POINT ( 'NONE', #718 ) ;
#1020 = AXIS2_PLACEMENT_3D ( 'NONE', #144, #725, #540 ) ;
#1021 = DIRECTION ( 'NONE',  ( 1.000000000000000000, 0.000000000000000000, 0.000000000000000000 ) ) ;
#1022 = AXIS2_PLACEMENT_3D ( 'NONE', #805, #702, #998 ) ;
#1023 = ORIENTED_EDGE ( 'NONE', *, *, #909, .T. ) ;
#1024 = CARTESIAN_POINT ( 'NONE',  ( -22.36000000000000298, -2.540000000000004921, -3.499999999999999556 ) ) ;
#1025 = DIRECTION ( 'NONE',  ( 1.000000000000000000, 1.807003620809122370E-16, 0.000000000000000000 ) ) ;
#1026 = DIRECTION ( 'NONE',  ( -0.7071067811865510144, -1.448781181118156622E-16, 0.7071067811865441310 ) ) ;
#1027 = EDGE_LOOP ( 'NONE', ( #213, #254, #182, #814 ) ) ;
#1028 = PLANE ( 'NONE',  #901 ) ;
#1029 = LINE ( 'NONE', #141, #543 ) ;
#1030 = ORIENTED_EDGE ( 'NONE', *, *, #797, .F. ) ;
#1031 = EDGE_CURVE ( 'NONE', #803, #941, #33, .T. ) ;
#1032 = EDGE_CURVE ( 'NONE', #1149, #1200, #140, .T. ) ;
#1033 = FACE_BOUND ( 'NONE', #347, .T. ) ;
#1034 = ORIENTED_EDGE ( 'NONE', *, *, #389, .T. ) ;
#1035 = DIRECTION ( 'NONE',  ( -1.000000000000000000, -2.048885995248198400E-16, 0.000000000000000000 ) ) ;
#1036 = DIRECTION ( 'NONE',  ( -1.000000000000000000, 0.000000000000000000, 0.000000000000000000 ) ) ;
#1037 = AXIS2_PLACEMENT_3D ( 'NONE', #35, #828, #628 ) ;
#1038 = VECTOR ( 'NONE', #221, 1000.000000000000000 ) ;
#1039 = ORIENTED_EDGE ( 'NONE', *, *, #930, .F. ) ;
#1040 = CIRCLE ( 'NONE', #1022, 0.5000000000000004441 ) ;
#1041 = DIRECTION ( 'NONE',  ( -1.000000000000000000, 0.000000000000000000, 0.000000000000000000 ) ) ;
#1042 = ORIENTED_EDGE ( 'NONE', *, *, #724, .F. ) ;
#1043 = DIRECTION ( 'NONE',  ( 2.048885995248198400E-16, -1.000000000000000000, 0.000000000000000000 ) ) ;
#1044 = CARTESIAN_POINT ( 'NONE',  ( -22.85999999999999943, 7.619999999999995666, 0.000000000000000000 ) ) ;
#1045 = ORIENTED_EDGE ( 'NONE', *, *, #43, .F. ) ;
#1046 = DIRECTION ( 'NONE',  ( 0.000000000000000000, 0.000000000000000000, -1.000000000000000000 ) ) ;
#1047 = CYLINDRICAL_SURFACE ( 'NONE', #815, 0.5000000000000004441 ) ;
#1048 = EDGE_CURVE ( 'NONE', #102, #121, #823, .T. ) ;
#1049 = DIRECTION ( 'NONE',  ( -1.000000000000000000, -1.707404996040165251E-16, 0.000000000000000000 ) ) ;
#1050 = EDGE_LOOP ( 'NONE', ( #698, #2, #171, #1120 ) ) ;
#1051 = CARTESIAN_POINT ( 'NONE',  ( -22.55999999999999872, 7.619999999999995666, -3.499999999999999556 ) ) ;
#1052 = DIRECTION ( 'NONE',  ( 0.000000000000000000, 0.000000000000000000, -1.000000000000000000 ) ) ;
#1053 = DIRECTION ( 'NONE',  ( 0.000000000000000000, 0.000000000000000000, -1.000000000000000000 ) ) ;
#1054 = DIRECTION ( 'NONE',  ( 1.000000000000000000, 0.000000000000000000, 0.000000000000000000 ) ) ;
#1055 = EDGE_LOOP ( 'NONE', ( #207, #263, #69 ) ) ;
#1056 = CIRCLE ( 'NONE', #1215, 0.3000000000000085931 ) ;
#1057 = CIRCLE ( 'NONE', #817, 0.3000000000000085931 ) ;
#1058 = EDGE_CURVE ( 'NONE', #554, #449, #219, .T. ) ;
#1059 = CIRCLE ( 'NONE', #589, 0.5000000000000004441 ) ;
#1060 = DIRECTION ( 'NONE',  ( 1.000000000000000000, 0.000000000000000000, 0.000000000000000000 ) ) ;
#1061 = CARTESIAN_POINT ( 'NONE',  ( 24.89999999999999503, 12.20000000000000639, 0.000000000000000000 ) ) ;
#1062 = DIRECTION ( 'NONE',  ( -1.000000000000000000, -6.829619984160665442E-17, 0.000000000000000000 ) ) ;
#1063 = CARTESIAN_POINT ( 'NONE',  ( -24.90000000000000213, 12.19999999999999574, 12.19999999999999929 ) ) ;
#1064 = ORIENTED_EDGE ( 'NONE', *, *, #871, .T. ) ;
#1065 = DIRECTION ( 'NONE',  ( 0.000000000000000000, 0.000000000000000000, -1.000000000000000000 ) ) ;
#1066 = DIRECTION ( 'NONE',  ( -1.000000000000000000, 0.000000000000000000, 0.000000000000000000 ) ) ;
#1067 = DIRECTION ( 'NONE',  ( 0.000000000000000000, 0.000000000000000000, 1.000000000000000000 ) ) ;
#1068 = CARTESIAN_POINT ( 'NONE',  ( 23.15999999999999659, 10.43971427864676649, -3.499999999999999556 ) ) ;
#1069 = VERTEX_POINT ( 'NONE', #44 ) ;
#1070 = CARTESIAN_POINT ( 'NONE',  ( -22.85999999999999943, -2.540000000000004921, 0.000000000000000000 ) ) ;
#1071 = VERTEX_POINT ( 'NONE', #39 ) ;
#1072 = FACE_OUTER_BOUND ( 'NONE', #288, .T. ) ;
#1073 = EDGE_CURVE ( 'NONE', #466, #395, #936, .T. ) ;
#1074 = DIRECTION ( 'NONE',  ( 0.000000000000000000, 0.000000000000000000, 1.000000000000000000 ) ) ;
#1075 = ORIENTED_EDGE ( 'NONE', *, *, #638, .T. ) ;
#1076 = VECTOR ( 'NONE', #660, 1000.000000000000000 ) ;
#1077 = DIRECTION ( 'NONE',  ( 0.000000000000000000, 0.000000000000000000, 1.000000000000000000 ) ) ;
#1078 = PRODUCT_DEFINITION ( 'ๆ', '', #404, #297 ) ;
#1079 = AXIS2_PLACEMENT_3D ( 'NONE', #507, #603, #1006 ) ;
#1080 = ORIENTED_EDGE ( 'NONE', *, *, #58, .T. ) ;
#1081 = LINE ( 'NONE', #204, #770 ) ;
#1082 = CARTESIAN_POINT ( 'NONE',  ( 23.16000000000000369, -10.15999999999999481, -3.499999999999999556 ) ) ;
#1083 = DIRECTION ( 'NONE',  ( -2.048885995248198400E-16, 1.000000000000000000, -0.000000000000000000 ) ) ;
#1084 = CARTESIAN_POINT ( 'NONE',  ( 22.85999999999999943, 0.2797142786467651243, -3.300000000000000711 ) ) ;
#1085 = DIRECTION ( 'NONE',  ( -1.000000000000000000, 0.000000000000000000, 0.000000000000000000 ) ) ;
#1086 = CARTESIAN_POINT ( 'NONE',  ( -25.40000000000000213, 12.19999999999999574, 0.000000000000000000 ) ) ;
#1087 = EDGE_CURVE ( 'NONE', #550, #457, #1184, .T. ) ;
#1088 = EDGE_LOOP ( 'NONE', ( #785, #631, #801, #955 ) ) ;
#1089 = EDGE_CURVE ( 'NONE', #736, #902, #1121, .T. ) ;
#1090 = EDGE_CURVE ( 'NONE', #496, #1096, #66, .T. ) ;
#1091 = ORIENTED_EDGE ( 'NONE', *, *, #346, .T. ) ;
#1092 = CARTESIAN_POINT ( 'NONE',  ( 24.89999999999999503, 12.70000000000000462, 12.19999999999999929 ) ) ;
#1093 = VERTEX_POINT ( 'NONE', #143 ) ;
#1094 = DIRECTION ( 'NONE',  ( -1.707404996040165251E-16, 1.000000000000000000, 0.000000000000000000 ) ) ;
#1095 = FACE_OUTER_BOUND ( 'NONE', #694, .T. ) ;
#1096 = VERTEX_POINT ( 'NONE', #1210 ) ;
#1097 = EDGE_CURVE ( 'NONE', #657, #1007, #881, .T. ) ;
#1098 = CARTESIAN_POINT ( 'NONE',  ( 22.85999999999999943, 0.2797142786467651243, -3.499999999999999556 ) ) ;
#1099 = AXIS2_PLACEMENT_3D ( 'NONE', #497, #406, #897 ) ;
#1100 = AXIS2_PLACEMENT_3D ( 'NONE', #578, #585, #1085 ) ;
#1101 = CYLINDRICAL_SURFACE ( 'NONE', #483, 0.5000000000000004441 ) ;
#1102 = EDGE_LOOP ( 'NONE', ( #257, #502, #494, #951 ) ) ;
#1103 = DIRECTION ( 'NONE',  ( 0.000000000000000000, 0.000000000000000000, 1.000000000000000000 ) ) ;
#1104 = AXIS2_PLACEMENT_3D ( 'NONE', #1136, #166, #958 ) ;
#1105 = ORIENTED_EDGE ( 'NONE', *, *, #871, .F. ) ;
#1106 = CARTESIAN_POINT ( 'NONE',  ( 24.90000000000000213, -12.19999999999999574, 12.19999999999999929 ) ) ;
#1107 = ADVANCED_FACE ( 'NONE', ( #133 ), #1028, .F. ) ;
#1108 = DIRECTION ( 'NONE',  ( 0.7071067811865510144, 5.828251248826587759E-17, 0.7071067811865441310 ) ) ;
#1109 = ORIENTED_EDGE ( 'NONE', *, *, #870, .T. ) ;
#1110 = PLANE ( 'NONE',  #1161 ) ;
#1111 = ORIENTED_EDGE ( 'NONE', *, *, #283, .T. ) ;
#1112 = SURFACE_STYLE_FILL_AREA ( #907 ) ;
#1113 = ORIENTED_EDGE ( 'NONE', *, *, #313, .T. ) ;
#1114 = LINE ( 'NONE', #233, #746 ) ;
#1115 = FACE_OUTER_BOUND ( 'NONE', #79, .T. ) ;
#1116 = EDGE_LOOP ( 'NONE', ( #684, #1130, #766, #1091 ) ) ;
#1117 = VECTOR ( 'NONE', #1108, 999.9999999999998863 ) ;
#1118 = DIRECTION ( 'NONE',  ( 0.000000000000000000, 0.000000000000000000, 1.000000000000000000 ) ) ;
#1119 = AXIS2_PLACEMENT_3D ( 'NONE', #434, #382, #267 ) ;
#1120 = ORIENTED_EDGE ( 'NONE', *, *, #576, .F. ) ;
#1121 = LINE ( 'NONE', #244, #728 ) ;
#1122 = CARTESIAN_POINT ( 'NONE',  ( -22.85999999999999943, -2.540000000000004921, -3.499999999999999556 ) ) ;
#1123 = APPLICATION_CONTEXT ( 'automotive_design' ) ;
#1124 = ADVANCED_FACE ( 'NONE', ( #1115 ), #705, .T. ) ;
#1125 = ORIENTED_EDGE ( 'NONE', *, *, #617, .F. ) ;
#1126 = ADVANCED_FACE ( 'NONE', ( #1214 ), #1101, .T. ) ;
#1127 = EDGE_CURVE ( 'NONE', #1071, #826, #837, .T. ) ;
#1128 = EDGE_CURVE ( 'NONE', #1071, #97, #918, .T. ) ;
#1129 = CARTESIAN_POINT ( 'NONE',  ( -22.36000000000000298, -2.540000000000004921, -3.300000000000000711 ) ) ;
#1130 = ORIENTED_EDGE ( 'NONE', *, *, #908, .T. ) ;
#1131 = CARTESIAN_POINT ( 'NONE',  ( -25.39999999999999503, -12.70000000000000462, 0.000000000000000000 ) ) ;
#1132 = ORIENTED_EDGE ( 'NONE', *, *, #313, .F. ) ;
#1133 = ADVANCED_FACE ( 'NONE', ( #324 ), #520, .T. ) ;
#1134 = FACE_OUTER_BOUND ( 'NONE', #28, .T. ) ;
#1135 = ORIENTED_EDGE ( 'NONE', *, *, #661, .F. ) ;
#1136 = CARTESIAN_POINT ( 'NONE',  ( -24.89999999999999503, -12.20000000000000639, 0.000000000000000000 ) ) ;
#1137 = VECTOR ( 'NONE', #535, 1000.000000000000000 ) ;
#1138 = DIRECTION ( 'NONE',  ( 0.000000000000000000, 0.000000000000000000, 1.000000000000000000 ) ) ;
#1139 = AXIS2_PLACEMENT_3D ( 'NONE', #1061, #1046, #454 ) ;
#1140 = FACE_OUTER_BOUND ( 'NONE', #779, .T. ) ;
#1141 = AXIS2_PLACEMENT_3D ( 'NONE', #827, #23, #808 ) ;
#1142 = ORIENTED_EDGE ( 'NONE', *, *, #469, .T. ) ;
#1143 = VECTOR ( 'NONE', #484, 1000.000000000000000 ) ;
#1144 = CYLINDRICAL_SURFACE ( 'NONE', #425, 0.5000000000000004441 ) ;
#1145 = ADVANCED_FACE ( 'NONE', ( #348 ), #984, .T. ) ;
#1146 = VERTEX_POINT ( 'NONE', #658 ) ;
#1147 = CARTESIAN_POINT ( 'NONE',  ( 22.86000000000000298, -10.15999999999999481, -3.499999999999999556 ) ) ;
#1148 = FACE_OUTER_BOUND ( 'NONE', #228, .T. ) ;
#1149 = VERTEX_POINT ( 'NONE', #56 ) ;
#1150 = LINE ( 'NONE', #1051, #939 ) ;
#1151 = EDGE_CURVE ( 'NONE', #457, #550, #1057, .T. ) ;
#1152 = ORIENTED_EDGE ( 'NONE', *, *, #283, .F. ) ;
#1153 = DIRECTION ( 'NONE',  ( 0.7071067811865510144, 5.828251248826587759E-17, 0.7071067811865441310 ) ) ;
#1154 = VERTEX_POINT ( 'NONE', #170 ) ;
#1155 = CARTESIAN_POINT ( 'NONE',  ( -22.85999999999999943, -7.620000000000004547, 0.000000000000000000 ) ) ;
#1156 = CARTESIAN_POINT ( 'NONE',  ( -25.39999999999999503, -12.20000000000000639, 12.19999999999999929 ) ) ;
#1157 = ORIENTED_EDGE ( 'NONE', *, *, #179, .T. ) ;
#1158 = DIRECTION ( 'NONE',  ( 0.000000000000000000, 0.000000000000000000, -1.000000000000000000 ) ) ;
#1159 = CARTESIAN_POINT ( 'NONE',  ( 23.36000000000000298, -10.15999999999999481, -3.499999999999999556 ) ) ;
#1160 = ORIENTED_EDGE ( 'NONE', *, *, #269, .T. ) ;
#1161 = AXIS2_PLACEMENT_3D ( 'NONE', #635, #937, #125 ) ;
#1162 = AXIS2_PLACEMENT_3D ( 'NONE', #163, #858, #756 ) ;
#1163 = VECTOR ( 'NONE', #528, 1000.000000000000000 ) ;
#1164 = AXIS2_PLACEMENT_3D ( 'NONE', #678, #83, #960 ) ;
#1165 = CIRCLE ( 'NONE', #216, 0.5000000000000004441 ) ;
#1166 = CARTESIAN_POINT ( 'NONE',  ( -22.36000000000000298, -7.620000000000004547, 0.000000000000000000 ) ) ;
#1167 = ORIENTED_EDGE ( 'NONE', *, *, #893, .T. ) ;
#1168 = CARTESIAN_POINT ( 'NONE',  ( -22.36000000000000298, 7.619999999999995666, -3.300000000000000711 ) ) ;
#1169 = CARTESIAN_POINT ( 'NONE',  ( -24.89999999999999503, -12.70000000000000462, 0.000000000000000000 ) ) ;
#1170 = EDGE_LOOP ( 'NONE', ( #700, #305, #17, #409 ) ) ;
#1171 = ADVANCED_FACE ( 'NONE', ( #859 ), #468, .T. ) ;
#1172 = ADVANCED_FACE ( 'NONE', ( #548 ), #563, .T. ) ;
#1173 = EDGE_CURVE ( 'NONE', #761, #854, #1216, .T. ) ;
#1174 = FACE_OUTER_BOUND ( 'NONE', #357, .T. ) ;
#1175 = FACE_OUTER_BOUND ( 'NONE', #42, .T. ) ;
#1176 = DIRECTION ( 'NONE',  ( 0.000000000000000000, 0.000000000000000000, -1.000000000000000000 ) ) ;
#1177 = CYLINDRICAL_SURFACE ( 'NONE', #906, 0.5000000000000004441 ) ;
#1178 = ORIENTED_EDGE ( 'NONE', *, *, #870, .F. ) ;
#1179 = CARTESIAN_POINT ( 'NONE',  ( -23.35999999999999943, -7.620000000000005436, 0.000000000000000000 ) ) ;
#1180 = ORIENTED_EDGE ( 'NONE', *, *, #973, .T. ) ;
#1181 = DIRECTION ( 'NONE',  ( 0.000000000000000000, 0.000000000000000000, 1.000000000000000000 ) ) ;
#1182 = FACE_OUTER_BOUND ( 'NONE', #896, .T. ) ;
#1183 = EDGE_LOOP ( 'NONE', ( #557, #1109 ) ) ;
#1184 = CIRCLE ( 'NONE', #625, 0.3000000000000085931 ) ;
#1185 = CARTESIAN_POINT ( 'NONE',  ( 22.86000000000000298, -10.15999999999999481, -3.499999999999999556 ) ) ;
#1186 = PRESENTATION_LAYER_ASSIGNMENT (  '', '', ( #356 ) ) ;
#1187 = ORIENTED_EDGE ( 'NONE', *, *, #504, .F. ) ;
#1188 = DIRECTION ( 'NONE',  ( 1.000000000000000000, 0.000000000000000000, 0.000000000000000000 ) ) ;
#1189 = DIRECTION ( 'NONE',  ( 0.000000000000000000, 0.000000000000000000, 1.000000000000000000 ) ) ;
#1190 = EDGE_CURVE ( 'NONE', #294, #1019, #666, .T. ) ;
#1191 = FACE_OUTER_BOUND ( 'NONE', #7, .T. ) ;
#1192 = ORIENTED_EDGE ( 'NONE', *, *, #252, .T. ) ;
#1193 = CARTESIAN_POINT ( 'NONE',  ( -25.39999999999999503, -12.70000000000000462, 0.000000000000000000 ) ) ;
#1194 = CARTESIAN_POINT ( 'NONE',  ( 22.86000000000000298, -10.15999999999999481, -3.499999999999999556 ) ) ;
#1195 = EDGE_CURVE ( 'NONE', #902, #335, #279, .T. ) ;
#1196 = ORIENTED_EDGE ( 'NONE', *, *, #645, .T. ) ;
#1197 = SURFACE_SIDE_STYLE ('',( #1112 ) ) ;
#1198 = CARTESIAN_POINT ( 'NONE',  ( 22.85999999999999943, 0.2797142786467651243, -3.499999999999999556 ) ) ;
#1199 = CARTESIAN_POINT ( 'NONE',  ( -22.85999999999999943, 7.619999999999995666, -3.499999999999999556 ) ) ;
#1200 = VERTEX_POINT ( 'NONE', #1129 ) ;
#1201 = CIRCLE ( 'NONE', #982, 0.5000000000000004441 ) ;
#1202 = CARTESIAN_POINT ( 'NONE',  ( -24.90000000000000213, 12.19999999999999574, 0.000000000000000000 ) ) ;
#1203 = ORIENTED_EDGE ( 'NONE', *, *, #1031, .T. ) ;
#1204 = AXIS2_PLACEMENT_3D ( 'NONE', #293, #1074, #196 ) ;
#1205 = CARTESIAN_POINT ( 'NONE',  ( -22.36000000000000298, -7.620000000000004547, -3.499999999999999556 ) ) ;
#1206 = EDGE_CURVE ( 'NONE', #854, #1093, #762, .T. ) ;
#1207 = CARTESIAN_POINT ( 'NONE',  ( 22.86000000000000298, -10.15999999999999481, -3.499999999999999556 ) ) ;
#1208 = ORIENTED_EDGE ( 'NONE', *, *, #780, .T. ) ;
#1209 = CARTESIAN_POINT ( 'NONE',  ( 22.55999999999999872, 0.2797142786467650688, -3.499999999999999556 ) ) ;
#1210 = CARTESIAN_POINT ( 'NONE',  ( -24.90000000000000213, 12.69999999999999396, 0.000000000000000000 ) ) ;
#1211 = ORIENTED_EDGE ( 'NONE', *, *, #333, .F. ) ;
#1212 = DIRECTION ( 'NONE',  ( 6.829619984160665442E-17, -1.000000000000000000, 0.000000000000000000 ) ) ;
#1213 = ORIENTED_EDGE ( 'NONE', *, *, #367, .T. ) ;
#1214 = FACE_OUTER_BOUND ( 'NONE', #1102, .T. ) ;
#1215 = AXIS2_PLACEMENT_3D ( 'NONE', #790, #95, #11 ) ;
#1216 = CIRCLE ( 'NONE', #1139, 0.5000000000000004441 ) ;
#1217 = EDGE_CURVE ( 'NONE', #1019, #294, #751, .T. ) ;
#1218 = FACE_OUTER_BOUND ( 'NONE', #481, .T. ) ;
#1219 = AXIS2_PLACEMENT_3D ( 'NONE', #304, #1065, #1269 ) ;
#1220 = ADVANCED_FACE ( 'NONE', ( #741 ), #201, .T. ) ;
#1221 = ADVANCED_FACE ( 'NONE', ( #459, #558, #639, #1033, #747, #264, #1134 ), #850, .T. ) ;
#1222 = AXIS2_PLACEMENT_3D ( 'NONE', #1044, #75, #361 ) ;
#1223 = ORIENTED_EDGE ( 'NONE', *, *, #390, .F. ) ;
#1224 = ADVANCED_FACE ( 'NONE', ( #146 ), #1144, .T. ) ;
#1225 = CARTESIAN_POINT ( 'NONE',  ( -22.85999999999999943, -7.620000000000004547, -3.300000000000000711 ) ) ;
#1226 = EDGE_LOOP ( 'NONE', ( #281, #349, #1196, #1157 ) ) ;
#1227 = DIRECTION ( 'NONE',  ( -0.7071067811865510144, -1.448781181118156622E-16, 0.7071067811865441310 ) ) ;
#1228 = DIRECTION ( 'NONE',  ( 1.000000000000000000, 0.000000000000000000, 0.000000000000000000 ) ) ;
#1229 = ORIENTED_EDGE ( 'NONE', *, *, #1004, .F. ) ;
#1230 = DIRECTION ( 'NONE',  ( 1.000000000000000000, 2.168404344971006896E-16, 0.000000000000000000 ) ) ;
#1231 = ORIENTED_EDGE ( 'NONE', *, *, #295, .F. ) ;
#1232 = DIRECTION ( 'NONE',  ( -1.000000000000000000, 0.000000000000000000, 0.000000000000000000 ) ) ;
#1233 = LINE ( 'NONE', #280, #942 ) ;
#1234 = ORIENTED_EDGE ( 'NONE', *, *, #909, .F. ) ;
#1235 = ADVANCED_FACE ( 'NONE', ( #845 ), #752, .T. ) ;
#1236 = DIRECTION ( 'NONE',  ( -1.000000000000000000, 0.000000000000000000, 0.000000000000000000 ) ) ;
#1237 = DIRECTION ( 'NONE',  ( 1.000000000000000000, 0.000000000000000000, 0.000000000000000000 ) ) ;
#1238 = ORIENTED_EDGE ( 'NONE', *, *, #579, .F. ) ;
#1239 = CARTESIAN_POINT ( 'NONE',  ( -22.85999999999999943, -7.620000000000004547, -3.499999999999999556 ) ) ;
#1240 = AXIS2_PLACEMENT_3D ( 'NONE', #471, #1062, #750 ) ;
#1241 = CARTESIAN_POINT ( 'NONE',  ( -22.36000000000000298, -2.540000000000004921, 0.000000000000000000 ) ) ;
#1242 = AXIS2_PLACEMENT_3D ( 'NONE', #1070, #85, #391 ) ;
#1243 = EDGE_LOOP ( 'NONE', ( #285, #542, #419, #1255 ) ) ;
#1244 = CARTESIAN_POINT ( 'NONE',  ( 0.000000000000000000, 0.000000000000000000, 0.000000000000000000 ) ) ;
#1245 = EDGE_LOOP ( 'NONE', ( #165, #1238, #887, #1152 ) ) ;
#1246 = CARTESIAN_POINT ( 'NONE',  ( 23.35999999999999943, 0.2797142786467652353, -3.300000000000000711 ) ) ;
#1247 = DIRECTION ( 'NONE',  ( 0.000000000000000000, 0.000000000000000000, -1.000000000000000000 ) ) ;
#1248 = SPHERICAL_SURFACE ( 'NONE', #1267, 0.5000000000000000000 ) ;
#1249 = ORIENTED_EDGE ( 'NONE', *, *, #118, .T. ) ;
#1250 = DIRECTION ( 'NONE',  ( 1.000000000000000000, 0.000000000000000000, 0.000000000000000000 ) ) ;
#1251 = ORIENTED_EDGE ( 'NONE', *, *, #1265, .T. ) ;
#1252 = CARTESIAN_POINT ( 'NONE',  ( 23.15999999999999659, 10.43971427864676649, -3.499999999999999556 ) ) ;
#1253 = DIRECTION ( 'NONE',  ( 1.000000000000000000, 0.000000000000000000, 0.000000000000000000 ) ) ;
#1254 = CARTESIAN_POINT ( 'NONE',  ( -24.89999999999999503, -12.20000000000000639, 12.19999999999999929 ) ) ;
#1255 = ORIENTED_EDGE ( 'NONE', *, *, #8, .F. ) ;
#1256 = DIRECTION ( 'NONE',  ( 1.000000000000000000, 0.000000000000000000, 0.000000000000000000 ) ) ;
#1257 = ADVANCED_FACE ( 'NONE', ( #852 ), #351, .T. ) ;
#1258 = EDGE_LOOP ( 'NONE', ( #1187, #362, #375, #849 ) ) ;
#1259 = CARTESIAN_POINT ( 'NONE',  ( -22.85999999999999943, -7.620000000000004547, 0.000000000000000000 ) ) ;
#1260 = EDGE_CURVE ( 'NONE', #138, #328, #648, .T. ) ;
#1261 = DIRECTION ( 'NONE',  ( 0.000000000000000000, 0.000000000000000000, 1.000000000000000000 ) ) ;
#1262 = ORIENTED_EDGE ( 'NONE', *, *, #38, .F. ) ;
#1263 = AXIS2_PLACEMENT_3D ( 'NONE', #555, #952, #851 ) ;
#1264 = AXIS2_PLACEMENT_3D ( 'NONE', #397, #977, #3 ) ;
#1265 = EDGE_CURVE ( 'NONE', #749, #1069, #447, .T. ) ;
#1266 = AXIS2_PLACEMENT_3D ( 'NONE', #393, #1067, #189 ) ;
#1267 = AXIS2_PLACEMENT_3D ( 'NONE', #656, #368, #1054 ) ;
#1268 = CIRCLE ( 'NONE', #920, 0.5000000000000004441 ) ;
#1269 = DIRECTION ( 'NONE',  ( 1.000000000000000000, 0.000000000000000000, 0.000000000000000000 ) ) ;
#1270 = FACE_OUTER_BOUND ( 'NONE', #1226, .T. ) ;
#1271 = CARTESIAN_POINT ( 'NONE',  ( -23.35999999999999943, -2.540000000000004921, 0.000000000000000000 ) ) ;
ENDSEC;
END-ISO-10303-21;
