ISO-10303-21;
HEADER;
FILE_DESCRIPTION (( 'STEP AP214' ),
    '1' );
FILE_NAME ('HK_P7_51-66Pin.STEP',
    '2026-09-23T08:12:04',
    ( '' ),
    ( '' ),
    'SwSTEP 2.0',
    'SolidWorks 2025',
    '' );
FILE_SCHEMA (( 'AUTOMOTIVE_DESIGN' ));
ENDSEC;

DATA;
#1 = ORIENTED_EDGE ( 'NONE', *, *, #426, .F. ) ;
#2 =( GEOMETRIC_REPRESENTATION_CONTEXT ( 3 ) GLOBAL_UNCERTAINTY_ASSIGNED_CONTEXT ( ( #329 ) ) GLOBAL_UNIT_ASSIGNED_CONTEXT ( ( #163, #424, #249 ) ) REPRESENTATION_CONTEXT ( 'NONE', 'WORKASPACE' ) );
#3 = CARTESIAN_POINT ( 'NONE',  ( 2.100000000000000089, 1.199999999999999956, 1.499999999999999778 ) ) ;
#4 = ORIENTED_EDGE ( 'NONE', *, *, #35, .T. ) ;
#5 = FACE_OUTER_BOUND ( 'NONE', #225, .T. ) ;
#6 = AXIS2_PLACEMENT_3D ( 'NONE', #128, #313, #131 ) ;
#7 = CARTESIAN_POINT ( 'NONE',  ( 2.100000000000000089, 7.000000000000000000, 1.199999999999999956 ) ) ;
#8 = EDGE_LOOP ( 'NONE', ( #236, #165, #100, #349 ) ) ;
#9 = VECTOR ( 'NONE', #243, 1000.000000000000000 ) ;
#10 = CARTESIAN_POINT ( 'NONE',  ( 3.980102097228898231E-16, -2.118241652006505559E-15, 4.349999999999999645 ) ) ;
#11 = VERTEX_POINT ( 'NONE', #208 ) ;
#12 = ORIENTED_EDGE ( 'NONE', *, *, #242, .T. ) ;
#13 = DIRECTION ( 'NONE',  ( 1.000000000000000000, 0.000000000000000000, 0.000000000000000000 ) ) ;
#14 = ORIENTED_EDGE ( 'NONE', *, *, #333, .T. ) ;
#15 = CARTESIAN_POINT ( 'NONE',  ( 2.100000000000000089, -3.935484080939213199E-18, 1.499999999999999112 ) ) ;
#16 = AXIS2_PLACEMENT_3D ( 'NONE', #387, #322, #397 ) ;
#17 = ORIENTED_EDGE ( 'NONE', *, *, #196, .F. ) ;
#18 = SURFACE_STYLE_FILL_AREA ( #201 ) ;
#19 = LINE ( 'NONE', #377, #82 ) ;
#20 = ORIENTED_EDGE ( 'NONE', *, *, #135, .T. ) ;
#21 = DIRECTION ( 'NONE',  ( -0.000000000000000000, -1.000000000000000000, -0.000000000000000000 ) ) ;
#22 = EDGE_CURVE ( 'NONE', #330, #154, #137, .T. ) ;
#23 = PLANE ( 'NONE',  #312 ) ;
#24 = ORIENTED_EDGE ( 'NONE', *, *, #365, .F. ) ;
#25 = VECTOR ( 'NONE', #147, 1000.000000000000000 ) ;
#26 = FACE_OUTER_BOUND ( 'NONE', #86, .T. ) ;
#27 = ORIENTED_EDGE ( 'NONE', *, *, #35, .F. ) ;
#28 = EDGE_CURVE ( 'NONE', #191, #188, #212, .T. ) ;
#29 = PLANE ( 'NONE',  #443 ) ;
#30 = CIRCLE ( 'NONE', #434, 0.7999999999999899414 ) ;
#31 = CARTESIAN_POINT ( 'NONE',  ( 3.980102097228898231E-16, 1.199999999999999512, 4.349999999999999645 ) ) ;
#32 = DIRECTION ( 'NONE',  ( 0.000000000000000000, 0.000000000000000000, -1.000000000000000000 ) ) ;
#33 = LINE ( 'NONE', #461, #300 ) ;
#34 = SURFACE_STYLE_USAGE ( .BOTH. , #431 ) ;
#35 = EDGE_CURVE ( 'NONE', #279, #370, #346, .T. ) ;
#36 = LINE ( 'NONE', #178, #189 ) ;
#37 = DIRECTION ( 'NONE',  ( 0.000000000000000000, 1.277752127409284760E-16, -1.000000000000000000 ) ) ;
#38 = ORIENTED_EDGE ( 'NONE', *, *, #467, .T. ) ;
#39 = CARTESIAN_POINT ( 'NONE',  ( -9.184850993605169392E-17, 3.949999999999999734, 5.047120903266673890E-16 ) ) ;
#40 = ORIENTED_EDGE ( 'NONE', *, *, #235, .F. ) ;
#41 = EDGE_CURVE ( 'NONE', #11, #306, #136, .T. ) ;
#42 = CARTESIAN_POINT ( 'NONE',  ( -2.326828918379972844E-16, 5.099999999999998757, 1.199999999999999289 ) ) ;
#43 = CARTESIAN_POINT ( 'NONE',  ( 2.100000000000000089, 7.000000000000000000, 0.000000000000000000 ) ) ;
#44 = PRESENTATION_LAYER_ASSIGNMENT (  '', '', ( #192 ) ) ;
#45 = ORIENTED_EDGE ( 'NONE', *, *, #326, .F. ) ;
#46 = ADVANCED_FACE ( 'NONE', ( #177 ), #29, .T. ) ;
#47 = ORIENTED_EDGE ( 'NONE', *, *, #432, .F. ) ;
#48 = AXIS2_PLACEMENT_3D ( 'NONE', #264, #185, #442 ) ;
#49 = DIRECTION ( 'NONE',  ( 0.000000000000000000, -1.219180849034937316E-16, 1.000000000000000000 ) ) ;
#50 = ORIENTED_EDGE ( 'NONE', *, *, #22, .T. ) ;
#51 = DIRECTION ( 'NONE',  ( 0.000000000000000000, -1.000000000000000000, -1.277752127409284760E-16 ) ) ;
#52 = VECTOR ( 'NONE', #286, 1000.000000000000000 ) ;
#53 = ORIENTED_EDGE ( 'NONE', *, *, #67, .T. ) ;
#54 = CARTESIAN_POINT ( 'NONE',  ( 2.100000000000000089, 7.000000000000000000, 0.000000000000000000 ) ) ;
#55 = LINE ( 'NONE', #272, #64 ) ;
#56 = ORIENTED_EDGE ( 'NONE', *, *, #372, .F. ) ;
#57 = FACE_OUTER_BOUND ( 'NONE', #310, .T. ) ;
#58 = CARTESIAN_POINT ( 'NONE',  ( -2.100000000000000089, 1.500000000000000000, 1.499999999999999334 ) ) ;
#59 = ADVANCED_BREP_SHAPE_REPRESENTATION ( 'HK_P7_51-66Pin', ( #211, #268 ), #336 ) ;
#60 = DIRECTION ( 'NONE',  ( 0.000000000000000000, 0.000000000000000000, 1.000000000000000000 ) ) ;
#61 = EDGE_CURVE ( 'NONE', #154, #378, #62, .T. ) ;
#62 = LINE ( 'NONE', #469, #280 ) ;
#63 = DIRECTION ( 'NONE',  ( 1.000000000000000000, 0.000000000000000000, -0.000000000000000000 ) ) ;
#64 = VECTOR ( 'NONE', #421, 1000.000000000000000 ) ;
#65 = DIRECTION ( 'NONE',  ( -1.000000000000000000, -0.000000000000000000, -0.000000000000000000 ) ) ;
#66 = FACE_OUTER_BOUND ( 'NONE', #351, .T. ) ;
#67 = EDGE_CURVE ( 'NONE', #112, #408, #404, .T. ) ;
#68 = CLOSED_SHELL ( 'NONE', ( #297, #108, #221, #46, #450, #247, #382, #283, #462, #184, #84, #459, #172, #207 ) ) ;
#69 = EDGE_CURVE ( 'NONE', #418, #112, #174, .T. ) ;
#70 = DIRECTION ( 'NONE',  ( -0.000000000000000000, -1.000000000000000000, -0.000000000000000000 ) ) ;
#71 = ORIENTED_EDGE ( 'NONE', *, *, #391, .F. ) ;
#72 = PLANE ( 'NONE',  #244 ) ;
#73 = ORIENTED_EDGE ( 'NONE', *, *, #22, .F. ) ;
#74 = CARTESIAN_POINT ( 'NONE',  ( 2.100000000000000089, -8.817456953860944275E-16, 8.699999999999999289 ) ) ;
#75 = ORIENTED_EDGE ( 'NONE', *, *, #41, .F. ) ;
#76 = EDGE_CURVE ( 'NONE', #314, #154, #140, .T. ) ;
#77 = CARTESIAN_POINT ( 'NONE',  ( -2.100000000000000089, 0.000000000000000000, 1.499999999999999556 ) ) ;
#78 = ORIENTED_EDGE ( 'NONE', *, *, #159, .F. ) ;
#79 = DIRECTION ( 'NONE',  ( 0.000000000000000000, 1.000000000000000000, 1.277752127409284760E-16 ) ) ;
#80 = DIRECTION ( 'NONE',  ( 0.000000000000000000, 1.000000000000000000, 0.000000000000000000 ) ) ;
#81 = ORIENTED_EDGE ( 'NONE', *, *, #152, .F. ) ;
#82 = VECTOR ( 'NONE', #90, 1000.000000000000000 ) ;
#83 = EDGE_LOOP ( 'NONE', ( #198, #4 ) ) ;
#84 = ADVANCED_FACE ( 'NONE', ( #430 ), #353, .F. ) ;
#85 = VECTOR ( 'NONE', #361, 1000.000000000000000 ) ;
#86 = EDGE_LOOP ( 'NONE', ( #118, #428, #445, #267 ) ) ;
#87 = CARTESIAN_POINT ( 'NONE',  ( 2.100000000000000089, 1.199999999999999067, 8.699999999999999289 ) ) ;
#88 = ORIENTED_EDGE ( 'NONE', *, *, #61, .T. ) ;
#89 = VECTOR ( 'NONE', #403, 1000.000000000000000 ) ;
#90 = DIRECTION ( 'NONE',  ( -1.000000000000000000, -0.000000000000000000, -0.000000000000000000 ) ) ;
#91 = EDGE_LOOP ( 'NONE', ( #338, #260, #200, #122 ) ) ;
#92 = DIRECTION ( 'NONE',  ( 0.000000000000000000, 0.000000000000000000, -1.000000000000000000 ) ) ;
#93 = LINE ( 'NONE', #121, #289 ) ;
#94 = CIRCLE ( 'NONE', #199, 1.149999999999999911 ) ;
#95 = VERTEX_POINT ( 'NONE', #246 ) ;
#96 = CYLINDRICAL_SURFACE ( 'NONE', #113, 1.149999999999999911 ) ;
#97 = DIRECTION ( 'NONE',  ( 0.000000000000000000, -1.000000000000000000, -1.219180849034937316E-16 ) ) ;
#98 = CARTESIAN_POINT ( 'NONE',  ( 2.100000000000000089, 1.199999999999999067, 8.699999999999999289 ) ) ;
#99 = DIRECTION ( 'NONE',  ( -0.000000000000000000, 1.277752127409284760E-16, -1.000000000000000000 ) ) ;
#100 = ORIENTED_EDGE ( 'NONE', *, *, #152, .T. ) ;
#101 = FACE_BOUND ( 'NONE', #83, .T. ) ;
#102 = VECTOR ( 'NONE', #444, 1000.000000000000000 ) ;
#103 = LINE ( 'NONE', #126, #139 ) ;
#104 = VECTOR ( 'NONE', #245, 1000.000000000000000 ) ;
#105 = CARTESIAN_POINT ( 'NONE',  ( 2.100000000000000089, 1.199999999999999956, 1.499999999999999778 ) ) ;
#106 = DIRECTION ( 'NONE',  ( -0.000000000000000000, 1.000000000000000000, 0.000000000000000000 ) ) ;
#107 = ORIENTED_EDGE ( 'NONE', *, *, #76, .T. ) ;
#108 = ADVANCED_FACE ( 'NONE', ( #284 ), #96, .F. ) ;
#109 = CARTESIAN_POINT ( 'NONE',  ( -2.100000000000000089, 7.000000000000000000, 1.199999999999999956 ) ) ;
#110 = ORIENTED_EDGE ( 'NONE', *, *, #333, .F. ) ;
#111 = LINE ( 'NONE', #229, #466 ) ;
#112 = VERTEX_POINT ( 'NONE', #396 ) ;
#113 = AXIS2_PLACEMENT_3D ( 'NONE', #427, #433, #171 ) ;
#114 = CARTESIAN_POINT ( 'NONE',  ( 3.980102097228898231E-16, -2.118241652006505559E-15, 3.550000000000009592 ) ) ;
#115 = ORIENTED_EDGE ( 'NONE', *, *, #407, .F. ) ;
#116 = CARTESIAN_POINT ( 'NONE',  ( 4.959819536546767781E-16, 1.199999999999999512, 5.149999999999988809 ) ) ;
#117 = EDGE_CURVE ( 'NONE', #302, #191, #468, .T. ) ;
#118 = ORIENTED_EDGE ( 'NONE', *, *, #415, .T. ) ;
#119 = DIRECTION ( 'NONE',  ( 0.000000000000000000, 0.000000000000000000, -1.000000000000000000 ) ) ;
#120 = VERTEX_POINT ( 'NONE', #98 ) ;
#121 = CARTESIAN_POINT ( 'NONE',  ( -2.100000000000000089, 1.199999999999999956, 1.499999999999999334 ) ) ;
#122 = ORIENTED_EDGE ( 'NONE', *, *, #407, .T. ) ;
#123 = FACE_BOUND ( 'NONE', #162, .T. ) ;
#124 = EDGE_CURVE ( 'NONE', #294, #306, #132, .T. ) ;
#125 = ORIENTED_EDGE ( 'NONE', *, *, #255, .T. ) ;
#126 = CARTESIAN_POINT ( 'NONE',  ( 4.959819536546767781E-16, -6.609119610211580255E-16, 5.149999999999988809 ) ) ;
#127 = AXIS2_PLACEMENT_3D ( 'NONE', #15, #164, #348 ) ;
#128 = CARTESIAN_POINT ( 'NONE',  ( -2.100000000000000089, 1.500000000000000000, 1.499999999999999334 ) ) ;
#129 = EDGE_LOOP ( 'NONE', ( #385, #454, #452, #447 ) ) ;
#130 = CARTESIAN_POINT ( 'NONE',  ( 2.100000000000000089, 1.500000000000000000, 1.499999999999999334 ) ) ;
#131 = DIRECTION ( 'NONE',  ( 0.000000000000000000, 0.000000000000000000, 1.000000000000000000 ) ) ;
#132 = CIRCLE ( 'NONE', #145, 1.149999999999999911 ) ;
#133 = DIRECTION ( 'NONE',  ( -1.000000000000000000, -0.000000000000000000, -0.000000000000000000 ) ) ;
#134 = DIRECTION ( 'NONE',  ( 0.000000000000000000, 1.000000000000000000, 1.277752127409284760E-16 ) ) ;
#135 = EDGE_CURVE ( 'NONE', #11, #324, #429, .T. ) ;
#136 = LINE ( 'NONE', #175, #9 ) ;
#137 = LINE ( 'NONE', #316, #104 ) ;
#138 = DIRECTION ( 'NONE',  ( -0.000000000000000000, 1.277752127409284760E-16, -1.000000000000000000 ) ) ;
#139 = VECTOR ( 'NONE', #21, 1000.000000000000000 ) ;
#140 = LINE ( 'NONE', #251, #234 ) ;
#141 = DIRECTION ( 'NONE',  ( -1.000000000000000000, -0.000000000000000000, -0.000000000000000000 ) ) ;
#142 = DIRECTION ( 'NONE',  ( 0.000000000000000000, -1.000000000000000000, -1.219180849034937316E-16 ) ) ;
#143 = FACE_OUTER_BOUND ( 'NONE', #91, .T. ) ;
#144 = ORIENTED_EDGE ( 'NONE', *, *, #355, .T. ) ;
#145 = AXIS2_PLACEMENT_3D ( 'NONE', #248, #464, #134 ) ;
#146 = EDGE_CURVE ( 'NONE', #95, #330, #33, .T. ) ;
#147 = DIRECTION ( 'NONE',  ( 0.000000000000000000, -1.000000000000000000, -1.277752127409284760E-16 ) ) ;
#148 = CARTESIAN_POINT ( 'NONE',  ( -2.326828918379972844E-16, 6.249999999999998224, 1.199999999999999512 ) ) ;
#149 = VECTOR ( 'NONE', #261, 1000.000000000000000 ) ;
#150 = LINE ( 'NONE', #405, #25 ) ;
#151 = ORIENTED_EDGE ( 'NONE', *, *, #242, .F. ) ;
#152 = EDGE_CURVE ( 'NONE', #306, #294, #94, .T. ) ;
#153 = DIRECTION ( 'NONE',  ( 0.000000000000000000, 0.000000000000000000, -1.000000000000000000 ) ) ;
#154 = VERTEX_POINT ( 'NONE', #181 ) ;
#155 = DIRECTION ( 'NONE',  ( 0.000000000000000000, 1.000000000000000000, 1.277752127409284760E-16 ) ) ;
#156 = EDGE_LOOP ( 'NONE', ( #53, #78, #17, #380 ) ) ;
#157 = PRODUCT_CONTEXT ( 'NONE', #319, 'mechanical' ) ;
#158 = EDGE_LOOP ( 'NONE', ( #241, #195, #341, #14, #38, #230, #50, #88 ) ) ;
#159 = EDGE_CURVE ( 'NONE', #296, #408, #331, .T. ) ;
#160 = CIRCLE ( 'NONE', #263, 0.7999999999999890532 ) ;
#161 = CARTESIAN_POINT ( 'NONE',  ( -2.100000000000000089, 1.199999999999999956, 1.499999999999999778 ) ) ;
#162 = EDGE_LOOP ( 'NONE', ( #238, #228 ) ) ;
#163 =( LENGTH_UNIT ( ) NAMED_UNIT ( * ) SI_UNIT ( .MILLI., .METRE. ) );
#164 = DIRECTION ( 'NONE',  ( 0.000000000000000000, -1.000000000000000000, -1.219180849034937562E-16 ) ) ;
#165 = ORIENTED_EDGE ( 'NONE', *, *, #41, .T. ) ;
#166 = CARTESIAN_POINT ( 'NONE',  ( 2.100000000000000089, 1.500000000000000000, 1.499999999999999334 ) ) ;
#167 = CIRCLE ( 'NONE', #231, 0.7999999999999899414 ) ;
#168 = PLANE ( 'NONE',  #127 ) ;
#169 = ORIENTED_EDGE ( 'NONE', *, *, #432, .T. ) ;
#170 = CARTESIAN_POINT ( 'NONE',  ( 3.980102097228898231E-16, 1.199999999999999512, 4.349999999999999645 ) ) ;
#171 = DIRECTION ( 'NONE',  ( 0.000000000000000000, 1.000000000000000000, 0.000000000000000000 ) ) ;
#172 = ADVANCED_FACE ( 'NONE', ( #66 ), #350, .F. ) ;
#173 = ORIENTED_EDGE ( 'NONE', *, *, #235, .T. ) ;
#174 = LINE ( 'NONE', #392, #85 ) ;
#175 = CARTESIAN_POINT ( 'NONE',  ( -9.184850993605169392E-17, 3.949999999999998845, 4.452691193458118590 ) ) ;
#176 = CARTESIAN_POINT ( 'NONE',  ( -2.100000000000000089, 7.000000000000000000, 0.000000000000000000 ) ) ;
#177 = FACE_OUTER_BOUND ( 'NONE', #400, .T. ) ;
#178 = CARTESIAN_POINT ( 'NONE',  ( 2.100000000000000089, 7.000000000000000000, 1.199999999999999956 ) ) ;
#179 = ORIENTED_EDGE ( 'NONE', *, *, #205, .T. ) ;
#180 = VECTOR ( 'NONE', #190, 1000.000000000000000 ) ;
#181 = CARTESIAN_POINT ( 'NONE',  ( -2.100000000000000089, -8.817456953860944275E-16, 8.699999999999999289 ) ) ;
#182 = DIRECTION ( 'NONE',  ( 0.000000000000000000, 1.000000000000000000, 1.277752127409284760E-16 ) ) ;
#183 = EDGE_LOOP ( 'NONE', ( #1, #115, #12, #367 ) ) ;
#184 = ADVANCED_FACE ( 'NONE', ( #347 ), #362, .F. ) ;
#185 = DIRECTION ( 'NONE',  ( -0.000000000000000000, -1.000000000000000000, -0.000000000000000000 ) ) ;
#186 = ORIENTED_EDGE ( 'NONE', *, *, #439, .T. ) ;
#187 = DIRECTION ( 'NONE',  ( 0.000000000000000000, -1.219180849034937562E-16, 1.000000000000000000 ) ) ;
#188 = VERTEX_POINT ( 'NONE', #176 ) ;
#189 = VECTOR ( 'NONE', #328, 1000.000000000000000 ) ;
#190 = DIRECTION ( 'NONE',  ( 0.000000000000000000, -1.000000000000000000, -1.277752127409284760E-16 ) ) ;
#191 = VERTEX_POINT ( 'NONE', #54 ) ;
#192 = STYLED_ITEM ( 'NONE', ( #290 ), #211 ) ;
#193 = ORIENTED_EDGE ( 'NONE', *, *, #117, .F. ) ;
#194 = CARTESIAN_POINT ( 'NONE',  ( 0.000000000000000000, 0.000000000000000000, 0.000000000000000000 ) ) ;
#195 = ORIENTED_EDGE ( 'NONE', *, *, #67, .F. ) ;
#196 = EDGE_CURVE ( 'NONE', #418, #296, #423, .T. ) ;
#197 = LINE ( 'NONE', #87, #259 ) ;
#198 = ORIENTED_EDGE ( 'NONE', *, *, #213, .T. ) ;
#199 = AXIS2_PLACEMENT_3D ( 'NONE', #281, #282, #79 ) ;
#200 = ORIENTED_EDGE ( 'NONE', *, *, #365, .T. ) ;
#201 = FILL_AREA_STYLE ('',( #352 ) ) ;
#202 = DIRECTION ( 'NONE',  ( 0.000000000000000000, 1.277752127409284760E-16, -1.000000000000000000 ) ) ;
#203 = ORIENTED_EDGE ( 'NONE', *, *, #124, .T. ) ;
#204 = DIRECTION ( 'NONE',  ( -0.000000000000000000, -1.000000000000000000, -0.000000000000000000 ) ) ;
#205 = EDGE_CURVE ( 'NONE', #324, #294, #218, .T. ) ;
#206 = VECTOR ( 'NONE', #51, 1000.000000000000000 ) ;
#207 = ADVANCED_FACE ( 'NONE', ( #57 ), #420, .F. ) ;
#208 = CARTESIAN_POINT ( 'NONE',  ( -9.184850993605169392E-17, 3.949999999999998845, 1.199999999999999067 ) ) ;
#209 = AXIS2_PLACEMENT_3D ( 'NONE', #470, #458, #455 ) ;
#210 = CARTESIAN_POINT ( 'NONE',  ( 2.100000000000000089, 7.000000000000000000, 0.000000000000000000 ) ) ;
#211 = MANIFOLD_SOLID_BREP ( 'M2 \X2\87ba7eb95b54\X0\1', #68 ) ;
#212 = LINE ( 'NONE', #210, #293 ) ;
#213 = EDGE_CURVE ( 'NONE', #370, #279, #160, .T. ) ;
#214 = SHAPE_DEFINITION_REPRESENTATION ( #383, #59 ) ;
#215 = CIRCLE ( 'NONE', #357, 1.500000000000000000 ) ;
#216 = DIRECTION ( 'NONE',  ( -0.000000000000000000, -1.277752127409284760E-16, 1.000000000000000000 ) ) ;
#217 = DIRECTION ( 'NONE',  ( 0.000000000000000000, 0.000000000000000000, -1.000000000000000000 ) ) ;
#218 = LINE ( 'NONE', #277, #285 ) ;
#219 = COLOUR_RGB ( '',1.000000000000000000, 1.000000000000000000, 1.000000000000000000 ) ;
#220 = DIRECTION ( 'NONE',  ( 0.000000000000000000, 0.000000000000000000, -1.000000000000000000 ) ) ;
#221 = ADVANCED_FACE ( 'NONE', ( #101, #26 ), #252, .F. ) ;
#222 = CARTESIAN_POINT ( 'NONE',  ( 2.100000000000000089, 1.199999999999999956, 1.499999999999999334 ) ) ;
#223 = EDGE_LOOP ( 'NONE', ( #73, #441, #422, #107 ) ) ;
#224 = FACE_OUTER_BOUND ( 'NONE', #411, .T. ) ;
#225 = EDGE_LOOP ( 'NONE', ( #110, #265, #388, #303 ) ) ;
#226 = AXIS2_PLACEMENT_3D ( 'NONE', #31, #97, #356 ) ;
#227 = DIRECTION ( 'NONE',  ( -0.000000000000000000, -1.277752127409284760E-16, 1.000000000000000000 ) ) ;
#228 = ORIENTED_EDGE ( 'NONE', *, *, #135, .F. ) ;
#229 = CARTESIAN_POINT ( 'NONE',  ( 2.100000000000000089, -3.935484080939213199E-18, 1.499999999999999112 ) ) ;
#230 = ORIENTED_EDGE ( 'NONE', *, *, #426, .T. ) ;
#231 = AXIS2_PLACEMENT_3D ( 'NONE', #10, #70, #153 ) ;
#232 =( NAMED_UNIT ( * ) SI_UNIT ( $, .STERADIAN. ) SOLID_ANGLE_UNIT ( ) );
#233 = VERTEX_POINT ( 'NONE', #435 ) ;
#234 = VECTOR ( 'NONE', #354, 1000.000000000000000 ) ;
#235 = EDGE_CURVE ( 'NONE', #279, #233, #103, .T. ) ;
#236 = ORIENTED_EDGE ( 'NONE', *, *, #317, .T. ) ;
#237 = DIRECTION ( 'NONE',  ( 0.000000000000000000, 0.000000000000000000, -1.000000000000000000 ) ) ;
#238 = ORIENTED_EDGE ( 'NONE', *, *, #317, .F. ) ;
#239 = CARTESIAN_POINT ( 'NONE',  ( -2.100000000000000089, 1.500000000000000000, 1.499999999999999334 ) ) ;
#240 = ORIENTED_EDGE ( 'NONE', *, *, #391, .T. ) ;
#241 = ORIENTED_EDGE ( 'NONE', *, *, #415, .F. ) ;
#242 = EDGE_CURVE ( 'NONE', #343, #95, #323, .T. ) ;
#243 = DIRECTION ( 'NONE',  ( -0.000000000000000000, 1.277752127409284760E-16, -1.000000000000000000 ) ) ;
#244 = AXIS2_PLACEMENT_3D ( 'NONE', #364, #37, #182 ) ;
#245 = DIRECTION ( 'NONE',  ( 0.000000000000000000, -1.219180849034937562E-16, 1.000000000000000000 ) ) ;
#246 = CARTESIAN_POINT ( 'NONE',  ( 2.100000000000000089, 0.000000000000000000, 1.499999999999999556 ) ) ;
#247 = ADVANCED_FACE ( 'NONE', ( #335 ), #258, .T. ) ;
#248 = CARTESIAN_POINT ( 'NONE',  ( -2.326828918379972844E-16, 5.099999999999999645, 6.516535849787351636E-16 ) ) ;
#249 =( NAMED_UNIT ( * ) SI_UNIT ( $, .STERADIAN. ) SOLID_ANGLE_UNIT ( ) );
#250 = AXIS2_PLACEMENT_3D ( 'NONE', #440, #106, #266 ) ;
#251 = CARTESIAN_POINT ( 'NONE',  ( 2.100000000000000089, -8.817456953860944275E-16, 8.699999999999999289 ) ) ;
#252 = PLANE ( 'NONE',  #16 ) ;
#253 = AXIS2_PLACEMENT_3D ( 'NONE', #394, #216, #358 ) ;
#254 = ORIENTED_EDGE ( 'NONE', *, *, #304, .F. ) ;
#255 = EDGE_CURVE ( 'NONE', #302, #418, #301, .T. ) ;
#256 = CARTESIAN_POINT ( 'NONE',  ( -2.100000000000000089, 1.199999999999999067, 8.699999999999999289 ) ) ;
#257 = ORIENTED_EDGE ( 'NONE', *, *, #76, .F. ) ;
#258 = CYLINDRICAL_SURFACE ( 'NONE', #395, 1.499999999999999778 ) ;
#259 = VECTOR ( 'NONE', #379, 1000.000000000000000 ) ;
#260 = ORIENTED_EDGE ( 'NONE', *, *, #28, .F. ) ;
#261 = DIRECTION ( 'NONE',  ( 0.000000000000000000, -1.000000000000000000, -1.277752127409284760E-16 ) ) ;
#262 = PRODUCT_DEFINITION_CONTEXT ( 'detailed design', #369, 'design' ) ;
#263 = AXIS2_PLACEMENT_3D ( 'NONE', #170, #142, #32 ) ;
#264 = CARTESIAN_POINT ( 'NONE',  ( 3.980102097228898231E-16, -6.609119610211580255E-16, 4.349999999999999645 ) ) ;
#265 = ORIENTED_EDGE ( 'NONE', *, *, #373, .F. ) ;
#266 = DIRECTION ( 'NONE',  ( 0.000000000000000000, -0.000000000000000000, 1.000000000000000000 ) ) ;
#267 = ORIENTED_EDGE ( 'NONE', *, *, #159, .T. ) ;
#268 = AXIS2_PLACEMENT_3D ( 'NONE', #194, #342, #13 ) ;
#269 = CARTESIAN_POINT ( 'NONE',  ( -2.100000000000000089, 1.500000000000000444, -7.027636700751065934E-16 ) ) ;
#270 = VERTEX_POINT ( 'NONE', #114 ) ;
#271 = PRODUCT_DEFINITION ( 'ๆ', '', #320, #262 ) ;
#272 = CARTESIAN_POINT ( 'NONE',  ( 3.980102097228898231E-16, -6.609119610211580255E-16, 3.550000000000010481 ) ) ;
#273 = ORIENTED_EDGE ( 'NONE', *, *, #196, .T. ) ;
#274 = PRODUCT ( 'HK_P7_51-66Pin', 'HK_P7_51-66Pin', '', ( #157 ) ) ;
#275 = LINE ( 'NONE', #278, #206 ) ;
#276 = EDGE_LOOP ( 'NONE', ( #413, #81 ) ) ;
#277 = CARTESIAN_POINT ( 'NONE',  ( -2.326828918379972844E-16, 6.249999999999998224, 4.452691193458118590 ) ) ;
#278 = CARTESIAN_POINT ( 'NONE',  ( -2.100000000000000089, 7.000000000000000000, 0.000000000000000000 ) ) ;
#279 = VERTEX_POINT ( 'NONE', #116 ) ;
#280 = VECTOR ( 'NONE', #318, 1000.000000000000000 ) ;
#281 = CARTESIAN_POINT ( 'NONE',  ( -2.326828918379972844E-16, 5.099999999999999645, 6.516535849787351636E-16 ) ) ;
#282 = DIRECTION ( 'NONE',  ( 0.000000000000000000, 1.277752127409284760E-16, -1.000000000000000000 ) ) ;
#283 = ADVANCED_FACE ( 'NONE', ( #5 ), #368, .T. ) ;
#284 = FACE_OUTER_BOUND ( 'NONE', #8, .T. ) ;
#285 = VECTOR ( 'NONE', #99, 1000.000000000000000 ) ;
#286 = DIRECTION ( 'NONE',  ( 0.000000000000000000, 0.000000000000000000, -1.000000000000000000 ) ) ;
#287 = CARTESIAN_POINT ( 'NONE',  ( 3.980102097228898231E-16, -6.609119610211580255E-16, 4.349999999999999645 ) ) ;
#288 = CARTESIAN_POINT ( 'NONE',  ( 2.100000000000000089, -8.817456953860944275E-16, 8.699999999999999289 ) ) ;
#289 = VECTOR ( 'NONE', #49, 1000.000000000000000 ) ;
#290 = PRESENTATION_STYLE_ASSIGNMENT (( #34 ) ) ;
#291 = PRODUCT_RELATED_PRODUCT_CATEGORY ( 'part', '', ( #274 ) ) ;
#292 = CYLINDRICAL_SURFACE ( 'NONE', #48, 0.7999999999999890532 ) ;
#293 = VECTOR ( 'NONE', #425, 1000.000000000000000 ) ;
#294 = VERTEX_POINT ( 'NONE', #366 ) ;
#295 = DIRECTION ( 'NONE',  ( 0.000000000000000000, 0.000000000000000000, 1.000000000000000000 ) ) ;
#296 = VERTEX_POINT ( 'NONE', #3 ) ;
#297 = ADVANCED_FACE ( 'NONE', ( #224 ), #292, .F. ) ;
#298 = DIRECTION ( 'NONE',  ( 0.000000000000000000, 1.000000000000000000, 1.885568995626964287E-16 ) ) ;
#299 = CARTESIAN_POINT ( 'NONE',  ( 2.100000000000000089, 1.500000000000000444, -7.027636700751065934E-16 ) ) ;
#300 = VECTOR ( 'NONE', #133, 1000.000000000000000 ) ;
#301 = LINE ( 'NONE', #7, #149 ) ;
#302 = VERTEX_POINT ( 'NONE', #446 ) ;
#303 = ORIENTED_EDGE ( 'NONE', *, *, #28, .T. ) ;
#304 = EDGE_CURVE ( 'NONE', #314, #120, #406, .T. ) ;
#305 = APPLICATION_PROTOCOL_DEFINITION ( 'draft international standard', 'automotive_design', 1998, #369 ) ;
#306 = VERTEX_POINT ( 'NONE', #39 ) ;
#307 = DIRECTION ( 'NONE',  ( -0.000000000000000000, -1.000000000000000000, -0.000000000000000000 ) ) ;
#308 = ORIENTED_EDGE ( 'NONE', *, *, #213, .F. ) ;
#309 = FACE_OUTER_BOUND ( 'NONE', #158, .T. ) ;
#310 = EDGE_LOOP ( 'NONE', ( #40, #308, #240, #345 ) ) ;
#311 = DIRECTION ( 'NONE',  ( -1.000000000000000000, -0.000000000000000000, -0.000000000000000000 ) ) ;
#312 = AXIS2_PLACEMENT_3D ( 'NONE', #384, #202, #155 ) ;
#313 = DIRECTION ( 'NONE',  ( -1.000000000000000000, 0.000000000000000000, 0.000000000000000000 ) ) ;
#314 = VERTEX_POINT ( 'NONE', #332 ) ;
#315 = MECHANICAL_DESIGN_GEOMETRIC_PRESENTATION_REPRESENTATION (  '', ( #192 ), #2 ) ;
#316 = CARTESIAN_POINT ( 'NONE',  ( -2.100000000000000089, -3.935484080939213199E-18, 1.499999999999999112 ) ) ;
#317 = EDGE_CURVE ( 'NONE', #324, #11, #410, .T. ) ;
#318 = DIRECTION ( 'NONE',  ( 0.000000000000000000, 1.000000000000000000, 0.000000000000000000 ) ) ;
#319 = APPLICATION_CONTEXT ( 'automotive_design' ) ;
#320 = PRODUCT_DEFINITION_FORMATION_WITH_SPECIFIED_SOURCE ( 'ไป', '', #274, .NOT_KNOWN. ) ;
#321 = CARTESIAN_POINT ( 'NONE',  ( 2.100000000000000089, 1.500000000000000000, 1.499999999999999334 ) ) ;
#322 = DIRECTION ( 'NONE',  ( 0.000000000000000000, -1.000000000000000000, -1.219180849034937316E-16 ) ) ;
#323 = CIRCLE ( 'NONE', #386, 1.500000000000000000 ) ;
#324 = VERTEX_POINT ( 'NONE', #148 ) ;
#325 = UNCERTAINTY_MEASURE_WITH_UNIT (LENGTH_MEASURE( 1.000000000000000082E-05 ), #412, 'distance_accuracy_value', 'NONE');
#326 = EDGE_CURVE ( 'NONE', #95, #314, #111, .T. ) ;
#327 = DIRECTION ( 'NONE',  ( -1.000000000000000000, -0.000000000000000000, -0.000000000000000000 ) ) ;
#328 = DIRECTION ( 'NONE',  ( -1.000000000000000000, -0.000000000000000000, -0.000000000000000000 ) ) ;
#329 = UNCERTAINTY_MEASURE_WITH_UNIT (LENGTH_MEASURE( 1.000000000000000082E-05 ), #163, 'distance_accuracy_value', 'NONE');
#330 = VERTEX_POINT ( 'NONE', #77 ) ;
#331 = LINE ( 'NONE', #105, #360 ) ;
#332 = CARTESIAN_POINT ( 'NONE',  ( 2.100000000000000089, -8.817456953860944275E-16, 8.699999999999999289 ) ) ;
#333 = EDGE_CURVE ( 'NONE', #449, #188, #401, .T. ) ;
#334 = CARTESIAN_POINT ( 'NONE',  ( 2.100000000000000089, 1.500000000000000000, 1.499999999999999334 ) ) ;
#335 = FACE_OUTER_BOUND ( 'NONE', #183, .T. ) ;
#336 =( GEOMETRIC_REPRESENTATION_CONTEXT ( 3 ) GLOBAL_UNCERTAINTY_ASSIGNED_CONTEXT ( ( #325 ) ) GLOBAL_UNIT_ASSIGNED_CONTEXT ( ( #412, #409, #232 ) ) REPRESENTATION_CONTEXT ( 'NONE', 'WORKASPACE' ) );
#337 = CARTESIAN_POINT ( 'NONE',  ( 3.980102097228898231E-16, 1.199999999999999512, 3.550000000000010481 ) ) ;
#338 = ORIENTED_EDGE ( 'NONE', *, *, #467, .F. ) ;
#339 = AXIS2_PLACEMENT_3D ( 'NONE', #321, #465, #60 ) ;
#340 = EDGE_CURVE ( 'NONE', #449, #112, #150, .T. ) ;
#341 = ORIENTED_EDGE ( 'NONE', *, *, #340, .F. ) ;
#342 = DIRECTION ( 'NONE',  ( 0.000000000000000000, 0.000000000000000000, 1.000000000000000000 ) ) ;
#343 = VERTEX_POINT ( 'NONE', #299 ) ;
#344 = FACE_BOUND ( 'NONE', #438, .T. ) ;
#345 = ORIENTED_EDGE ( 'NONE', *, *, #372, .T. ) ;
#346 = CIRCLE ( 'NONE', #226, 0.7999999999999890532 ) ;
#347 = FACE_OUTER_BOUND ( 'NONE', #156, .T. ) ;
#348 = DIRECTION ( 'NONE',  ( 0.000000000000000000, 1.219180849034937562E-16, -1.000000000000000000 ) ) ;
#349 = ORIENTED_EDGE ( 'NONE', *, *, #205, .F. ) ;
#350 = CYLINDRICAL_SURFACE ( 'NONE', #463, 1.149999999999999911 ) ;
#351 = EDGE_LOOP ( 'NONE', ( #75, #20, #179, #203 ) ) ;
#352 = FILL_AREA_STYLE_COLOUR ( '', #219 ) ;
#353 = PLANE ( 'NONE',  #339 ) ;
#354 = DIRECTION ( 'NONE',  ( -1.000000000000000000, -0.000000000000000000, -0.000000000000000000 ) ) ;
#355 = EDGE_CURVE ( 'NONE', #296, #120, #363, .T. ) ;
#356 = DIRECTION ( 'NONE',  ( 0.000000000000000000, 0.000000000000000000, -1.000000000000000000 ) ) ;
#357 = AXIS2_PLACEMENT_3D ( 'NONE', #239, #414, #237 ) ;
#358 = DIRECTION ( 'NONE',  ( 0.000000000000000000, 1.000000000000000000, 1.885568995626964287E-16 ) ) ;
#359 = DIRECTION ( 'NONE',  ( 0.000000000000000000, 1.000000000000000000, 0.000000000000000000 ) ) ;
#360 = VECTOR ( 'NONE', #141, 1000.000000000000000 ) ;
#361 = DIRECTION ( 'NONE',  ( -1.000000000000000000, -0.000000000000000000, -0.000000000000000000 ) ) ;
#362 = CYLINDRICAL_SURFACE ( 'NONE', #209, 0.3000000000000001554 ) ;
#363 = LINE ( 'NONE', #222, #102 ) ;
#364 = CARTESIAN_POINT ( 'NONE',  ( 2.100000000000000089, 7.000000000000000000, 0.000000000000000000 ) ) ;
#365 = EDGE_CURVE ( 'NONE', #191, #343, #371, .T. ) ;
#366 = CARTESIAN_POINT ( 'NONE',  ( -2.326828918379972844E-16, 6.249999999999999112, 7.985950796308029381E-16 ) ) ;
#367 = ORIENTED_EDGE ( 'NONE', *, *, #146, .T. ) ;
#368 = PLANE ( 'NONE',  #250 ) ;
#369 = APPLICATION_CONTEXT ( 'automotive_design' ) ;
#370 = VERTEX_POINT ( 'NONE', #337 ) ;
#371 = LINE ( 'NONE', #43, #180 ) ;
#372 = EDGE_CURVE ( 'NONE', #270, #233, #167, .T. ) ;
#373 = EDGE_CURVE ( 'NONE', #302, #449, #36, .T. ) ;
#374 = PLANE ( 'NONE',  #6 ) ;
#375 = EDGE_LOOP ( 'NONE', ( #144, #254, #45, #151, #24, #193, #125, #273 ) ) ;
#376 = AXIS2_PLACEMENT_3D ( 'NONE', #287, #204, #92 ) ;
#377 = CARTESIAN_POINT ( 'NONE',  ( 2.100000000000000089, 1.500000000000000444, -7.027636700751065934E-16 ) ) ;
#378 = VERTEX_POINT ( 'NONE', #256 ) ;
#379 = DIRECTION ( 'NONE',  ( -1.000000000000000000, -0.000000000000000000, -0.000000000000000000 ) ) ;
#380 = ORIENTED_EDGE ( 'NONE', *, *, #69, .T. ) ;
#381 = VECTOR ( 'NONE', #80, 1000.000000000000000 ) ;
#382 = ADVANCED_FACE ( 'NONE', ( #471, #143 ), #72, .T. ) ;
#383 = PRODUCT_DEFINITION_SHAPE ( 'NONE', 'NONE',  #271 ) ;
#384 = CARTESIAN_POINT ( 'NONE',  ( 2.100000000000000089, 7.000000000000000000, 1.199999999999999956 ) ) ;
#385 = ORIENTED_EDGE ( 'NONE', *, *, #340, .T. ) ;
#386 = AXIS2_PLACEMENT_3D ( 'NONE', #166, #311, #220 ) ;
#387 = CARTESIAN_POINT ( 'NONE',  ( 2.100000000000000089, 1.199999999999999956, 1.499999999999999334 ) ) ;
#388 = ORIENTED_EDGE ( 'NONE', *, *, #117, .T. ) ;
#389 = DIRECTION ( 'NONE',  ( 0.000000000000000000, 0.000000000000000000, -1.000000000000000000 ) ) ;
#390 = DIRECTION ( 'NONE',  ( 0.000000000000000000, 0.000000000000000000, 1.000000000000000000 ) ) ;
#391 = EDGE_CURVE ( 'NONE', #370, #270, #55, .T. ) ;
#392 = CARTESIAN_POINT ( 'NONE',  ( 2.100000000000000089, 1.500000000000000000, 1.199999999999999289 ) ) ;
#393 = CARTESIAN_POINT ( 'NONE',  ( 2.100000000000000089, 7.000000000000000000, 1.199999999999999956 ) ) ;
#394 = CARTESIAN_POINT ( 'NONE',  ( -2.326828918379972844E-16, 5.099999999999998757, 1.199999999999999289 ) ) ;
#395 = AXIS2_PLACEMENT_3D ( 'NONE', #334, #437, #295 ) ;
#396 = CARTESIAN_POINT ( 'NONE',  ( -2.100000000000000089, 1.500000000000000000, 1.199999999999999289 ) ) ;
#397 = DIRECTION ( 'NONE',  ( 0.000000000000000000, 1.219180849034937316E-16, -1.000000000000000000 ) ) ;
#398 = AXIS2_PLACEMENT_3D ( 'NONE', #130, #327, #389 ) ;
#399 = CARTESIAN_POINT ( 'NONE',  ( -2.326828918379972844E-16, 5.099999999999998757, 4.452691193458118590 ) ) ;
#400 = EDGE_LOOP ( 'NONE', ( #402, #257, #416, #186 ) ) ;
#401 = LINE ( 'NONE', #109, #89 ) ;
#402 = ORIENTED_EDGE ( 'NONE', *, *, #61, .F. ) ;
#403 = DIRECTION ( 'NONE',  ( 0.000000000000000000, 0.000000000000000000, -1.000000000000000000 ) ) ;
#404 = CIRCLE ( 'NONE', #436, 0.3000000000000001554 ) ;
#405 = CARTESIAN_POINT ( 'NONE',  ( -2.100000000000000089, 7.000000000000000000, 1.199999999999999956 ) ) ;
#406 = LINE ( 'NONE', #74, #381 ) ;
#407 = EDGE_CURVE ( 'NONE', #343, #457, #19, .T. ) ;
#408 = VERTEX_POINT ( 'NONE', #161 ) ;
#409 =( NAMED_UNIT ( * ) PLANE_ANGLE_UNIT ( ) SI_UNIT ( $, .RADIAN. ) );
#410 = CIRCLE ( 'NONE', #419, 1.149999999999999911 ) ;
#411 = EDGE_LOOP ( 'NONE', ( #27, #173, #169, #71 ) ) ;
#412 =( LENGTH_UNIT ( ) NAMED_UNIT ( * ) SI_UNIT ( .MILLI., .METRE. ) );
#413 = ORIENTED_EDGE ( 'NONE', *, *, #124, .F. ) ;
#414 = DIRECTION ( 'NONE',  ( -1.000000000000000000, -0.000000000000000000, -0.000000000000000000 ) ) ;
#415 = EDGE_CURVE ( 'NONE', #408, #378, #93, .T. ) ;
#416 = ORIENTED_EDGE ( 'NONE', *, *, #304, .T. ) ;
#417 = FACE_OUTER_BOUND ( 'NONE', #129, .T. ) ;
#418 = VERTEX_POINT ( 'NONE', #460 ) ;
#419 = AXIS2_PLACEMENT_3D ( 'NONE', #42, #227, #298 ) ;
#420 = CYLINDRICAL_SURFACE ( 'NONE', #376, 0.7999999999999890532 ) ;
#421 = DIRECTION ( 'NONE',  ( -0.000000000000000000, -1.000000000000000000, -0.000000000000000000 ) ) ;
#422 = ORIENTED_EDGE ( 'NONE', *, *, #326, .T. ) ;
#423 = CIRCLE ( 'NONE', #398, 0.3000000000000001554 ) ;
#424 =( NAMED_UNIT ( * ) PLANE_ANGLE_UNIT ( ) SI_UNIT ( $, .RADIAN. ) );
#425 = DIRECTION ( 'NONE',  ( -1.000000000000000000, -0.000000000000000000, -0.000000000000000000 ) ) ;
#426 = EDGE_CURVE ( 'NONE', #457, #330, #215, .T. ) ;
#427 = CARTESIAN_POINT ( 'NONE',  ( -2.326828918379972844E-16, 5.099999999999998757, 4.452691193458118590 ) ) ;
#428 = ORIENTED_EDGE ( 'NONE', *, *, #439, .F. ) ;
#429 = CIRCLE ( 'NONE', #253, 1.149999999999999911 ) ;
#430 = FACE_OUTER_BOUND ( 'NONE', #375, .T. ) ;
#431 = SURFACE_SIDE_STYLE ('',( #18 ) ) ;
#432 = EDGE_CURVE ( 'NONE', #233, #270, #30, .T. ) ;
#433 = DIRECTION ( 'NONE',  ( -0.000000000000000000, 1.277752127409284760E-16, -1.000000000000000000 ) ) ;
#434 = AXIS2_PLACEMENT_3D ( 'NONE', #451, #307, #119 ) ;
#435 = CARTESIAN_POINT ( 'NONE',  ( 4.959819536546768767E-16, -2.118241652006505559E-15, 5.149999999999989697 ) ) ;
#436 = AXIS2_PLACEMENT_3D ( 'NONE', #58, #65, #217 ) ;
#437 = DIRECTION ( 'NONE',  ( -1.000000000000000000, -0.000000000000000000, -0.000000000000000000 ) ) ;
#438 = EDGE_LOOP ( 'NONE', ( #56, #47 ) ) ;
#439 = EDGE_CURVE ( 'NONE', #120, #378, #197, .T. ) ;
#440 = CARTESIAN_POINT ( 'NONE',  ( 2.100000000000000089, 7.000000000000000000, 1.199999999999999956 ) ) ;
#441 = ORIENTED_EDGE ( 'NONE', *, *, #146, .F. ) ;
#442 = DIRECTION ( 'NONE',  ( 0.000000000000000000, 0.000000000000000000, -1.000000000000000000 ) ) ;
#443 = AXIS2_PLACEMENT_3D ( 'NONE', #288, #390, #63 ) ;
#444 = DIRECTION ( 'NONE',  ( 0.000000000000000000, -1.219180849034937316E-16, 1.000000000000000000 ) ) ;
#445 = ORIENTED_EDGE ( 'NONE', *, *, #355, .F. ) ;
#446 = CARTESIAN_POINT ( 'NONE',  ( 2.100000000000000089, 7.000000000000000000, 1.199999999999999956 ) ) ;
#447 = ORIENTED_EDGE ( 'NONE', *, *, #373, .T. ) ;
#448 = APPLICATION_PROTOCOL_DEFINITION ( 'draft international standard', 'automotive_design', 1998, #319 ) ;
#449 = VERTEX_POINT ( 'NONE', #456 ) ;
#450 = ADVANCED_FACE ( 'NONE', ( #344, #453 ), #168, .T. ) ;
#451 = CARTESIAN_POINT ( 'NONE',  ( 3.980102097228898231E-16, -2.118241652006505559E-15, 4.349999999999999645 ) ) ;
#452 = ORIENTED_EDGE ( 'NONE', *, *, #255, .F. ) ;
#453 = FACE_OUTER_BOUND ( 'NONE', #223, .T. ) ;
#454 = ORIENTED_EDGE ( 'NONE', *, *, #69, .F. ) ;
#455 = DIRECTION ( 'NONE',  ( 0.000000000000000000, 0.000000000000000000, 1.000000000000000000 ) ) ;
#456 = CARTESIAN_POINT ( 'NONE',  ( -2.100000000000000089, 7.000000000000000000, 1.199999999999999956 ) ) ;
#457 = VERTEX_POINT ( 'NONE', #269 ) ;
#458 = DIRECTION ( 'NONE',  ( -1.000000000000000000, -0.000000000000000000, -0.000000000000000000 ) ) ;
#459 = ADVANCED_FACE ( 'NONE', ( #309 ), #374, .T. ) ;
#460 = CARTESIAN_POINT ( 'NONE',  ( 2.100000000000000089, 1.500000000000000000, 1.199999999999999289 ) ) ;
#461 = CARTESIAN_POINT ( 'NONE',  ( 2.100000000000000089, 0.000000000000000000, 1.499999999999999556 ) ) ;
#462 = ADVANCED_FACE ( 'NONE', ( #123, #417 ), #23, .F. ) ;
#463 = AXIS2_PLACEMENT_3D ( 'NONE', #399, #138, #359 ) ;
#464 = DIRECTION ( 'NONE',  ( 0.000000000000000000, 1.277752127409284760E-16, -1.000000000000000000 ) ) ;
#465 = DIRECTION ( 'NONE',  ( -1.000000000000000000, 0.000000000000000000, 0.000000000000000000 ) ) ;
#466 = VECTOR ( 'NONE', #187, 1000.000000000000000 ) ;
#467 = EDGE_CURVE ( 'NONE', #188, #457, #275, .T. ) ;
#468 = LINE ( 'NONE', #393, #52 ) ;
#469 = CARTESIAN_POINT ( 'NONE',  ( -2.100000000000000089, -8.817456953860944275E-16, 8.699999999999999289 ) ) ;
#470 = CARTESIAN_POINT ( 'NONE',  ( 2.100000000000000089, 1.500000000000000000, 1.499999999999999334 ) ) ;
#471 = FACE_BOUND ( 'NONE', #276, .T. ) ;
ENDSEC;
END-ISO-10303-21;
