ISO-10303-21;
HEADER;
FILE_DESCRIPTION (( 'STEP AP214' ),
    '1' );
FILE_NAME ('P7_9-37Pin.STEP',
    '2026-09-23T07:55:20',
    ( '' ),
    ( '' ),
    'SwSTEP 2.0',
    'SolidWorks 2025',
    '' );
FILE_SCHEMA (( 'AUTOMOTIVE_DESIGN' ));
ENDSEC;

DATA;
#1 = DIRECTION ( 'NONE',  ( 0.000000000000000000, -1.519337841427949662E-16, 1.000000000000000000 ) ) ;
#2 = FACE_OUTER_BOUND ( 'NONE', #346, .T. ) ;
#3 = VECTOR ( 'NONE', #198, 1000.000000000000000 ) ;
#4 = PLANE ( 'NONE',  #332 ) ;
#5 =( LENGTH_UNIT ( ) NAMED_UNIT ( * ) SI_UNIT ( .MILLI., .METRE. ) );
#6 = FACE_BOUND ( 'NONE', #407, .T. ) ;
#7 = SURFACE_STYLE_USAGE ( .BOTH. , #269 ) ;
#8 = ORIENTED_EDGE ( 'NONE', *, *, #381, .F. ) ;
#9 = AXIS2_PLACEMENT_3D ( 'NONE', #384, #134, #94 ) ;
#10 = EDGE_CURVE ( 'NONE', #469, #349, #428, .T. ) ;
#11 = LINE ( 'NONE', #414, #387 ) ;
#12 = ORIENTED_EDGE ( 'NONE', *, *, #10, .T. ) ;
#13 = ORIENTED_EDGE ( 'NONE', *, *, #150, .T. ) ;
#14 = CIRCLE ( 'NONE', #289, 1.149999999999999911 ) ;
#15 = DIRECTION ( 'NONE',  ( 0.000000000000000000, 0.000000000000000000, -1.000000000000000000 ) ) ;
#16 =( LENGTH_UNIT ( ) NAMED_UNIT ( * ) SI_UNIT ( .MILLI., .METRE. ) );
#17 = ORIENTED_EDGE ( 'NONE', *, *, #23, .F. ) ;
#18 = CARTESIAN_POINT ( 'NONE',  ( 0.000000000000000000, -5.773483797426209161E-16, 3.800000000000000711 ) ) ;
#19 = ORIENTED_EDGE ( 'NONE', *, *, #323, .F. ) ;
#20 = ORIENTED_EDGE ( 'NONE', *, *, #437, .F. ) ;
#21 = AXIS2_PLACEMENT_3D ( 'NONE', #443, #367, #190 ) ;
#22 = CARTESIAN_POINT ( 'NONE',  ( 2.100000000000000089, 7.000000000000000000, 0.000000000000000000 ) ) ;
#23 = EDGE_CURVE ( 'NONE', #69, #276, #14, .T. ) ;
#24 = ORIENTED_EDGE ( 'NONE', *, *, #186, .F. ) ;
#25 = DIRECTION ( 'NONE',  ( 0.000000000000000000, -1.000000000000000000, -1.519337841427949662E-16 ) ) ;
#26 = DIRECTION ( 'NONE',  ( 0.000000000000000000, 0.000000000000000000, 1.000000000000000000 ) ) ;
#27 = DIRECTION ( 'NONE',  ( 0.000000000000000000, 0.000000000000000000, -1.000000000000000000 ) ) ;
#28 = EDGE_LOOP ( 'NONE', ( #127, #135, #465, #311 ) ) ;
#29 = APPLICATION_CONTEXT ( 'automotive_design' ) ;
#30 = CARTESIAN_POINT ( 'NONE',  ( 2.100000000000000089, 1.500000000000000444, -7.027636700751065934E-16 ) ) ;
#31 = DIRECTION ( 'NONE',  ( -0.000000000000000000, -1.000000000000000000, -0.000000000000000000 ) ) ;
#32 = EDGE_CURVE ( 'NONE', #380, #259, #256, .T. ) ;
#33 = ORIENTED_EDGE ( 'NONE', *, *, #471, .T. ) ;
#34 = CARTESIAN_POINT ( 'NONE',  ( -2.326828918379972844E-16, 5.099999999999999645, 6.516535849787351636E-16 ) ) ;
#35 = DIRECTION ( 'NONE',  ( -0.000000000000000000, -1.277752127409284760E-16, 1.000000000000000000 ) ) ;
#36 = CARTESIAN_POINT ( 'NONE',  ( -2.326828918379972844E-16, 6.249999999999999112, 7.985950796308029381E-16 ) ) ;
#37 = AXIS2_PLACEMENT_3D ( 'NONE', #253, #200, #351 ) ;
#38 = VECTOR ( 'NONE', #282, 1000.000000000000000 ) ;
#39 = EDGE_CURVE ( 'NONE', #272, #444, #218, .T. ) ;
#40 = CARTESIAN_POINT ( 'NONE',  ( -2.100000000000000089, 1.199999999999999956, 1.499999999999999334 ) ) ;
#41 = FILL_AREA_STYLE_COLOUR ( '', #261 ) ;
#42 = AXIS2_PLACEMENT_3D ( 'NONE', #226, #113, #402 ) ;
#43 = CIRCLE ( 'NONE', #129, 1.149999999999999911 ) ;
#44 = DIRECTION ( 'NONE',  ( 0.000000000000000000, 0.000000000000000000, 1.000000000000000000 ) ) ;
#45 = VECTOR ( 'NONE', #462, 1000.000000000000000 ) ;
#46 = DIRECTION ( 'NONE',  ( 0.000000000000000000, -1.000000000000000000, -1.519337841427949662E-16 ) ) ;
#47 = LINE ( 'NONE', #440, #152 ) ;
#48 = ORIENTED_EDGE ( 'NONE', *, *, #186, .T. ) ;
#49 = DIRECTION ( 'NONE',  ( 1.000000000000000000, 0.000000000000000000, 0.000000000000000000 ) ) ;
#50 = LINE ( 'NONE', #40, #72 ) ;
#51 = EDGE_LOOP ( 'NONE', ( #103, #55, #147, #288 ) ) ;
#52 = FACE_OUTER_BOUND ( 'NONE', #169, .T. ) ;
#53 = ORIENTED_EDGE ( 'NONE', *, *, #76, .F. ) ;
#54 = CARTESIAN_POINT ( 'NONE',  ( -2.100000000000000089, 1.500000000000000000, 1.199999999999999289 ) ) ;
#55 = ORIENTED_EDGE ( 'NONE', *, *, #331, .F. ) ;
#56 = EDGE_CURVE ( 'NONE', #177, #415, #145, .T. ) ;
#57 = FACE_OUTER_BOUND ( 'NONE', #162, .T. ) ;
#58 = ORIENTED_EDGE ( 'NONE', *, *, #437, .T. ) ;
#59 = CARTESIAN_POINT ( 'NONE',  ( -2.100000000000000089, 7.000000000000000000, 1.199999999999999956 ) ) ;
#60 = CARTESIAN_POINT ( 'NONE',  ( 2.100000000000000089, 1.500000000000000000, 1.499999999999999334 ) ) ;
#61 = ORIENTED_EDGE ( 'NONE', *, *, #313, .T. ) ;
#62 = CARTESIAN_POINT ( 'NONE',  ( 2.100000000000000089, 1.199999999999999956, 1.499999999999999334 ) ) ;
#63 = LINE ( 'NONE', #91, #300 ) ;
#64 = LINE ( 'NONE', #216, #175 ) ;
#65 = ORIENTED_EDGE ( 'NONE', *, *, #404, .F. ) ;
#66 = EDGE_LOOP ( 'NONE', ( #240, #451, #389, #307, #412, #33, #330, #273 ) ) ;
#67 = EDGE_CURVE ( 'NONE', #324, #415, #142, .T. ) ;
#68 = DIRECTION ( 'NONE',  ( 0.000000000000000000, 0.000000000000000000, 1.000000000000000000 ) ) ;
#69 = VERTEX_POINT ( 'NONE', #36 ) ;
#70 = DIRECTION ( 'NONE',  ( -1.000000000000000000, -0.000000000000000000, -0.000000000000000000 ) ) ;
#71 = CIRCLE ( 'NONE', #399, 0.7999999999999890532 ) ;
#72 = VECTOR ( 'NONE', #1, 1000.000000000000000 ) ;
#73 = EDGE_CURVE ( 'NONE', #141, #324, #213, .T. ) ;
#74 = CIRCLE ( 'NONE', #424, 0.7999999999999899414 ) ;
#75 = VECTOR ( 'NONE', #70, 1000.000000000000000 ) ;
#76 = EDGE_CURVE ( 'NONE', #177, #378, #98, .T. ) ;
#77 = CARTESIAN_POINT ( 'NONE',  ( 9.797174393178695495E-17, 1.199999999999999289, 4.599999999999989875 ) ) ;
#78 = FACE_OUTER_BOUND ( 'NONE', #66, .T. ) ;
#79 = CARTESIAN_POINT ( 'NONE',  ( 9.797174393178705356E-17, -2.034678070727968449E-15, 4.599999999999990763 ) ) ;
#80 = CARTESIAN_POINT ( 'NONE',  ( 2.100000000000000089, 7.000000000000000000, 1.199999999999999956 ) ) ;
#81 = ORIENTED_EDGE ( 'NONE', *, *, #363, .T. ) ;
#82 = VECTOR ( 'NONE', #143, 1000.000000000000000 ) ;
#83 = CARTESIAN_POINT ( 'NONE',  ( 0.000000000000000000, 1.199999999999999512, 3.800000000000000711 ) ) ;
#84 = VERTEX_POINT ( 'NONE', #390 ) ;
#85 = CARTESIAN_POINT ( 'NONE',  ( -2.100000000000000089, 7.000000000000000000, 0.000000000000000000 ) ) ;
#86 = ORIENTED_EDGE ( 'NONE', *, *, #89, .F. ) ;
#87 = CARTESIAN_POINT ( 'NONE',  ( 0.000000000000000000, -2.034678070727968449E-15, 3.800000000000000711 ) ) ;
#88 = ORIENTED_EDGE ( 'NONE', *, *, #73, .T. ) ;
#89 = EDGE_CURVE ( 'NONE', #421, #409, #64, .T. ) ;
#90 = AXIS2_PLACEMENT_3D ( 'NONE', #138, #391, #317 ) ;
#91 = CARTESIAN_POINT ( 'NONE',  ( -2.100000000000000089, 7.000000000000000000, 1.199999999999999956 ) ) ;
#92 = ORIENTED_EDGE ( 'NONE', *, *, #118, .T. ) ;
#93 = CARTESIAN_POINT ( 'NONE',  ( -2.326828918379972844E-16, 5.099999999999998757, 4.452691193458118590 ) ) ;
#94 = DIRECTION ( 'NONE',  ( 0.000000000000000000, 1.000000000000000000, 0.000000000000000000 ) ) ;
#95 = ORIENTED_EDGE ( 'NONE', *, *, #10, .F. ) ;
#96 = PRODUCT_DEFINITION_CONTEXT ( 'detailed design', #243, 'design' ) ;
#97 = AXIS2_PLACEMENT_3D ( 'NONE', #116, #46, #271 ) ;
#98 = LINE ( 'NONE', #62, #375 ) ;
#99 = ADVANCED_FACE ( 'NONE', ( #258, #140 ), #294, .T. ) ;
#100 = CARTESIAN_POINT ( 'NONE',  ( 2.100000000000000089, 7.000000000000000000, 0.000000000000000000 ) ) ;
#101 = DIRECTION ( 'NONE',  ( 0.000000000000000000, -1.000000000000000000, -1.277752127409284760E-16 ) ) ;
#102 = EDGE_LOOP ( 'NONE', ( #318, #393, #20, #326, #427, #341, #48, #418 ) ) ;
#103 = ORIENTED_EDGE ( 'NONE', *, *, #471, .F. ) ;
#104 = DIRECTION ( 'NONE',  ( 0.000000000000000000, -1.519337841427949662E-16, 1.000000000000000000 ) ) ;
#105 = ORIENTED_EDGE ( 'NONE', *, *, #381, .T. ) ;
#106 = DIRECTION ( 'NONE',  ( 0.000000000000000000, 1.000000000000000000, 7.228014483236696555E-16 ) ) ;
#107 = ORIENTED_EDGE ( 'NONE', *, *, #267, .T. ) ;
#108 = VECTOR ( 'NONE', #264, 1000.000000000000000 ) ;
#109 = ADVANCED_FACE ( 'NONE', ( #136 ), #248, .F. ) ;
#110 = VECTOR ( 'NONE', #31, 1000.000000000000000 ) ;
#111 = PRODUCT_CONTEXT ( 'NONE', #29, 'mechanical' ) ;
#112 = EDGE_CURVE ( 'NONE', #444, #396, #297, .T. ) ;
#113 = DIRECTION ( 'NONE',  ( -1.000000000000000000, -0.000000000000000000, -0.000000000000000000 ) ) ;
#114 = APPLICATION_PROTOCOL_DEFINITION ( 'draft international standard', 'automotive_design', 1998, #243 ) ;
#115 = AXIS2_PLACEMENT_3D ( 'NONE', #237, #376, #49 ) ;
#116 = CARTESIAN_POINT ( 'NONE',  ( 2.100000000000000089, 1.199999999999999956, 1.499999999999999334 ) ) ;
#117 = DIRECTION ( 'NONE',  ( -0.000000000000000000, 1.277752127409284760E-16, -1.000000000000000000 ) ) ;
#118 = EDGE_CURVE ( 'NONE', #195, #383, #357, .T. ) ;
#119 = DIRECTION ( 'NONE',  ( 0.000000000000000000, 2.710505431213798063E-16, -1.000000000000000000 ) ) ;
#120 = ORIENTED_EDGE ( 'NONE', *, *, #118, .F. ) ;
#121 = ADVANCED_BREP_SHAPE_REPRESENTATION ( 'P7_9-37Pin', ( #227, #115 ), #185 ) ;
#122 = DIRECTION ( 'NONE',  ( 0.000000000000000000, -1.519337841427949662E-16, 1.000000000000000000 ) ) ;
#123 = ORIENTED_EDGE ( 'NONE', *, *, #56, .T. ) ;
#124 = ORIENTED_EDGE ( 'NONE', *, *, #128, .T. ) ;
#125 = DIRECTION ( 'NONE',  ( -1.000000000000000000, -0.000000000000000000, -0.000000000000000000 ) ) ;
#126 = FACE_BOUND ( 'NONE', #242, .T. ) ;
#127 = ORIENTED_EDGE ( 'NONE', *, *, #32, .F. ) ;
#128 = EDGE_CURVE ( 'NONE', #84, #358, #316, .T. ) ;
#129 = AXIS2_PLACEMENT_3D ( 'NONE', #219, #35, #335 ) ;
#130 = CARTESIAN_POINT ( 'NONE',  ( -2.326828918379972844E-16, 6.249999999999998224, 1.199999999999999512 ) ) ;
#131 = ORIENTED_EDGE ( 'NONE', *, *, #423, .T. ) ;
#132 = CIRCLE ( 'NONE', #37, 1.149999999999999911 ) ;
#133 = DIRECTION ( 'NONE',  ( -1.000000000000000000, -0.000000000000000000, -0.000000000000000000 ) ) ;
#134 = DIRECTION ( 'NONE',  ( -0.000000000000000000, 1.277752127409284760E-16, -1.000000000000000000 ) ) ;
#135 = ORIENTED_EDGE ( 'NONE', *, *, #363, .F. ) ;
#136 = FACE_OUTER_BOUND ( 'NONE', #159, .T. ) ;
#137 = EDGE_CURVE ( 'NONE', #141, #177, #353, .T. ) ;
#138 = CARTESIAN_POINT ( 'NONE',  ( 0.000000000000000000, -2.034678070727968449E-15, 3.800000000000000711 ) ) ;
#139 = AXIS2_PLACEMENT_3D ( 'NONE', #18, #461, #278 ) ;
#140 = FACE_OUTER_BOUND ( 'NONE', #447, .T. ) ;
#141 = VERTEX_POINT ( 'NONE', #179 ) ;
#142 = CIRCLE ( 'NONE', #366, 0.3000000000000001554 ) ;
#143 = DIRECTION ( 'NONE',  ( -1.000000000000000000, -0.000000000000000000, -0.000000000000000000 ) ) ;
#144 = ORIENTED_EDGE ( 'NONE', *, *, #267, .F. ) ;
#145 = LINE ( 'NONE', #292, #75 ) ;
#146 = CARTESIAN_POINT ( 'NONE',  ( 2.100000000000000089, 7.000000000000000000, 1.199999999999999956 ) ) ;
#147 = ORIENTED_EDGE ( 'NONE', *, *, #112, .T. ) ;
#148 = ADVANCED_FACE ( 'NONE', ( #325 ), #281, .F. ) ;
#149 = AXIS2_PLACEMENT_3D ( 'NONE', #322, #455, #350 ) ;
#150 = EDGE_CURVE ( 'NONE', #358, #324, #287, .T. ) ;
#151 = DIRECTION ( 'NONE',  ( 0.000000000000000000, 2.710505431213798063E-16, -1.000000000000000000 ) ) ;
#152 = VECTOR ( 'NONE', #117, 1000.000000000000000 ) ;
#153 = CARTESIAN_POINT ( 'NONE',  ( -2.100000000000000089, 1.500000000000000000, 1.499999999999999334 ) ) ;
#154 = LINE ( 'NONE', #405, #365 ) ;
#155 = ADVANCED_FACE ( 'NONE', ( #464, #254 ), #209, .T. ) ;
#156 = CIRCLE ( 'NONE', #403, 1.500000000000000000 ) ;
#157 = CARTESIAN_POINT ( 'NONE',  ( -2.100000000000000089, 1.199999999999999956, 1.499999999999999778 ) ) ;
#158 = DIRECTION ( 'NONE',  ( 0.000000000000000000, -1.000000000000000000, -1.519337841427949662E-16 ) ) ;
#159 = EDGE_LOOP ( 'NONE', ( #180, #92, #283, #144 ) ) ;
#160 = VECTOR ( 'NONE', #327, 1000.000000000000000 ) ;
#161 = PLANE ( 'NONE',  #97 ) ;
#162 = EDGE_LOOP ( 'NONE', ( #120, #280, #107, #163 ) ) ;
#163 = ORIENTED_EDGE ( 'NONE', *, *, #356, .T. ) ;
#164 = ADVANCED_FACE ( 'NONE', ( #319 ), #460, .T. ) ;
#165 = CYLINDRICAL_SURFACE ( 'NONE', #139, 0.7999999999999890532 ) ;
#166 = DIRECTION ( 'NONE',  ( -1.000000000000000000, -0.000000000000000000, -0.000000000000000000 ) ) ;
#167 = ORIENTED_EDGE ( 'NONE', *, *, #67, .T. ) ;
#168 = CARTESIAN_POINT ( 'NONE',  ( -2.100000000000000089, 7.000000000000000000, 1.199999999999999956 ) ) ;
#169 = EDGE_LOOP ( 'NONE', ( #235, #374, #53, #123 ) ) ;
#170 = PRESENTATION_LAYER_ASSIGNMENT (  '', '', ( #433 ) ) ;
#171 = DIRECTION ( 'NONE',  ( -1.000000000000000000, -0.000000000000000000, -0.000000000000000000 ) ) ;
#172 = ORIENTED_EDGE ( 'NONE', *, *, #404, .T. ) ;
#173 = DIRECTION ( 'NONE',  ( 0.000000000000000000, 1.519337841427949662E-16, -1.000000000000000000 ) ) ;
#174 = CYLINDRICAL_SURFACE ( 'NONE', #9, 1.149999999999999911 ) ;
#175 = VECTOR ( 'NONE', #252, 1000.000000000000000 ) ;
#176 = DIRECTION ( 'NONE',  ( 0.000000000000000000, 0.000000000000000000, -1.000000000000000000 ) ) ;
#177 = VERTEX_POINT ( 'NONE', #392 ) ;
#178 = LINE ( 'NONE', #343, #38 ) ;
#179 = CARTESIAN_POINT ( 'NONE',  ( 2.100000000000000089, 1.500000000000000000, 1.199999999999999289 ) ) ;
#180 = ORIENTED_EDGE ( 'NONE', *, *, #249, .F. ) ;
#181 = DIRECTION ( 'NONE',  ( 0.000000000000000000, 1.000000000000000000, 1.277752127409284760E-16 ) ) ;
#182 = CARTESIAN_POINT ( 'NONE',  ( 2.100000000000000089, -3.935484080939213199E-18, 1.499999999999999112 ) ) ;
#183 = EDGE_LOOP ( 'NONE', ( #340, #354, #61, #65 ) ) ;
#184 = EDGE_CURVE ( 'NONE', #349, #469, #43, .T. ) ;
#185 =( GEOMETRIC_REPRESENTATION_CONTEXT ( 3 ) GLOBAL_UNCERTAINTY_ASSIGNED_CONTEXT ( ( #458 ) ) GLOBAL_UNIT_ASSIGNED_CONTEXT ( ( #16, #442, #268 ) ) REPRESENTATION_CONTEXT ( 'NONE', 'WORKASPACE' ) );
#186 = EDGE_CURVE ( 'NONE', #84, #141, #234, .T. ) ;
#187 = SHAPE_DEFINITION_REPRESENTATION ( #203, #121 ) ;
#188 =( NAMED_UNIT ( * ) SI_UNIT ( $, .STERADIAN. ) SOLID_ANGLE_UNIT ( ) );
#189 = EDGE_CURVE ( 'NONE', #308, #195, #71, .T. ) ;
#190 = DIRECTION ( 'NONE',  ( 0.000000000000000000, -1.000000000000000000, -7.228014483236696555E-16 ) ) ;
#191 = PRODUCT ( 'P7_9-37Pin', 'P7_9-37Pin', '', ( #111 ) ) ;
#192 = ADVANCED_FACE ( 'NONE', ( #2 ), #232, .F. ) ;
#193 = CARTESIAN_POINT ( 'NONE',  ( -9.184850993605169392E-17, 3.949999999999998845, 1.199999999999999067 ) ) ;
#194 = FILL_AREA_STYLE ('',( #41 ) ) ;
#195 = VERTEX_POINT ( 'NONE', #77 ) ;
#196 = VECTOR ( 'NONE', #450, 1000.000000000000000 ) ;
#197 = DIRECTION ( 'NONE',  ( -1.000000000000000000, -0.000000000000000000, -0.000000000000000000 ) ) ;
#198 = DIRECTION ( 'NONE',  ( -1.000000000000000000, -0.000000000000000000, -0.000000000000000000 ) ) ;
#199 = ORIENTED_EDGE ( 'NONE', *, *, #263, .F. ) ;
#200 = DIRECTION ( 'NONE',  ( 0.000000000000000000, 1.277752127409284760E-16, -1.000000000000000000 ) ) ;
#201 = DIRECTION ( 'NONE',  ( 0.000000000000000000, 1.000000000000000000, 1.277752127409284760E-16 ) ) ;
#202 = ORIENTED_EDGE ( 'NONE', *, *, #23, .T. ) ;
#203 = PRODUCT_DEFINITION_SHAPE ( 'NONE', 'NONE',  #448 ) ;
#204 = DIRECTION ( 'NONE',  ( 0.000000000000000000, 0.000000000000000000, -1.000000000000000000 ) ) ;
#205 = EDGE_LOOP ( 'NONE', ( #13, #411, #24, #124 ) ) ;
#206 = ORIENTED_EDGE ( 'NONE', *, *, #128, .F. ) ;
#207 = CARTESIAN_POINT ( 'NONE',  ( -2.100000000000000089, -9.307315673519885459E-16, 7.599999999999999645 ) ) ;
#208 = ORIENTED_EDGE ( 'NONE', *, *, #331, .T. ) ;
#209 = PLANE ( 'NONE',  #454 ) ;
#210 = LINE ( 'NONE', #456, #336 ) ;
#211 = ADVANCED_FACE ( 'NONE', ( #78 ), #371, .T. ) ;
#212 = ORIENTED_EDGE ( 'NONE', *, *, #313, .F. ) ;
#213 = LINE ( 'NONE', #429, #45 ) ;
#214 = ORIENTED_EDGE ( 'NONE', *, *, #229, .F. ) ;
#215 = DIRECTION ( 'NONE',  ( 0.000000000000000000, -0.000000000000000000, 1.000000000000000000 ) ) ;
#216 = CARTESIAN_POINT ( 'NONE',  ( -2.100000000000000089, 7.000000000000000000, 0.000000000000000000 ) ) ;
#217 = ORIENTED_EDGE ( 'NONE', *, *, #239, .F. ) ;
#218 = LINE ( 'NONE', #359, #160 ) ;
#219 = CARTESIAN_POINT ( 'NONE',  ( -2.326828918379972844E-16, 5.099999999999998757, 1.199999999999999289 ) ) ;
#220 = EDGE_CURVE ( 'NONE', #446, #378, #436, .T. ) ;
#221 = ORIENTED_EDGE ( 'NONE', *, *, #356, .F. ) ;
#222 = CARTESIAN_POINT ( 'NONE',  ( -2.100000000000000089, 1.199999999999999067, 7.600000000000000533 ) ) ;
#223 = CIRCLE ( 'NONE', #416, 0.7999999999999890532 ) ;
#224 = ADVANCED_FACE ( 'NONE', ( #304 ), #435, .T. ) ;
#225 = CLOSED_SHELL ( 'NONE', ( #109, #148, #398, #224, #155, #164, #99, #298, #459, #192, #372, #211, #328, #334 ) ) ;
#226 = CARTESIAN_POINT ( 'NONE',  ( 2.100000000000000089, 1.500000000000000000, 1.499999999999999334 ) ) ;
#227 = MANIFOLD_SOLID_BREP ( 'M2 \X2\87ba7eb95b54\X0\1', #225 ) ;
#228 = DIRECTION ( 'NONE',  ( -1.000000000000000000, 0.000000000000000000, 0.000000000000000000 ) ) ;
#229 = EDGE_CURVE ( 'NONE', #469, #276, #47, .T. ) ;
#230 = AXIS2_PLACEMENT_3D ( 'NONE', #153, #228, #44 ) ;
#231 = CARTESIAN_POINT ( 'NONE',  ( -2.326828918379972844E-16, 6.249999999999998224, 4.452691193458118590 ) ) ;
#232 = CYLINDRICAL_SURFACE ( 'NONE', #42, 0.3000000000000001554 ) ;
#233 = CARTESIAN_POINT ( 'NONE',  ( 2.100000000000000089, 0.000000000000000000, 1.499999999999999556 ) ) ;
#234 = LINE ( 'NONE', #80, #108 ) ;
#235 = ORIENTED_EDGE ( 'NONE', *, *, #257, .T. ) ;
#236 = AXIS2_PLACEMENT_3D ( 'NONE', #290, #352, #176 ) ;
#237 = CARTESIAN_POINT ( 'NONE',  ( 0.000000000000000000, 0.000000000000000000, 0.000000000000000000 ) ) ;
#238 = DIRECTION ( 'NONE',  ( 0.000000000000000000, 1.000000000000000000, 7.228014483236696555E-16 ) ) ;
#239 = EDGE_CURVE ( 'NONE', #396, #347, #377, .T. ) ;
#240 = ORIENTED_EDGE ( 'NONE', *, *, #257, .F. ) ;
#241 = CARTESIAN_POINT ( 'NONE',  ( 2.100000000000000089, 7.000000000000000000, 1.199999999999999956 ) ) ;
#242 = EDGE_LOOP ( 'NONE', ( #270, #95 ) ) ;
#243 = APPLICATION_CONTEXT ( 'automotive_design' ) ;
#244 = DIRECTION ( 'NONE',  ( -0.000000000000000000, -1.000000000000000000, -0.000000000000000000 ) ) ;
#245 = ORIENTED_EDGE ( 'NONE', *, *, #137, .F. ) ;
#246 = CARTESIAN_POINT ( 'NONE',  ( 2.100000000000000089, 1.199999999999999067, 7.600000000000000533 ) ) ;
#247 = EDGE_LOOP ( 'NONE', ( #17, #212 ) ) ;
#248 = CYLINDRICAL_SURFACE ( 'NONE', #236, 0.7999999999999890532 ) ;
#249 = EDGE_CURVE ( 'NONE', #195, #308, #223, .T. ) ;
#250 = CARTESIAN_POINT ( 'NONE',  ( 2.100000000000000089, 7.000000000000000000, 1.199999999999999956 ) ) ;
#251 = EDGE_LOOP ( 'NONE', ( #430, #217, #58, #81 ) ) ;
#252 = DIRECTION ( 'NONE',  ( 0.000000000000000000, -1.000000000000000000, -1.277752127409284760E-16 ) ) ;
#253 = CARTESIAN_POINT ( 'NONE',  ( -2.326828918379972844E-16, 5.099999999999999645, 6.516535849787351636E-16 ) ) ;
#254 = FACE_OUTER_BOUND ( 'NONE', #251, .T. ) ;
#255 = ORIENTED_EDGE ( 'NONE', *, *, #56, .F. ) ;
#256 = LINE ( 'NONE', #431, #467 ) ;
#257 = EDGE_CURVE ( 'NONE', #415, #259, #50, .T. ) ;
#258 = FACE_BOUND ( 'NONE', #247, .T. ) ;
#259 = VERTEX_POINT ( 'NONE', #222 ) ;
#260 = CARTESIAN_POINT ( 'NONE',  ( -2.100000000000000089, 1.500000000000000000, 1.499999999999999334 ) ) ;
#261 = COLOUR_RGB ( '',1.000000000000000000, 1.000000000000000000, 1.000000000000000000 ) ;
#262 = AXIS2_PLACEMENT_3D ( 'NONE', #93, #386, #395 ) ;
#263 = EDGE_CURVE ( 'NONE', #383, #291, #279, .T. ) ;
#264 = DIRECTION ( 'NONE',  ( 0.000000000000000000, -1.000000000000000000, -1.277752127409284760E-16 ) ) ;
#265 = DIRECTION ( 'NONE',  ( 0.000000000000000000, 0.000000000000000000, -1.000000000000000000 ) ) ;
#266 = CARTESIAN_POINT ( 'NONE',  ( 2.100000000000000089, 0.000000000000000000, 1.499999999999999556 ) ) ;
#267 = EDGE_CURVE ( 'NONE', #308, #291, #210, .T. ) ;
#268 =( NAMED_UNIT ( * ) SI_UNIT ( $, .STERADIAN. ) SOLID_ANGLE_UNIT ( ) );
#269 = SURFACE_SIDE_STYLE ('',( #299 ) ) ;
#270 = ORIENTED_EDGE ( 'NONE', *, *, #184, .F. ) ;
#271 = DIRECTION ( 'NONE',  ( 0.000000000000000000, 1.519337841427949662E-16, -1.000000000000000000 ) ) ;
#272 = VERTEX_POINT ( 'NONE', #100 ) ;
#273 = ORIENTED_EDGE ( 'NONE', *, *, #32, .T. ) ;
#274 = CARTESIAN_POINT ( 'NONE',  ( 0.000000000000000000, 1.199999999999999734, 3.000000000000011990 ) ) ;
#275 = CARTESIAN_POINT ( 'NONE',  ( 2.100000000000000089, 7.000000000000000000, 1.199999999999999956 ) ) ;
#276 = VERTEX_POINT ( 'NONE', #449 ) ;
#277 = AXIS2_PLACEMENT_3D ( 'NONE', #329, #284, #68 ) ;
#278 = DIRECTION ( 'NONE',  ( 0.000000000000000000, 0.000000000000000000, -1.000000000000000000 ) ) ;
#279 = CIRCLE ( 'NONE', #90, 0.7999999999999899414 ) ;
#280 = ORIENTED_EDGE ( 'NONE', *, *, #189, .F. ) ;
#281 = CYLINDRICAL_SURFACE ( 'NONE', #262, 1.149999999999999911 ) ;
#282 = DIRECTION ( 'NONE',  ( 0.000000000000000000, -1.519337841427949662E-16, 1.000000000000000000 ) ) ;
#283 = ORIENTED_EDGE ( 'NONE', *, *, #263, .T. ) ;
#284 = DIRECTION ( 'NONE',  ( -1.000000000000000000, -0.000000000000000000, -0.000000000000000000 ) ) ;
#285 = DIRECTION ( 'NONE',  ( -0.000000000000000000, -1.000000000000000000, -0.000000000000000000 ) ) ;
#286 = VECTOR ( 'NONE', #125, 1000.000000000000000 ) ;
#287 = LINE ( 'NONE', #59, #315 ) ;
#288 = ORIENTED_EDGE ( 'NONE', *, *, #239, .T. ) ;
#289 = AXIS2_PLACEMENT_3D ( 'NONE', #34, #432, #181 ) ;
#290 = CARTESIAN_POINT ( 'NONE',  ( 0.000000000000000000, -5.773483797426209161E-16, 3.800000000000000711 ) ) ;
#291 = VERTEX_POINT ( 'NONE', #345 ) ;
#292 = CARTESIAN_POINT ( 'NONE',  ( 2.100000000000000089, 1.199999999999999956, 1.499999999999999778 ) ) ;
#293 = PRODUCT_DEFINITION_FORMATION_WITH_SPECIFIED_SOURCE ( 'ไป', '', #191, .NOT_KNOWN. ) ;
#294 = PLANE ( 'NONE',  #320 ) ;
#295 = CARTESIAN_POINT ( 'NONE',  ( -2.326828918379972844E-16, 5.099999999999998757, 1.199999999999999289 ) ) ;
#296 = MECHANICAL_DESIGN_GEOMETRIC_PRESENTATION_REPRESENTATION (  '', ( #433 ), #452 ) ;
#297 = CIRCLE ( 'NONE', #434, 1.500000000000000000 ) ;
#298 = ADVANCED_FACE ( 'NONE', ( #425 ), #382, .T. ) ;
#299 = SURFACE_STYLE_FILL_AREA ( #194 ) ;
#300 = VECTOR ( 'NONE', #15, 1000.000000000000000 ) ;
#301 = DIRECTION ( 'NONE',  ( 0.000000000000000000, -1.000000000000000000, -1.519337841427949662E-16 ) ) ;
#302 = DIRECTION ( 'NONE',  ( 0.000000000000000000, 1.277752127409284760E-16, -1.000000000000000000 ) ) ;
#303 = VECTOR ( 'NONE', #171, 1000.000000000000000 ) ;
#304 = FACE_OUTER_BOUND ( 'NONE', #28, .T. ) ;
#305 = ORIENTED_EDGE ( 'NONE', *, *, #189, .T. ) ;
#306 = DIRECTION ( 'NONE',  ( -1.000000000000000000, -0.000000000000000000, -0.000000000000000000 ) ) ;
#307 = ORIENTED_EDGE ( 'NONE', *, *, #323, .T. ) ;
#308 = VERTEX_POINT ( 'NONE', #274 ) ;
#309 = DIRECTION ( 'NONE',  ( -0.000000000000000000, 1.000000000000000000, 0.000000000000000000 ) ) ;
#310 = CARTESIAN_POINT ( 'NONE',  ( -2.100000000000000089, 1.500000000000000000, 1.499999999999999334 ) ) ;
#311 = ORIENTED_EDGE ( 'NONE', *, *, #400, .T. ) ;
#312 = CARTESIAN_POINT ( 'NONE',  ( 2.100000000000000089, -9.307315673519885459E-16, 7.599999999999999645 ) ) ;
#313 = EDGE_CURVE ( 'NONE', #276, #69, #132, .T. ) ;
#314 = EDGE_LOOP ( 'NONE', ( #221, #199 ) ) ;
#315 = VECTOR ( 'NONE', #101, 1000.000000000000000 ) ;
#316 = LINE ( 'NONE', #146, #82 ) ;
#317 = DIRECTION ( 'NONE',  ( 0.000000000000000000, 0.000000000000000000, -1.000000000000000000 ) ) ;
#318 = ORIENTED_EDGE ( 'NONE', *, *, #76, .T. ) ;
#319 = FACE_OUTER_BOUND ( 'NONE', #51, .T. ) ;
#320 = AXIS2_PLACEMENT_3D ( 'NONE', #422, #468, #419 ) ;
#321 = FACE_OUTER_BOUND ( 'NONE', #102, .T. ) ;
#322 = CARTESIAN_POINT ( 'NONE',  ( 2.100000000000000089, 1.500000000000000000, 1.499999999999999334 ) ) ;
#323 = EDGE_CURVE ( 'NONE', #358, #421, #63, .T. ) ;
#324 = VERTEX_POINT ( 'NONE', #54 ) ;
#325 = FACE_OUTER_BOUND ( 'NONE', #183, .T. ) ;
#326 = ORIENTED_EDGE ( 'NONE', *, *, #112, .F. ) ;
#327 = DIRECTION ( 'NONE',  ( 0.000000000000000000, -1.000000000000000000, -1.277752127409284760E-16 ) ) ;
#328 = ADVANCED_FACE ( 'NONE', ( #413 ), #174, .F. ) ;
#329 = CARTESIAN_POINT ( 'NONE',  ( 2.100000000000000089, 1.500000000000000000, 1.499999999999999334 ) ) ;
#330 = ORIENTED_EDGE ( 'NONE', *, *, #333, .T. ) ;
#331 = EDGE_CURVE ( 'NONE', #444, #409, #355, .T. ) ;
#332 = AXIS2_PLACEMENT_3D ( 'NONE', #275, #302, #201 ) ;
#333 = EDGE_CURVE ( 'NONE', #347, #380, #178, .T. ) ;
#334 = ADVANCED_FACE ( 'NONE', ( #57 ), #165, .F. ) ;
#335 = DIRECTION ( 'NONE',  ( 0.000000000000000000, 1.000000000000000000, 1.885568995626964287E-16 ) ) ;
#336 = VECTOR ( 'NONE', #285, 1000.000000000000000 ) ;
#337 = PRESENTATION_STYLE_ASSIGNMENT (( #7 ) ) ;
#338 = CARTESIAN_POINT ( 'NONE',  ( -2.100000000000000089, 1.500000000000000444, -7.027636700751065934E-16 ) ) ;
#339 = CARTESIAN_POINT ( 'NONE',  ( 0.000000000000000000, 1.199999999999999512, 3.800000000000000711 ) ) ;
#340 = ORIENTED_EDGE ( 'NONE', *, *, #184, .T. ) ;
#341 = ORIENTED_EDGE ( 'NONE', *, *, #423, .F. ) ;
#342 = AXIS2_PLACEMENT_3D ( 'NONE', #295, #394, #466 ) ;
#343 = CARTESIAN_POINT ( 'NONE',  ( -2.100000000000000089, -3.935484080939213199E-18, 1.499999999999999112 ) ) ;
#344 = ORIENTED_EDGE ( 'NONE', *, *, #39, .T. ) ;
#345 = CARTESIAN_POINT ( 'NONE',  ( 0.000000000000000000, -2.034678070727968449E-15, 3.000000000000011102 ) ) ;
#346 = EDGE_LOOP ( 'NONE', ( #167, #255, #245, #88 ) ) ;
#347 = VERTEX_POINT ( 'NONE', #420 ) ;
#348 = LINE ( 'NONE', #22, #441 ) ;
#349 = VERTEX_POINT ( 'NONE', #130 ) ;
#350 = DIRECTION ( 'NONE',  ( 0.000000000000000000, 0.000000000000000000, -1.000000000000000000 ) ) ;
#351 = DIRECTION ( 'NONE',  ( 0.000000000000000000, 1.000000000000000000, 1.277752127409284760E-16 ) ) ;
#352 = DIRECTION ( 'NONE',  ( -0.000000000000000000, -1.000000000000000000, -0.000000000000000000 ) ) ;
#353 = CIRCLE ( 'NONE', #149, 0.3000000000000001554 ) ;
#354 = ORIENTED_EDGE ( 'NONE', *, *, #229, .T. ) ;
#355 = LINE ( 'NONE', #30, #286 ) ;
#356 = EDGE_CURVE ( 'NONE', #291, #383, #74, .T. ) ;
#357 = LINE ( 'NONE', #426, #110 ) ;
#358 = VERTEX_POINT ( 'NONE', #168 ) ;
#359 = CARTESIAN_POINT ( 'NONE',  ( 2.100000000000000089, 7.000000000000000000, 0.000000000000000000 ) ) ;
#360 = CARTESIAN_POINT ( 'NONE',  ( 2.100000000000000089, 1.500000000000000000, 1.499999999999999334 ) ) ;
#361 = DIRECTION ( 'NONE',  ( 0.000000000000000000, 0.000000000000000000, -1.000000000000000000 ) ) ;
#362 = AXIS2_PLACEMENT_3D ( 'NONE', #250, #309, #215 ) ;
#363 = EDGE_CURVE ( 'NONE', #446, #380, #388, .T. ) ;
#364 = PRODUCT_RELATED_PRODUCT_CATEGORY ( 'part', '', ( #191 ) ) ;
#365 = VECTOR ( 'NONE', #122, 1000.000000000000000 ) ;
#366 = AXIS2_PLACEMENT_3D ( 'NONE', #260, #397, #361 ) ;
#367 = DIRECTION ( 'NONE',  ( 0.000000000000000000, -7.228014483236696555E-16, 1.000000000000000000 ) ) ;
#368 =( NAMED_UNIT ( * ) PLANE_ANGLE_UNIT ( ) SI_UNIT ( $, .RADIAN. ) );
#369 = VECTOR ( 'NONE', #238, 1000.000000000000000 ) ;
#370 = DIRECTION ( 'NONE',  ( -0.000000000000000000, 1.277752127409284760E-16, -1.000000000000000000 ) ) ;
#371 = PLANE ( 'NONE',  #230 ) ;
#372 = ADVANCED_FACE ( 'NONE', ( #321 ), #453, .F. ) ;
#373 = CARTESIAN_POINT ( 'NONE',  ( 2.100000000000000089, 1.500000000000000444, -7.027636700751065934E-16 ) ) ;
#374 = ORIENTED_EDGE ( 'NONE', *, *, #400, .F. ) ;
#375 = VECTOR ( 'NONE', #104, 1000.000000000000000 ) ;
#376 = DIRECTION ( 'NONE',  ( 0.000000000000000000, 0.000000000000000000, 1.000000000000000000 ) ) ;
#377 = LINE ( 'NONE', #266, #3 ) ;
#378 = VERTEX_POINT ( 'NONE', #246 ) ;
#379 = CARTESIAN_POINT ( 'NONE',  ( 2.100000000000000089, -9.307315673519885459E-16, 7.599999999999999645 ) ) ;
#380 = VERTEX_POINT ( 'NONE', #207 ) ;
#381 = EDGE_CURVE ( 'NONE', #272, #421, #348, .T. ) ;
#382 = PLANE ( 'NONE',  #362 ) ;
#383 = VERTEX_POINT ( 'NONE', #79 ) ;
#384 = CARTESIAN_POINT ( 'NONE',  ( -2.326828918379972844E-16, 5.099999999999998757, 4.452691193458118590 ) ) ;
#385 = ORIENTED_EDGE ( 'NONE', *, *, #249, .T. ) ;
#386 = DIRECTION ( 'NONE',  ( -0.000000000000000000, 1.277752127409284760E-16, -1.000000000000000000 ) ) ;
#387 = VECTOR ( 'NONE', #306, 1000.000000000000000 ) ;
#388 = LINE ( 'NONE', #312, #303 ) ;
#389 = ORIENTED_EDGE ( 'NONE', *, *, #150, .F. ) ;
#390 = CARTESIAN_POINT ( 'NONE',  ( 2.100000000000000089, 7.000000000000000000, 1.199999999999999956 ) ) ;
#391 = DIRECTION ( 'NONE',  ( -0.000000000000000000, -1.000000000000000000, -0.000000000000000000 ) ) ;
#392 = CARTESIAN_POINT ( 'NONE',  ( 2.100000000000000089, 1.199999999999999956, 1.499999999999999778 ) ) ;
#393 = ORIENTED_EDGE ( 'NONE', *, *, #220, .F. ) ;
#394 = DIRECTION ( 'NONE',  ( -0.000000000000000000, -1.277752127409284760E-16, 1.000000000000000000 ) ) ;
#395 = DIRECTION ( 'NONE',  ( 0.000000000000000000, 1.000000000000000000, 0.000000000000000000 ) ) ;
#396 = VERTEX_POINT ( 'NONE', #233 ) ;
#397 = DIRECTION ( 'NONE',  ( -1.000000000000000000, -0.000000000000000000, -0.000000000000000000 ) ) ;
#398 = ADVANCED_FACE ( 'NONE', ( #6, #52 ), #161, .F. ) ;
#399 = AXIS2_PLACEMENT_3D ( 'NONE', #83, #301, #151 ) ;
#400 = EDGE_CURVE ( 'NONE', #378, #259, #11, .T. ) ;
#401 = VECTOR ( 'NONE', #370, 1000.000000000000000 ) ;
#402 = DIRECTION ( 'NONE',  ( 0.000000000000000000, 0.000000000000000000, 1.000000000000000000 ) ) ;
#403 = AXIS2_PLACEMENT_3D ( 'NONE', #310, #197, #265 ) ;
#404 = EDGE_CURVE ( 'NONE', #349, #69, #410, .T. ) ;
#405 = CARTESIAN_POINT ( 'NONE',  ( 2.100000000000000089, -3.935484080939213199E-18, 1.499999999999999112 ) ) ;
#406 = CARTESIAN_POINT ( 'NONE',  ( 2.100000000000000089, -9.307315673519885459E-16, 7.599999999999999645 ) ) ;
#407 = EDGE_LOOP ( 'NONE', ( #305, #385 ) ) ;
#408 = APPLICATION_PROTOCOL_DEFINITION ( 'draft international standard', 'automotive_design', 1998, #29 ) ;
#409 = VERTEX_POINT ( 'NONE', #338 ) ;
#410 = LINE ( 'NONE', #231, #401 ) ;
#411 = ORIENTED_EDGE ( 'NONE', *, *, #73, .F. ) ;
#412 = ORIENTED_EDGE ( 'NONE', *, *, #89, .T. ) ;
#413 = FACE_OUTER_BOUND ( 'NONE', #463, .T. ) ;
#414 = CARTESIAN_POINT ( 'NONE',  ( 2.100000000000000089, 1.199999999999999067, 7.600000000000000533 ) ) ;
#415 = VERTEX_POINT ( 'NONE', #157 ) ;
#416 = AXIS2_PLACEMENT_3D ( 'NONE', #339, #158, #119 ) ;
#417 = DIRECTION ( 'NONE',  ( -1.000000000000000000, 0.000000000000000000, 0.000000000000000000 ) ) ;
#418 = ORIENTED_EDGE ( 'NONE', *, *, #137, .T. ) ;
#419 = DIRECTION ( 'NONE',  ( 0.000000000000000000, 1.000000000000000000, 1.277752127409284760E-16 ) ) ;
#420 = CARTESIAN_POINT ( 'NONE',  ( -2.100000000000000089, 0.000000000000000000, 1.499999999999999556 ) ) ;
#421 = VERTEX_POINT ( 'NONE', #85 ) ;
#422 = CARTESIAN_POINT ( 'NONE',  ( 2.100000000000000089, 7.000000000000000000, 0.000000000000000000 ) ) ;
#423 = EDGE_CURVE ( 'NONE', #84, #272, #445, .T. ) ;
#424 = AXIS2_PLACEMENT_3D ( 'NONE', #87, #244, #204 ) ;
#425 = FACE_OUTER_BOUND ( 'NONE', #457, .T. ) ;
#426 = CARTESIAN_POINT ( 'NONE',  ( 9.797174393178690565E-17, -5.773483797426209161E-16, 4.599999999999989875 ) ) ;
#427 = ORIENTED_EDGE ( 'NONE', *, *, #39, .F. ) ;
#428 = CIRCLE ( 'NONE', #342, 1.149999999999999911 ) ;
#429 = CARTESIAN_POINT ( 'NONE',  ( 2.100000000000000089, 1.500000000000000000, 1.199999999999999289 ) ) ;
#430 = ORIENTED_EDGE ( 'NONE', *, *, #333, .F. ) ;
#431 = CARTESIAN_POINT ( 'NONE',  ( -2.100000000000000089, -9.307315673519885459E-16, 7.599999999999999645 ) ) ;
#432 = DIRECTION ( 'NONE',  ( 0.000000000000000000, 1.277752127409284760E-16, -1.000000000000000000 ) ) ;
#433 = STYLED_ITEM ( 'NONE', ( #337 ), #227 ) ;
#434 = AXIS2_PLACEMENT_3D ( 'NONE', #360, #133, #27 ) ;
#435 = PLANE ( 'NONE',  #21 ) ;
#436 = LINE ( 'NONE', #406, #369 ) ;
#437 = EDGE_CURVE ( 'NONE', #396, #446, #154, .T. ) ;
#438 = UNCERTAINTY_MEASURE_WITH_UNIT (LENGTH_MEASURE( 1.000000000000000082E-05 ), #5, 'distance_accuracy_value', 'NONE');
#439 = FACE_OUTER_BOUND ( 'NONE', #205, .T. ) ;
#440 = CARTESIAN_POINT ( 'NONE',  ( -9.184850993605169392E-17, 3.949999999999998845, 4.452691193458118590 ) ) ;
#441 = VECTOR ( 'NONE', #166, 1000.000000000000000 ) ;
#442 =( NAMED_UNIT ( * ) PLANE_ANGLE_UNIT ( ) SI_UNIT ( $, .RADIAN. ) );
#443 = CARTESIAN_POINT ( 'NONE',  ( 2.100000000000000089, -9.307315673519885459E-16, 7.599999999999999645 ) ) ;
#444 = VERTEX_POINT ( 'NONE', #373 ) ;
#445 = LINE ( 'NONE', #241, #196 ) ;
#446 = VERTEX_POINT ( 'NONE', #379 ) ;
#447 = EDGE_LOOP ( 'NONE', ( #86, #8, #344, #208 ) ) ;
#448 = PRODUCT_DEFINITION ( 'ๆ', '', #293, #96 ) ;
#449 = CARTESIAN_POINT ( 'NONE',  ( -9.184850993605169392E-17, 3.949999999999999734, 5.047120903266673890E-16 ) ) ;
#450 = DIRECTION ( 'NONE',  ( 0.000000000000000000, 0.000000000000000000, -1.000000000000000000 ) ) ;
#451 = ORIENTED_EDGE ( 'NONE', *, *, #67, .F. ) ;
#452 =( GEOMETRIC_REPRESENTATION_CONTEXT ( 3 ) GLOBAL_UNCERTAINTY_ASSIGNED_CONTEXT ( ( #438 ) ) GLOBAL_UNIT_ASSIGNED_CONTEXT ( ( #5, #368, #188 ) ) REPRESENTATION_CONTEXT ( 'NONE', 'WORKASPACE' ) );
#453 = PLANE ( 'NONE',  #470 ) ;
#454 = AXIS2_PLACEMENT_3D ( 'NONE', #182, #25, #173 ) ;
#455 = DIRECTION ( 'NONE',  ( -1.000000000000000000, -0.000000000000000000, -0.000000000000000000 ) ) ;
#456 = CARTESIAN_POINT ( 'NONE',  ( 0.000000000000000000, -5.773483797426209161E-16, 3.000000000000011990 ) ) ;
#457 = EDGE_LOOP ( 'NONE', ( #19, #206, #131, #105 ) ) ;
#458 = UNCERTAINTY_MEASURE_WITH_UNIT (LENGTH_MEASURE( 1.000000000000000082E-05 ), #16, 'distance_accuracy_value', 'NONE');
#459 = ADVANCED_FACE ( 'NONE', ( #126, #439 ), #4, .F. ) ;
#460 = CYLINDRICAL_SURFACE ( 'NONE', #277, 1.499999999999999778 ) ;
#461 = DIRECTION ( 'NONE',  ( -0.000000000000000000, -1.000000000000000000, -0.000000000000000000 ) ) ;
#462 = DIRECTION ( 'NONE',  ( -1.000000000000000000, -0.000000000000000000, -0.000000000000000000 ) ) ;
#463 = EDGE_LOOP ( 'NONE', ( #214, #12, #172, #202 ) ) ;
#464 = FACE_BOUND ( 'NONE', #314, .T. ) ;
#465 = ORIENTED_EDGE ( 'NONE', *, *, #220, .T. ) ;
#466 = DIRECTION ( 'NONE',  ( 0.000000000000000000, 1.000000000000000000, 1.885568995626964287E-16 ) ) ;
#467 = VECTOR ( 'NONE', #106, 1000.000000000000000 ) ;
#468 = DIRECTION ( 'NONE',  ( 0.000000000000000000, 1.277752127409284760E-16, -1.000000000000000000 ) ) ;
#469 = VERTEX_POINT ( 'NONE', #193 ) ;
#470 = AXIS2_PLACEMENT_3D ( 'NONE', #60, #417, #26 ) ;
#471 = EDGE_CURVE ( 'NONE', #409, #347, #156, .T. ) ;
ENDSEC;
END-ISO-10303-21;
