ISO-10303-21;
HEADER;
FILE_DESCRIPTION (( 'STEP AP214' ),
    '1' );
FILE_NAME ('HK_P7_100Pin.STEP',
    '2026-09-23T08:14:43',
    ( '' ),
    ( '' ),
    'SwSTEP 2.0',
    'SolidWorks 2025',
    '' );
FILE_SCHEMA (( 'AUTOMOTIVE_DESIGN' ));
ENDSEC;

DATA;
#1 = CARTESIAN_POINT ( 'NONE',  ( 4.400000000000000355, 1.500000000000000000, 1.199999999999999289 ) ) ;
#2 = DIRECTION ( 'NONE',  ( -0.000000000000000000, -1.000000000000000000, -0.000000000000000000 ) ) ;
#3 = DIRECTION ( 'NONE',  ( -1.000000000000000000, -0.000000000000000000, -0.000000000000000000 ) ) ;
#4 = DIRECTION ( 'NONE',  ( 0.000000000000000000, 0.000000000000000000, -1.000000000000000000 ) ) ;
#5 = FACE_OUTER_BOUND ( 'NONE', #302, .T. ) ;
#6 = VECTOR ( 'NONE', #303, 1000.000000000000000 ) ;
#7 = DIRECTION ( 'NONE',  ( 0.000000000000000000, 0.000000000000000000, 1.000000000000000000 ) ) ;
#8 = CARTESIAN_POINT ( 'NONE',  ( 4.400000000000000355, -1.004210375300829674E-15, 9.699999999999999289 ) ) ;
#9 = DIRECTION ( 'NONE',  ( 0.000000000000000000, 0.000000000000000000, -1.000000000000000000 ) ) ;
#10 = EDGE_CURVE ( 'NONE', #158, #94, #232, .T. ) ;
#11 = VECTOR ( 'NONE', #330, 1000.000000000000000 ) ;
#12 = VECTOR ( 'NONE', #471, 1000.000000000000000 ) ;
#13 = CIRCLE ( 'NONE', #342, 0.7999999999999899414 ) ;
#14 = CARTESIAN_POINT ( 'NONE',  ( 4.400000000000000355, -3.935484080939213199E-18, 1.499999999999999112 ) ) ;
#15 = EDGE_LOOP ( 'NONE', ( #136, #410, #466, #255 ) ) ;
#16 = CARTESIAN_POINT ( 'NONE',  ( -4.400000000000000355, 1.500000000000000000, 1.199999999999999289 ) ) ;
#17 = ORIENTED_EDGE ( 'NONE', *, *, #163, .F. ) ;
#18 = ADVANCED_FACE ( 'NONE', ( #265 ), #399, .F. ) ;
#19 = AXIS2_PLACEMENT_3D ( 'NONE', #87, #124, #126 ) ;
#20 = CARTESIAN_POINT ( 'NONE',  ( -4.400000000000000355, 1.500000000000000000, 1.499999999999999334 ) ) ;
#21 = VERTEX_POINT ( 'NONE', #38 ) ;
#22 = CARTESIAN_POINT ( 'NONE',  ( 4.400000000000000355, 1.199999999999999956, 1.499999999999999778 ) ) ;
#23 = VERTEX_POINT ( 'NONE', #331 ) ;
#24 = FACE_OUTER_BOUND ( 'NONE', #107, .T. ) ;
#25 = ORIENTED_EDGE ( 'NONE', *, *, #137, .F. ) ;
#26 = AXIS2_PLACEMENT_3D ( 'NONE', #467, #145, #150 ) ;
#27 = DIRECTION ( 'NONE',  ( 0.000000000000000000, -1.000000000000000000, -1.219847428316939927E-16 ) ) ;
#28 = VERTEX_POINT ( 'NONE', #79 ) ;
#29 = DIRECTION ( 'NONE',  ( 0.000000000000000000, 0.000000000000000000, -1.000000000000000000 ) ) ;
#30 = ORIENTED_EDGE ( 'NONE', *, *, #204, .F. ) ;
#31 = CARTESIAN_POINT ( 'NONE',  ( 4.400000000000000355, 0.000000000000000000, 1.499999999999999556 ) ) ;
#32 = ORIENTED_EDGE ( 'NONE', *, *, #374, .F. ) ;
#33 = ADVANCED_FACE ( 'NONE', ( #337 ), #328, .F. ) ;
#34 = LINE ( 'NONE', #31, #77 ) ;
#35 = DIRECTION ( 'NONE',  ( -1.000000000000000000, 0.000000000000000000, 0.000000000000000000 ) ) ;
#36 = CARTESIAN_POINT ( 'NONE',  ( 3.367778697655221998E-16, 1.199999999999999512, 4.849999999999999645 ) ) ;
#37 = PRESENTATION_STYLE_ASSIGNMENT (( #260 ) ) ;
#38 = CARTESIAN_POINT ( 'NONE',  ( -4.400000000000000355, 1.500000000000000444, -7.027636700751065934E-16 ) ) ;
#39 = DIRECTION ( 'NONE',  ( 0.000000000000000000, 1.000000000000000000, 1.885568995626964287E-16 ) ) ;
#40 = VECTOR ( 'NONE', #2, 1000.000000000000000 ) ;
#41 = ORIENTED_EDGE ( 'NONE', *, *, #10, .T. ) ;
#42 = MECHANICAL_DESIGN_GEOMETRIC_PRESENTATION_REPRESENTATION (  '', ( #241 ), #277 ) ;
#43 = ADVANCED_FACE ( 'NONE', ( #364 ), #298, .T. ) ;
#44 = ORIENTED_EDGE ( 'NONE', *, *, #416, .F. ) ;
#45 = ADVANCED_FACE ( 'NONE', ( #5 ), #113, .F. ) ;
#46 = CARTESIAN_POINT ( 'NONE',  ( -2.326828918379972844E-16, 5.099999999999999645, 6.516535849787351636E-16 ) ) ;
#47 = ORIENTED_EDGE ( 'NONE', *, *, #99, .T. ) ;
#48 = DIRECTION ( 'NONE',  ( 0.000000000000000000, -1.000000000000000000, -1.277752127409284760E-16 ) ) ;
#49 = VECTOR ( 'NONE', #102, 1000.000000000000000 ) ;
#50 = VERTEX_POINT ( 'NONE', #301 ) ;
#51 = VECTOR ( 'NONE', #371, 1000.000000000000000 ) ;
#52 = CIRCLE ( 'NONE', #422, 1.500000000000000000 ) ;
#53 = EDGE_LOOP ( 'NONE', ( #386, #313, #195, #459 ) ) ;
#54 = PLANE ( 'NONE',  #225 ) ;
#55 = EDGE_LOOP ( 'NONE', ( #174, #64, #323, #273 ) ) ;
#56 = EDGE_CURVE ( 'NONE', #253, #21, #441, .T. ) ;
#57 = CARTESIAN_POINT ( 'NONE',  ( -2.326828918379972844E-16, 6.249999999999998224, 4.452691193458118590 ) ) ;
#58 = ORIENTED_EDGE ( 'NONE', *, *, #366, .F. ) ;
#59 = CARTESIAN_POINT ( 'NONE',  ( 4.400000000000000355, 7.000000000000000000, 0.000000000000000000 ) ) ;
#60 = EDGE_LOOP ( 'NONE', ( #311, #139, #464, #110 ) ) ;
#61 = EDGE_CURVE ( 'NONE', #50, #271, #267, .T. ) ;
#62 = PLANE ( 'NONE',  #179 ) ;
#63 = PRODUCT ( 'HK_P7_100Pin', 'HK_P7_100Pin', '', ( #274 ) ) ;
#64 = ORIENTED_EDGE ( 'NONE', *, *, #405, .F. ) ;
#65 = DIRECTION ( 'NONE',  ( -0.000000000000000000, -1.000000000000000000, -0.000000000000000000 ) ) ;
#66 = EDGE_CURVE ( 'NONE', #176, #208, #404, .T. ) ;
#67 = ORIENTED_EDGE ( 'NONE', *, *, #10, .F. ) ;
#68 = AXIS2_PLACEMENT_3D ( 'NONE', #104, #27, #106 ) ;
#69 = ADVANCED_BREP_SHAPE_REPRESENTATION ( 'HK_P7_100Pin', ( #108, #341 ), #156 ) ;
#70 = DIRECTION ( 'NONE',  ( 0.000000000000000000, 1.277752127409284760E-16, -1.000000000000000000 ) ) ;
#71 = AXIS2_PLACEMENT_3D ( 'NONE', #236, #244, #450 ) ;
#72 = ORIENTED_EDGE ( 'NONE', *, *, #93, .T. ) ;
#73 = LINE ( 'NONE', #189, #286 ) ;
#74 = VERTEX_POINT ( 'NONE', #329 ) ;
#75 = FACE_OUTER_BOUND ( 'NONE', #130, .T. ) ;
#76 = CARTESIAN_POINT ( 'NONE',  ( 4.400000000000000355, 7.000000000000000000, 0.000000000000000000 ) ) ;
#77 = VECTOR ( 'NONE', #114, 1000.000000000000000 ) ;
#78 = PRESENTATION_LAYER_ASSIGNMENT (  '', '', ( #241 ) ) ;
#79 = CARTESIAN_POINT ( 'NONE',  ( -4.400000000000000355, 1.199999999999998845, 9.699999999999999289 ) ) ;
#80 = AXIS2_PLACEMENT_3D ( 'NONE', #433, #157, #259 ) ;
#81 = LINE ( 'NONE', #147, #11 ) ;
#82 = ORIENTED_EDGE ( 'NONE', *, *, #111, .T. ) ;
#83 = CARTESIAN_POINT ( 'NONE',  ( -2.326828918379972844E-16, 6.249999999999998224, 1.199999999999999512 ) ) ;
#84 = CARTESIAN_POINT ( 'NONE',  ( 3.367778697655221998E-16, 1.199999999999999512, 4.849999999999999645 ) ) ;
#85 = DIRECTION ( 'NONE',  ( 0.000000000000000000, -1.219847428316939927E-16, 1.000000000000000000 ) ) ;
#86 = ORIENTED_EDGE ( 'NONE', *, *, #400, .F. ) ;
#87 = CARTESIAN_POINT ( 'NONE',  ( 3.367778697655221998E-16, -2.194208544077902537E-15, 4.849999999999999645 ) ) ;
#88 = VERTEX_POINT ( 'NONE', #83 ) ;
#89 = CYLINDRICAL_SURFACE ( 'NONE', #71, 1.499999999999999778 ) ;
#90 = AXIS2_PLACEMENT_3D ( 'NONE', #297, #300, #39 ) ;
#91 = ORIENTED_EDGE ( 'NONE', *, *, #93, .F. ) ;
#92 = CARTESIAN_POINT ( 'NONE',  ( -4.400000000000000355, 1.500000000000000000, 1.499999999999999334 ) ) ;
#93 = EDGE_CURVE ( 'NONE', #346, #167, #230, .T. ) ;
#94 = VERTEX_POINT ( 'NONE', #1 ) ;
#95 = DIRECTION ( 'NONE',  ( 0.000000000000000000, 1.277752127409284760E-16, -1.000000000000000000 ) ) ;
#96 = PLANE ( 'NONE',  #460 ) ;
#97 = VERTEX_POINT ( 'NONE', #151 ) ;
#98 = AXIS2_PLACEMENT_3D ( 'NONE', #211, #138, #249 ) ;
#99 = EDGE_CURVE ( 'NONE', #221, #199, #365, .T. ) ;
#100 = AXIS2_PLACEMENT_3D ( 'NONE', #452, #417, #407 ) ;
#101 = CIRCLE ( 'NONE', #321, 0.3000000000000001554 ) ;
#102 = DIRECTION ( 'NONE',  ( -0.000000000000000000, 1.277752127409284760E-16, -1.000000000000000000 ) ) ;
#103 = EDGE_LOOP ( 'NONE', ( #72, #408, #67, #245 ) ) ;
#104 = CARTESIAN_POINT ( 'NONE',  ( 4.400000000000000355, 1.199999999999999956, 1.499999999999999334 ) ) ;
#105 = ORIENTED_EDGE ( 'NONE', *, *, #299, .F. ) ;
#106 = DIRECTION ( 'NONE',  ( 0.000000000000000000, 1.219847428316939927E-16, -1.000000000000000000 ) ) ;
#107 = EDGE_LOOP ( 'NONE', ( #284, #159, #436, #315 ) ) ;
#108 = MANIFOLD_SOLID_BREP ( 'M2 \X2\87ba7eb95b54\X0\1', #194 ) ;
#109 = DIRECTION ( 'NONE',  ( 0.000000000000000000, 1.000000000000000000, 1.277752127409284760E-16 ) ) ;
#110 = ORIENTED_EDGE ( 'NONE', *, *, #456, .T. ) ;
#111 = EDGE_CURVE ( 'NONE', #212, #357, #415, .T. ) ;
#112 = DIRECTION ( 'NONE',  ( 0.000000000000000000, -1.000000000000000000, -1.219847428316939927E-16 ) ) ;
#113 = CYLINDRICAL_SURFACE ( 'NONE', #392, 0.7999999999999890532 ) ;
#114 = DIRECTION ( 'NONE',  ( -1.000000000000000000, -0.000000000000000000, -0.000000000000000000 ) ) ;
#115 = CARTESIAN_POINT ( 'NONE',  ( -4.400000000000000355, 7.000000000000000000, 1.199999999999999956 ) ) ;
#116 = EDGE_CURVE ( 'NONE', #176, #253, #166, .T. ) ;
#117 = VECTOR ( 'NONE', #140, 1000.000000000000000 ) ;
#118 =( LENGTH_UNIT ( ) NAMED_UNIT ( * ) SI_UNIT ( .MILLI., .METRE. ) );
#119 = CIRCLE ( 'NONE', #19, 0.7999999999999899414 ) ;
#120 = CARTESIAN_POINT ( 'NONE',  ( 3.367778697655221998E-16, -7.368788530925554963E-16, 4.849999999999999645 ) ) ;
#121 = CIRCLE ( 'NONE', #377, 0.3000000000000001554 ) ;
#122 = CARTESIAN_POINT ( 'NONE',  ( 4.400000000000000355, 1.500000000000000444, -7.027636700751065934E-16 ) ) ;
#123 = DIRECTION ( 'NONE',  ( -0.000000000000000000, -1.000000000000000000, -0.000000000000000000 ) ) ;
#124 = DIRECTION ( 'NONE',  ( -0.000000000000000000, -1.000000000000000000, -0.000000000000000000 ) ) ;
#125 = EDGE_CURVE ( 'NONE', #74, #23, #119, .T. ) ;
#126 = DIRECTION ( 'NONE',  ( 0.000000000000000000, 0.000000000000000000, -1.000000000000000000 ) ) ;
#127 = ORIENTED_EDGE ( 'NONE', *, *, #299, .T. ) ;
#128 = LINE ( 'NONE', #14, #205 ) ;
#129 = UNCERTAINTY_MEASURE_WITH_UNIT (LENGTH_MEASURE( 1.000000000000000082E-05 ), #118, 'distance_accuracy_value', 'NONE');
#130 = EDGE_LOOP ( 'NONE', ( #429, #30, #17, #58, #258, #192, #41, #184 ) ) ;
#131 = CARTESIAN_POINT ( 'NONE',  ( 0.000000000000000000, 0.000000000000000000, 0.000000000000000000 ) ) ;
#132 = CARTESIAN_POINT ( 'NONE',  ( -2.326828918379972844E-16, 6.249999999999999112, 7.985950796308029381E-16 ) ) ;
#133 = VECTOR ( 'NONE', #333, 1000.000000000000000 ) ;
#134 = DIRECTION ( 'NONE',  ( 0.000000000000000000, 1.000000000000000000, 1.277752127409284760E-16 ) ) ;
#135 = DIRECTION ( 'NONE',  ( 0.000000000000000000, -0.000000000000000000, 1.000000000000000000 ) ) ;
#136 = ORIENTED_EDGE ( 'NONE', *, *, #169, .F. ) ;
#137 = EDGE_CURVE ( 'NONE', #289, #28, #161, .T. ) ;
#138 = DIRECTION ( 'NONE',  ( -0.000000000000000000, 1.277752127409284760E-16, -1.000000000000000000 ) ) ;
#139 = ORIENTED_EDGE ( 'NONE', *, *, #316, .F. ) ;
#140 = DIRECTION ( 'NONE',  ( -1.000000000000000000, -0.000000000000000000, -0.000000000000000000 ) ) ;
#141 = VERTEX_POINT ( 'NONE', #308 ) ;
#142 = DIRECTION ( 'NONE',  ( 0.000000000000000000, -1.219847428316939927E-16, 1.000000000000000000 ) ) ;
#143 = EDGE_LOOP ( 'NONE', ( #432, #359 ) ) ;
#144 = ADVANCED_FACE ( 'NONE', ( #276 ), #89, .T. ) ;
#145 = DIRECTION ( 'NONE',  ( 0.000000000000000000, -1.000000000000000000, -1.219847428316939927E-16 ) ) ;
#146 = ORIENTED_EDGE ( 'NONE', *, *, #272, .T. ) ;
#147 = CARTESIAN_POINT ( 'NONE',  ( 4.400000000000000355, 7.000000000000000000, 1.199999999999999956 ) ) ;
#148 = COLOUR_RGB ( '',1.000000000000000000, 1.000000000000000000, 1.000000000000000000 ) ;
#149 = DIRECTION ( 'NONE',  ( 0.000000000000000000, 0.000000000000000000, -1.000000000000000000 ) ) ;
#150 = DIRECTION ( 'NONE',  ( 0.000000000000000000, 1.219847428316939927E-16, -1.000000000000000000 ) ) ;
#151 = CARTESIAN_POINT ( 'NONE',  ( 4.400000000000000355, 1.199999999999999956, 1.499999999999999778 ) ) ;
#152 = EDGE_CURVE ( 'NONE', #158, #176, #376, .T. ) ;
#153 = CARTESIAN_POINT ( 'NONE',  ( -4.400000000000000355, 1.500000000000000000, 1.499999999999999334 ) ) ;
#154 = PRODUCT_DEFINITION_CONTEXT ( 'detailed design', #461, 'design' ) ;
#155 = EDGE_CURVE ( 'NONE', #357, #212, #406, .T. ) ;
#156 =( GEOMETRIC_REPRESENTATION_CONTEXT ( 3 ) GLOBAL_UNCERTAINTY_ASSIGNED_CONTEXT ( ( #129 ) ) GLOBAL_UNIT_ASSIGNED_CONTEXT ( ( #118, #368, #409 ) ) REPRESENTATION_CONTEXT ( 'NONE', 'WORKASPACE' ) );
#157 = DIRECTION ( 'NONE',  ( -0.000000000000000000, -1.277752127409284760E-16, 1.000000000000000000 ) ) ;
#158 = VERTEX_POINT ( 'NONE', #203 ) ;
#159 = ORIENTED_EDGE ( 'NONE', *, *, #400, .T. ) ;
#160 = ADVANCED_FACE ( 'NONE', ( #444 ), #380, .F. ) ;
#161 = LINE ( 'NONE', #162, #6 ) ;
#162 = CARTESIAN_POINT ( 'NONE',  ( -4.400000000000000355, 1.199999999999999956, 1.499999999999999334 ) ) ;
#163 = EDGE_CURVE ( 'NONE', #401, #307, #128, .T. ) ;
#164 = ORIENTED_EDGE ( 'NONE', *, *, #182, .F. ) ;
#165 = VECTOR ( 'NONE', #437, 1000.000000000000000 ) ;
#166 = LINE ( 'NONE', #338, #217 ) ;
#167 = VERTEX_POINT ( 'NONE', #16 ) ;
#168 = APPLICATION_CONTEXT ( 'automotive_design' ) ;
#169 = EDGE_CURVE ( 'NONE', #271, #28, #275, .T. ) ;
#170 = CARTESIAN_POINT ( 'NONE',  ( -4.400000000000000355, 7.000000000000000000, 0.000000000000000000 ) ) ;
#171 =( NAMED_UNIT ( * ) SI_UNIT ( $, .STERADIAN. ) SOLID_ANGLE_UNIT ( ) );
#172 = ORIENTED_EDGE ( 'NONE', *, *, #287, .F. ) ;
#173 = DIRECTION ( 'NONE',  ( 0.000000000000000000, -1.000000000000000000, -1.277752127409284760E-16 ) ) ;
#174 = ORIENTED_EDGE ( 'NONE', *, *, #354, .F. ) ;
#175 = FACE_OUTER_BOUND ( 'NONE', #219, .T. ) ;
#176 = VERTEX_POINT ( 'NONE', #278 ) ;
#177 = DIRECTION ( 'NONE',  ( -0.000000000000000000, 1.000000000000000000, 0.000000000000000000 ) ) ;
#178 = ORIENTED_EDGE ( 'NONE', *, *, #56, .F. ) ;
#179 = AXIS2_PLACEMENT_3D ( 'NONE', #458, #177, #135 ) ;
#180 = CARTESIAN_POINT ( 'NONE',  ( 3.367778697655221998E-16, -7.368788530925554963E-16, 4.050000000000010481 ) ) ;
#181 = ORIENTED_EDGE ( 'NONE', *, *, #61, .T. ) ;
#182 = EDGE_CURVE ( 'NONE', #21, #50, #438, .T. ) ;
#183 = LINE ( 'NONE', #180, #335 ) ;
#184 = ORIENTED_EDGE ( 'NONE', *, *, #391, .T. ) ;
#185 = CARTESIAN_POINT ( 'NONE',  ( -9.184850993605169392E-17, 3.949999999999999734, 5.047120903266673890E-16 ) ) ;
#186 = ORIENTED_EDGE ( 'NONE', *, *, #354, .T. ) ;
#187 = DIRECTION ( 'NONE',  ( 0.000000000000000000, 0.000000000000000000, 1.000000000000000000 ) ) ;
#188 = DIRECTION ( 'NONE',  ( -1.000000000000000000, -0.000000000000000000, -0.000000000000000000 ) ) ;
#189 = CARTESIAN_POINT ( 'NONE',  ( 4.400000000000000355, -1.004210375300829674E-15, 9.699999999999999289 ) ) ;
#190 = CARTESIAN_POINT ( 'NONE',  ( 4.400000000000000355, 7.000000000000000000, 1.199999999999999956 ) ) ;
#191 = LINE ( 'NONE', #295, #165 ) ;
#192 = ORIENTED_EDGE ( 'NONE', *, *, #152, .F. ) ;
#193 = DIRECTION ( 'NONE',  ( -1.000000000000000000, -0.000000000000000000, -0.000000000000000000 ) ) ;
#194 = CLOSED_SHELL ( 'NONE', ( #45, #251, #326, #216, #350, #144, #231, #320, #222, #33, #470, #43, #160, #18 ) ) ;
#195 = ORIENTED_EDGE ( 'NONE', *, *, #163, .T. ) ;
#196 = LINE ( 'NONE', #8, #463 ) ;
#197 = APPLICATION_PROTOCOL_DEFINITION ( 'draft international standard', 'automotive_design', 1998, #168 ) ;
#198 = DIRECTION ( 'NONE',  ( 0.000000000000000000, 1.000000000000000000, 0.000000000000000000 ) ) ;
#199 = VERTEX_POINT ( 'NONE', #378 ) ;
#200 = APPLICATION_PROTOCOL_DEFINITION ( 'draft international standard', 'automotive_design', 1998, #461 ) ;
#201 = PRODUCT_DEFINITION_SHAPE ( 'NONE', 'NONE',  #239 ) ;
#202 = AXIS2_PLACEMENT_3D ( 'NONE', #36, #112, #261 ) ;
#203 = CARTESIAN_POINT ( 'NONE',  ( 4.400000000000000355, 7.000000000000000000, 1.199999999999999956 ) ) ;
#204 = EDGE_CURVE ( 'NONE', #307, #293, #196, .T. ) ;
#205 = VECTOR ( 'NONE', #85, 1000.000000000000000 ) ;
#206 = AXIS2_PLACEMENT_3D ( 'NONE', #92, #340, #9 ) ;
#207 = DIRECTION ( 'NONE',  ( 0.000000000000000000, 0.000000000000000000, 1.000000000000000000 ) ) ;
#208 = VERTEX_POINT ( 'NONE', #170 ) ;
#209 = LINE ( 'NONE', #419, #318 ) ;
#210 = AXIS2_PLACEMENT_3D ( 'NONE', #46, #240, #310 ) ;
#211 = CARTESIAN_POINT ( 'NONE',  ( -2.326828918379972844E-16, 5.099999999999998757, 4.452691193458118590 ) ) ;
#212 = VERTEX_POINT ( 'NONE', #132 ) ;
#213 = CARTESIAN_POINT ( 'NONE',  ( 4.400000000000000355, 1.500000000000000444, -7.027636700751065934E-16 ) ) ;
#214 = EDGE_LOOP ( 'NONE', ( #281, #279 ) ) ;
#215 = ORIENTED_EDGE ( 'NONE', *, *, #448, .T. ) ;
#216 = ADVANCED_FACE ( 'NONE', ( #243 ), #54, .T. ) ;
#217 = VECTOR ( 'NONE', #48, 1000.000000000000000 ) ;
#218 = FACE_BOUND ( 'NONE', #381, .T. ) ;
#219 = EDGE_LOOP ( 'NONE', ( #468, #355, #349, #379 ) ) ;
#220 = LINE ( 'NONE', #327, #133 ) ;
#221 = VERTEX_POINT ( 'NONE', #345 ) ;
#222 = ADVANCED_FACE ( 'NONE', ( #247, #423 ), #462, .F. ) ;
#223 = CARTESIAN_POINT ( 'NONE',  ( 4.400000000000000355, 1.500000000000000000, 1.499999999999999334 ) ) ;
#224 = DIRECTION ( 'NONE',  ( 0.000000000000000000, 0.000000000000000000, -1.000000000000000000 ) ) ;
#225 = AXIS2_PLACEMENT_3D ( 'NONE', #305, #207, #446 ) ;
#226 = FILL_AREA_STYLE_COLOUR ( '', #148 ) ;
#227 = DIRECTION ( 'NONE',  ( -1.000000000000000000, -0.000000000000000000, -0.000000000000000000 ) ) ;
#228 = ORIENTED_EDGE ( 'NONE', *, *, #431, .T. ) ;
#229 = DIRECTION ( 'NONE',  ( 0.000000000000000000, 0.000000000000000000, -1.000000000000000000 ) ) ;
#230 = LINE ( 'NONE', #115, #51 ) ;
#231 = ADVANCED_FACE ( 'NONE', ( #385, #175 ), #96, .T. ) ;
#232 = LINE ( 'NONE', #190, #269 ) ;
#233 = DIRECTION ( 'NONE',  ( 0.000000000000000000, 0.000000000000000000, -1.000000000000000000 ) ) ;
#234 = ORIENTED_EDGE ( 'NONE', *, *, #332, .T. ) ;
#235 = EDGE_CURVE ( 'NONE', #88, #212, #290, .T. ) ;
#236 = CARTESIAN_POINT ( 'NONE',  ( 4.400000000000000355, 1.500000000000000000, 1.499999999999999334 ) ) ;
#237 = EDGE_LOOP ( 'NONE', ( #420, #47 ) ) ;
#238 = CIRCLE ( 'NONE', #90, 1.149999999999999911 ) ;
#239 = PRODUCT_DEFINITION ( 'ๆ', '', #414, #154 ) ;
#240 = DIRECTION ( 'NONE',  ( 0.000000000000000000, 1.277752127409284760E-16, -1.000000000000000000 ) ) ;
#241 = STYLED_ITEM ( 'NONE', ( #37 ), #108 ) ;
#242 = EDGE_LOOP ( 'NONE', ( #86, #215, #361, #82 ) ) ;
#243 = FACE_OUTER_BOUND ( 'NONE', #15, .T. ) ;
#244 = DIRECTION ( 'NONE',  ( -1.000000000000000000, -0.000000000000000000, -0.000000000000000000 ) ) ;
#245 = ORIENTED_EDGE ( 'NONE', *, *, #405, .T. ) ;
#246 = EDGE_CURVE ( 'NONE', #167, #289, #101, .T. ) ;
#247 = FACE_BOUND ( 'NONE', #143, .T. ) ;
#248 = EDGE_LOOP ( 'NONE', ( #164, #178, #388, #228 ) ) ;
#249 = DIRECTION ( 'NONE',  ( 0.000000000000000000, 1.000000000000000000, 0.000000000000000000 ) ) ;
#250 = ORIENTED_EDGE ( 'NONE', *, *, #137, .T. ) ;
#251 = ADVANCED_FACE ( 'NONE', ( #24 ), #252, .F. ) ;
#252 = CYLINDRICAL_SURFACE ( 'NONE', #98, 1.149999999999999911 ) ;
#253 = VERTEX_POINT ( 'NONE', #213 ) ;
#254 = FACE_OUTER_BOUND ( 'NONE', #427, .T. ) ;
#255 = ORIENTED_EDGE ( 'NONE', *, *, #287, .T. ) ;
#256 = AXIS2_PLACEMENT_3D ( 'NONE', #84, #373, #149 ) ;
#257 = DIRECTION ( 'NONE',  ( 0.000000000000000000, 0.000000000000000000, -1.000000000000000000 ) ) ;
#258 = ORIENTED_EDGE ( 'NONE', *, *, #116, .F. ) ;
#259 = DIRECTION ( 'NONE',  ( 0.000000000000000000, 1.000000000000000000, 1.885568995626964287E-16 ) ) ;
#260 = SURFACE_STYLE_USAGE ( .BOTH. , #296 ) ;
#261 = DIRECTION ( 'NONE',  ( 0.000000000000000000, 0.000000000000000000, -1.000000000000000000 ) ) ;
#262 = CARTESIAN_POINT ( 'NONE',  ( 3.367778697655221998E-16, -7.368788530925554963E-16, 4.849999999999999645 ) ) ;
#263 = AXIS2_PLACEMENT_3D ( 'NONE', #455, #70, #109 ) ;
#264 = AXIS2_PLACEMENT_3D ( 'NONE', #223, #362, #187 ) ;
#265 = FACE_OUTER_BOUND ( 'NONE', #319, .T. ) ;
#266 = CARTESIAN_POINT ( 'NONE',  ( 4.400000000000000355, 0.000000000000000000, 1.499999999999999556 ) ) ;
#267 = LINE ( 'NONE', #403, #445 ) ;
#268 = DIRECTION ( 'NONE',  ( 0.000000000000000000, 0.000000000000000000, -1.000000000000000000 ) ) ;
#269 = VECTOR ( 'NONE', #369, 1000.000000000000000 ) ;
#270 = CARTESIAN_POINT ( 'NONE',  ( 4.400000000000000355, 7.000000000000000000, 1.199999999999999956 ) ) ;
#271 = VERTEX_POINT ( 'NONE', #382 ) ;
#272 = EDGE_CURVE ( 'NONE', #208, #21, #387, .T. ) ;
#273 = ORIENTED_EDGE ( 'NONE', *, *, #66, .T. ) ;
#274 = PRODUCT_CONTEXT ( 'NONE', #168, 'mechanical' ) ;
#275 = LINE ( 'NONE', #375, #304 ) ;
#276 = FACE_OUTER_BOUND ( 'NONE', #248, .T. ) ;
#277 =( GEOMETRIC_REPRESENTATION_CONTEXT ( 3 ) GLOBAL_UNCERTAINTY_ASSIGNED_CONTEXT ( ( #306 ) ) GLOBAL_UNIT_ASSIGNED_CONTEXT ( ( #412, #343, #171 ) ) REPRESENTATION_CONTEXT ( 'NONE', 'WORKASPACE' ) );
#278 = CARTESIAN_POINT ( 'NONE',  ( 4.400000000000000355, 7.000000000000000000, 0.000000000000000000 ) ) ;
#279 = ORIENTED_EDGE ( 'NONE', *, *, #155, .F. ) ;
#280 = CARTESIAN_POINT ( 'NONE',  ( 4.400000000000000355, 1.199999999999998845, 9.699999999999999289 ) ) ;
#281 = ORIENTED_EDGE ( 'NONE', *, *, #111, .F. ) ;
#282 = DIRECTION ( 'NONE',  ( 0.000000000000000000, 1.277752127409284760E-16, -1.000000000000000000 ) ) ;
#283 = VECTOR ( 'NONE', #227, 1000.000000000000000 ) ;
#284 = ORIENTED_EDGE ( 'NONE', *, *, #421, .T. ) ;
#285 = AXIS2_PLACEMENT_3D ( 'NONE', #439, #3, #7 ) ;
#286 = VECTOR ( 'NONE', #469, 1000.000000000000000 ) ;
#287 = EDGE_CURVE ( 'NONE', #293, #28, #347, .T. ) ;
#288 = FACE_BOUND ( 'NONE', #237, .T. ) ;
#289 = VERTEX_POINT ( 'NONE', #465 ) ;
#290 = LINE ( 'NONE', #57, #49 ) ;
#291 = ORIENTED_EDGE ( 'NONE', *, *, #246, .F. ) ;
#292 = DIRECTION ( 'NONE',  ( 0.000000000000000000, 1.000000000000000000, 1.277752127409284760E-16 ) ) ;
#293 = VERTEX_POINT ( 'NONE', #280 ) ;
#294 = CARTESIAN_POINT ( 'NONE',  ( -2.326828918379972844E-16, 5.099999999999999645, 6.516535849787351636E-16 ) ) ;
#295 = CARTESIAN_POINT ( 'NONE',  ( -4.400000000000000355, 7.000000000000000000, 1.199999999999999956 ) ) ;
#296 = SURFACE_SIDE_STYLE ('',( #434 ) ) ;
#297 = CARTESIAN_POINT ( 'NONE',  ( -2.326828918379972844E-16, 5.099999999999998757, 1.199999999999999289 ) ) ;
#298 = PLANE ( 'NONE',  #454 ) ;
#299 = EDGE_CURVE ( 'NONE', #23, #74, #13, .T. ) ;
#300 = DIRECTION ( 'NONE',  ( -0.000000000000000000, -1.277752127409284760E-16, 1.000000000000000000 ) ) ;
#301 = CARTESIAN_POINT ( 'NONE',  ( -4.400000000000000355, 0.000000000000000000, 1.499999999999999556 ) ) ;
#302 = EDGE_LOOP ( 'NONE', ( #384, #325, #127, #393 ) ) ;
#303 = DIRECTION ( 'NONE',  ( 0.000000000000000000, -1.219847428316939927E-16, 1.000000000000000000 ) ) ;
#304 = VECTOR ( 'NONE', #198, 1000.000000000000000 ) ;
#305 = CARTESIAN_POINT ( 'NONE',  ( 4.400000000000000355, -1.004210375300829674E-15, 9.699999999999999289 ) ) ;
#306 = UNCERTAINTY_MEASURE_WITH_UNIT (LENGTH_MEASURE( 1.000000000000000082E-05 ), #412, 'distance_accuracy_value', 'NONE');
#307 = VERTEX_POINT ( 'NONE', #312 ) ;
#308 = CARTESIAN_POINT ( 'NONE',  ( -9.184850993605169392E-17, 3.949999999999998845, 1.199999999999999067 ) ) ;
#309 = EDGE_CURVE ( 'NONE', #97, #293, #209, .T. ) ;
#310 = DIRECTION ( 'NONE',  ( 0.000000000000000000, 1.000000000000000000, 1.277752127409284760E-16 ) ) ;
#311 = ORIENTED_EDGE ( 'NONE', *, *, #246, .T. ) ;
#312 = CARTESIAN_POINT ( 'NONE',  ( 4.400000000000000355, -1.004210375300829674E-15, 9.699999999999999289 ) ) ;
#313 = ORIENTED_EDGE ( 'NONE', *, *, #431, .F. ) ;
#314 = CARTESIAN_POINT ( 'NONE',  ( 4.400000000000000355, 1.199999999999998845, 9.699999999999999289 ) ) ;
#315 = ORIENTED_EDGE ( 'NONE', *, *, #235, .F. ) ;
#316 = EDGE_CURVE ( 'NONE', #97, #289, #356, .T. ) ;
#317 = DIRECTION ( 'NONE',  ( -1.000000000000000000, -0.000000000000000000, -0.000000000000000000 ) ) ;
#318 = VECTOR ( 'NONE', #142, 1000.000000000000000 ) ;
#319 = EDGE_LOOP ( 'NONE', ( #44, #32, #234, #447 ) ) ;
#320 = ADVANCED_FACE ( 'NONE', ( #353 ), #62, .T. ) ;
#321 = AXIS2_PLACEMENT_3D ( 'NONE', #20, #317, #29 ) ;
#322 = DIRECTION ( 'NONE',  ( -0.000000000000000000, -1.000000000000000000, -0.000000000000000000 ) ) ;
#323 = ORIENTED_EDGE ( 'NONE', *, *, #152, .T. ) ;
#324 = PLANE ( 'NONE',  #26 ) ;
#325 = ORIENTED_EDGE ( 'NONE', *, *, #416, .T. ) ;
#326 = ADVANCED_FACE ( 'NONE', ( #288, #254 ), #426, .F. ) ;
#327 = CARTESIAN_POINT ( 'NONE',  ( -9.184850993605169392E-17, 3.949999999999998845, 4.452691193458118590 ) ) ;
#328 = CYLINDRICAL_SURFACE ( 'NONE', #285, 0.3000000000000001554 ) ;
#329 = CARTESIAN_POINT ( 'NONE',  ( 3.367778697655221998E-16, -2.194208544077902537E-15, 4.050000000000009592 ) ) ;
#330 = DIRECTION ( 'NONE',  ( -1.000000000000000000, -0.000000000000000000, -0.000000000000000000 ) ) ;
#331 = CARTESIAN_POINT ( 'NONE',  ( 4.347496136973092040E-16, -2.194208544077902537E-15, 5.649999999999988809 ) ) ;
#332 = EDGE_CURVE ( 'NONE', #199, #74, #183, .T. ) ;
#333 = DIRECTION ( 'NONE',  ( -0.000000000000000000, 1.277752127409284760E-16, -1.000000000000000000 ) ) ;
#334 = DIRECTION ( 'NONE',  ( 0.000000000000000000, 0.000000000000000000, 1.000000000000000000 ) ) ;
#335 = VECTOR ( 'NONE', #322, 1000.000000000000000 ) ;
#336 = VECTOR ( 'NONE', #233, 1000.000000000000000 ) ;
#337 = FACE_OUTER_BOUND ( 'NONE', #60, .T. ) ;
#338 = CARTESIAN_POINT ( 'NONE',  ( 4.400000000000000355, 7.000000000000000000, 0.000000000000000000 ) ) ;
#339 = DIRECTION ( 'NONE',  ( 1.000000000000000000, 0.000000000000000000, 0.000000000000000000 ) ) ;
#340 = DIRECTION ( 'NONE',  ( -1.000000000000000000, -0.000000000000000000, -0.000000000000000000 ) ) ;
#341 = AXIS2_PLACEMENT_3D ( 'NONE', #131, #411, #339 ) ;
#342 = AXIS2_PLACEMENT_3D ( 'NONE', #351, #65, #257 ) ;
#343 =( NAMED_UNIT ( * ) PLANE_ANGLE_UNIT ( ) SI_UNIT ( $, .RADIAN. ) );
#344 = DIRECTION ( 'NONE',  ( 0.000000000000000000, 1.000000000000000000, 0.000000000000000000 ) ) ;
#345 = CARTESIAN_POINT ( 'NONE',  ( 4.347496136973091054E-16, 1.199999999999999512, 5.649999999999987921 ) ) ;
#346 = VERTEX_POINT ( 'NONE', #428 ) ;
#347 = LINE ( 'NONE', #314, #117 ) ;
#348 = AXIS2_PLACEMENT_3D ( 'NONE', #294, #95, #134 ) ;
#349 = ORIENTED_EDGE ( 'NONE', *, *, #116, .T. ) ;
#350 = ADVANCED_FACE ( 'NONE', ( #218, #358 ), #324, .T. ) ;
#351 = CARTESIAN_POINT ( 'NONE',  ( 3.367778697655221998E-16, -2.194208544077902537E-15, 4.849999999999999645 ) ) ;
#352 = EDGE_LOOP ( 'NONE', ( #25, #291, #91, #186, #146, #390, #181, #457 ) ) ;
#353 = FACE_OUTER_BOUND ( 'NONE', #55, .T. ) ;
#354 = EDGE_CURVE ( 'NONE', #346, #208, #191, .T. ) ;
#355 = ORIENTED_EDGE ( 'NONE', *, *, #66, .F. ) ;
#356 = LINE ( 'NONE', #22, #398 ) ;
#357 = VERTEX_POINT ( 'NONE', #185 ) ;
#358 = FACE_OUTER_BOUND ( 'NONE', #53, .T. ) ;
#359 = ORIENTED_EDGE ( 'NONE', *, *, #448, .F. ) ;
#360 = LINE ( 'NONE', #402, #40 ) ;
#361 = ORIENTED_EDGE ( 'NONE', *, *, #235, .T. ) ;
#362 = DIRECTION ( 'NONE',  ( -1.000000000000000000, 0.000000000000000000, 0.000000000000000000 ) ) ;
#363 = VECTOR ( 'NONE', #173, 1000.000000000000000 ) ;
#364 = FACE_OUTER_BOUND ( 'NONE', #352, .T. ) ;
#365 = CIRCLE ( 'NONE', #256, 0.7999999999999890532 ) ;
#366 = EDGE_CURVE ( 'NONE', #253, #401, #52, .T. ) ;
#367 = FILL_AREA_STYLE ('',( #226 ) ) ;
#368 =( NAMED_UNIT ( * ) PLANE_ANGLE_UNIT ( ) SI_UNIT ( $, .RADIAN. ) );
#369 = DIRECTION ( 'NONE',  ( 0.000000000000000000, -1.000000000000000000, -1.277752127409284760E-16 ) ) ;
#370 = CARTESIAN_POINT ( 'NONE',  ( 4.400000000000000355, 1.500000000000000000, 1.499999999999999334 ) ) ;
#371 = DIRECTION ( 'NONE',  ( 0.000000000000000000, -1.000000000000000000, -1.277752127409284760E-16 ) ) ;
#372 = VECTOR ( 'NONE', #188, 1000.000000000000000 ) ;
#373 = DIRECTION ( 'NONE',  ( 0.000000000000000000, -1.000000000000000000, -1.219847428316939927E-16 ) ) ;
#374 = EDGE_CURVE ( 'NONE', #199, #221, #424, .T. ) ;
#375 = CARTESIAN_POINT ( 'NONE',  ( -4.400000000000000355, -1.004210375300829674E-15, 9.699999999999999289 ) ) ;
#376 = LINE ( 'NONE', #270, #336 ) ;
#377 = AXIS2_PLACEMENT_3D ( 'NONE', #370, #442, #229 ) ;
#378 = CARTESIAN_POINT ( 'NONE',  ( 3.367778697655221998E-16, 1.199999999999999512, 4.050000000000010481 ) ) ;
#379 = ORIENTED_EDGE ( 'NONE', *, *, #56, .T. ) ;
#380 = CYLINDRICAL_SURFACE ( 'NONE', #100, 1.149999999999999911 ) ;
#381 = EDGE_LOOP ( 'NONE', ( #413, #105 ) ) ;
#382 = CARTESIAN_POINT ( 'NONE',  ( -4.400000000000000355, -1.004210375300829674E-15, 9.699999999999999289 ) ) ;
#383 = AXIS2_PLACEMENT_3D ( 'NONE', #262, #443, #224 ) ;
#384 = ORIENTED_EDGE ( 'NONE', *, *, #99, .F. ) ;
#385 = FACE_BOUND ( 'NONE', #214, .T. ) ;
#386 = ORIENTED_EDGE ( 'NONE', *, *, #61, .F. ) ;
#387 = LINE ( 'NONE', #430, #363 ) ;
#388 = ORIENTED_EDGE ( 'NONE', *, *, #366, .T. ) ;
#389 = DIRECTION ( 'NONE',  ( -1.000000000000000000, -0.000000000000000000, -0.000000000000000000 ) ) ;
#390 = ORIENTED_EDGE ( 'NONE', *, *, #182, .T. ) ;
#391 = EDGE_CURVE ( 'NONE', #94, #97, #121, .T. ) ;
#392 = AXIS2_PLACEMENT_3D ( 'NONE', #120, #123, #268 ) ;
#393 = ORIENTED_EDGE ( 'NONE', *, *, #332, .F. ) ;
#394 = CARTESIAN_POINT ( 'NONE',  ( 4.400000000000000355, 1.500000000000000000, 1.199999999999999289 ) ) ;
#395 = DIRECTION ( 'NONE',  ( 0.000000000000000000, -1.219847428316939927E-16, 1.000000000000000000 ) ) ;
#396 = EDGE_CURVE ( 'NONE', #307, #271, #73, .T. ) ;
#397 = PLANE ( 'NONE',  #264 ) ;
#398 = VECTOR ( 'NONE', #389, 1000.000000000000000 ) ;
#399 = CYLINDRICAL_SURFACE ( 'NONE', #383, 0.7999999999999890532 ) ;
#400 = EDGE_CURVE ( 'NONE', #141, #357, #220, .T. ) ;
#401 = VERTEX_POINT ( 'NONE', #266 ) ;
#402 = CARTESIAN_POINT ( 'NONE',  ( 4.347496136973091054E-16, -7.368788530925554963E-16, 5.649999999999987921 ) ) ;
#403 = CARTESIAN_POINT ( 'NONE',  ( -4.400000000000000355, -3.935484080939213199E-18, 1.499999999999999112 ) ) ;
#404 = LINE ( 'NONE', #76, #372 ) ;
#405 = EDGE_CURVE ( 'NONE', #158, #346, #81, .T. ) ;
#406 = CIRCLE ( 'NONE', #210, 1.149999999999999911 ) ;
#407 = DIRECTION ( 'NONE',  ( 0.000000000000000000, 1.000000000000000000, 0.000000000000000000 ) ) ;
#408 = ORIENTED_EDGE ( 'NONE', *, *, #456, .F. ) ;
#409 =( NAMED_UNIT ( * ) SI_UNIT ( $, .STERADIAN. ) SOLID_ANGLE_UNIT ( ) );
#410 = ORIENTED_EDGE ( 'NONE', *, *, #396, .F. ) ;
#411 = DIRECTION ( 'NONE',  ( 0.000000000000000000, 0.000000000000000000, 1.000000000000000000 ) ) ;
#412 =( LENGTH_UNIT ( ) NAMED_UNIT ( * ) SI_UNIT ( .MILLI., .METRE. ) );
#413 = ORIENTED_EDGE ( 'NONE', *, *, #125, .F. ) ;
#414 = PRODUCT_DEFINITION_FORMATION_WITH_SPECIFIED_SOURCE ( 'ไป', '', #63, .NOT_KNOWN. ) ;
#415 = CIRCLE ( 'NONE', #348, 1.149999999999999911 ) ;
#416 = EDGE_CURVE ( 'NONE', #221, #23, #360, .T. ) ;
#417 = DIRECTION ( 'NONE',  ( -0.000000000000000000, 1.277752127409284760E-16, -1.000000000000000000 ) ) ;
#418 = ORIENTED_EDGE ( 'NONE', *, *, #316, .T. ) ;
#419 = CARTESIAN_POINT ( 'NONE',  ( 4.400000000000000355, 1.199999999999999956, 1.499999999999999334 ) ) ;
#420 = ORIENTED_EDGE ( 'NONE', *, *, #374, .T. ) ;
#421 = EDGE_CURVE ( 'NONE', #88, #141, #238, .T. ) ;
#422 = AXIS2_PLACEMENT_3D ( 'NONE', #435, #193, #4 ) ;
#423 = FACE_OUTER_BOUND ( 'NONE', #103, .T. ) ;
#424 = CIRCLE ( 'NONE', #202, 0.7999999999999890532 ) ;
#425 = ORIENTED_EDGE ( 'NONE', *, *, #309, .F. ) ;
#426 = PLANE ( 'NONE',  #68 ) ;
#427 = EDGE_LOOP ( 'NONE', ( #250, #172, #425, #418 ) ) ;
#428 = CARTESIAN_POINT ( 'NONE',  ( -4.400000000000000355, 7.000000000000000000, 1.199999999999999956 ) ) ;
#429 = ORIENTED_EDGE ( 'NONE', *, *, #309, .T. ) ;
#430 = CARTESIAN_POINT ( 'NONE',  ( -4.400000000000000355, 7.000000000000000000, 0.000000000000000000 ) ) ;
#431 = EDGE_CURVE ( 'NONE', #401, #50, #34, .T. ) ;
#432 = ORIENTED_EDGE ( 'NONE', *, *, #421, .F. ) ;
#433 = CARTESIAN_POINT ( 'NONE',  ( -2.326828918379972844E-16, 5.099999999999998757, 1.199999999999999289 ) ) ;
#434 = SURFACE_STYLE_FILL_AREA ( #367 ) ;
#435 = CARTESIAN_POINT ( 'NONE',  ( 4.400000000000000355, 1.500000000000000000, 1.499999999999999334 ) ) ;
#436 = ORIENTED_EDGE ( 'NONE', *, *, #155, .T. ) ;
#437 = DIRECTION ( 'NONE',  ( 0.000000000000000000, 0.000000000000000000, -1.000000000000000000 ) ) ;
#438 = CIRCLE ( 'NONE', #206, 1.500000000000000000 ) ;
#439 = CARTESIAN_POINT ( 'NONE',  ( 4.400000000000000355, 1.500000000000000000, 1.499999999999999334 ) ) ;
#440 = LINE ( 'NONE', #394, #283 ) ;
#441 = LINE ( 'NONE', #122, #12 ) ;
#442 = DIRECTION ( 'NONE',  ( -1.000000000000000000, -0.000000000000000000, -0.000000000000000000 ) ) ;
#443 = DIRECTION ( 'NONE',  ( -0.000000000000000000, -1.000000000000000000, -0.000000000000000000 ) ) ;
#444 = FACE_OUTER_BOUND ( 'NONE', #242, .T. ) ;
#445 = VECTOR ( 'NONE', #395, 1000.000000000000000 ) ;
#446 = DIRECTION ( 'NONE',  ( 1.000000000000000000, 0.000000000000000000, -0.000000000000000000 ) ) ;
#447 = ORIENTED_EDGE ( 'NONE', *, *, #125, .T. ) ;
#448 = EDGE_CURVE ( 'NONE', #141, #88, #453, .T. ) ;
#449 = SHAPE_DEFINITION_REPRESENTATION ( #201, #69 ) ;
#450 = DIRECTION ( 'NONE',  ( 0.000000000000000000, 0.000000000000000000, 1.000000000000000000 ) ) ;
#451 = PRODUCT_RELATED_PRODUCT_CATEGORY ( 'part', '', ( #63 ) ) ;
#452 = CARTESIAN_POINT ( 'NONE',  ( -2.326828918379972844E-16, 5.099999999999998757, 4.452691193458118590 ) ) ;
#453 = CIRCLE ( 'NONE', #80, 1.149999999999999911 ) ;
#454 = AXIS2_PLACEMENT_3D ( 'NONE', #153, #35, #334 ) ;
#455 = CARTESIAN_POINT ( 'NONE',  ( 4.400000000000000355, 7.000000000000000000, 1.199999999999999956 ) ) ;
#456 = EDGE_CURVE ( 'NONE', #94, #167, #440, .T. ) ;
#457 = ORIENTED_EDGE ( 'NONE', *, *, #169, .T. ) ;
#458 = CARTESIAN_POINT ( 'NONE',  ( 4.400000000000000355, 7.000000000000000000, 1.199999999999999956 ) ) ;
#459 = ORIENTED_EDGE ( 'NONE', *, *, #396, .T. ) ;
#460 = AXIS2_PLACEMENT_3D ( 'NONE', #59, #282, #292 ) ;
#461 = APPLICATION_CONTEXT ( 'automotive_design' ) ;
#462 = PLANE ( 'NONE',  #263 ) ;
#463 = VECTOR ( 'NONE', #344, 1000.000000000000000 ) ;
#464 = ORIENTED_EDGE ( 'NONE', *, *, #391, .F. ) ;
#465 = CARTESIAN_POINT ( 'NONE',  ( -4.400000000000000355, 1.199999999999999956, 1.499999999999999778 ) ) ;
#466 = ORIENTED_EDGE ( 'NONE', *, *, #204, .T. ) ;
#467 = CARTESIAN_POINT ( 'NONE',  ( 4.400000000000000355, -3.935484080939213199E-18, 1.499999999999999112 ) ) ;
#468 = ORIENTED_EDGE ( 'NONE', *, *, #272, .F. ) ;
#469 = DIRECTION ( 'NONE',  ( -1.000000000000000000, -0.000000000000000000, -0.000000000000000000 ) ) ;
#470 = ADVANCED_FACE ( 'NONE', ( #75 ), #397, .F. ) ;
#471 = DIRECTION ( 'NONE',  ( -1.000000000000000000, -0.000000000000000000, -0.000000000000000000 ) ) ;
ENDSEC;
END-ISO-10303-21;
