ISO-10303-21;
HEADER;
FILE_DESCRIPTION (( 'STEP AP214' ),
    '1' );
FILE_NAME ('HK_P7_74Pin.STEP',
    '2026-09-23T08:12:42',
    ( '' ),
    ( '' ),
    'SwSTEP 2.0',
    'SolidWorks 2025',
    '' );
FILE_SCHEMA (( 'AUTOMOTIVE_DESIGN' ));
ENDSEC;

DATA;
#1 = ORIENTED_EDGE ( 'NONE', *, *, #140, .F. ) ;
#2 = DIRECTION ( 'NONE',  ( 0.000000000000000000, -1.000000000000000000, -1.277752127409284760E-16 ) ) ;
#3 = EDGE_LOOP ( 'NONE', ( #364, #169, #180, #164, #204, #58, #229, #331 ) ) ;
#4 = CARTESIAN_POINT ( 'NONE',  ( 2.100000000000000089, 1.199999999999999956, 1.499999999999999778 ) ) ;
#5 = ORIENTED_EDGE ( 'NONE', *, *, #221, .F. ) ;
#6 = DIRECTION ( 'NONE',  ( -1.000000000000000000, -0.000000000000000000, -0.000000000000000000 ) ) ;
#7 = VERTEX_POINT ( 'NONE', #135 ) ;
#8 = DIRECTION ( 'NONE',  ( -1.000000000000000000, -0.000000000000000000, -0.000000000000000000 ) ) ;
#9 = ORIENTED_EDGE ( 'NONE', *, *, #357, .F. ) ;
#10 = LINE ( 'NONE', #295, #345 ) ;
#11 = ADVANCED_FACE ( 'NONE', ( #351 ), #95, .T. ) ;
#12 = DIRECTION ( 'NONE',  ( -1.000000000000000000, 0.000000000000000000, 0.000000000000000000 ) ) ;
#13 = PRODUCT_DEFINITION ( 'ๆ', '', #292, #445 ) ;
#14 = CARTESIAN_POINT ( 'NONE',  ( 2.100000000000000089, 7.000000000000000000, 0.000000000000000000 ) ) ;
#15 = AXIS2_PLACEMENT_3D ( 'NONE', #348, #99, #350 ) ;
#16 = ORIENTED_EDGE ( 'NONE', *, *, #182, .F. ) ;
#17 = CYLINDRICAL_SURFACE ( 'NONE', #413, 0.3000000000000001554 ) ;
#18 = CARTESIAN_POINT ( 'NONE',  ( 2.100000000000000089, -3.935484080939213199E-18, 1.499999999999999112 ) ) ;
#19 = LINE ( 'NONE', #172, #23 ) ;
#20 = CARTESIAN_POINT ( 'NONE',  ( 2.100000000000000089, 1.500000000000000000, 1.499999999999999334 ) ) ;
#21 = AXIS2_PLACEMENT_3D ( 'NONE', #215, #361, #178 ) ;
#22 = LINE ( 'NONE', #272, #106 ) ;
#23 = VECTOR ( 'NONE', #101, 1000.000000000000000 ) ;
#24 = DIRECTION ( 'NONE',  ( 0.000000000000000000, 1.000000000000000000, 0.000000000000000000 ) ) ;
#25 = CARTESIAN_POINT ( 'NONE',  ( 0.000000000000000000, 0.000000000000000000, 0.000000000000000000 ) ) ;
#26 = AXIS2_PLACEMENT_3D ( 'NONE', #103, #211, #428 ) ;
#27 = LINE ( 'NONE', #316, #90 ) ;
#28 = VERTEX_POINT ( 'NONE', #278 ) ;
#29 = ADVANCED_FACE ( 'NONE', ( #240, #347 ), #245, .T. ) ;
#30 = APPLICATION_CONTEXT ( 'automotive_design' ) ;
#31 = DIRECTION ( 'NONE',  ( -0.000000000000000000, -1.000000000000000000, -0.000000000000000000 ) ) ;
#32 = ORIENTED_EDGE ( 'NONE', *, *, #105, .F. ) ;
#33 = EDGE_CURVE ( 'NONE', #73, #77, #255, .T. ) ;
#34 = PRODUCT_DEFINITION_SHAPE ( 'NONE', 'NONE',  #13 ) ;
#35 =( LENGTH_UNIT ( ) NAMED_UNIT ( * ) SI_UNIT ( .MILLI., .METRE. ) );
#36 = CARTESIAN_POINT ( 'NONE',  ( 2.100000000000000089, 1.199999999999999956, 1.499999999999999334 ) ) ;
#37 = ORIENTED_EDGE ( 'NONE', *, *, #319, .T. ) ;
#38 = ORIENTED_EDGE ( 'NONE', *, *, #144, .T. ) ;
#39 = ORIENTED_EDGE ( 'NONE', *, *, #339, .F. ) ;
#40 = FACE_OUTER_BOUND ( 'NONE', #399, .T. ) ;
#41 = AXIS2_PLACEMENT_3D ( 'NONE', #373, #379, #301 ) ;
#42 = EDGE_LOOP ( 'NONE', ( #5, #83 ) ) ;
#43 = FACE_BOUND ( 'NONE', #152, .T. ) ;
#44 = UNCERTAINTY_MEASURE_WITH_UNIT (LENGTH_MEASURE( 1.000000000000000082E-05 ), #393, 'distance_accuracy_value', 'NONE');
#45 = VERTEX_POINT ( 'NONE', #387 ) ;
#46 = PLANE ( 'NONE',  #41 ) ;
#47 = AXIS2_PLACEMENT_3D ( 'NONE', #322, #251, #181 ) ;
#48 = ORIENTED_EDGE ( 'NONE', *, *, #51, .F. ) ;
#49 = CARTESIAN_POINT ( 'NONE',  ( 2.100000000000000089, 1.199999999999998845, 9.699999999999999289 ) ) ;
#50 = AXIS2_PLACEMENT_3D ( 'NONE', #349, #461, #385 ) ;
#51 = EDGE_CURVE ( 'NONE', #276, #80, #174, .T. ) ;
#52 = ORIENTED_EDGE ( 'NONE', *, *, #33, .T. ) ;
#53 = CIRCLE ( 'NONE', #234, 1.149999999999999911 ) ;
#54 = CARTESIAN_POINT ( 'NONE',  ( -2.326828918379972844E-16, 5.099999999999999645, 6.516535849787351636E-16 ) ) ;
#55 = ADVANCED_FACE ( 'NONE', ( #274 ), #309, .F. ) ;
#56 = DIRECTION ( 'NONE',  ( 0.000000000000000000, 0.000000000000000000, 1.000000000000000000 ) ) ;
#57 = DIRECTION ( 'NONE',  ( -0.000000000000000000, 1.277752127409284760E-16, -1.000000000000000000 ) ) ;
#58 = ORIENTED_EDGE ( 'NONE', *, *, #452, .T. ) ;
#59 = CARTESIAN_POINT ( 'NONE',  ( 2.100000000000000089, 1.500000000000000000, 1.499999999999999334 ) ) ;
#60 = FACE_OUTER_BOUND ( 'NONE', #323, .T. ) ;
#61 = CARTESIAN_POINT ( 'NONE',  ( 3.367778697655221998E-16, -2.194208544077902537E-15, 4.849999999999999645 ) ) ;
#62 = DIRECTION ( 'NONE',  ( 0.000000000000000000, 0.000000000000000000, 1.000000000000000000 ) ) ;
#63 = CARTESIAN_POINT ( 'NONE',  ( -2.100000000000000089, 7.000000000000000000, 1.199999999999999956 ) ) ;
#64 = DIRECTION ( 'NONE',  ( 0.000000000000000000, 1.000000000000000000, 0.000000000000000000 ) ) ;
#65 = DIRECTION ( 'NONE',  ( -1.000000000000000000, -0.000000000000000000, -0.000000000000000000 ) ) ;
#66 = VECTOR ( 'NONE', #93, 1000.000000000000000 ) ;
#67 = DIRECTION ( 'NONE',  ( -1.000000000000000000, -0.000000000000000000, -0.000000000000000000 ) ) ;
#68 = ADVANCED_FACE ( 'NONE', ( #98 ), #92, .F. ) ;
#69 = SHAPE_DEFINITION_REPRESENTATION ( #34, #213 ) ;
#70 = ORIENTED_EDGE ( 'NONE', *, *, #200, .F. ) ;
#71 = ORIENTED_EDGE ( 'NONE', *, *, #400, .F. ) ;
#72 = APPLICATION_PROTOCOL_DEFINITION ( 'draft international standard', 'automotive_design', 1998, #30 ) ;
#73 = VERTEX_POINT ( 'NONE', #236 ) ;
#74 = VECTOR ( 'NONE', #24, 1000.000000000000000 ) ;
#75 = ADVANCED_FACE ( 'NONE', ( #60 ), #207, .F. ) ;
#76 = AXIS2_PLACEMENT_3D ( 'NONE', #439, #371, #186 ) ;
#77 = VERTEX_POINT ( 'NONE', #177 ) ;
#78 = ORIENTED_EDGE ( 'NONE', *, *, #400, .T. ) ;
#79 = DIRECTION ( 'NONE',  ( 0.000000000000000000, 0.000000000000000000, 1.000000000000000000 ) ) ;
#80 = VERTEX_POINT ( 'NONE', #128 ) ;
#81 = DIRECTION ( 'NONE',  ( 0.000000000000000000, 1.277752127409284760E-16, -1.000000000000000000 ) ) ;
#82 = AXIS2_PLACEMENT_3D ( 'NONE', #246, #134, #203 ) ;
#83 = ORIENTED_EDGE ( 'NONE', *, *, #369, .F. ) ;
#84 = LINE ( 'NONE', #116, #282 ) ;
#85 = ORIENTED_EDGE ( 'NONE', *, *, #143, .T. ) ;
#86 = CARTESIAN_POINT ( 'NONE',  ( 2.100000000000000089, 7.000000000000000000, 0.000000000000000000 ) ) ;
#87 = ORIENTED_EDGE ( 'NONE', *, *, #269, .T. ) ;
#88 = DIRECTION ( 'NONE',  ( -0.000000000000000000, -1.277752127409284760E-16, 1.000000000000000000 ) ) ;
#89 = DIRECTION ( 'NONE',  ( -0.000000000000000000, 1.277752127409284760E-16, -1.000000000000000000 ) ) ;
#90 = VECTOR ( 'NONE', #67, 1000.000000000000000 ) ;
#91 = DIRECTION ( 'NONE',  ( -0.000000000000000000, -1.277752127409284760E-16, 1.000000000000000000 ) ) ;
#92 = CYLINDRICAL_SURFACE ( 'NONE', #356, 1.149999999999999911 ) ;
#93 = DIRECTION ( 'NONE',  ( -1.000000000000000000, -0.000000000000000000, -0.000000000000000000 ) ) ;
#94 = CIRCLE ( 'NONE', #47, 1.500000000000000000 ) ;
#95 = CYLINDRICAL_SURFACE ( 'NONE', #280, 1.499999999999999778 ) ;
#96 = LINE ( 'NONE', #277, #406 ) ;
#97 = AXIS2_PLACEMENT_3D ( 'NONE', #18, #389, #313 ) ;
#98 = FACE_OUTER_BOUND ( 'NONE', #288, .T. ) ;
#99 = DIRECTION ( 'NONE',  ( -1.000000000000000000, -0.000000000000000000, -0.000000000000000000 ) ) ;
#100 = DIRECTION ( 'NONE',  ( 0.000000000000000000, 0.000000000000000000, 1.000000000000000000 ) ) ;
#101 = DIRECTION ( 'NONE',  ( -1.000000000000000000, -0.000000000000000000, -0.000000000000000000 ) ) ;
#102 = ADVANCED_FACE ( 'NONE', ( #381 ), #454, .T. ) ;
#103 = CARTESIAN_POINT ( 'NONE',  ( 3.367778697655221998E-16, -7.368788530925554963E-16, 4.849999999999999645 ) ) ;
#104 = APPLICATION_PROTOCOL_DEFINITION ( 'draft international standard', 'automotive_design', 1998, #183 ) ;
#105 = EDGE_CURVE ( 'NONE', #263, #363, #342, .T. ) ;
#106 = VECTOR ( 'NONE', #241, 1000.000000000000000 ) ;
#107 = SURFACE_STYLE_FILL_AREA ( #430 ) ;
#108 = ORIENTED_EDGE ( 'NONE', *, *, #324, .F. ) ;
#109 = VERTEX_POINT ( 'NONE', #459 ) ;
#110 = DIRECTION ( 'NONE',  ( 0.000000000000000000, -1.219847428316939927E-16, 1.000000000000000000 ) ) ;
#111 = ORIENTED_EDGE ( 'NONE', *, *, #417, .F. ) ;
#112 = CIRCLE ( 'NONE', #157, 0.7999999999999899414 ) ;
#113 = ORIENTED_EDGE ( 'NONE', *, *, #144, .F. ) ;
#114 = VECTOR ( 'NONE', #383, 1000.000000000000000 ) ;
#115 = EDGE_LOOP ( 'NONE', ( #256, #378, #335, #113 ) ) ;
#116 = CARTESIAN_POINT ( 'NONE',  ( 4.347496136973091054E-16, -7.368788530925554963E-16, 5.649999999999987921 ) ) ;
#117 = EDGE_CURVE ( 'NONE', #300, #276, #238, .T. ) ;
#118 = ORIENTED_EDGE ( 'NONE', *, *, #286, .T. ) ;
#119 = CARTESIAN_POINT ( 'NONE',  ( 2.100000000000000089, 1.199999999999998845, 9.699999999999999289 ) ) ;
#120 = ADVANCED_FACE ( 'NONE', ( #344 ), #133, .F. ) ;
#121 = ORIENTED_EDGE ( 'NONE', *, *, #250, .T. ) ;
#122 = CARTESIAN_POINT ( 'NONE',  ( 3.367778697655221998E-16, 1.199999999999999512, 4.849999999999999645 ) ) ;
#123 = VERTEX_POINT ( 'NONE', #284 ) ;
#124 = CARTESIAN_POINT ( 'NONE',  ( -2.326828918379972844E-16, 6.249999999999998224, 4.452691193458118590 ) ) ;
#125 = VERTEX_POINT ( 'NONE', #247 ) ;
#126 = LINE ( 'NONE', #444, #179 ) ;
#127 = EDGE_CURVE ( 'NONE', #28, #294, #141, .T. ) ;
#128 = CARTESIAN_POINT ( 'NONE',  ( -2.100000000000000089, 1.199999999999998845, 9.699999999999999289 ) ) ;
#129 = DIRECTION ( 'NONE',  ( 0.000000000000000000, 0.000000000000000000, -1.000000000000000000 ) ) ;
#130 = CIRCLE ( 'NONE', #168, 0.7999999999999890532 ) ;
#131 = DIRECTION ( 'NONE',  ( -1.000000000000000000, -0.000000000000000000, -0.000000000000000000 ) ) ;
#132 = CARTESIAN_POINT ( 'NONE',  ( -2.100000000000000089, 1.500000000000000444, -7.027636700751065934E-16 ) ) ;
#133 = CYLINDRICAL_SURFACE ( 'NONE', #26, 0.7999999999999890532 ) ;
#134 = DIRECTION ( 'NONE',  ( 0.000000000000000000, 1.277752127409284760E-16, -1.000000000000000000 ) ) ;
#135 = CARTESIAN_POINT ( 'NONE',  ( 2.100000000000000089, 0.000000000000000000, 1.499999999999999556 ) ) ;
#136 = CARTESIAN_POINT ( 'NONE',  ( 2.100000000000000089, 1.500000000000000444, -7.027636700751065934E-16 ) ) ;
#137 = CARTESIAN_POINT ( 'NONE',  ( -2.100000000000000089, -1.004210375300829674E-15, 9.699999999999999289 ) ) ;
#138 = LINE ( 'NONE', #386, #432 ) ;
#139 = AXIS2_PLACEMENT_3D ( 'NONE', #262, #79, #303 ) ;
#140 = EDGE_CURVE ( 'NONE', #73, #125, #27, .T. ) ;
#141 = LINE ( 'NONE', #355, #160 ) ;
#142 = PRODUCT_CONTEXT ( 'NONE', #30, 'mechanical' ) ;
#143 = EDGE_CURVE ( 'NONE', #227, #80, #464, .T. ) ;
#144 = EDGE_CURVE ( 'NONE', #265, #326, #260, .T. ) ;
#145 = ORIENTED_EDGE ( 'NONE', *, *, #440, .F. ) ;
#146 = VECTOR ( 'NONE', #208, 1000.000000000000000 ) ;
#147 = PRESENTATION_STYLE_ASSIGNMENT (( #325 ) ) ;
#148 = EDGE_LOOP ( 'NONE', ( #39, #71, #214, #261 ) ) ;
#149 = AXIS2_PLACEMENT_3D ( 'NONE', #336, #6, #447 ) ;
#150 = STYLED_ITEM ( 'NONE', ( #147 ), #434 ) ;
#151 = EDGE_CURVE ( 'NONE', #109, #45, #84, .T. ) ;
#152 = EDGE_LOOP ( 'NONE', ( #111, #469 ) ) ;
#153 = CARTESIAN_POINT ( 'NONE',  ( -9.184850993605169392E-17, 3.949999999999999734, 5.047120903266673890E-16 ) ) ;
#154 = ADVANCED_FACE ( 'NONE', ( #40 ), #159, .T. ) ;
#155 = ORIENTED_EDGE ( 'NONE', *, *, #319, .F. ) ;
#156 = DIRECTION ( 'NONE',  ( 0.000000000000000000, -1.219847428316939927E-16, 1.000000000000000000 ) ) ;
#157 = AXIS2_PLACEMENT_3D ( 'NONE', #467, #31, #293 ) ;
#158 = ORIENTED_EDGE ( 'NONE', *, *, #273, .T. ) ;
#159 = PLANE ( 'NONE',  #139 ) ;
#160 = VECTOR ( 'NONE', #392, 1000.000000000000000 ) ;
#161 = EDGE_LOOP ( 'NONE', ( #337, #281, #9, #155, #443, #32, #431, #52 ) ) ;
#162 = CARTESIAN_POINT ( 'NONE',  ( -2.326828918379972844E-16, 6.249999999999998224, 1.199999999999999512 ) ) ;
#163 = UNCERTAINTY_MEASURE_WITH_UNIT (LENGTH_MEASURE( 1.000000000000000082E-05 ), #35, 'distance_accuracy_value', 'NONE');
#164 = ORIENTED_EDGE ( 'NONE', *, *, #339, .T. ) ;
#165 = LINE ( 'NONE', #237, #414 ) ;
#166 = CARTESIAN_POINT ( 'NONE',  ( 2.100000000000000089, 7.000000000000000000, 1.199999999999999956 ) ) ;
#167 = FACE_BOUND ( 'NONE', #42, .T. ) ;
#168 = AXIS2_PLACEMENT_3D ( 'NONE', #346, #170, #279 ) ;
#169 = ORIENTED_EDGE ( 'NONE', *, *, #250, .F. ) ;
#170 = DIRECTION ( 'NONE',  ( 0.000000000000000000, -1.000000000000000000, -1.219847428316940174E-16 ) ) ;
#171 = DIRECTION ( 'NONE',  ( -0.000000000000000000, -1.000000000000000000, -0.000000000000000000 ) ) ;
#172 = CARTESIAN_POINT ( 'NONE',  ( 2.100000000000000089, 7.000000000000000000, 1.199999999999999956 ) ) ;
#173 =( GEOMETRIC_REPRESENTATION_CONTEXT ( 3 ) GLOBAL_UNCERTAINTY_ASSIGNED_CONTEXT ( ( #44 ) ) GLOBAL_UNIT_ASSIGNED_CONTEXT ( ( #393, #466, #397 ) ) REPRESENTATION_CONTEXT ( 'NONE', 'WORKASPACE' ) );
#174 = LINE ( 'NONE', #137, #74 ) ;
#175 = LINE ( 'NONE', #314, #368 ) ;
#176 = PRESENTATION_LAYER_ASSIGNMENT (  '', '', ( #150 ) ) ;
#177 = CARTESIAN_POINT ( 'NONE',  ( 2.100000000000000089, 1.199999999999999956, 1.499999999999999778 ) ) ;
#178 = DIRECTION ( 'NONE',  ( 0.000000000000000000, -0.000000000000000000, 1.000000000000000000 ) ) ;
#179 = VECTOR ( 'NONE', #2, 1000.000000000000000 ) ;
#180 = ORIENTED_EDGE ( 'NONE', *, *, #286, .F. ) ;
#181 = DIRECTION ( 'NONE',  ( 0.000000000000000000, 0.000000000000000000, -1.000000000000000000 ) ) ;
#182 = EDGE_CURVE ( 'NONE', #263, #73, #408, .T. ) ;
#183 = APPLICATION_CONTEXT ( 'automotive_design' ) ;
#184 = EDGE_CURVE ( 'NONE', #396, #80, #195, .T. ) ;
#185 = VERTEX_POINT ( 'NONE', #153 ) ;
#186 = DIRECTION ( 'NONE',  ( 0.000000000000000000, 1.219847428316940174E-16, -1.000000000000000000 ) ) ;
#187 = ORIENTED_EDGE ( 'NONE', *, *, #333, .F. ) ;
#188 = FACE_OUTER_BOUND ( 'NONE', #468, .T. ) ;
#189 = ORIENTED_EDGE ( 'NONE', *, *, #420, .F. ) ;
#190 = DIRECTION ( 'NONE',  ( 0.000000000000000000, -1.000000000000000000, -1.219847428316940174E-16 ) ) ;
#191 = ORIENTED_EDGE ( 'NONE', *, *, #220, .T. ) ;
#192 = LINE ( 'NONE', #4, #398 ) ;
#193 = AXIS2_PLACEMENT_3D ( 'NONE', #122, #190, #266 ) ;
#194 = ORIENTED_EDGE ( 'NONE', *, *, #140, .T. ) ;
#195 = LINE ( 'NONE', #442, #380 ) ;
#196 = DIRECTION ( 'NONE',  ( 0.000000000000000000, 0.000000000000000000, -1.000000000000000000 ) ) ;
#197 = CARTESIAN_POINT ( 'NONE',  ( -2.326828918379972844E-16, 6.249999999999999112, 7.985950796308029381E-16 ) ) ;
#198 = ADVANCED_FACE ( 'NONE', ( #449, #329 ), #367, .F. ) ;
#199 = CARTESIAN_POINT ( 'NONE',  ( -2.100000000000000089, 1.500000000000000000, 1.499999999999999334 ) ) ;
#200 = EDGE_CURVE ( 'NONE', #77, #396, #192, .T. ) ;
#201 = DIRECTION ( 'NONE',  ( 0.000000000000000000, 1.000000000000000000, 0.000000000000000000 ) ) ;
#202 = ORIENTED_EDGE ( 'NONE', *, *, #352, .T. ) ;
#203 = DIRECTION ( 'NONE',  ( 0.000000000000000000, 1.000000000000000000, 1.277752127409284760E-16 ) ) ;
#204 = ORIENTED_EDGE ( 'NONE', *, *, #127, .T. ) ;
#205 = CARTESIAN_POINT ( 'NONE',  ( 2.100000000000000089, -1.004210375300829674E-15, 9.699999999999999289 ) ) ;
#206 = EDGE_CURVE ( 'NONE', #363, #418, #126, .T. ) ;
#207 = CYLINDRICAL_SURFACE ( 'NONE', #257, 0.7999999999999890532 ) ;
#208 = DIRECTION ( 'NONE',  ( 0.000000000000000000, -1.219847428316939927E-16, 1.000000000000000000 ) ) ;
#209 = AXIS2_PLACEMENT_3D ( 'NONE', #268, #88, #233 ) ;
#210 = COLOUR_RGB ( '',1.000000000000000000, 1.000000000000000000, 1.000000000000000000 ) ;
#211 = DIRECTION ( 'NONE',  ( -0.000000000000000000, -1.000000000000000000, -0.000000000000000000 ) ) ;
#212 = EDGE_LOOP ( 'NONE', ( #409, #365, #302, #202 ) ) ;
#213 = ADVANCED_BREP_SHAPE_REPRESENTATION ( 'HK_P7_74Pin', ( #434, #433 ), #173 ) ;
#214 = ORIENTED_EDGE ( 'NONE', *, *, #105, .T. ) ;
#215 = CARTESIAN_POINT ( 'NONE',  ( 2.100000000000000089, 7.000000000000000000, 1.199999999999999956 ) ) ;
#216 = ORIENTED_EDGE ( 'NONE', *, *, #333, .T. ) ;
#217 = PRODUCT ( 'HK_P7_74Pin', 'HK_P7_74Pin', '', ( #142 ) ) ;
#218 = VECTOR ( 'NONE', #332, 1000.000000000000000 ) ;
#219 = FACE_OUTER_BOUND ( 'NONE', #148, .T. ) ;
#220 = EDGE_CURVE ( 'NONE', #123, #109, #438, .T. ) ;
#221 = EDGE_CURVE ( 'NONE', #326, #185, #53, .T. ) ;
#222 = EDGE_LOOP ( 'NONE', ( #407, #435, #216, #291 ) ) ;
#223 = CARTESIAN_POINT ( 'NONE',  ( 2.100000000000000089, 7.000000000000000000, 1.199999999999999956 ) ) ;
#224 = CIRCLE ( 'NONE', #149, 0.3000000000000001554 ) ;
#225 = EDGE_LOOP ( 'NONE', ( #191, #267 ) ) ;
#226 = DIRECTION ( 'NONE',  ( 0.000000000000000000, 1.000000000000000000, 0.000000000000000000 ) ) ;
#227 = VERTEX_POINT ( 'NONE', #119 ) ;
#228 = DIRECTION ( 'NONE',  ( 0.000000000000000000, -1.000000000000000000, -1.277752127409284760E-16 ) ) ;
#229 = ORIENTED_EDGE ( 'NONE', *, *, #117, .T. ) ;
#230 = CARTESIAN_POINT ( 'NONE',  ( 3.367778697655221998E-16, -2.194208544077902537E-15, 4.050000000000009592 ) ) ;
#231 =( GEOMETRIC_REPRESENTATION_CONTEXT ( 3 ) GLOBAL_UNCERTAINTY_ASSIGNED_CONTEXT ( ( #163 ) ) GLOBAL_UNIT_ASSIGNED_CONTEXT ( ( #35, #248, #429 ) ) REPRESENTATION_CONTEXT ( 'NONE', 'WORKASPACE' ) );
#232 = ORIENTED_EDGE ( 'NONE', *, *, #352, .F. ) ;
#233 = DIRECTION ( 'NONE',  ( 0.000000000000000000, 1.000000000000000000, 1.885568995626964287E-16 ) ) ;
#234 = AXIS2_PLACEMENT_3D ( 'NONE', #54, #81, #297 ) ;
#235 = ADVANCED_FACE ( 'NONE', ( #264 ), #338, .F. ) ;
#236 = CARTESIAN_POINT ( 'NONE',  ( 2.100000000000000089, 1.500000000000000000, 1.199999999999999289 ) ) ;
#237 = CARTESIAN_POINT ( 'NONE',  ( -9.184850993605169392E-17, 3.949999999999998845, 4.452691193458118590 ) ) ;
#238 = LINE ( 'NONE', #311, #114 ) ;
#239 = DIRECTION ( 'NONE',  ( -0.000000000000000000, -1.000000000000000000, -0.000000000000000000 ) ) ;
#240 = FACE_BOUND ( 'NONE', #401, .T. ) ;
#241 = DIRECTION ( 'NONE',  ( 0.000000000000000000, 0.000000000000000000, -1.000000000000000000 ) ) ;
#242 = CARTESIAN_POINT ( 'NONE',  ( -2.326828918379972844E-16, 5.099999999999998757, 4.452691193458118590 ) ) ;
#243 = LINE ( 'NONE', #305, #66 ) ;
#244 = ADVANCED_FACE ( 'NONE', ( #43, #188 ), #46, .F. ) ;
#245 = PLANE ( 'NONE',  #97 ) ;
#246 = CARTESIAN_POINT ( 'NONE',  ( -2.326828918379972844E-16, 5.099999999999999645, 6.516535849787351636E-16 ) ) ;
#247 = CARTESIAN_POINT ( 'NONE',  ( -2.100000000000000089, 1.500000000000000000, 1.199999999999999289 ) ) ;
#248 =( NAMED_UNIT ( * ) PLANE_ANGLE_UNIT ( ) SI_UNIT ( $, .RADIAN. ) );
#249 = VECTOR ( 'NONE', #275, 1000.000000000000000 ) ;
#250 = EDGE_CURVE ( 'NONE', #125, #396, #224, .T. ) ;
#251 = DIRECTION ( 'NONE',  ( -1.000000000000000000, -0.000000000000000000, -0.000000000000000000 ) ) ;
#252 = ORIENTED_EDGE ( 'NONE', *, *, #200, .T. ) ;
#253 = ORIENTED_EDGE ( 'NONE', *, *, #143, .F. ) ;
#254 = LINE ( 'NONE', #36, #334 ) ;
#255 = CIRCLE ( 'NONE', #50, 0.3000000000000001554 ) ;
#256 = ORIENTED_EDGE ( 'NONE', *, *, #417, .T. ) ;
#257 = AXIS2_PLACEMENT_3D ( 'NONE', #457, #171, #196 ) ;
#258 = EDGE_CURVE ( 'NONE', #363, #28, #341, .T. ) ;
#259 = VERTEX_POINT ( 'NONE', #230 ) ;
#260 = LINE ( 'NONE', #124, #218 ) ;
#261 = ORIENTED_EDGE ( 'NONE', *, *, #258, .T. ) ;
#262 = CARTESIAN_POINT ( 'NONE',  ( 2.100000000000000089, -1.004210375300829674E-15, 9.699999999999999289 ) ) ;
#263 = VERTEX_POINT ( 'NONE', #375 ) ;
#264 = FACE_OUTER_BOUND ( 'NONE', #115, .T. ) ;
#265 = VERTEX_POINT ( 'NONE', #162 ) ;
#266 = DIRECTION ( 'NONE',  ( 0.000000000000000000, 0.000000000000000000, -1.000000000000000000 ) ) ;
#267 = ORIENTED_EDGE ( 'NONE', *, *, #330, .T. ) ;
#268 = CARTESIAN_POINT ( 'NONE',  ( -2.326828918379972844E-16, 5.099999999999998757, 1.199999999999999289 ) ) ;
#269 = EDGE_CURVE ( 'NONE', #359, #265, #307, .T. ) ;
#270 = ORIENTED_EDGE ( 'NONE', *, *, #151, .F. ) ;
#271 = CIRCLE ( 'NONE', #15, 1.500000000000000000 ) ;
#272 = CARTESIAN_POINT ( 'NONE',  ( -2.100000000000000089, 7.000000000000000000, 1.199999999999999956 ) ) ;
#273 = EDGE_CURVE ( 'NONE', #372, #227, #10, .T. ) ;
#274 = FACE_OUTER_BOUND ( 'NONE', #161, .T. ) ;
#275 = DIRECTION ( 'NONE',  ( -1.000000000000000000, -0.000000000000000000, -0.000000000000000000 ) ) ;
#276 = VERTEX_POINT ( 'NONE', #343 ) ;
#277 = CARTESIAN_POINT ( 'NONE',  ( -2.100000000000000089, 7.000000000000000000, 1.199999999999999956 ) ) ;
#278 = CARTESIAN_POINT ( 'NONE',  ( -2.100000000000000089, 7.000000000000000000, 0.000000000000000000 ) ) ;
#279 = DIRECTION ( 'NONE',  ( 0.000000000000000000, 0.000000000000000000, -1.000000000000000000 ) ) ;
#280 = AXIS2_PLACEMENT_3D ( 'NONE', #20, #131, #100 ) ;
#281 = ORIENTED_EDGE ( 'NONE', *, *, #273, .F. ) ;
#282 = VECTOR ( 'NONE', #402, 1000.000000000000000 ) ;
#283 = CARTESIAN_POINT ( 'NONE',  ( 2.100000000000000089, -1.004210375300829674E-15, 9.699999999999999289 ) ) ;
#284 = CARTESIAN_POINT ( 'NONE',  ( 3.367778697655221998E-16, 1.199999999999999512, 4.050000000000010481 ) ) ;
#285 = DIRECTION ( 'NONE',  ( 1.000000000000000000, 0.000000000000000000, 0.000000000000000000 ) ) ;
#286 = EDGE_CURVE ( 'NONE', #304, #125, #96, .T. ) ;
#287 = PLANE ( 'NONE',  #21 ) ;
#288 = EDGE_LOOP ( 'NONE', ( #189, #87, #38, #441 ) ) ;
#289 = CIRCLE ( 'NONE', #82, 1.149999999999999911 ) ;
#290 = ADVANCED_FACE ( 'NONE', ( #451 ), #17, .F. ) ;
#291 = ORIENTED_EDGE ( 'NONE', *, *, #366, .F. ) ;
#292 = PRODUCT_DEFINITION_FORMATION_WITH_SPECIFIED_SOURCE ( 'ไป', '', #217, .NOT_KNOWN. ) ;
#293 = DIRECTION ( 'NONE',  ( 0.000000000000000000, 0.000000000000000000, -1.000000000000000000 ) ) ;
#294 = VERTEX_POINT ( 'NONE', #132 ) ;
#295 = CARTESIAN_POINT ( 'NONE',  ( 2.100000000000000089, -1.004210375300829674E-15, 9.699999999999999289 ) ) ;
#296 = ORIENTED_EDGE ( 'NONE', *, *, #220, .F. ) ;
#297 = DIRECTION ( 'NONE',  ( 0.000000000000000000, 1.000000000000000000, 1.277752127409284760E-16 ) ) ;
#298 = EDGE_LOOP ( 'NONE', ( #450, #253, #145, #252 ) ) ;
#299 = DIRECTION ( 'NONE',  ( -1.000000000000000000, -0.000000000000000000, -0.000000000000000000 ) ) ;
#300 = VERTEX_POINT ( 'NONE', #310 ) ;
#301 = DIRECTION ( 'NONE',  ( 0.000000000000000000, 1.000000000000000000, 1.277752127409284760E-16 ) ) ;
#302 = ORIENTED_EDGE ( 'NONE', *, *, #206, .T. ) ;
#303 = DIRECTION ( 'NONE',  ( 1.000000000000000000, 0.000000000000000000, -0.000000000000000000 ) ) ;
#304 = VERTEX_POINT ( 'NONE', #63 ) ;
#305 = CARTESIAN_POINT ( 'NONE',  ( 2.100000000000000089, 0.000000000000000000, 1.499999999999999556 ) ) ;
#306 = DIRECTION ( 'NONE',  ( 0.000000000000000000, 0.000000000000000000, -1.000000000000000000 ) ) ;
#307 = CIRCLE ( 'NONE', #209, 1.149999999999999911 ) ;
#308 = DIRECTION ( 'NONE',  ( 0.000000000000000000, 1.277752127409284760E-16, -1.000000000000000000 ) ) ;
#309 = PLANE ( 'NONE',  #315 ) ;
#310 = CARTESIAN_POINT ( 'NONE',  ( -2.100000000000000089, 0.000000000000000000, 1.499999999999999556 ) ) ;
#311 = CARTESIAN_POINT ( 'NONE',  ( -2.100000000000000089, -3.935484080939213199E-18, 1.499999999999999112 ) ) ;
#312 = DIRECTION ( 'NONE',  ( -1.000000000000000000, -0.000000000000000000, -0.000000000000000000 ) ) ;
#313 = DIRECTION ( 'NONE',  ( 0.000000000000000000, 1.219847428316940174E-16, -1.000000000000000000 ) ) ;
#314 = CARTESIAN_POINT ( 'NONE',  ( 2.100000000000000089, 1.500000000000000444, -7.027636700751065934E-16 ) ) ;
#315 = AXIS2_PLACEMENT_3D ( 'NONE', #423, #421, #62 ) ;
#316 = CARTESIAN_POINT ( 'NONE',  ( 2.100000000000000089, 1.500000000000000000, 1.199999999999999289 ) ) ;
#317 = VECTOR ( 'NONE', #228, 1000.000000000000000 ) ;
#318 = SURFACE_SIDE_STYLE ('',( #107 ) ) ;
#319 = EDGE_CURVE ( 'NONE', #418, #7, #271, .T. ) ;
#320 = EDGE_LOOP ( 'NONE', ( #370, #232, #37, #395 ) ) ;
#321 = EDGE_CURVE ( 'NONE', #7, #300, #243, .T. ) ;
#322 = CARTESIAN_POINT ( 'NONE',  ( -2.100000000000000089, 1.500000000000000000, 1.499999999999999334 ) ) ;
#323 = EDGE_LOOP ( 'NONE', ( #270, #296, #340, #328 ) ) ;
#324 = EDGE_CURVE ( 'NONE', #372, #276, #388, .T. ) ;
#325 = SURFACE_STYLE_USAGE ( .BOTH. , #318 ) ;
#326 = VERTEX_POINT ( 'NONE', #197 ) ;
#327 = AXIS2_PLACEMENT_3D ( 'NONE', #410, #405, #226 ) ;
#328 = ORIENTED_EDGE ( 'NONE', *, *, #456, .T. ) ;
#329 = FACE_OUTER_BOUND ( 'NONE', #298, .T. ) ;
#330 = EDGE_CURVE ( 'NONE', #109, #123, #130, .T. ) ;
#331 = ORIENTED_EDGE ( 'NONE', *, *, #51, .T. ) ;
#332 = DIRECTION ( 'NONE',  ( -0.000000000000000000, 1.277752127409284760E-16, -1.000000000000000000 ) ) ;
#333 = EDGE_CURVE ( 'NONE', #45, #259, #394, .T. ) ;
#334 = VECTOR ( 'NONE', #110, 1000.000000000000000 ) ;
#335 = ORIENTED_EDGE ( 'NONE', *, *, #369, .T. ) ;
#336 = CARTESIAN_POINT ( 'NONE',  ( -2.100000000000000089, 1.500000000000000000, 1.499999999999999334 ) ) ;
#337 = ORIENTED_EDGE ( 'NONE', *, *, #440, .T. ) ;
#338 = CYLINDRICAL_SURFACE ( 'NONE', #327, 1.149999999999999911 ) ;
#339 = EDGE_CURVE ( 'NONE', #304, #28, #22, .T. ) ;
#340 = ORIENTED_EDGE ( 'NONE', *, *, #366, .T. ) ;
#341 = LINE ( 'NONE', #86, #470 ) ;
#342 = LINE ( 'NONE', #166, #362 ) ;
#343 = CARTESIAN_POINT ( 'NONE',  ( -2.100000000000000089, -1.004210375300829674E-15, 9.699999999999999289 ) ) ;
#344 = FACE_OUTER_BOUND ( 'NONE', #222, .T. ) ;
#345 = VECTOR ( 'NONE', #201, 1000.000000000000000 ) ;
#346 = CARTESIAN_POINT ( 'NONE',  ( 3.367778697655221998E-16, 1.199999999999999512, 4.849999999999999645 ) ) ;
#347 = FACE_OUTER_BOUND ( 'NONE', #404, .T. ) ;
#348 = CARTESIAN_POINT ( 'NONE',  ( 2.100000000000000089, 1.500000000000000000, 1.499999999999999334 ) ) ;
#349 = CARTESIAN_POINT ( 'NONE',  ( 2.100000000000000089, 1.500000000000000000, 1.499999999999999334 ) ) ;
#350 = DIRECTION ( 'NONE',  ( 0.000000000000000000, 0.000000000000000000, -1.000000000000000000 ) ) ;
#351 = FACE_OUTER_BOUND ( 'NONE', #320, .T. ) ;
#352 = EDGE_CURVE ( 'NONE', #418, #294, #175, .T. ) ;
#353 = DIRECTION ( 'NONE',  ( 0.000000000000000000, 1.000000000000000000, 1.885568995626964287E-16 ) ) ;
#354 = AXIS2_PLACEMENT_3D ( 'NONE', #427, #308, #455 ) ;
#355 = CARTESIAN_POINT ( 'NONE',  ( -2.100000000000000089, 7.000000000000000000, 0.000000000000000000 ) ) ;
#356 = AXIS2_PLACEMENT_3D ( 'NONE', #242, #89, #64 ) ;
#357 = EDGE_CURVE ( 'NONE', #7, #372, #384, .T. ) ;
#358 = ORIENTED_EDGE ( 'NONE', *, *, #321, .F. ) ;
#359 = VERTEX_POINT ( 'NONE', #462 ) ;
#360 = FILL_AREA_STYLE_COLOUR ( '', #210 ) ;
#361 = DIRECTION ( 'NONE',  ( -0.000000000000000000, 1.000000000000000000, 0.000000000000000000 ) ) ;
#362 = VECTOR ( 'NONE', #306, 1000.000000000000000 ) ;
#363 = VERTEX_POINT ( 'NONE', #14 ) ;
#364 = ORIENTED_EDGE ( 'NONE', *, *, #184, .F. ) ;
#365 = ORIENTED_EDGE ( 'NONE', *, *, #258, .F. ) ;
#366 = EDGE_CURVE ( 'NONE', #123, #259, #138, .T. ) ;
#367 = PLANE ( 'NONE',  #76 ) ;
#368 = VECTOR ( 'NONE', #65, 1000.000000000000000 ) ;
#369 = EDGE_CURVE ( 'NONE', #185, #326, #289, .T. ) ;
#370 = ORIENTED_EDGE ( 'NONE', *, *, #452, .F. ) ;
#371 = DIRECTION ( 'NONE',  ( 0.000000000000000000, -1.000000000000000000, -1.219847428316940174E-16 ) ) ;
#372 = VERTEX_POINT ( 'NONE', #283 ) ;
#373 = CARTESIAN_POINT ( 'NONE',  ( 2.100000000000000089, 7.000000000000000000, 1.199999999999999956 ) ) ;
#374 = ORIENTED_EDGE ( 'NONE', *, *, #117, .F. ) ;
#375 = CARTESIAN_POINT ( 'NONE',  ( 2.100000000000000089, 7.000000000000000000, 1.199999999999999956 ) ) ;
#376 = CLOSED_SHELL ( 'NONE', ( #120, #235, #198, #154, #29, #11, #391, #437, #244, #290, #55, #102, #68, #75 ) ) ;
#377 = AXIS2_PLACEMENT_3D ( 'NONE', #460, #91, #353 ) ;
#378 = ORIENTED_EDGE ( 'NONE', *, *, #420, .T. ) ;
#379 = DIRECTION ( 'NONE',  ( 0.000000000000000000, 1.277752127409284760E-16, -1.000000000000000000 ) ) ;
#380 = VECTOR ( 'NONE', #156, 1000.000000000000000 ) ;
#381 = FACE_OUTER_BOUND ( 'NONE', #3, .T. ) ;
#382 = DIRECTION ( 'NONE',  ( -0.000000000000000000, -1.000000000000000000, -0.000000000000000000 ) ) ;
#383 = DIRECTION ( 'NONE',  ( 0.000000000000000000, -1.219847428316939927E-16, 1.000000000000000000 ) ) ;
#384 = LINE ( 'NONE', #458, #146 ) ;
#385 = DIRECTION ( 'NONE',  ( 0.000000000000000000, 0.000000000000000000, -1.000000000000000000 ) ) ;
#386 = CARTESIAN_POINT ( 'NONE',  ( 3.367778697655221998E-16, -7.368788530925554963E-16, 4.050000000000010481 ) ) ;
#387 = CARTESIAN_POINT ( 'NONE',  ( 4.347496136973092040E-16, -2.194208544077902537E-15, 5.649999999999988809 ) ) ;
#388 = LINE ( 'NONE', #205, #249 ) ;
#389 = DIRECTION ( 'NONE',  ( 0.000000000000000000, -1.000000000000000000, -1.219847428316940174E-16 ) ) ;
#390 = CARTESIAN_POINT ( 'NONE',  ( -2.100000000000000089, 1.199999999999999956, 1.499999999999999778 ) ) ;
#391 = ADVANCED_FACE ( 'NONE', ( #167, #419 ), #416, .T. ) ;
#392 = DIRECTION ( 'NONE',  ( 0.000000000000000000, -1.000000000000000000, -1.277752127409284760E-16 ) ) ;
#393 =( LENGTH_UNIT ( ) NAMED_UNIT ( * ) SI_UNIT ( .MILLI., .METRE. ) );
#394 = CIRCLE ( 'NONE', #453, 0.7999999999999899414 ) ;
#395 = ORIENTED_EDGE ( 'NONE', *, *, #321, .T. ) ;
#396 = VERTEX_POINT ( 'NONE', #390 ) ;
#397 =( NAMED_UNIT ( * ) SI_UNIT ( $, .STERADIAN. ) SOLID_ANGLE_UNIT ( ) );
#398 = VECTOR ( 'NONE', #299, 1000.000000000000000 ) ;
#399 = EDGE_LOOP ( 'NONE', ( #48, #108, #158, #85 ) ) ;
#400 = EDGE_CURVE ( 'NONE', #263, #304, #19, .T. ) ;
#401 = EDGE_LOOP ( 'NONE', ( #426, #187 ) ) ;
#402 = DIRECTION ( 'NONE',  ( -0.000000000000000000, -1.000000000000000000, -0.000000000000000000 ) ) ;
#403 = PRODUCT_RELATED_PRODUCT_CATEGORY ( 'part', '', ( #217 ) ) ;
#404 = EDGE_LOOP ( 'NONE', ( #374, #358, #448, #446 ) ) ;
#405 = DIRECTION ( 'NONE',  ( -0.000000000000000000, 1.277752127409284760E-16, -1.000000000000000000 ) ) ;
#406 = VECTOR ( 'NONE', #424, 1000.000000000000000 ) ;
#407 = ORIENTED_EDGE ( 'NONE', *, *, #330, .F. ) ;
#408 = LINE ( 'NONE', #223, #317 ) ;
#409 = ORIENTED_EDGE ( 'NONE', *, *, #127, .F. ) ;
#410 = CARTESIAN_POINT ( 'NONE',  ( -2.326828918379972844E-16, 5.099999999999998757, 4.452691193458118590 ) ) ;
#411 = EDGE_LOOP ( 'NONE', ( #121, #70, #415, #194 ) ) ;
#412 = DIRECTION ( 'NONE',  ( -1.000000000000000000, -0.000000000000000000, -0.000000000000000000 ) ) ;
#413 = AXIS2_PLACEMENT_3D ( 'NONE', #59, #312, #422 ) ;
#414 = VECTOR ( 'NONE', #57, 1000.000000000000000 ) ;
#415 = ORIENTED_EDGE ( 'NONE', *, *, #33, .F. ) ;
#416 = PLANE ( 'NONE',  #354 ) ;
#417 = EDGE_CURVE ( 'NONE', #265, #359, #471, .T. ) ;
#418 = VERTEX_POINT ( 'NONE', #136 ) ;
#419 = FACE_OUTER_BOUND ( 'NONE', #212, .T. ) ;
#420 = EDGE_CURVE ( 'NONE', #359, #185, #165, .T. ) ;
#421 = DIRECTION ( 'NONE',  ( -1.000000000000000000, 0.000000000000000000, 0.000000000000000000 ) ) ;
#422 = DIRECTION ( 'NONE',  ( 0.000000000000000000, 0.000000000000000000, 1.000000000000000000 ) ) ;
#423 = CARTESIAN_POINT ( 'NONE',  ( 2.100000000000000089, 1.500000000000000000, 1.499999999999999334 ) ) ;
#424 = DIRECTION ( 'NONE',  ( 0.000000000000000000, -1.000000000000000000, -1.277752127409284760E-16 ) ) ;
#425 = VECTOR ( 'NONE', #412, 1000.000000000000000 ) ;
#426 = ORIENTED_EDGE ( 'NONE', *, *, #456, .F. ) ;
#427 = CARTESIAN_POINT ( 'NONE',  ( 2.100000000000000089, 7.000000000000000000, 0.000000000000000000 ) ) ;
#428 = DIRECTION ( 'NONE',  ( 0.000000000000000000, 0.000000000000000000, -1.000000000000000000 ) ) ;
#429 =( NAMED_UNIT ( * ) SI_UNIT ( $, .STERADIAN. ) SOLID_ANGLE_UNIT ( ) );
#430 = FILL_AREA_STYLE ('',( #360 ) ) ;
#431 = ORIENTED_EDGE ( 'NONE', *, *, #182, .T. ) ;
#432 = VECTOR ( 'NONE', #382, 1000.000000000000000 ) ;
#433 = AXIS2_PLACEMENT_3D ( 'NONE', #25, #465, #285 ) ;
#434 = MANIFOLD_SOLID_BREP ( 'M2 \X2\87ba7eb95b54\X0\1', #376 ) ;
#435 = ORIENTED_EDGE ( 'NONE', *, *, #151, .T. ) ;
#436 = MECHANICAL_DESIGN_GEOMETRIC_PRESENTATION_REPRESENTATION (  '', ( #150 ), #231 ) ;
#437 = ADVANCED_FACE ( 'NONE', ( #219 ), #287, .T. ) ;
#438 = CIRCLE ( 'NONE', #193, 0.7999999999999890532 ) ;
#439 = CARTESIAN_POINT ( 'NONE',  ( 2.100000000000000089, 1.199999999999999956, 1.499999999999999334 ) ) ;
#440 = EDGE_CURVE ( 'NONE', #77, #227, #254, .T. ) ;
#441 = ORIENTED_EDGE ( 'NONE', *, *, #221, .T. ) ;
#442 = CARTESIAN_POINT ( 'NONE',  ( -2.100000000000000089, 1.199999999999999956, 1.499999999999999334 ) ) ;
#443 = ORIENTED_EDGE ( 'NONE', *, *, #206, .F. ) ;
#444 = CARTESIAN_POINT ( 'NONE',  ( 2.100000000000000089, 7.000000000000000000, 0.000000000000000000 ) ) ;
#445 = PRODUCT_DEFINITION_CONTEXT ( 'detailed design', #183, 'design' ) ;
#446 = ORIENTED_EDGE ( 'NONE', *, *, #324, .T. ) ;
#447 = DIRECTION ( 'NONE',  ( 0.000000000000000000, 0.000000000000000000, -1.000000000000000000 ) ) ;
#448 = ORIENTED_EDGE ( 'NONE', *, *, #357, .T. ) ;
#449 = FACE_BOUND ( 'NONE', #225, .T. ) ;
#450 = ORIENTED_EDGE ( 'NONE', *, *, #184, .T. ) ;
#451 = FACE_OUTER_BOUND ( 'NONE', #411, .T. ) ;
#452 = EDGE_CURVE ( 'NONE', #294, #300, #94, .T. ) ;
#453 = AXIS2_PLACEMENT_3D ( 'NONE', #61, #239, #129 ) ;
#454 = PLANE ( 'NONE',  #463 ) ;
#455 = DIRECTION ( 'NONE',  ( 0.000000000000000000, 1.000000000000000000, 1.277752127409284760E-16 ) ) ;
#456 = EDGE_CURVE ( 'NONE', #259, #45, #112, .T. ) ;
#457 = CARTESIAN_POINT ( 'NONE',  ( 3.367778697655221998E-16, -7.368788530925554963E-16, 4.849999999999999645 ) ) ;
#458 = CARTESIAN_POINT ( 'NONE',  ( 2.100000000000000089, -3.935484080939213199E-18, 1.499999999999999112 ) ) ;
#459 = CARTESIAN_POINT ( 'NONE',  ( 4.347496136973091054E-16, 1.199999999999999512, 5.649999999999987921 ) ) ;
#460 = CARTESIAN_POINT ( 'NONE',  ( -2.326828918379972844E-16, 5.099999999999998757, 1.199999999999999289 ) ) ;
#461 = DIRECTION ( 'NONE',  ( -1.000000000000000000, -0.000000000000000000, -0.000000000000000000 ) ) ;
#462 = CARTESIAN_POINT ( 'NONE',  ( -9.184850993605169392E-17, 3.949999999999998845, 1.199999999999999067 ) ) ;
#463 = AXIS2_PLACEMENT_3D ( 'NONE', #199, #12, #56 ) ;
#464 = LINE ( 'NONE', #49, #425 ) ;
#465 = DIRECTION ( 'NONE',  ( 0.000000000000000000, 0.000000000000000000, 1.000000000000000000 ) ) ;
#466 =( NAMED_UNIT ( * ) PLANE_ANGLE_UNIT ( ) SI_UNIT ( $, .RADIAN. ) );
#467 = CARTESIAN_POINT ( 'NONE',  ( 3.367778697655221998E-16, -2.194208544077902537E-15, 4.849999999999999645 ) ) ;
#468 = EDGE_LOOP ( 'NONE', ( #118, #1, #16, #78 ) ) ;
#469 = ORIENTED_EDGE ( 'NONE', *, *, #269, .F. ) ;
#470 = VECTOR ( 'NONE', #8, 1000.000000000000000 ) ;
#471 = CIRCLE ( 'NONE', #377, 1.149999999999999911 ) ;
ENDSEC;
END-ISO-10303-21;
