ISO-10303-21;
HEADER;
FILE_DESCRIPTION (( 'STEP AP214' ),
    '1' );
FILE_NAME ('HK_P7_M2-1.step',
    '2026-09-23T08:55:00',
    ( '' ),
    ( '' ),
    'SwSTEP 2.0',
    'SolidWorks 2025',
    '' );
FILE_SCHEMA (( 'AUTOMOTIVE_DESIGN' ));
ENDSEC;

DATA;
#1 = EDGE_LOOP ( 'NONE', ( #677, #619, #583 ) ) ;
#2 = EDGE_CURVE ( 'NONE', #318, #706, #220, .T. ) ;
#3 = DIRECTION ( 'NONE',  ( -0.5000000000000003331, 0.000000000000000000, 0.8660254037844383745 ) ) ;
#4 = CARTESIAN_POINT ( 'NONE',  ( -1.718893821528156840, -3.899999999999999911, 0.4727885682970029979 ) ) ;
#5 = VECTOR ( 'NONE', #219, 1000.000000000000000 ) ;
#6 = ORIENTED_EDGE ( 'NONE', *, *, #135, .F. ) ;
#7 = UNCERTAINTY_MEASURE_WITH_UNIT (LENGTH_MEASURE( 1.000000000000000082E-05 ), #796, 'distance_accuracy_value', 'NONE');
#8 = ADVANCED_FACE ( 'NONE', ( #326 ), #388, .T. ) ;
#9 = LINE ( 'NONE', #134, #780 ) ;
#10 = FACE_OUTER_BOUND ( 'NONE', #778, .T. ) ;
#11 = CIRCLE ( 'NONE', #384, 1.000000000000000000 ) ;
#12 = ORIENTED_EDGE ( 'NONE', *, *, #488, .T. ) ;
#13 = PLANE ( 'NONE',  #669 ) ;
#14 = DIRECTION ( 'NONE',  ( 0.8660254037844384856, 0.000000000000000000, -0.5000000000000001110 ) ) ;
#15 = VECTOR ( 'NONE', #768, 1000.000000000000000 ) ;
#16 = ORIENTED_EDGE ( 'NONE', *, *, #135, .T. ) ;
#17 = VERTEX_POINT ( 'NONE', #738 ) ;
#18 = DIRECTION ( 'NONE',  ( -0.8660254037844385966, -0.000000000000000000, 0.5000000000000001110 ) ) ;
#19 = CARTESIAN_POINT ( 'NONE',  ( 0.000000000000000000, -4.799999999999999822, -0.7999999999999937161 ) ) ;
#20 = CARTESIAN_POINT ( 'NONE',  ( 0.9959292143521044638, 0.000000000000000000, 1.725000000000000311 ) ) ;
#21 = DIRECTION ( 'NONE',  ( -0.000000000000000000, -1.000000000000000000, -0.000000000000000000 ) ) ;
#22 = VECTOR ( 'NONE', #65, 1000.000000000000000 ) ;
#23 = CARTESIAN_POINT ( 'NONE',  ( 1.268893821528157773, -3.899999999999999911, -1.252211431702997979 ) ) ;
#24 = CARTESIAN_POINT ( 'NONE',  ( -1.268893821528157329, -4.799999999999999822, 1.252211431702997535 ) ) ;
#25 = LINE ( 'NONE', #623, #192 ) ;
#26 = PRODUCT_DEFINITION ( 'ๆ', '', #460, #741 ) ;
#27 = DIRECTION ( 'NONE',  ( -0.000000000000000000, -1.000000000000000000, -0.000000000000000000 ) ) ;
#28 = ORIENTED_EDGE ( 'NONE', *, *, #337, .T. ) ;
#29 = ORIENTED_EDGE ( 'NONE', *, *, #527, .F. ) ;
#30 = CARTESIAN_POINT ( 'NONE',  ( 0.000000000000000000, 0.8000000000000000444, -1.575000000000000178 ) ) ;
#31 = CARTESIAN_POINT ( 'NONE',  ( -0.9959292143521044638, 0.000000000000000000, 1.725000000000000311 ) ) ;
#32 = ORIENTED_EDGE ( 'NONE', *, *, #413, .T. ) ;
#33 = ORIENTED_EDGE ( 'NONE', *, *, #808, .F. ) ;
#34 = LINE ( 'NONE', #30, #820 ) ;
#35 = LINE ( 'NONE', #24, #536 ) ;
#36 = EDGE_LOOP ( 'NONE', ( #432, #622, #840, #601 ) ) ;
#37 = VERTEX_POINT ( 'NONE', #523 ) ;
#38 = APPLICATION_PROTOCOL_DEFINITION ( 'draft international standard', 'automotive_design', 1998, #607 ) ;
#39 = CARTESIAN_POINT ( 'NONE',  ( -1.718893821528156840, -3.899999999999999911, 0.4727885682970029979 ) ) ;
#40 = CARTESIAN_POINT ( 'NONE',  ( -1.022554857047463628, -4.800000000000001599, 0.07075707970684926018 ) ) ;
#41 = EDGE_LOOP ( 'NONE', ( #103, #356 ) ) ;
#42 = VECTOR ( 'NONE', #643, 1000.000000000000114 ) ;
#43 = CARTESIAN_POINT ( 'NONE',  ( 0.9488215951036385043, -4.723503972436748022, -0.02818716107535334386 ) ) ;
#44 = CARTESIAN_POINT ( 'NONE',  ( 1.991858428704209816, -4.799999999999999822, 4.777135130773494335E-16 ) ) ;
#45 =( NAMED_UNIT ( * ) PLANE_ANGLE_UNIT ( ) SI_UNIT ( $, .RADIAN. ) );
#46 = VECTOR ( 'NONE', #773, 1000.000000000000114 ) ;
#47 = EDGE_CURVE ( 'NONE', #379, #852, #574, .T. ) ;
#48 = ORIENTED_EDGE ( 'NONE', *, *, #282, .F. ) ;
#49 = CARTESIAN_POINT ( 'NONE',  ( -0.9959292143521042417, -4.799999999999999822, -1.724999999999999645 ) ) ;
#50 = VECTOR ( 'NONE', #774, 1000.000000000000114 ) ;
#51 = CARTESIAN_POINT ( 'NONE',  ( 1.928818708657081591E-16, 0.8000000000000000444, 1.575000000000000178 ) ) ;
#52 = DIRECTION ( 'NONE',  ( 0.000000000000000000, -0.5150380749100680333, -0.8571673007021040069 ) ) ;
#53 = VERTEX_POINT ( 'NONE', #40 ) ;
#54 = PLANE ( 'NONE',  #160 ) ;
#55 = EDGE_LOOP ( 'NONE', ( #731, #856, #261, #303, #372, #757, #33, #542 ) ) ;
#56 = MANIFOLD_SOLID_BREP ( 'M2 \X2\87ba7eb95b54\X0\1', #642 ) ;
#57 = CARTESIAN_POINT ( 'NONE',  ( -0.5725548570474636723, -4.800000000000001599, 0.8501799431128438389 ) ) ;
#58 = PLANE ( 'NONE',  #760 ) ;
#59 = ORIENTED_EDGE ( 'NONE', *, *, #370, .T. ) ;
#60 = ADVANCED_FACE ( 'NONE', ( #867 ), #58, .T. ) ;
#61 = CARTESIAN_POINT ( 'NONE',  ( -0.9488215951036388374, -4.723503972436748910, 0.02818716107535300733 ) ) ;
#62 = EDGE_CURVE ( 'NONE', #663, #53, #383, .T. ) ;
#63 = CARTESIAN_POINT ( 'NONE',  ( 0.000000000000000000, 1.199999999999991962, 0.000000000000000000 ) ) ;
#64 = VERTEX_POINT ( 'NONE', #260 ) ;
#65 = DIRECTION ( 'NONE',  ( -0.000000000000000000, -1.000000000000000000, -0.000000000000000000 ) ) ;
#66 = CARTESIAN_POINT ( 'NONE',  ( 0.000000000000000000, 0.000000000000000000, -1.575000000000000178 ) ) ;
#67 = EDGE_CURVE ( 'NONE', #576, #516, #735, .T. ) ;
#68 = ORIENTED_EDGE ( 'NONE', *, *, #468, .F. ) ;
#69 = CARTESIAN_POINT ( 'NONE',  ( -0.9959292143521044638, -4.799999999999999822, 1.725000000000000311 ) ) ;
#70 = DIRECTION ( 'NONE',  ( 0.000000000000000000, 1.000000000000000000, 0.000000000000000000 ) ) ;
#71 = ORIENTED_EDGE ( 'NONE', *, *, #292, .T. ) ;
#72 = EDGE_CURVE ( 'NONE', #516, #253, #535, .T. ) ;
#73 = CARTESIAN_POINT ( 'NONE',  ( 0.7978219618694735171, -3.899999999999999911, 0.05899251781992702337 ) ) ;
#74 = DIRECTION ( 'NONE',  ( 0.5000000000000001110, 0.000000000000000000, 0.8660254037844385966 ) ) ;
#75 = VERTEX_POINT ( 'NONE', #528 ) ;
#76 = CARTESIAN_POINT ( 'NONE',  ( 1.928818708657081591E-16, 0.8000000000000000444, 1.575000000000000178 ) ) ;
#77 = DIRECTION ( 'NONE',  ( -0.000000000000000000, -1.000000000000000000, -0.000000000000000000 ) ) ;
#78 = AXIS2_PLACEMENT_3D ( 'NONE', #555, #359, #700 ) ;
#79 = AXIS2_PLACEMENT_3D ( 'NONE', #588, #395, #399 ) ;
#80 = ORIENTED_EDGE ( 'NONE', *, *, #611, .T. ) ;
#81 = ORIENTED_EDGE ( 'NONE', *, *, #599, .T. ) ;
#82 = LINE ( 'NONE', #364, #345 ) ;
#83 = CARTESIAN_POINT ( 'NONE',  ( 0.000000000000000000, 0.000000000000000000, 0.000000000000000000 ) ) ;
#84 = AXIS2_PLACEMENT_3D ( 'NONE', #870, #77, #339 ) ;
#85 = AXIS2_PLACEMENT_3D ( 'NONE', #375, #784, #733 ) ;
#86 = CARTESIAN_POINT ( 'NONE',  ( -0.9959292143521042417, -4.799999999999999822, -1.724999999999999645 ) ) ;
#87 = ADVANCED_FACE ( 'NONE', ( #179 ), #444, .F. ) ;
#88 = DIRECTION ( 'NONE',  ( -0.8660254037844385966, -0.000000000000000000, 0.5000000000000001110 ) ) ;
#89 = VECTOR ( 'NONE', #142, 1000.000000000000000 ) ;
#90 = ADVANCED_FACE ( 'NONE', ( #519 ), #453, .F. ) ;
#91 = AXIS2_PLACEMENT_3D ( 'NONE', #198, #405, #540 ) ;
#92 = ORIENTED_EDGE ( 'NONE', *, *, #725, .F. ) ;
#93 = CARTESIAN_POINT ( 'NONE',  ( 0.000000000000000000, -4.800000000000001599, 0.000000000000000000 ) ) ;
#94 = CARTESIAN_POINT ( 'NONE',  ( 1.268893821528157773, -4.799999999999999822, -1.252211431702997979 ) ) ;
#95 = EDGE_CURVE ( 'NONE', #75, #501, #806, .T. ) ;
#96 = CYLINDRICAL_SURFACE ( 'NONE', #799, 1.575000000000000178 ) ;
#97 = CARTESIAN_POINT ( 'NONE',  ( -1.991858428704209372, -4.799999999999999822, 2.076596208155327119E-16 ) ) ;
#98 = EDGE_LOOP ( 'NONE', ( #740, #610 ) ) ;
#99 = ADVANCED_FACE ( 'NONE', ( #554 ), #348, .F. ) ;
#100 = ORIENTED_EDGE ( 'NONE', *, *, #624, .T. ) ;
#101 = CARTESIAN_POINT ( 'NONE',  ( 9.797174393178816290E-17, -4.574999999999999289, 0.7999999999999992673 ) ) ;
#102 = CARTESIAN_POINT ( 'NONE',  ( 0.000000000000000000, -4.800000000000001599, 0.000000000000000000 ) ) ;
#103 = ORIENTED_EDGE ( 'NONE', *, *, #317, .F. ) ;
#104 = ORIENTED_EDGE ( 'NONE', *, *, #117, .T. ) ;
#105 = DIRECTION ( 'NONE',  ( -0.5000000000000003331, 0.000000000000000000, 0.8660254037844383745 ) ) ;
#106 = VERTEX_POINT ( 'NONE', #66 ) ;
#107 = COLOUR_RGB ( '',1.000000000000000000, 1.000000000000000000, 1.000000000000000000 ) ;
#108 = VERTEX_POINT ( 'NONE', #679 ) ;
#109 = DIRECTION ( 'NONE',  ( 0.8660254037844385966, 0.000000000000000000, -0.5000000000000001110 ) ) ;
#110 = CARTESIAN_POINT ( 'NONE',  ( 0.5725548570474611187, -4.799999999999999822, -0.8501799431128425066 ) ) ;
#111 = DIRECTION ( 'NONE',  ( -0.000000000000000000, 0.000000000000000000, -1.000000000000000000 ) ) ;
#112 = ORIENTED_EDGE ( 'NONE', *, *, #859, .T. ) ;
#113 = AXIS2_PLACEMENT_3D ( 'NONE', #718, #255, #178 ) ;
#114 = DIRECTION ( 'NONE',  ( 0.5000000000000002220, -0.000000000000000000, 0.8660254037844385966 ) ) ;
#115 = DIRECTION ( 'NONE',  ( 0.8660254037844385966, 0.000000000000000000, -0.5000000000000001110 ) ) ;
#116 = VERTEX_POINT ( 'NONE', #478 ) ;
#117 = EDGE_CURVE ( 'NONE', #208, #663, #682, .T. ) ;
#118 = CIRCLE ( 'NONE', #316, 0.7999999999999992673 ) ;
#119 = DIRECTION ( 'NONE',  ( 0.000000000000000000, 1.000000000000000000, 0.000000000000000000 ) ) ;
#120 = VERTEX_POINT ( 'NONE', #747 ) ;
#121 = VERTEX_POINT ( 'NONE', #484 ) ;
#122 = VECTOR ( 'NONE', #109, 1000.000000000000114 ) ;
#123 = FACE_OUTER_BOUND ( 'NONE', #461, .T. ) ;
#124 = DIRECTION ( 'NONE',  ( 0.8660254037844385966, 0.000000000000000000, 0.5000000000000003331 ) ) ;
#125 = ORIENTED_EDGE ( 'NONE', *, *, #561, .T. ) ;
#126 = EDGE_CURVE ( 'NONE', #17, #239, #146, .T. ) ;
#127 = B_SPLINE_CURVE_WITH_KNOTS ( 'NONE', 3,
 ( #382, #854, #182, #57 ),
 .UNSPECIFIED., .F., .F.,
 ( 4, 4 ),
 ( 0.004050919533782144401, 0.004388977742230357540 ),
 .UNSPECIFIED. ) ;
#128 = ORIENTED_EDGE ( 'NONE', *, *, #47, .T. ) ;
#129 = EDGE_CURVE ( 'NONE', #845, #208, #470, .T. ) ;
#130 = DIRECTION ( 'NONE',  ( 0.5000000000000002220, 0.000000000000000000, -0.8660254037844384856 ) ) ;
#131 = VERTEX_POINT ( 'NONE', #617 ) ;
#132 = ORIENTED_EDGE ( 'NONE', *, *, #377, .F. ) ;
#133 = VECTOR ( 'NONE', #130, 1000.000000000000227 ) ;
#134 = CARTESIAN_POINT ( 'NONE',  ( 1.991858428704209816, -4.799999999999999822, 4.777135130773494335E-16 ) ) ;
#135 = EDGE_CURVE ( 'NONE', #208, #706, #210, .T. ) ;
#136 = LINE ( 'NONE', #19, #615 ) ;
#137 = ORIENTED_EDGE ( 'NONE', *, *, #684, .T. ) ;
#138 = CARTESIAN_POINT ( 'NONE',  ( -1.991858428704209372, -4.799999999999999822, 2.076596208155327119E-16 ) ) ;
#139 = FACE_BOUND ( 'NONE', #41, .T. ) ;
#140 = EDGE_CURVE ( 'NONE', #651, #745, #118, .T. ) ;
#141 = ORIENTED_EDGE ( 'NONE', *, *, #274, .F. ) ;
#142 = DIRECTION ( 'NONE',  ( -0.5000000000000001110, 0.000000000000000000, -0.8660254037844385966 ) ) ;
#143 = DIRECTION ( 'NONE',  ( 0.5000000000000002220, -0.000000000000000000, 0.8660254037844385966 ) ) ;
#144 = ORIENTED_EDGE ( 'NONE', *, *, #859, .F. ) ;
#145 = DIRECTION ( 'NONE',  ( -0.000000000000000000, -1.000000000000000000, -0.000000000000000000 ) ) ;
#146 = LINE ( 'NONE', #283, #162 ) ;
#147 = EDGE_LOOP ( 'NONE', ( #80, #235, #401, #81 ) ) ;
#148 = ORIENTED_EDGE ( 'NONE', *, *, #184, .F. ) ;
#149 = DIRECTION ( 'NONE',  ( 0.000000000000000000, 0.000000000000000000, -1.000000000000000000 ) ) ;
#150 = LINE ( 'NONE', #670, #229 ) ;
#151 = AXIS2_PLACEMENT_3D ( 'NONE', #521, #446, #374 ) ;
#152 = ADVANCED_FACE ( 'NONE', ( #608 ), #207, .F. ) ;
#153 = ORIENTED_EDGE ( 'NONE', *, *, #245, .F. ) ;
#154 = DIRECTION ( 'NONE',  ( 0.000000000000000000, 0.000000000000000000, -1.000000000000000000 ) ) ;
#155 = EDGE_CURVE ( 'NONE', #397, #650, #11, .T. ) ;
#156 = CARTESIAN_POINT ( 'NONE',  ( 1.022554857047463628, -4.800000000000001599, -0.07075707970684980141 ) ) ;
#157 = VECTOR ( 'NONE', #27, 1000.000000000000000 ) ;
#158 = FACE_OUTER_BOUND ( 'NONE', #373, .T. ) ;
#159 = CARTESIAN_POINT ( 'NONE',  ( 1.991858428704209816, 0.000000000000000000, 4.777135130773494335E-16 ) ) ;
#160 = AXIS2_PLACEMENT_3D ( 'NONE', #44, #325, #105 ) ;
#161 = EDGE_CURVE ( 'NONE', #516, #379, #136, .T. ) ;
#162 = VECTOR ( 'NONE', #74, 1000.000000000000114 ) ;
#163 = FACE_OUTER_BOUND ( 'NONE', #280, .T. ) ;
#164 = CARTESIAN_POINT ( 'NONE',  ( -0.9959292143521042417, -4.799999999999999822, -1.724999999999999645 ) ) ;
#165 = CONICAL_SURFACE ( 'NONE', #618, 1.024999999999999911, 0.7853981633974449483 ) ;
#166 = EDGE_LOOP ( 'NONE', ( #92, #645, #32, #437 ) ) ;
#167 = VECTOR ( 'NONE', #319, 1000.000000000000000 ) ;
#168 = ORIENTED_EDGE ( 'NONE', *, *, #558, .T. ) ;
#169 = CARTESIAN_POINT ( 'NONE',  ( -0.9959292143521042417, 0.000000000000000000, -1.724999999999999645 ) ) ;
#170 = CARTESIAN_POINT ( 'NONE',  ( -0.3478219618694796123, -4.574999999999999289, 0.7204303455860706640 ) ) ;
#171 = ORIENTED_EDGE ( 'NONE', *, *, #95, .T. ) ;
#172 = ORIENTED_EDGE ( 'NONE', *, *, #851, .T. ) ;
#173 = DIRECTION ( 'NONE',  ( -0.000000000000000000, -1.000000000000000000, -0.000000000000000000 ) ) ;
#174 = FACE_OUTER_BOUND ( 'NONE', #736, .T. ) ;
#175 = EDGE_LOOP ( 'NONE', ( #821, #299, #721, #782, #12, #100, #48 ) ) ;
#176 = VERTEX_POINT ( 'NONE', #268 ) ;
#177 = CARTESIAN_POINT ( 'NONE',  ( 0.3478219618694792237, -4.574999999999999289, -0.7204303455860707750 ) ) ;
#178 = DIRECTION ( 'NONE',  ( -0.8660254037844385966, 0.000000000000000000, 0.5000000000000001110 ) ) ;
#179 = FACE_OUTER_BOUND ( 'NONE', #506, .T. ) ;
#180 = ORIENTED_EDGE ( 'NONE', *, *, #216, .T. ) ;
#181 = PLANE ( 'NONE',  #686 ) ;
#182 = CARTESIAN_POINT ( 'NONE',  ( -0.4988374369271034725, -4.723520407849104430, 0.8076191707623889826 ) ) ;
#183 = CARTESIAN_POINT ( 'NONE',  ( 0.000000000000000000, -3.899999999999999911, 0.000000000000000000 ) ) ;
#184 = EDGE_CURVE ( 'NONE', #693, #644, #150, .T. ) ;
#185 = ORIENTED_EDGE ( 'NONE', *, *, #367, .F. ) ;
#186 = DIRECTION ( 'NONE',  ( 0.000000000000000000, -1.000000000000000000, 0.000000000000000000 ) ) ;
#187 = DIRECTION ( 'NONE',  ( 0.000000000000000000, 1.000000000000000000, 0.000000000000000000 ) ) ;
#188 = ORIENTED_EDGE ( 'NONE', *, *, #377, .T. ) ;
#189 = CARTESIAN_POINT ( 'NONE',  ( 0.7978219618694794013, -4.574999999999999289, 0.05899251781992333882 ) ) ;
#190 = CARTESIAN_POINT ( 'NONE',  ( -0.9959292143521044638, -4.799999999999999822, 1.725000000000000311 ) ) ;
#191 = VERTEX_POINT ( 'NONE', #813 ) ;
#192 = VECTOR ( 'NONE', #832, 1000.000000000000000 ) ;
#193 = CARTESIAN_POINT ( 'NONE',  ( 1.718893821528157506, -4.799999999999999822, -0.4727885682970036640 ) ) ;
#194 = SURFACE_STYLE_FILL_AREA ( #582 ) ;
#195 = ORIENTED_EDGE ( 'NONE', *, *, #256, .T. ) ;
#196 = AXIS2_PLACEMENT_3D ( 'NONE', #354, #632, #629 ) ;
#197 = CARTESIAN_POINT ( 'NONE',  ( -0.7978219618694794013, -4.574999999999999289, -0.05899251781992388005 ) ) ;
#198 = CARTESIAN_POINT ( 'NONE',  ( 0.000000000000000000, 0.8000000000000000444, 0.000000000000000000 ) ) ;
#199 = ORIENTED_EDGE ( 'NONE', *, *, #47, .F. ) ;
#200 = VECTOR ( 'NONE', #795, 1000.000000000000000 ) ;
#201 = CARTESIAN_POINT ( 'NONE',  ( -1.718893821528156840, -3.899999999999999911, 0.4727885682970029979 ) ) ;
#202 = VECTOR ( 'NONE', #805, 1000.000000000000000 ) ;
#203 = ADVANCED_FACE ( 'NONE', ( #10 ), #543, .F. ) ;
#204 = DIRECTION ( 'NONE',  ( -0.000000000000000000, -1.000000000000000000, -0.000000000000000000 ) ) ;
#205 = EDGE_LOOP ( 'NONE', ( #772, #548, #304, #709 ) ) ;
#206 = FACE_OUTER_BOUND ( 'NONE', #699, .T. ) ;
#207 = PLANE ( 'NONE',  #835 ) ;
#208 = VERTEX_POINT ( 'NONE', #4 ) ;
#209 = LINE ( 'NONE', #544, #133 ) ;
#210 = LINE ( 'NONE', #481, #767 ) ;
#211 = VERTEX_POINT ( 'NONE', #263 ) ;
#212 = LINE ( 'NONE', #836, #243 ) ;
#213 = DIRECTION ( 'NONE',  ( 0.000000000000000000, 0.000000000000000000, -1.000000000000000000 ) ) ;
#214 = EDGE_CURVE ( 'NONE', #640, #295, #273, .T. ) ;
#215 = PRODUCT ( 'HK_P7_M2-1', 'HK_P7_M2-1', '', ( #254 ) ) ;
#216 = EDGE_CURVE ( 'NONE', #501, #75, #272, .T. ) ;
#217 = EDGE_LOOP ( 'NONE', ( #199, #311, #600, #635 ) ) ;
#218 = DIRECTION ( 'NONE',  ( -0.000000000000000000, -1.000000000000000000, -0.000000000000000000 ) ) ;
#219 = DIRECTION ( 'NONE',  ( 1.000000000000000000, 0.000000000000000000, 1.088633767200840046E-16 ) ) ;
#220 = CIRCLE ( 'NONE', #485, 0.7999999999999937161 ) ;
#221 = PLANE ( 'NONE',  #315 ) ;
#222 = ADVANCED_FACE ( 'NONE', ( #139, #408 ), #546, .T. ) ;
#223 = CARTESIAN_POINT ( 'NONE',  ( -0.7978219618694794013, -4.574999999999999289, -0.05899251781992388005 ) ) ;
#224 = VECTOR ( 'NONE', #695, 1000.000000000000000 ) ;
#225 = CARTESIAN_POINT ( 'NONE',  ( 0.000000000000000000, -3.899999999999999911, 0.000000000000000000 ) ) ;
#226 = LINE ( 'NONE', #690, #224 ) ;
#227 = EDGE_CURVE ( 'NONE', #366, #714, #358, .T. ) ;
#228 = ORIENTED_EDGE ( 'NONE', *, *, #717, .F. ) ;
#229 = VECTOR ( 'NONE', #475, 1000.000000000000000 ) ;
#230 = CARTESIAN_POINT ( 'NONE',  ( 0.7978219618694794013, -4.574999999999999289, 0.05899251781992333882 ) ) ;
#231 = CARTESIAN_POINT ( 'NONE',  ( 0.9959292143521044638, -4.799999999999999822, 1.725000000000000311 ) ) ;
#232 = AXIS2_PLACEMENT_3D ( 'NONE', #842, #590, #324 ) ;
#233 = ORIENTED_EDGE ( 'NONE', *, *, #227, .T. ) ;
#234 = AXIS2_PLACEMENT_3D ( 'NONE', #438, #173, #594 ) ;
#235 = ORIENTED_EDGE ( 'NONE', *, *, #720, .F. ) ;
#236 = CYLINDRICAL_SURFACE ( 'NONE', #151, 1.575000000000000178 ) ;
#237 = DIRECTION ( 'NONE',  ( 0.000000000000000000, 0.000000000000000000, -1.000000000000000000 ) ) ;
#238 = EDGE_LOOP ( 'NONE', ( #455, #507, #605, #680, #431, #482, #659, #257 ) ) ;
#239 = VERTEX_POINT ( 'NONE', #94 ) ;
#240 = FACE_OUTER_BOUND ( 'NONE', #205, .T. ) ;
#241 = PLANE ( 'NONE',  #490 ) ;
#242 = CARTESIAN_POINT ( 'NONE',  ( 0.000000000000000000, 5.950000000000000178, 0.000000000000000000 ) ) ;
#243 = VECTOR ( 'NONE', #688, 1000.000000000000000 ) ;
#244 = ADVANCED_FACE ( 'NONE', ( #829 ), #342, .F. ) ;
#245 = EDGE_CURVE ( 'NONE', #176, #106, #698, .T. ) ;
#246 = EDGE_LOOP ( 'NONE', ( #112, #188, #414, #791, #532 ) ) ;
#247 = CARTESIAN_POINT ( 'NONE',  ( -1.268893821528157329, -3.899999999999999911, 1.252211431702997535 ) ) ;
#248 = CARTESIAN_POINT ( 'NONE',  ( 0.9959292143521050189, -4.799999999999999822, -1.724999999999999645 ) ) ;
#249 = ORIENTED_EDGE ( 'NONE', *, *, #561, .F. ) ;
#250 = EDGE_CURVE ( 'NONE', #318, #344, #562, .T. ) ;
#251 = CYLINDRICAL_SURFACE ( 'NONE', #85, 0.7999999999999937161 ) ;
#252 = DIRECTION ( 'NONE',  ( -0.000000000000000000, -1.000000000000000000, -0.000000000000000000 ) ) ;
#253 = VERTEX_POINT ( 'NONE', #831 ) ;
#254 = PRODUCT_CONTEXT ( 'NONE', #396, 'mechanical' ) ;
#255 = DIRECTION ( 'NONE',  ( -0.5000000000000001110, 0.000000000000000000, -0.8660254037844385966 ) ) ;
#256 = EDGE_CURVE ( 'NONE', #576, #253, #421, .T. ) ;
#257 = ORIENTED_EDGE ( 'NONE', *, *, #161, .F. ) ;
#258 = VERTEX_POINT ( 'NONE', #223 ) ;
#259 = LINE ( 'NONE', #522, #425 ) ;
#260 = CARTESIAN_POINT ( 'NONE',  ( 1.718893821528157506, -3.899999999999999911, -0.4727885682970036640 ) ) ;
#261 = ORIENTED_EDGE ( 'NONE', *, *, #702, .T. ) ;
#262 = DIRECTION ( 'NONE',  ( 0.5000000000000002220, 0.000000000000000000, -0.8660254037844384856 ) ) ;
#263 = CARTESIAN_POINT ( 'NONE',  ( 0.3478219618694735060, -3.899999999999999911, -0.7204303455860673333 ) ) ;
#264 = ORIENTED_EDGE ( 'NONE', *, *, #95, .F. ) ;
#265 = ADVANCED_BREP_SHAPE_REPRESENTATION ( 'HK_P7_M2-1', ( #56, #841 ), #278 ) ;
#266 = VECTOR ( 'NONE', #434, 1000.000000000000000 ) ;
#267 = LINE ( 'NONE', #753, #812 ) ;
#268 = CARTESIAN_POINT ( 'NONE',  ( 1.928818708657081591E-16, 0.000000000000000000, 1.575000000000000178 ) ) ;
#269 = ORIENTED_EDGE ( 'NONE', *, *, #502, .T. ) ;
#270 = VECTOR ( 'NONE', #145, 1000.000000000000000 ) ;
#271 = CARTESIAN_POINT ( 'NONE',  ( -1.991858428704209372, -4.799999999999999822, 2.076596208155327119E-16 ) ) ;
#272 = CIRCLE ( 'NONE', #91, 1.575000000000000178 ) ;
#273 = LINE ( 'NONE', #534, #202 ) ;
#274 = EDGE_CURVE ( 'NONE', #64, #640, #226, .T. ) ;
#275 = ORIENTED_EDGE ( 'NONE', *, *, #370, .F. ) ;
#276 = VECTOR ( 'NONE', #560, 1000.000000000000000 ) ;
#277 = DIRECTION ( 'NONE',  ( 0.000000000000000000, -0.000000000000000000, -1.000000000000000000 ) ) ;
#278 =( GEOMETRIC_REPRESENTATION_CONTEXT ( 3 ) GLOBAL_UNCERTAINTY_ASSIGNED_CONTEXT ( ( #393 ) ) GLOBAL_UNIT_ASSIGNED_CONTEXT ( ( #517, #369, #573 ) ) REPRESENTATION_CONTEXT ( 'NONE', 'WORKASPACE' ) );
#279 = DIRECTION ( 'NONE',  ( 0.000000000000000000, 1.000000000000000000, 0.000000000000000000 ) ) ;
#280 = EDGE_LOOP ( 'NONE', ( #362, #861, #752, #16 ) ) ;
#281 = DIRECTION ( 'NONE',  ( 0.000000000000000000, 0.000000000000000000, -1.000000000000000000 ) ) ;
#282 = EDGE_CURVE ( 'NONE', #120, #825, #35, .T. ) ;
#283 = CARTESIAN_POINT ( 'NONE',  ( 0.9959292143521050189, -4.799999999999999822, -1.724999999999999645 ) ) ;
#284 = EDGE_CURVE ( 'NONE', #116, #17, #701, .T. ) ;
#285 = DIRECTION ( 'NONE',  ( 0.5000000000000001110, 0.000000000000000000, 0.8660254037844385966 ) ) ;
#286 = AXIS2_PLACEMENT_3D ( 'NONE', #371, #124, #711 ) ;
#287 = DIRECTION ( 'NONE',  ( -0.000000000000000000, -1.000000000000000000, -0.000000000000000000 ) ) ;
#288 = ADVANCED_FACE ( 'NONE', ( #494 ), #352, .T. ) ;
#289 = DIRECTION ( 'NONE',  ( 0.000000000000000000, 0.000000000000000000, 1.000000000000000000 ) ) ;
#290 = LINE ( 'NONE', #765, #157 ) ;
#291 = DIRECTION ( 'NONE',  ( 0.000000000000000000, -1.000000000000000000, -0.000000000000000000 ) ) ;
#292 = EDGE_CURVE ( 'NONE', #258, #706, #491, .T. ) ;
#293 = DIRECTION ( 'NONE',  ( 0.000000000000000000, 1.000000000000000000, 0.000000000000000000 ) ) ;
#294 = ORIENTED_EDGE ( 'NONE', *, *, #779, .T. ) ;
#295 = VERTEX_POINT ( 'NONE', #156 ) ;
#296 = CARTESIAN_POINT ( 'NONE',  ( 0.000000000000000000, -3.899999999999999911, 0.000000000000000000 ) ) ;
#297 = CARTESIAN_POINT ( 'NONE',  ( 0.000000000000000000, 0.8000000000000000444, 0.000000000000000000 ) ) ;
#298 = ORIENTED_EDGE ( 'NONE', *, *, #385, .T. ) ;
#299 = ORIENTED_EDGE ( 'NONE', *, *, #214, .F. ) ;
#300 = LINE ( 'NONE', #787, #167 ) ;
#301 = FACE_OUTER_BOUND ( 'NONE', #441, .T. ) ;
#302 = CONICAL_SURFACE ( 'NONE', #322, 0.7999999999999882760, 1.029744258676638324 ) ;
#303 = ORIENTED_EDGE ( 'NONE', *, *, #557, .T. ) ;
#304 = ORIENTED_EDGE ( 'NONE', *, *, #284, .F. ) ;
#305 = SHAPE_DEFINITION_REPRESENTATION ( #756, #265 ) ;
#306 = ADVANCED_FACE ( 'NONE', ( #423, #301 ), #769, .F. ) ;
#307 = DIRECTION ( 'NONE',  ( -0.000000000000000000, 1.000000000000000000, -0.000000000000000000 ) ) ;
#308 = EDGE_CURVE ( 'NONE', #253, #745, #290, .T. ) ;
#309 = AXIS2_PLACEMENT_3D ( 'NONE', #412, #279, #551 ) ;
#310 = VECTOR ( 'NONE', #119, 1000.000000000000000 ) ;
#311 = ORIENTED_EDGE ( 'NONE', *, *, #626, .T. ) ;
#312 = CARTESIAN_POINT ( 'NONE',  ( -1.718893821528156840, -4.799999999999999822, 0.4727885682970029979 ) ) ;
#313 = CARTESIAN_POINT ( 'NONE',  ( 0.3478219618694792237, -4.574999999999999289, -0.7204303455860707750 ) ) ;
#314 = CARTESIAN_POINT ( 'NONE',  ( 0.000000000000000000, 1.199999999999991962, -0.7999999999999882760 ) ) ;
#315 = AXIS2_PLACEMENT_3D ( 'NONE', #761, #633, #285 ) ;
#316 = AXIS2_PLACEMENT_3D ( 'NONE', #754, #204, #213 ) ;
#317 = EDGE_CURVE ( 'NONE', #108, #816, #649, .T. ) ;
#318 = VERTEX_POINT ( 'NONE', #430 ) ;
#319 = DIRECTION ( 'NONE',  ( -0.8660254037844385966, -0.000000000000000000, 0.5000000000000001110 ) ) ;
#320 = LINE ( 'NONE', #51, #692 ) ;
#321 = FILL_AREA_STYLE_COLOUR ( '', #107 ) ;
#322 = AXIS2_PLACEMENT_3D ( 'NONE', #637, #764, #628 ) ;
#323 = VERTEX_POINT ( 'NONE', #97 ) ;
#324 = DIRECTION ( 'NONE',  ( 0.000000000000000000, 0.000000000000000000, -1.000000000000000000 ) ) ;
#325 = DIRECTION ( 'NONE',  ( -0.8660254037844384856, 0.000000000000000000, -0.5000000000000004441 ) ) ;
#326 = FACE_OUTER_BOUND ( 'NONE', #166, .T. ) ;
#327 = ORIENTED_EDGE ( 'NONE', *, *, #545, .F. ) ;
#328 = CARTESIAN_POINT ( 'NONE',  ( 0.4243198354392753724, -4.648032770028489580, -0.7645964134840267379 ) ) ;
#329 = ORIENTED_EDGE ( 'NONE', *, *, #658, .F. ) ;
#330 = DIRECTION ( 'NONE',  ( 0.000000000000000000, 0.000000000000000000, -1.000000000000000000 ) ) ;
#331 = DIRECTION ( 'NONE',  ( -0.000000000000000000, -1.000000000000000000, -0.000000000000000000 ) ) ;
#332 = EDGE_LOOP ( 'NONE', ( #228, #153 ) ) ;
#333 = CARTESIAN_POINT ( 'NONE',  ( 0.4988374369271015296, -4.723520407849102654, -0.8076191707623882055 ) ) ;
#334 = CARTESIAN_POINT ( 'NONE',  ( -1.718893821528156840, -3.899999999999999911, 0.4727885682970029979 ) ) ;
#335 = ORIENTED_EDGE ( 'NONE', *, *, #630, .F. ) ;
#336 = CIRCLE ( 'NONE', #378, 1.000000000000000000 ) ;
#337 = EDGE_CURVE ( 'NONE', #391, #37, #634, .T. ) ;
#338 = CARTESIAN_POINT ( 'NONE',  ( 0.5725548570474611187, -4.799999999999999822, -0.8501799431128425066 ) ) ;
#339 = DIRECTION ( 'NONE',  ( 0.000000000000000000, 0.000000000000000000, -1.000000000000000000 ) ) ;
#340 = ORIENTED_EDGE ( 'NONE', *, *, #665, .T. ) ;
#341 = FACE_OUTER_BOUND ( 'NONE', #55, .T. ) ;
#342 = CONICAL_SURFACE ( 'NONE', #587, 1.024999999999999911, 0.7853981633974449483 ) ;
#343 = DIRECTION ( 'NONE',  ( -0.4999999999999997780, 0.000000000000000000, -0.8660254037844387076 ) ) ;
#344 = VERTEX_POINT ( 'NONE', #170 ) ;
#345 = VECTOR ( 'NONE', #350, 1000.000000000000000 ) ;
#346 = VECTOR ( 'NONE', #463, 1000.000000000000114 ) ;
#347 = CARTESIAN_POINT ( 'NONE',  ( 1.991858428704209816, -4.799999999999999822, 4.777135130773494335E-16 ) ) ;
#348 = CYLINDRICAL_SURFACE ( 'NONE', #84, 0.7999999999999937161 ) ;
#349 = ORIENTED_EDGE ( 'NONE', *, *, #488, .F. ) ;
#350 = DIRECTION ( 'NONE',  ( -0.000000000000000000, -1.000000000000000000, -0.000000000000000000 ) ) ;
#351 = VECTOR ( 'NONE', #115, 1000.000000000000114 ) ;
#352 = PLANE ( 'NONE',  #609 ) ;
#353 = LINE ( 'NONE', #86, #15 ) ;
#354 = CARTESIAN_POINT ( 'NONE',  ( 0.000000000000000000, 0.000000000000000000, 0.000000000000000000 ) ) ;
#355 = EDGE_CURVE ( 'NONE', #121, #714, #837, .T. ) ;
#356 = ORIENTED_EDGE ( 'NONE', *, *, #413, .F. ) ;
#357 = CARTESIAN_POINT ( 'NONE',  ( 0.9959292143521050189, -4.799999999999999822, -1.724999999999999645 ) ) ;
#358 = LINE ( 'NONE', #159, #454 ) ;
#359 = DIRECTION ( 'NONE',  ( 0.000000000000000000, 1.000000000000000000, 0.000000000000000000 ) ) ;
#360 = ADVANCED_FACE ( 'NONE', ( #844 ), #807, .F. ) ;
#361 = CARTESIAN_POINT ( 'NONE',  ( -0.3478219618694738391, -4.799999999999999822, 0.7204303455860671113 ) ) ;
#362 = ORIENTED_EDGE ( 'NONE', *, *, #2, .F. ) ;
#363 = EDGE_LOOP ( 'NONE', ( #476, #572, #776, #172 ) ) ;
#364 = CARTESIAN_POINT ( 'NONE',  ( 1.224646799147352961E-16, 5.950000000000000178, 1.000000000000000000 ) ) ;
#365 = DIRECTION ( 'NONE',  ( -0.000000000000000000, -1.000000000000000000, -0.000000000000000000 ) ) ;
#366 = VERTEX_POINT ( 'NONE', #792 ) ;
#367 = EDGE_CURVE ( 'NONE', #211, #406, #595, .T. ) ;
#368 = ORIENTED_EDGE ( 'NONE', *, *, #67, .F. ) ;
#369 =( NAMED_UNIT ( * ) PLANE_ANGLE_UNIT ( ) SI_UNIT ( $, .RADIAN. ) );
#370 = EDGE_CURVE ( 'NONE', #344, #120, #127, .T. ) ;
#371 = CARTESIAN_POINT ( 'NONE',  ( -1.991858428704209372, -4.799999999999999822, 2.076596208155327119E-16 ) ) ;
#372 = ORIENTED_EDGE ( 'NONE', *, *, #284, .T. ) ;
#373 = EDGE_LOOP ( 'NONE', ( #294, #275, #775, #589, #144 ) ) ;
#374 = DIRECTION ( 'NONE',  ( 0.000000000000000000, 0.000000000000000000, -1.000000000000000000 ) ) ;
#375 = CARTESIAN_POINT ( 'NONE',  ( 0.000000000000000000, -4.799999999999999822, 0.000000000000000000 ) ) ;
#376 = DIRECTION ( 'NONE',  ( 0.000000000000000000, -0.000000000000000000, 1.000000000000000000 ) ) ;
#377 = EDGE_CURVE ( 'NONE', #651, #520, #510, .T. ) ;
#378 = AXIS2_PLACEMENT_3D ( 'NONE', #518, #858, #866 ) ;
#379 = VERTEX_POINT ( 'NONE', #598 ) ;
#380 = CARTESIAN_POINT ( 'NONE',  ( 1.224646799147352961E-16, 0.8000000000000000444, 1.000000000000000000 ) ) ;
#381 = B_SPLINE_CURVE_WITH_KNOTS ( 'NONE', 3,
 ( #513, #43, #853, #189 ),
 .UNSPECIFIED., .F., .F.,
 ( 4, 4 ),
 ( 0.002208020190600259742, 0.002551385808205633692 ),
 .UNSPECIFIED. ) ;
#382 = CARTESIAN_POINT ( 'NONE',  ( -0.3478219618694796123, -4.574999999999999289, 0.7204303455860706640 ) ) ;
#383 = LINE ( 'NONE', #511, #346 ) ;
#384 = AXIS2_PLACEMENT_3D ( 'NONE', #621, #70, #676 ) ;
#385 = EDGE_CURVE ( 'NONE', #17, #644, #648, .T. ) ;
#386 = ORIENTED_EDGE ( 'NONE', *, *, #355, .F. ) ;
#387 = FACE_OUTER_BOUND ( 'NONE', #687, .T. ) ;
#388 = CYLINDRICAL_SURFACE ( 'NONE', #604, 1.000000000000000000 ) ;
#389 = CIRCLE ( 'NONE', #771, 0.7999999999999937161 ) ;
#390 = CIRCLE ( 'NONE', #531, 1.024999999999999911 ) ;
#391 = VERTEX_POINT ( 'NONE', #514 ) ;
#392 = DIRECTION ( 'NONE',  ( 0.000000000000000000, 0.000000000000000000, 1.000000000000000000 ) ) ;
#393 = UNCERTAINTY_MEASURE_WITH_UNIT (LENGTH_MEASURE( 1.000000000000000082E-05 ), #517, 'distance_accuracy_value', 'NONE');
#394 = FACE_OUTER_BOUND ( 'NONE', #726, .T. ) ;
#395 = DIRECTION ( 'NONE',  ( -0.000000000000000000, -1.000000000000000000, -0.000000000000000000 ) ) ;
#396 = APPLICATION_CONTEXT ( 'automotive_design' ) ;
#397 = VERTEX_POINT ( 'NONE', #443 ) ;
#398 = CARTESIAN_POINT ( 'NONE',  ( -1.268893821528157329, -3.899999999999999911, 1.252211431702997535 ) ) ;
#399 = DIRECTION ( 'NONE',  ( 0.000000000000000000, 0.000000000000000000, -1.000000000000000000 ) ) ;
#400 = VECTOR ( 'NONE', #262, 1000.000000000000227 ) ;
#401 = ORIENTED_EDGE ( 'NONE', *, *, #557, .F. ) ;
#402 = ADVANCED_FACE ( 'NONE', ( #863 ), #251, .F. ) ;
#403 = LINE ( 'NONE', #480, #22 ) ;
#404 = EDGE_CURVE ( 'NONE', #501, #176, #320, .T. ) ;
#405 = DIRECTION ( 'NONE',  ( 0.000000000000000000, 1.000000000000000000, 0.000000000000000000 ) ) ;
#406 = VERTEX_POINT ( 'NONE', #526 ) ;
#407 = CARTESIAN_POINT ( 'NONE',  ( -1.587310884388949121E-15, 1.680688495222049550, 0.000000000000000000 ) ) ;
#408 = FACE_OUTER_BOUND ( 'NONE', #755, .T. ) ;
#409 = EDGE_CURVE ( 'NONE', #406, #64, #723, .T. ) ;
#410 = ORIENTED_EDGE ( 'NONE', *, *, #824, .T. ) ;
#411 = LINE ( 'NONE', #804, #627 ) ;
#412 = CARTESIAN_POINT ( 'NONE',  ( 0.000000000000000000, 0.8000000000000000444, 0.000000000000000000 ) ) ;
#413 = EDGE_CURVE ( 'NONE', #816, #108, #336, .T. ) ;
#414 = ORIENTED_EDGE ( 'NONE', *, *, #872, .F. ) ;
#415 = CARTESIAN_POINT ( 'NONE',  ( 0.000000000000000000, 5.950000000000000178, 0.000000000000000000 ) ) ;
#416 = CARTESIAN_POINT ( 'NONE',  ( -0.9959292143521044638, -4.799999999999999822, 1.725000000000000311 ) ) ;
#417 = ORIENTED_EDGE ( 'NONE', *, *, #62, .T. ) ;
#418 = MECHANICAL_DESIGN_GEOMETRIC_PRESENTATION_REPRESENTATION (  '', ( #716 ), #529 ) ;
#419 = LINE ( 'NONE', #23, #276 ) ;
#420 = AXIS2_PLACEMENT_3D ( 'NONE', #49, #857, #508 ) ;
#421 = LINE ( 'NONE', #426, #50 ) ;
#422 = DIRECTION ( 'NONE',  ( 0.000000000000000000, 1.000000000000000000, 0.000000000000000000 ) ) ;
#423 = FACE_BOUND ( 'NONE', #332, .T. ) ;
#424 = DIRECTION ( 'NONE',  ( 0.000000000000000000, 0.000000000000000000, -1.000000000000000000 ) ) ;
#425 = VECTOR ( 'NONE', #457, 1000.000000000000000 ) ;
#426 = CARTESIAN_POINT ( 'NONE',  ( 9.797174393178681937E-17, 1.199999999999991962, 0.7999999999999882760 ) ) ;
#427 = AXIS2_PLACEMENT_3D ( 'NONE', #83, #638, #565 ) ;
#428 = DIRECTION ( 'NONE',  ( 0.000000000000000000, -1.000000000000000000, 0.000000000000000000 ) ) ;
#429 = CIRCLE ( 'NONE', #661, 1.024999999999999911 ) ;
#430 = CARTESIAN_POINT ( 'NONE',  ( -0.3478219618694736170, -3.899999999999999911, 0.7204303455860673333 ) ) ;
#431 = ORIENTED_EDGE ( 'NONE', *, *, #2, .T. ) ;
#432 = ORIENTED_EDGE ( 'NONE', *, *, #696, .F. ) ;
#433 = CARTESIAN_POINT ( 'NONE',  ( 0.000000000000000000, -4.800000000000001599, 0.000000000000000000 ) ) ;
#434 = DIRECTION ( 'NONE',  ( 0.000000000000000000, 1.000000000000000000, 0.000000000000000000 ) ) ;
#435 = ORIENTED_EDGE ( 'NONE', *, *, #788, .T. ) ;
#436 = ADVANCED_FACE ( 'NONE', ( #174 ), #241, .T. ) ;
#437 = ORIENTED_EDGE ( 'NONE', *, *, #474, .F. ) ;
#438 = CARTESIAN_POINT ( 'NONE',  ( 0.000000000000000000, -4.574999999999999289, 0.000000000000000000 ) ) ;
#439 = PLANE ( 'NONE',  #113 ) ;
#440 = ORIENTED_EDGE ( 'NONE', *, *, #409, .F. ) ;
#441 = EDGE_LOOP ( 'NONE', ( #445, #148, #674, #559, #503, #662 ) ) ;
#442 = ADVANCED_FACE ( 'NONE', ( #387 ), #439, .F. ) ;
#443 = CARTESIAN_POINT ( 'NONE',  ( 0.000000000000000000, 5.950000000000000178, -1.000000000000000000 ) ) ;
#444 = PLANE ( 'NONE',  #691 ) ;
#445 = ORIENTED_EDGE ( 'NONE', *, *, #558, .F. ) ;
#446 = DIRECTION ( 'NONE',  ( -0.000000000000000000, -1.000000000000000000, -0.000000000000000000 ) ) ;
#447 = FACE_OUTER_BOUND ( 'NONE', #147, .T. ) ;
#448 = DIRECTION ( 'NONE',  ( 0.000000000000000000, 0.000000000000000000, -1.000000000000000000 ) ) ;
#449 = ADVANCED_FACE ( 'NONE', ( #447 ), #660, .F. ) ;
#450 = ORIENTED_EDGE ( 'NONE', *, *, #468, .T. ) ;
#451 = DIRECTION ( 'NONE',  ( 0.8660254037844384856, 0.000000000000000000, -0.5000000000000001110 ) ) ;
#452 = DIRECTION ( 'NONE',  ( -0.000000000000000000, -1.000000000000000000, -0.000000000000000000 ) ) ;
#453 = PLANE ( 'NONE',  #580 ) ;
#454 = VECTOR ( 'NONE', #499, 1000.000000000000114 ) ;
#455 = ORIENTED_EDGE ( 'NONE', *, *, #824, .F. ) ;
#456 = DIRECTION ( 'NONE',  ( 0.000000000000000000, 0.000000000000000000, -1.000000000000000000 ) ) ;
#457 = DIRECTION ( 'NONE',  ( -1.000000000000000000, 0.000000000000000000, 0.000000000000000000 ) ) ;
#458 = CARTESIAN_POINT ( 'NONE',  ( 0.000000000000000000, 5.950000000000000178, 0.000000000000000000 ) ) ;
#459 = AXIS2_PLACEMENT_3D ( 'NONE', #694, #422, #289 ) ;
#460 = PRODUCT_DEFINITION_FORMATION_WITH_SPECIFIED_SOURCE ( 'ไป', '', #215, .NOT_KNOWN. ) ;
#461 = EDGE_LOOP ( 'NONE', ( #335, #639, #59, #838, #249 ) ) ;
#462 = CARTESIAN_POINT ( 'NONE',  ( 0.9959292143521050189, 0.000000000000000000, -1.724999999999999645 ) ) ;
#463 = DIRECTION ( 'NONE',  ( 0.8660254037844385966, 0.000000000000000000, -0.5000000000000001110 ) ) ;
#464 = ADVANCED_FACE ( 'NONE', ( #394 ), #54, .F. ) ;
#465 = AXIS2_PLACEMENT_3D ( 'NONE', #592, #252, #785 ) ;
#466 = VECTOR ( 'NONE', #708, 1000.000000000000000 ) ;
#467 = ORIENTED_EDGE ( 'NONE', *, *, #355, .T. ) ;
#468 = EDGE_CURVE ( 'NONE', #191, #391, #579, .T. ) ;
#469 = DIRECTION ( 'NONE',  ( 0.000000000000000000, -1.000000000000000000, 0.000000000000000000 ) ) ;
#470 = LINE ( 'NONE', #751, #495 ) ;
#471 = CIRCLE ( 'NONE', #743, 1.024999999999999911 ) ;
#472 = EDGE_LOOP ( 'NONE', ( #552, #125, #614, #450, #28, #865, #577, #567 ) ) ;
#473 = CARTESIAN_POINT ( 'NONE',  ( 0.000000000000000000, 1.199999999999991962, -0.7999999999999882760 ) ) ;
#474 = EDGE_CURVE ( 'NONE', #397, #108, #849, .T. ) ;
#475 = DIRECTION ( 'NONE',  ( 1.000000000000000000, 0.000000000000000000, 1.088633767200840046E-16 ) ) ;
#476 = ORIENTED_EDGE ( 'NONE', *, *, #626, .F. ) ;
#477 = PLANE ( 'NONE',  #541 ) ;
#478 = CARTESIAN_POINT ( 'NONE',  ( -0.9959292143521042417, -4.799999999999999822, -1.724999999999999645 ) ) ;
#479 = EDGE_LOOP ( 'NONE', ( #515, #264, #770, #847 ) ) ;
#480 = CARTESIAN_POINT ( 'NONE',  ( 0.3478219618694733950, -4.799999999999999822, -0.7204303455860674443 ) ) ;
#481 = CARTESIAN_POINT ( 'NONE',  ( -1.718893821528156840, -3.899999999999999911, 0.4727885682970029979 ) ) ;
#482 = ORIENTED_EDGE ( 'NONE', *, *, #292, .F. ) ;
#483 = CARTESIAN_POINT ( 'NONE',  ( 0.000000000000000000, 0.8000000000000000444, 0.000000000000000000 ) ) ;
#484 = CARTESIAN_POINT ( 'NONE',  ( 0.9959292143521044638, -4.799999999999999822, 1.725000000000000311 ) ) ;
#485 = AXIS2_PLACEMENT_3D ( 'NONE', #183, #657, #448 ) ;
#486 = DIRECTION ( 'NONE',  ( 0.000000000000000000, 0.000000000000000000, -1.000000000000000000 ) ) ;
#487 = CARTESIAN_POINT ( 'NONE',  ( 0.000000000000000000, -4.799999999999999822, 0.000000000000000000 ) ) ;
#488 = EDGE_CURVE ( 'NONE', #121, #191, #259, .T. ) ;
#489 = CARTESIAN_POINT ( 'NONE',  ( -0.7978219618694734061, -3.899999999999999911, -0.05899251781992707888 ) ) ;
#490 = AXIS2_PLACEMENT_3D ( 'NONE', #789, #186, #727 ) ;
#491 = LINE ( 'NONE', #625, #266 ) ;
#492 = EDGE_CURVE ( 'NONE', #852, #496, #524, .T. ) ;
#493 = CARTESIAN_POINT ( 'NONE',  ( 1.991858428704209816, -4.799999999999999822, 4.777135130773494335E-16 ) ) ;
#494 = FACE_OUTER_BOUND ( 'NONE', #175, .T. ) ;
#495 = VECTOR ( 'NONE', #343, 1000.000000000000114 ) ;
#496 = VERTEX_POINT ( 'NONE', #110 ) ;
#497 = DIRECTION ( 'NONE',  ( -0.000000000000000000, -1.000000000000000000, -0.000000000000000000 ) ) ;
#498 = CIRCLE ( 'NONE', #78, 1.000000000000000000 ) ;
#499 = DIRECTION ( 'NONE',  ( -0.5000000000000003331, 0.000000000000000000, 0.8660254037844383745 ) ) ;
#500 = CIRCLE ( 'NONE', #549, 0.7999999999999882760 ) ;
#501 = VERTEX_POINT ( 'NONE', #76 ) ;
#502 = EDGE_CURVE ( 'NONE', #211, #852, #403, .T. ) ;
#503 = ORIENTED_EDGE ( 'NONE', *, *, #665, .F. ) ;
#504 = DIRECTION ( 'NONE',  ( 1.000000000000000000, 0.000000000000000000, 0.000000000000000000 ) ) ;
#505 = CARTESIAN_POINT ( 'NONE',  ( 0.000000000000000000, -4.800000000000001599, 0.000000000000000000 ) ) ;
#506 = EDGE_LOOP ( 'NONE', ( #340, #68, #349, #467 ) ) ;
#507 = ORIENTED_EDGE ( 'NONE', *, *, #308, .T. ) ;
#508 = DIRECTION ( 'NONE',  ( 1.000000000000000000, 0.000000000000000000, 1.088633767200839799E-16 ) ) ;
#509 = VECTOR ( 'NONE', #737, 1000.000000000000000 ) ;
#510 = LINE ( 'NONE', #591, #310 ) ;
#511 = CARTESIAN_POINT ( 'NONE',  ( -1.718893821528156840, -4.799999999999999822, 0.4727885682970029979 ) ) ;
#512 = ORIENTED_EDGE ( 'NONE', *, *, #367, .T. ) ;
#513 = CARTESIAN_POINT ( 'NONE',  ( 1.022554857047463628, -4.800000000000001599, -0.07075707970684980141 ) ) ;
#514 = CARTESIAN_POINT ( 'NONE',  ( -0.9959292143521044638, 0.000000000000000000, 1.725000000000000311 ) ) ;
#515 = ORIENTED_EDGE ( 'NONE', *, *, #404, .F. ) ;
#516 = VERTEX_POINT ( 'NONE', #473 ) ;
#517 =( LENGTH_UNIT ( ) NAMED_UNIT ( * ) SI_UNIT ( .MILLI., .METRE. ) );
#518 = CARTESIAN_POINT ( 'NONE',  ( 0.000000000000000000, 0.8000000000000000444, 0.000000000000000000 ) ) ;
#519 = FACE_OUTER_BOUND ( 'NONE', #246, .T. ) ;
#520 = VERTEX_POINT ( 'NONE', #73 ) ;
#521 = CARTESIAN_POINT ( 'NONE',  ( 0.000000000000000000, 0.8000000000000000444, 0.000000000000000000 ) ) ;
#522 = CARTESIAN_POINT ( 'NONE',  ( 0.9959292143521044638, -4.799999999999999822, 1.725000000000000311 ) ) ;
#523 = CARTESIAN_POINT ( 'NONE',  ( -1.991858428704209372, 0.000000000000000000, 2.076596208155327119E-16 ) ) ;
#524 = B_SPLINE_CURVE_WITH_KNOTS ( 'NONE', 3,
 ( #313, #328, #333, #338 ),
 .UNSPECIFIED., .F., .F.,
 ( 4, 4 ),
 ( 0.004050919533782141799, 0.004388977742230350601 ),
 .UNSPECIFIED. ) ;
#525 = EDGE_LOOP ( 'NONE', ( #809, #712, #593, #794 ) ) ;
#526 = CARTESIAN_POINT ( 'NONE',  ( 1.268893821528157773, -3.899999999999999911, -1.252211431702997979 ) ) ;
#527 = EDGE_CURVE ( 'NONE', #705, #366, #9, .T. ) ;
#528 = CARTESIAN_POINT ( 'NONE',  ( 0.000000000000000000, 0.8000000000000000444, -1.575000000000000178 ) ) ;
#529 =( GEOMETRIC_REPRESENTATION_CONTEXT ( 3 ) GLOBAL_UNCERTAINTY_ASSIGNED_CONTEXT ( ( #7 ) ) GLOBAL_UNIT_ASSIGNED_CONTEXT ( ( #796, #45, #596 ) ) REPRESENTATION_CONTEXT ( 'NONE', 'WORKASPACE' ) );
#530 = ADVANCED_FACE ( 'NONE', ( #672 ), #742, .T. ) ;
#531 = AXIS2_PLACEMENT_3D ( 'NONE', #862, #664, #456 ) ;
#532 = ORIENTED_EDGE ( 'NONE', *, *, #214, .T. ) ;
#533 = DIRECTION ( 'NONE',  ( 0.5000000000000001110, 0.000000000000000000, 0.8660254037844385966 ) ) ;
#534 = CARTESIAN_POINT ( 'NONE',  ( -1.268893821528157329, -4.799999999999999822, 1.252211431702997535 ) ) ;
#535 = CIRCLE ( 'NONE', #465, 0.7999999999999882760 ) ;
#536 = VECTOR ( 'NONE', #88, 1000.000000000000000 ) ;
#537 = ORIENTED_EDGE ( 'NONE', *, *, #308, .F. ) ;
#538 = ADVANCED_FACE ( 'NONE', ( #341 ), #477, .T. ) ;
#539 = CARTESIAN_POINT ( 'NONE',  ( 0.000000000000000000, -4.800000000000001599, 0.000000000000000000 ) ) ;
#540 = DIRECTION ( 'NONE',  ( 0.000000000000000000, 0.000000000000000000, 1.000000000000000000 ) ) ;
#541 = AXIS2_PLACEMENT_3D ( 'NONE', #606, #469, #277 ) ;
#542 = ORIENTED_EDGE ( 'NONE', *, *, #569, .F. ) ;
#543 = CONICAL_SURFACE ( 'NONE', #728, 0.7999999999999882760, 1.029744258676638324 ) ;
#544 = CARTESIAN_POINT ( 'NONE',  ( -1.991858428704209372, 0.000000000000000000, 2.076596208155327119E-16 ) ) ;
#545 = EDGE_CURVE ( 'NONE', #705, #121, #746, .T. ) ;
#546 = PLANE ( 'NONE',  #656 ) ;
#547 = CIRCLE ( 'NONE', #232, 0.7999999999999992673 ) ;
#548 = ORIENTED_EDGE ( 'NONE', *, *, #385, .F. ) ;
#549 = AXIS2_PLACEMENT_3D ( 'NONE', #578, #584, #653 ) ;
#550 = DIRECTION ( 'NONE',  ( -0.000000000000000000, -1.000000000000000000, -0.000000000000000000 ) ) ;
#551 = DIRECTION ( 'NONE',  ( 0.000000000000000000, 0.000000000000000000, 1.000000000000000000 ) ) ;
#552 = ORIENTED_EDGE ( 'NONE', *, *, #129, .F. ) ;
#553 = FACE_OUTER_BOUND ( 'NONE', #525, .T. ) ;
#554 = FACE_OUTER_BOUND ( 'NONE', #238, .T. ) ;
#555 = CARTESIAN_POINT ( 'NONE',  ( 0.000000000000000000, 5.950000000000000178, 0.000000000000000000 ) ) ;
#556 = DIRECTION ( 'NONE',  ( 0.000000000000000000, -0.000000000000000000, 1.000000000000000000 ) ) ;
#557 = EDGE_CURVE ( 'NONE', #323, #116, #620, .T. ) ;
#558 = EDGE_CURVE ( 'NONE', #644, #366, #267, .T. ) ;
#559 = ORIENTED_EDGE ( 'NONE', *, *, #337, .F. ) ;
#560 = DIRECTION ( 'NONE',  ( -0.000000000000000000, -1.000000000000000000, -0.000000000000000000 ) ) ;
#561 = EDGE_CURVE ( 'NONE', #845, #825, #675, .T. ) ;
#562 = LINE ( 'NONE', #361, #815 ) ;
#563 = CARTESIAN_POINT ( 'NONE',  ( -1.718893821528156840, -4.799999999999999822, 0.4727885682970031089 ) ) ;
#564 = ADVANCED_FACE ( 'NONE', ( #206 ), #13, .F. ) ;
#565 = DIRECTION ( 'NONE',  ( 0.000000000000000000, 0.000000000000000000, 1.000000000000000000 ) ) ;
#566 = ORIENTED_EDGE ( 'NONE', *, *, #808, .T. ) ;
#567 = ORIENTED_EDGE ( 'NONE', *, *, #117, .F. ) ;
#568 = DIRECTION ( 'NONE',  ( 0.000000000000000000, 0.000000000000000000, -1.000000000000000000 ) ) ;
#569 = EDGE_CURVE ( 'NONE', #131, #496, #471, .T. ) ;
#570 = DIRECTION ( 'NONE',  ( -0.5000000000000001110, 0.000000000000000000, -0.8660254037844385966 ) ) ;
#571 = ORIENTED_EDGE ( 'NONE', *, *, #527, .T. ) ;
#572 = ORIENTED_EDGE ( 'NONE', *, *, #810, .F. ) ;
#573 =( NAMED_UNIT ( * ) SI_UNIT ( $, .STERADIAN. ) SOLID_ANGLE_UNIT ( ) );
#574 = CIRCLE ( 'NONE', #79, 0.7999999999999992673 ) ;
#575 = DIRECTION ( 'NONE',  ( 0.000000000000000000, -0.000000000000000000, -1.000000000000000000 ) ) ;
#576 = VERTEX_POINT ( 'NONE', #407 ) ;
#577 = ORIENTED_EDGE ( 'NONE', *, *, #702, .F. ) ;
#578 = CARTESIAN_POINT ( 'NONE',  ( 0.000000000000000000, 1.199999999999991962, 0.000000000000000000 ) ) ;
#579 = LINE ( 'NONE', #190, #697 ) ;
#580 = AXIS2_PLACEMENT_3D ( 'NONE', #827, #143, #14 ) ;
#581 = AXIS2_PLACEMENT_3D ( 'NONE', #297, #293, #704 ) ;
#582 = FILL_AREA_STYLE ('',( #321 ) ) ;
#583 = ORIENTED_EDGE ( 'NONE', *, *, #72, .T. ) ;
#584 = DIRECTION ( 'NONE',  ( -0.000000000000000000, -1.000000000000000000, -0.000000000000000000 ) ) ;
#585 = VECTOR ( 'NONE', #18, 1000.000000000000000 ) ;
#586 = CARTESIAN_POINT ( 'NONE',  ( 1.718893821528157506, -3.899999999999999911, -0.4727885682970036640 ) ) ;
#587 = AXIS2_PLACEMENT_3D ( 'NONE', #505, #287, #777 ) ;
#588 = CARTESIAN_POINT ( 'NONE',  ( 0.000000000000000000, -4.574999999999999289, 0.000000000000000000 ) ) ;
#589 = ORIENTED_EDGE ( 'NONE', *, *, #140, .F. ) ;
#590 = DIRECTION ( 'NONE',  ( -0.000000000000000000, -1.000000000000000000, -0.000000000000000000 ) ) ;
#591 = CARTESIAN_POINT ( 'NONE',  ( 0.7978219618694735171, -4.799999999999999822, 0.05899251781992664867 ) ) ;
#592 = CARTESIAN_POINT ( 'NONE',  ( 0.000000000000000000, 1.199999999999991962, 0.000000000000000000 ) ) ;
#593 = ORIENTED_EDGE ( 'NONE', *, *, #245, .T. ) ;
#594 = DIRECTION ( 'NONE',  ( 0.000000000000000000, 0.000000000000000000, -1.000000000000000000 ) ) ;
#595 = LINE ( 'NONE', #39, #351 ) ;
#596 =( NAMED_UNIT ( * ) SI_UNIT ( $, .STERADIAN. ) SOLID_ANGLE_UNIT ( ) );
#597 = EDGE_LOOP ( 'NONE', ( #329, #141, #440, #435, #685, #298, #168, #29 ) ) ;
#598 = CARTESIAN_POINT ( 'NONE',  ( 0.000000000000000000, -4.574999999999999289, -0.7999999999999992673 ) ) ;
#599 = EDGE_CURVE ( 'NONE', #323, #37, #822, .T. ) ;
#600 = ORIENTED_EDGE ( 'NONE', *, *, #569, .T. ) ;
#601 = ORIENTED_EDGE ( 'NONE', *, *, #317, .T. ) ;
#602 = DIRECTION ( 'NONE',  ( -0.8660254037844385966, 0.000000000000000000, 0.5000000000000001110 ) ) ;
#603 = DIRECTION ( 'NONE',  ( 0.000000000000000000, 0.000000000000000000, -1.000000000000000000 ) ) ;
#604 = AXIS2_PLACEMENT_3D ( 'NONE', #458, #793, #801 ) ;
#605 = ORIENTED_EDGE ( 'NONE', *, *, #814, .T. ) ;
#606 = CARTESIAN_POINT ( 'NONE',  ( 0.000000000000000000, -4.799999999999999822, 0.000000000000000000 ) ) ;
#607 = APPLICATION_CONTEXT ( 'automotive_design' ) ;
#608 = FACE_OUTER_BOUND ( 'NONE', #472, .T. ) ;
#609 = AXIS2_PLACEMENT_3D ( 'NONE', #487, #762, #575 ) ;
#610 = ORIENTED_EDGE ( 'NONE', *, *, #725, .T. ) ;
#611 = EDGE_CURVE ( 'NONE', #37, #693, #209, .T. ) ;
#612 = DIRECTION ( 'NONE',  ( 0.000000000000000000, -0.7071067811865499042, -0.7071067811865451302 ) ) ;
#613 = DIRECTION ( 'NONE',  ( -0.5000000000000001110, 0.000000000000000000, -0.8660254037844385966 ) ) ;
#614 = ORIENTED_EDGE ( 'NONE', *, *, #624, .F. ) ;
#615 = VECTOR ( 'NONE', #759, 1000.000000000000000 ) ;
#616 = CARTESIAN_POINT ( 'NONE',  ( 1.224646799147352961E-16, 5.950000000000000178, 1.000000000000000000 ) ) ;
#617 = CARTESIAN_POINT ( 'NONE',  ( 0.000000000000000000, -4.800000000000001599, -1.024999999999999911 ) ) ;
#618 = AXIS2_PLACEMENT_3D ( 'NONE', #93, #218, #149 ) ;
#619 = ORIENTED_EDGE ( 'NONE', *, *, #67, .T. ) ;
#620 = LINE ( 'NONE', #138, #400 ) ;
#621 = CARTESIAN_POINT ( 'NONE',  ( 0.000000000000000000, 5.950000000000000178, 0.000000000000000000 ) ) ;
#622 = ORIENTED_EDGE ( 'NONE', *, *, #155, .F. ) ;
#623 = CARTESIAN_POINT ( 'NONE',  ( -0.9959292143521044638, -4.799999999999999822, 1.725000000000000311 ) ) ;
#624 = EDGE_CURVE ( 'NONE', #191, #825, #817, .T. ) ;
#625 = CARTESIAN_POINT ( 'NONE',  ( -0.7978219618694735171, -4.799999999999999822, -0.05899251781992724541 ) ) ;
#626 = EDGE_CURVE ( 'NONE', #379, #131, #411, .T. ) ;
#627 = VECTOR ( 'NONE', #612, 1000.000000000000114 ) ;
#628 = DIRECTION ( 'NONE',  ( 0.000000000000000000, 0.000000000000000000, -1.000000000000000000 ) ) ;
#629 = DIRECTION ( 'NONE',  ( 0.000000000000000000, -0.000000000000000000, -1.000000000000000000 ) ) ;
#630 = EDGE_CURVE ( 'NONE', #318, #845, #678, .T. ) ;
#631 = DIRECTION ( 'NONE',  ( -0.000000000000000000, -1.000000000000000000, -0.000000000000000000 ) ) ;
#632 = DIRECTION ( 'NONE',  ( 0.000000000000000000, -1.000000000000000000, 0.000000000000000000 ) ) ;
#633 = DIRECTION ( 'NONE',  ( -0.8660254037844385966, 0.000000000000000000, 0.5000000000000001110 ) ) ;
#634 = LINE ( 'NONE', #31, #724 ) ;
#635 = ORIENTED_EDGE ( 'NONE', *, *, #492, .F. ) ;
#636 = ORIENTED_EDGE ( 'NONE', *, *, #788, .F. ) ;
#637 = CARTESIAN_POINT ( 'NONE',  ( 0.000000000000000000, 1.199999999999991962, 0.000000000000000000 ) ) ;
#638 = DIRECTION ( 'NONE',  ( 0.000000000000000000, 1.000000000000000000, 0.000000000000000000 ) ) ;
#639 = ORIENTED_EDGE ( 'NONE', *, *, #250, .T. ) ;
#640 = VERTEX_POINT ( 'NONE', #193 ) ;
#641 = APPLICATION_PROTOCOL_DEFINITION ( 'draft international standard', 'automotive_design', 1998, #396 ) ;
#642 = CLOSED_SHELL ( 'NONE', ( #203, #244, #99, #8, #713, #436, #90, #442, #288, #846, #222, #652, #464, #87, #152, #449, #843, #538, #306, #530, #60, #818, #564, #689, #402, #781, #360, #730 ) ) ;
#643 = DIRECTION ( 'NONE',  ( 0.5000000000000001110, -0.000000000000000000, 0.8660254037844385966 ) ) ;
#644 = VERTEX_POINT ( 'NONE', #462 ) ;
#645 = ORIENTED_EDGE ( 'NONE', *, *, #696, .T. ) ;
#646 = PLANE ( 'NONE',  #420 ) ;
#647 = EDGE_CURVE ( 'NONE', #53, #258, #871, .T. ) ;
#648 = LINE ( 'NONE', #248, #763 ) ;
#649 = CIRCLE ( 'NONE', #581, 1.000000000000000000 ) ;
#650 = VERTEX_POINT ( 'NONE', #616 ) ;
#651 = VERTEX_POINT ( 'NONE', #230 ) ;
#652 = ADVANCED_FACE ( 'NONE', ( #826 ), #221, .F. ) ;
#653 = DIRECTION ( 'NONE',  ( 0.000000000000000000, 0.000000000000000000, -1.000000000000000000 ) ) ;
#654 = AXIS2_PLACEMENT_3D ( 'NONE', #415, #798, #330 ) ;
#655 = DIRECTION ( 'NONE',  ( -0.000000000000000000, 1.000000000000000000, -0.000000000000000000 ) ) ;
#656 = AXIS2_PLACEMENT_3D ( 'NONE', #819, #833, #556 ) ;
#657 = DIRECTION ( 'NONE',  ( 0.000000000000000000, -1.000000000000000000, -0.000000000000000000 ) ) ;
#658 = EDGE_CURVE ( 'NONE', #640, #705, #707, .T. ) ;
#659 = ORIENTED_EDGE ( 'NONE', *, *, #810, .T. ) ;
#660 = PLANE ( 'NONE',  #286 ) ;
#661 = AXIS2_PLACEMENT_3D ( 'NONE', #433, #758, #486 ) ;
#662 = ORIENTED_EDGE ( 'NONE', *, *, #227, .F. ) ;
#663 = VERTEX_POINT ( 'NONE', #563 ) ;
#664 = DIRECTION ( 'NONE',  ( -0.000000000000000000, -1.000000000000000000, -0.000000000000000000 ) ) ;
#665 = EDGE_CURVE ( 'NONE', #714, #391, #212, .T. ) ;
#666 = CARTESIAN_POINT ( 'NONE',  ( 0.000000000000000000, 5.950000000000000178, -1.000000000000000000 ) ) ;
#667 = ORIENTED_EDGE ( 'NONE', *, *, #647, .T. ) ;
#668 = CARTESIAN_POINT ( 'NONE',  ( -1.022554857047463628, -4.800000000000001599, 0.07075707970684926018 ) ) ;
#669 = AXIS2_PLACEMENT_3D ( 'NONE', #201, #811, #602 ) ;
#670 = CARTESIAN_POINT ( 'NONE',  ( -0.9959292143521042417, 0.000000000000000000, -1.724999999999999645 ) ) ;
#671 = ORIENTED_EDGE ( 'NONE', *, *, #140, .T. ) ;
#672 = FACE_OUTER_BOUND ( 'NONE', #36, .T. ) ;
#673 = DIRECTION ( 'NONE',  ( 0.8660254037844385966, 0.000000000000000000, -0.5000000000000001110 ) ) ;
#674 = ORIENTED_EDGE ( 'NONE', *, *, #611, .F. ) ;
#675 = LINE ( 'NONE', #398, #270 ) ;
#676 = DIRECTION ( 'NONE',  ( 0.000000000000000000, 0.000000000000000000, 1.000000000000000000 ) ) ;
#677 = ORIENTED_EDGE ( 'NONE', *, *, #256, .F. ) ;
#678 = LINE ( 'NONE', #681, #585 ) ;
#679 = CARTESIAN_POINT ( 'NONE',  ( 0.000000000000000000, 0.8000000000000000444, -1.000000000000000000 ) ) ;
#680 = ORIENTED_EDGE ( 'NONE', *, *, #250, .F. ) ;
#681 = CARTESIAN_POINT ( 'NONE',  ( -1.268893821528157329, -3.899999999999999911, 1.252211431702997535 ) ) ;
#682 = LINE ( 'NONE', #334, #848 ) ;
#683 = CIRCLE ( 'NONE', #459, 1.575000000000000178 ) ;
#684 = EDGE_CURVE ( 'NONE', #211, #520, #389, .T. ) ;
#685 = ORIENTED_EDGE ( 'NONE', *, *, #126, .F. ) ;
#686 = AXIS2_PLACEMENT_3D ( 'NONE', #722, #114, #451 ) ;
#687 = EDGE_LOOP ( 'NONE', ( #667, #71, #6, #104, #417 ) ) ;
#688 = DIRECTION ( 'NONE',  ( -1.000000000000000000, 0.000000000000000000, 0.000000000000000000 ) ) ;
#689 = ADVANCED_FACE ( 'NONE', ( #163 ), #703, .T. ) ;
#690 = CARTESIAN_POINT ( 'NONE',  ( 1.718893821528157506, -3.899999999999999911, -0.4727885682970036640 ) ) ;
#691 = AXIS2_PLACEMENT_3D ( 'NONE', #719, #111, #860 ) ;
#692 = VECTOR ( 'NONE', #452, 1000.000000000000000 ) ;
#693 = VERTEX_POINT ( 'NONE', #169 ) ;
#694 = CARTESIAN_POINT ( 'NONE',  ( 0.000000000000000000, 0.000000000000000000, 0.000000000000000000 ) ) ;
#695 = DIRECTION ( 'NONE',  ( -0.000000000000000000, -1.000000000000000000, -0.000000000000000000 ) ) ;
#696 = EDGE_CURVE ( 'NONE', #650, #816, #82, .T. ) ;
#697 = VECTOR ( 'NONE', #655, 1000.000000000000000 ) ;
#698 = CIRCLE ( 'NONE', #427, 1.575000000000000178 ) ;
#699 = EDGE_LOOP ( 'NONE', ( #185, #269, #864, #566, #636 ) ) ;
#700 = DIRECTION ( 'NONE',  ( 0.000000000000000000, 0.000000000000000000, 1.000000000000000000 ) ) ;
#701 = LINE ( 'NONE', #164, #5 ) ;
#702 = EDGE_CURVE ( 'NONE', #663, #323, #25, .T. ) ;
#703 = PLANE ( 'NONE',  #734 ) ;
#704 = DIRECTION ( 'NONE',  ( 0.000000000000000000, 0.000000000000000000, 1.000000000000000000 ) ) ;
#705 = VERTEX_POINT ( 'NONE', #493 ) ;
#706 = VERTEX_POINT ( 'NONE', #489 ) ;
#707 = LINE ( 'NONE', #357, #46 ) ;
#708 = DIRECTION ( 'NONE',  ( -0.000000000000000000, 1.000000000000000000, -0.000000000000000000 ) ) ;
#709 = ORIENTED_EDGE ( 'NONE', *, *, #720, .T. ) ;
#710 = EDGE_LOOP ( 'NONE', ( #537, #749, #797, #128, #803, #137, #132, #671 ) ) ;
#711 = DIRECTION ( 'NONE',  ( 0.5000000000000002220, 0.000000000000000000, -0.8660254037844384856 ) ) ;
#712 = ORIENTED_EDGE ( 'NONE', *, *, #404, .T. ) ;
#713 = ADVANCED_FACE ( 'NONE', ( #553 ), #96, .T. ) ;
#714 = VERTEX_POINT ( 'NONE', #20 ) ;
#715 = CARTESIAN_POINT ( 'NONE',  ( -1.268893821528157329, -4.799999999999999822, 1.252211431702997535 ) ) ;
#716 = STYLED_ITEM ( 'NONE', ( #855 ), #56 ) ;
#717 = EDGE_CURVE ( 'NONE', #106, #176, #683, .T. ) ;
#718 = CARTESIAN_POINT ( 'NONE',  ( -1.718893821528156840, -3.899999999999999911, 0.4727885682970029979 ) ) ;
#719 = CARTESIAN_POINT ( 'NONE',  ( 0.9959292143521044638, -4.799999999999999822, 1.725000000000000311 ) ) ;
#720 = EDGE_CURVE ( 'NONE', #116, #693, #353, .T. ) ;
#721 = ORIENTED_EDGE ( 'NONE', *, *, #658, .T. ) ;
#722 = CARTESIAN_POINT ( 'NONE',  ( -1.268893821528157329, -3.899999999999999911, 1.252211431702997535 ) ) ;
#723 = LINE ( 'NONE', #586, #42 ) ;
#724 = VECTOR ( 'NONE', #570, 1000.000000000000000 ) ;
#725 = EDGE_CURVE ( 'NONE', #650, #397, #498, .T. ) ;
#726 = EDGE_LOOP ( 'NONE', ( #233, #386, #327, #571 ) ) ;
#727 = DIRECTION ( 'NONE',  ( 0.000000000000000000, 0.000000000000000000, -1.000000000000000000 ) ) ;
#728 = AXIS2_PLACEMENT_3D ( 'NONE', #63, #331, #603 ) ;
#729 = SURFACE_SIDE_STYLE ('',( #194 ) ) ;
#730 = ADVANCED_FACE ( 'NONE', ( #828 ), #302, .F. ) ;
#731 = ORIENTED_EDGE ( 'NONE', *, *, #851, .F. ) ;
#732 = CARTESIAN_POINT ( 'NONE',  ( 0.000000000000000000, 0.000000000000000000, 0.000000000000000000 ) ) ;
#733 = DIRECTION ( 'NONE',  ( 0.000000000000000000, 0.000000000000000000, -1.000000000000000000 ) ) ;
#734 = AXIS2_PLACEMENT_3D ( 'NONE', #296, #428, #568 ) ;
#735 = LINE ( 'NONE', #314, #839 ) ;
#736 = EDGE_LOOP ( 'NONE', ( #834, #512, #868, #786 ) ) ;
#737 = DIRECTION ( 'NONE',  ( -0.000000000000000000, 1.000000000000000000, -0.000000000000000000 ) ) ;
#738 = CARTESIAN_POINT ( 'NONE',  ( 0.9959292143521050189, -4.799999999999999822, -1.724999999999999645 ) ) ;
#739 = AXIS2_PLACEMENT_3D ( 'NONE', #102, #365, #237 ) ;
#740 = ORIENTED_EDGE ( 'NONE', *, *, #155, .T. ) ;
#741 = PRODUCT_DEFINITION_CONTEXT ( 'detailed design', #607, 'design' ) ;
#742 = CYLINDRICAL_SURFACE ( 'NONE', #654, 1.000000000000000000 ) ;
#743 = AXIS2_PLACEMENT_3D ( 'NONE', #539, #550, #281 ) ;
#744 = DIRECTION ( 'NONE',  ( 0.8660254037844385966, 0.000000000000000000, -0.5000000000000001110 ) ) ;
#745 = VERTEX_POINT ( 'NONE', #101 ) ;
#746 = LINE ( 'NONE', #347, #850 ) ;
#747 = CARTESIAN_POINT ( 'NONE',  ( -0.5725548570474636723, -4.800000000000001599, 0.8501799431128438389 ) ) ;
#748 = PRODUCT_RELATED_PRODUCT_CATEGORY ( 'part', '', ( #215 ) ) ;
#749 = ORIENTED_EDGE ( 'NONE', *, *, #72, .F. ) ;
#750 = DIRECTION ( 'NONE',  ( -0.000000000000000000, 1.000000000000000000, -0.000000000000000000 ) ) ;
#751 = CARTESIAN_POINT ( 'NONE',  ( -1.268893821528157329, -3.899999999999999911, 1.252211431702997535 ) ) ;
#752 = ORIENTED_EDGE ( 'NONE', *, *, #129, .T. ) ;
#753 = CARTESIAN_POINT ( 'NONE',  ( 0.9959292143521050189, 0.000000000000000000, -1.724999999999999645 ) ) ;
#754 = CARTESIAN_POINT ( 'NONE',  ( 0.000000000000000000, -4.574999999999999289, 0.000000000000000000 ) ) ;
#755 = EDGE_LOOP ( 'NONE', ( #171, #180 ) ) ;
#756 = PRODUCT_DEFINITION_SHAPE ( 'NONE', 'NONE',  #26 ) ;
#757 = ORIENTED_EDGE ( 'NONE', *, *, #126, .T. ) ;
#758 = DIRECTION ( 'NONE',  ( -0.000000000000000000, -1.000000000000000000, -0.000000000000000000 ) ) ;
#759 = DIRECTION ( 'NONE',  ( -0.000000000000000000, -1.000000000000000000, -0.000000000000000000 ) ) ;
#760 = AXIS2_PLACEMENT_3D ( 'NONE', #242, #187, #376 ) ;
#761 = CARTESIAN_POINT ( 'NONE',  ( 0.9959292143521050189, -4.799999999999999822, -1.724999999999999645 ) ) ;
#762 = DIRECTION ( 'NONE',  ( 0.000000000000000000, -1.000000000000000000, 0.000000000000000000 ) ) ;
#763 = VECTOR ( 'NONE', #307, 1000.000000000000000 ) ;
#764 = DIRECTION ( 'NONE',  ( -0.000000000000000000, -1.000000000000000000, -0.000000000000000000 ) ) ;
#765 = CARTESIAN_POINT ( 'NONE',  ( 9.797174393178748497E-17, -4.799999999999999822, 0.7999999999999937161 ) ) ;
#766 = EDGE_CURVE ( 'NONE', #75, #106, #34, .T. ) ;
#767 = VECTOR ( 'NONE', #673, 1000.000000000000114 ) ;
#768 = DIRECTION ( 'NONE',  ( -0.000000000000000000, 1.000000000000000000, -0.000000000000000000 ) ) ;
#769 = PLANE ( 'NONE',  #196 ) ;
#770 = ORIENTED_EDGE ( 'NONE', *, *, #766, .T. ) ;
#771 = AXIS2_PLACEMENT_3D ( 'NONE', #225, #291, #424 ) ;
#772 = ORIENTED_EDGE ( 'NONE', *, *, #184, .T. ) ;
#773 = DIRECTION ( 'NONE',  ( 0.5000000000000001110, 0.000000000000000000, 0.8660254037844385966 ) ) ;
#774 = DIRECTION ( 'NONE',  ( 1.049727191138608342E-16, -0.5150380749100680333, 0.8571673007021040069 ) ) ;
#775 = ORIENTED_EDGE ( 'NONE', *, *, #814, .F. ) ;
#776 = ORIENTED_EDGE ( 'NONE', *, *, #647, .F. ) ;
#777 = DIRECTION ( 'NONE',  ( 0.000000000000000000, 0.000000000000000000, -1.000000000000000000 ) ) ;
#778 = EDGE_LOOP ( 'NONE', ( #368, #195, #410 ) ) ;
#779 = EDGE_CURVE ( 'NONE', #295, #120, #429, .T. ) ;
#780 = VECTOR ( 'NONE', #750, 1000.000000000000000 ) ;
#781 = ADVANCED_FACE ( 'NONE', ( #158 ), #165, .F. ) ;
#782 = ORIENTED_EDGE ( 'NONE', *, *, #545, .T. ) ;
#783 = FACE_OUTER_BOUND ( 'NONE', #479, .T. ) ;
#784 = DIRECTION ( 'NONE',  ( -0.000000000000000000, -1.000000000000000000, -0.000000000000000000 ) ) ;
#785 = DIRECTION ( 'NONE',  ( 0.000000000000000000, 0.000000000000000000, -1.000000000000000000 ) ) ;
#786 = ORIENTED_EDGE ( 'NONE', *, *, #872, .T. ) ;
#787 = CARTESIAN_POINT ( 'NONE',  ( -1.268893821528157329, -3.899999999999999911, 1.252211431702997535 ) ) ;
#788 = EDGE_CURVE ( 'NONE', #406, #239, #419, .T. ) ;
#789 = CARTESIAN_POINT ( 'NONE',  ( 0.000000000000000000, -3.899999999999999911, 0.000000000000000000 ) ) ;
#790 = SURFACE_STYLE_USAGE ( .BOTH. , #729 ) ;
#791 = ORIENTED_EDGE ( 'NONE', *, *, #274, .T. ) ;
#792 = CARTESIAN_POINT ( 'NONE',  ( 1.991858428704209816, 0.000000000000000000, 4.777135130773494335E-16 ) ) ;
#793 = DIRECTION ( 'NONE',  ( -0.000000000000000000, -1.000000000000000000, -0.000000000000000000 ) ) ;
#794 = ORIENTED_EDGE ( 'NONE', *, *, #766, .F. ) ;
#795 = DIRECTION ( 'NONE',  ( -0.000000000000000000, -1.000000000000000000, -0.000000000000000000 ) ) ;
#796 =( LENGTH_UNIT ( ) NAMED_UNIT ( * ) SI_UNIT ( .MILLI., .METRE. ) );
#797 = ORIENTED_EDGE ( 'NONE', *, *, #161, .T. ) ;
#798 = DIRECTION ( 'NONE',  ( -0.000000000000000000, -1.000000000000000000, -0.000000000000000000 ) ) ;
#799 = AXIS2_PLACEMENT_3D ( 'NONE', #483, #631, #154 ) ;
#800 = PRESENTATION_LAYER_ASSIGNMENT (  '', '', ( #716 ) ) ;
#801 = DIRECTION ( 'NONE',  ( 0.000000000000000000, 0.000000000000000000, -1.000000000000000000 ) ) ;
#802 = CIRCLE ( 'NONE', #234, 0.7999999999999992673 ) ;
#803 = ORIENTED_EDGE ( 'NONE', *, *, #502, .F. ) ;
#804 = CARTESIAN_POINT ( 'NONE',  ( 0.000000000000000000, -4.800000000000001599, -1.024999999999999911 ) ) ;
#805 = DIRECTION ( 'NONE',  ( -0.8660254037844385966, -0.000000000000000000, 0.5000000000000001110 ) ) ;
#806 = CIRCLE ( 'NONE', #309, 1.575000000000000178 ) ;
#807 = CONICAL_SURFACE ( 'NONE', #739, 1.024999999999999911, 0.7853981633974449483 ) ;
#808 = EDGE_CURVE ( 'NONE', #496, #239, #830, .T. ) ;
#809 = ORIENTED_EDGE ( 'NONE', *, *, #216, .F. ) ;
#810 = EDGE_CURVE ( 'NONE', #258, #379, #547, .T. ) ;
#811 = DIRECTION ( 'NONE',  ( -0.5000000000000001110, 0.000000000000000000, -0.8660254037844385966 ) ) ;
#812 = VECTOR ( 'NONE', #533, 1000.000000000000114 ) ;
#813 = CARTESIAN_POINT ( 'NONE',  ( -0.9959292143521044638, -4.799999999999999822, 1.725000000000000311 ) ) ;
#814 = EDGE_CURVE ( 'NONE', #745, #344, #802, .T. ) ;
#815 = VECTOR ( 'NONE', #21, 1000.000000000000000 ) ;
#816 = VERTEX_POINT ( 'NONE', #380 ) ;
#817 = LINE ( 'NONE', #69, #89 ) ;
#818 = ADVANCED_FACE ( 'NONE', ( #123 ), #181, .F. ) ;
#819 = CARTESIAN_POINT ( 'NONE',  ( 0.000000000000000000, 0.8000000000000000444, 0.000000000000000000 ) ) ;
#820 = VECTOR ( 'NONE', #497, 1000.000000000000000 ) ;
#821 = ORIENTED_EDGE ( 'NONE', *, *, #779, .F. ) ;
#822 = LINE ( 'NONE', #271, #509 ) ;
#823 = DIRECTION ( 'NONE',  ( -0.000000000000000000, -1.000000000000000000, -0.000000000000000000 ) ) ;
#824 = EDGE_CURVE ( 'NONE', #253, #516, #500, .T. ) ;
#825 = VERTEX_POINT ( 'NONE', #715 ) ;
#826 = FACE_OUTER_BOUND ( 'NONE', #597, .T. ) ;
#827 = CARTESIAN_POINT ( 'NONE',  ( -1.268893821528157329, -3.899999999999999911, 1.252211431702997535 ) ) ;
#828 = FACE_OUTER_BOUND ( 'NONE', #1, .T. ) ;
#829 = FACE_OUTER_BOUND ( 'NONE', #217, .T. ) ;
#830 = LINE ( 'NONE', #312, #122 ) ;
#831 = CARTESIAN_POINT ( 'NONE',  ( 9.797174393178713984E-17, 1.199999999999991962, 0.7999999999999882760 ) ) ;
#832 = DIRECTION ( 'NONE',  ( -0.5000000000000001110, 0.000000000000000000, -0.8660254037844385966 ) ) ;
#833 = DIRECTION ( 'NONE',  ( 0.000000000000000000, 1.000000000000000000, 0.000000000000000000 ) ) ;
#834 = ORIENTED_EDGE ( 'NONE', *, *, #684, .F. ) ;
#835 = AXIS2_PLACEMENT_3D ( 'NONE', #416, #744, #613 ) ;
#836 = CARTESIAN_POINT ( 'NONE',  ( 0.9959292143521044638, 0.000000000000000000, 1.725000000000000311 ) ) ;
#837 = LINE ( 'NONE', #231, #466 ) ;
#838 = ORIENTED_EDGE ( 'NONE', *, *, #282, .T. ) ;
#839 = VECTOR ( 'NONE', #52, 1000.000000000000114 ) ;
#840 = ORIENTED_EDGE ( 'NONE', *, *, #474, .T. ) ;
#841 = AXIS2_PLACEMENT_3D ( 'NONE', #732, #392, #504 ) ;
#842 = CARTESIAN_POINT ( 'NONE',  ( 0.000000000000000000, -4.574999999999999289, 0.000000000000000000 ) ) ;
#843 = ADVANCED_FACE ( 'NONE', ( #240 ), #646, .F. ) ;
#844 = FACE_OUTER_BOUND ( 'NONE', #363, .T. ) ;
#845 = VERTEX_POINT ( 'NONE', #247 ) ;
#846 = ADVANCED_FACE ( 'NONE', ( #783 ), #236, .T. ) ;
#847 = ORIENTED_EDGE ( 'NONE', *, *, #717, .T. ) ;
#848 = VECTOR ( 'NONE', #823, 1000.000000000000000 ) ;
#849 = LINE ( 'NONE', #666, #200 ) ;
#850 = VECTOR ( 'NONE', #3, 1000.000000000000114 ) ;
#851 = EDGE_CURVE ( 'NONE', #53, #131, #390, .T. ) ;
#852 = VERTEX_POINT ( 'NONE', #177 ) ;
#853 = CARTESIAN_POINT ( 'NONE',  ( 0.8742979890255350162, -4.648011913185858823, 0.01483906295482146850 ) ) ;
#854 = CARTESIAN_POINT ( 'NONE',  ( -0.4243198354392765381, -4.648032770028490468, 0.7645964134840268489 ) ) ;
#855 = PRESENTATION_STYLE_ASSIGNMENT (( #790 ) ) ;
#856 = ORIENTED_EDGE ( 'NONE', *, *, #62, .F. ) ;
#857 = DIRECTION ( 'NONE',  ( -1.088633767200839799E-16, 0.000000000000000000, 1.000000000000000000 ) ) ;
#858 = DIRECTION ( 'NONE',  ( 0.000000000000000000, 1.000000000000000000, 0.000000000000000000 ) ) ;
#859 = EDGE_CURVE ( 'NONE', #295, #651, #381, .T. ) ;
#860 = DIRECTION ( 'NONE',  ( -1.000000000000000000, 0.000000000000000000, 0.000000000000000000 ) ) ;
#861 = ORIENTED_EDGE ( 'NONE', *, *, #630, .T. ) ;
#862 = CARTESIAN_POINT ( 'NONE',  ( 0.000000000000000000, -4.800000000000001599, 0.000000000000000000 ) ) ;
#863 = FACE_OUTER_BOUND ( 'NONE', #710, .T. ) ;
#864 = ORIENTED_EDGE ( 'NONE', *, *, #492, .T. ) ;
#865 = ORIENTED_EDGE ( 'NONE', *, *, #599, .F. ) ;
#866 = DIRECTION ( 'NONE',  ( 0.000000000000000000, 0.000000000000000000, 1.000000000000000000 ) ) ;
#867 = FACE_OUTER_BOUND ( 'NONE', #98, .T. ) ;
#868 = ORIENTED_EDGE ( 'NONE', *, *, #409, .T. ) ;
#869 = CARTESIAN_POINT ( 'NONE',  ( -0.8742979890255350162, -4.648011913185857935, -0.01483906295482194382 ) ) ;
#870 = CARTESIAN_POINT ( 'NONE',  ( 0.000000000000000000, -4.799999999999999822, 0.000000000000000000 ) ) ;
#871 = B_SPLINE_CURVE_WITH_KNOTS ( 'NONE', 3,
 ( #668, #61, #869, #197 ),
 .UNSPECIFIED., .F., .F.,
 ( 4, 4 ),
 ( 0.002208020190600257573, 0.002551385808205632825 ),
 .UNSPECIFIED. ) ;
#872 = EDGE_CURVE ( 'NONE', #64, #520, #300, .T. ) ;
ENDSEC;
END-ISO-10303-21;
