ISO-10303-21;
HEADER;
FILE_DESCRIPTION (( 'STEP AP214' ),
    '1' );
FILE_NAME ('V1_74-100Pin.step',
    '2026-09-23T13:31:27',
    ( '' ),
    ( '' ),
    'SwSTEP 2.0',
    'SolidWorks 2025',
    '' );
FILE_SCHEMA (( 'AUTOMOTIVE_DESIGN' ));
ENDSEC;

DATA;
#1 = CARTESIAN_POINT ( 'NONE',  ( 3.367778697655221998E-16, -7.368788530925554963E-16, 4.050000000000010481 ) ) ;
#2 = CARTESIAN_POINT ( 'NONE',  ( -2.100000000000000089, -1.004210375300829674E-15, 9.699999999999999289 ) ) ;
#3 = EDGE_CURVE ( 'NONE', #63, #247, #426, .T. ) ;
#4 = CARTESIAN_POINT ( 'NONE',  ( 2.100000000000000089, 1.500000000000000444, -7.027636700751065934E-16 ) ) ;
#5 = EDGE_CURVE ( 'NONE', #311, #15, #139, .T. ) ;
#6 = CARTESIAN_POINT ( 'NONE',  ( 2.100000000000000089, 1.199999999999998845, 9.699999999999999289 ) ) ;
#7 = DIRECTION ( 'NONE',  ( 0.000000000000000000, 1.000000000000000000, 1.277752127409284760E-16 ) ) ;
#8 = ORIENTED_EDGE ( 'NONE', *, *, #108, .T. ) ;
#9 = VECTOR ( 'NONE', #10, 1000.000000000000000 ) ;
#10 = DIRECTION ( 'NONE',  ( 0.000000000000000000, -1.000000000000000000, -1.277752127409284760E-16 ) ) ;
#11 = ORIENTED_EDGE ( 'NONE', *, *, #191, .T. ) ;
#12 = CARTESIAN_POINT ( 'NONE',  ( 2.100000000000000089, -3.935484080939213199E-18, 1.499999999999999112 ) ) ;
#13 = ORIENTED_EDGE ( 'NONE', *, *, #5, .T. ) ;
#14 = CARTESIAN_POINT ( 'NONE',  ( -2.100000000000000089, 7.000000000000000000, 0.000000000000000000 ) ) ;
#15 = VERTEX_POINT ( 'NONE', #32 ) ;
#16 = ORIENTED_EDGE ( 'NONE', *, *, #5, .F. ) ;
#17 = EDGE_CURVE ( 'NONE', #123, #283, #405, .T. ) ;
#18 = FACE_OUTER_BOUND ( 'NONE', #390, .T. ) ;
#19 = VECTOR ( 'NONE', #26, 1000.000000000000000 ) ;
#20 = VERTEX_POINT ( 'NONE', #178 ) ;
#21 = CIRCLE ( 'NONE', #350, 1.149999999999999911 ) ;
#22 = EDGE_LOOP ( 'NONE', ( #244, #16, #375, #322 ) ) ;
#23 = EDGE_CURVE ( 'NONE', #311, #247, #141, .T. ) ;
#24 = CARTESIAN_POINT ( 'NONE',  ( 3.367778697655221998E-16, -7.368788530925554963E-16, 4.849999999999999645 ) ) ;
#25 = VERTEX_POINT ( 'NONE', #255 ) ;
#26 = DIRECTION ( 'NONE',  ( 0.000000000000000000, -1.219847428316939927E-16, 1.000000000000000000 ) ) ;
#27 = ORIENTED_EDGE ( 'NONE', *, *, #446, .F. ) ;
#28 = AXIS2_PLACEMENT_3D ( 'NONE', #112, #333, #369 ) ;
#29 = LINE ( 'NONE', #285, #290 ) ;
#30 = ORIENTED_EDGE ( 'NONE', *, *, #268, .F. ) ;
#31 = DIRECTION ( 'NONE',  ( 0.000000000000000000, 1.277752127409284760E-16, -1.000000000000000000 ) ) ;
#32 = CARTESIAN_POINT ( 'NONE',  ( -2.100000000000000089, 1.199999999999999956, 1.499999999999999778 ) ) ;
#33 = LINE ( 'NONE', #360, #109 ) ;
#34 = ADVANCED_FACE ( 'NONE', ( #212 ), #107, .F. ) ;
#35 = DIRECTION ( 'NONE',  ( -0.000000000000000000, 1.277752127409284760E-16, -1.000000000000000000 ) ) ;
#36 = DIRECTION ( 'NONE',  ( -1.000000000000000000, -0.000000000000000000, -0.000000000000000000 ) ) ;
#37 = AXIS2_PLACEMENT_3D ( 'NONE', #180, #277, #169 ) ;
#38 = DIRECTION ( 'NONE',  ( 0.000000000000000000, 0.000000000000000000, -1.000000000000000000 ) ) ;
#39 = EDGE_CURVE ( 'NONE', #158, #457, #29, .T. ) ;
#40 = DIRECTION ( 'NONE',  ( -0.000000000000000000, -1.000000000000000000, -0.000000000000000000 ) ) ;
#41 = EDGE_CURVE ( 'NONE', #25, #337, #102, .T. ) ;
#42 = CIRCLE ( 'NONE', #68, 0.3000000000000001554 ) ;
#43 = CARTESIAN_POINT ( 'NONE',  ( 2.100000000000000089, 7.000000000000000000, 0.000000000000000000 ) ) ;
#44 = AXIS2_PLACEMENT_3D ( 'NONE', #221, #76, #440 ) ;
#45 = VECTOR ( 'NONE', #299, 1000.000000000000000 ) ;
#46 = DIRECTION ( 'NONE',  ( 0.000000000000000000, -1.000000000000000000, -1.277752127409284760E-16 ) ) ;
#47 = ORIENTED_EDGE ( 'NONE', *, *, #364, .F. ) ;
#48 = PRODUCT_DEFINITION ( 'ๆ', '', #410, #469 ) ;
#49 = CARTESIAN_POINT ( 'NONE',  ( -2.100000000000000089, 7.000000000000000000, 1.199999999999999956 ) ) ;
#50 = ORIENTED_EDGE ( 'NONE', *, *, #59, .F. ) ;
#51 = VECTOR ( 'NONE', #301, 1000.000000000000000 ) ;
#52 = DIRECTION ( 'NONE',  ( 0.000000000000000000, 0.000000000000000000, 1.000000000000000000 ) ) ;
#53 = ORIENTED_EDGE ( 'NONE', *, *, #17, .F. ) ;
#54 = CARTESIAN_POINT ( 'NONE',  ( 2.100000000000000089, -1.004210375300829674E-15, 9.699999999999999289 ) ) ;
#55 = ORIENTED_EDGE ( 'NONE', *, *, #403, .F. ) ;
#56 = ADVANCED_FACE ( 'NONE', ( #71, #243 ), #144, .T. ) ;
#57 = ORIENTED_EDGE ( 'NONE', *, *, #3, .F. ) ;
#58 = VERTEX_POINT ( 'NONE', #216 ) ;
#59 = EDGE_CURVE ( 'NONE', #15, #58, #33, .T. ) ;
#60 = DIRECTION ( 'NONE',  ( 0.000000000000000000, 1.277752127409284760E-16, -1.000000000000000000 ) ) ;
#61 = VECTOR ( 'NONE', #357, 1000.000000000000000 ) ;
#62 = CARTESIAN_POINT ( 'NONE',  ( 2.100000000000000089, 1.199999999999999956, 1.499999999999999778 ) ) ;
#63 = VERTEX_POINT ( 'NONE', #171 ) ;
#64 = AXIS2_PLACEMENT_3D ( 'NONE', #292, #35, #184 ) ;
#65 = ORIENTED_EDGE ( 'NONE', *, *, #313, .T. ) ;
#66 = ORIENTED_EDGE ( 'NONE', *, *, #226, .T. ) ;
#67 = SURFACE_STYLE_USAGE ( .BOTH. , #289 ) ;
#68 = AXIS2_PLACEMENT_3D ( 'NONE', #463, #143, #134 ) ;
#69 = UNCERTAINTY_MEASURE_WITH_UNIT (LENGTH_MEASURE( 1.000000000000000082E-05 ), #316, 'distance_accuracy_value', 'NONE');
#70 = EDGE_CURVE ( 'NONE', #272, #349, #319, .T. ) ;
#71 = FACE_BOUND ( 'NONE', #309, .T. ) ;
#72 = FACE_OUTER_BOUND ( 'NONE', #326, .T. ) ;
#73 = CIRCLE ( 'NONE', #296, 0.7999999999999890532 ) ;
#74 = LINE ( 'NONE', #1, #376 ) ;
#75 = DIRECTION ( 'NONE',  ( -1.000000000000000000, -0.000000000000000000, -0.000000000000000000 ) ) ;
#76 = DIRECTION ( 'NONE',  ( -0.000000000000000000, -1.000000000000000000, -0.000000000000000000 ) ) ;
#77 = MANIFOLD_SOLID_BREP ( 'M2 \X2\87ba7eb95b54\X0\1', #436 ) ;
#78 = FACE_OUTER_BOUND ( 'NONE', #93, .T. ) ;
#79 = VECTOR ( 'NONE', #174, 1000.000000000000000 ) ;
#80 = AXIS2_PLACEMENT_3D ( 'NONE', #379, #192, #308 ) ;
#81 = CARTESIAN_POINT ( 'NONE',  ( 2.100000000000000089, 1.500000000000000000, 1.199999999999999289 ) ) ;
#82 = ORIENTED_EDGE ( 'NONE', *, *, #226, .F. ) ;
#83 = CIRCLE ( 'NONE', #44, 0.7999999999999899414 ) ;
#84 = DIRECTION ( 'NONE',  ( 0.000000000000000000, 1.000000000000000000, 1.277752127409284760E-16 ) ) ;
#85 = ORIENTED_EDGE ( 'NONE', *, *, #108, .F. ) ;
#86 = CYLINDRICAL_SURFACE ( 'NONE', #228, 1.499999999999999778 ) ;
#87 = ORIENTED_EDGE ( 'NONE', *, *, #155, .T. ) ;
#88 = CIRCLE ( 'NONE', #151, 0.3000000000000001554 ) ;
#89 = CARTESIAN_POINT ( 'NONE',  ( -2.100000000000000089, 1.500000000000000000, 1.199999999999999289 ) ) ;
#90 = EDGE_CURVE ( 'NONE', #457, #58, #99, .T. ) ;
#91 = EDGE_LOOP ( 'NONE', ( #47, #55 ) ) ;
#92 = CARTESIAN_POINT ( 'NONE',  ( -2.326828918379972844E-16, 5.099999999999998757, 1.199999999999999289 ) ) ;
#93 = EDGE_LOOP ( 'NONE', ( #383, #387, #449, #286 ) ) ;
#94 = EDGE_CURVE ( 'NONE', #123, #20, #400, .T. ) ;
#95 = DIRECTION ( 'NONE',  ( 0.000000000000000000, 0.000000000000000000, 1.000000000000000000 ) ) ;
#96 = DIRECTION ( 'NONE',  ( 0.000000000000000000, 0.000000000000000000, -1.000000000000000000 ) ) ;
#97 = ORIENTED_EDGE ( 'NONE', *, *, #307, .F. ) ;
#98 =( NAMED_UNIT ( * ) SI_UNIT ( $, .STERADIAN. ) SOLID_ANGLE_UNIT ( ) );
#99 = LINE ( 'NONE', #2, #438 ) ;
#100 = ORIENTED_EDGE ( 'NONE', *, *, #41, .T. ) ;
#101 = DIRECTION ( 'NONE',  ( 0.000000000000000000, -0.000000000000000000, 1.000000000000000000 ) ) ;
#102 = LINE ( 'NONE', #282, #79 ) ;
#103 = ORIENTED_EDGE ( 'NONE', *, *, #241, .T. ) ;
#104 = CARTESIAN_POINT ( 'NONE',  ( -2.100000000000000089, -1.004210375300829674E-15, 9.699999999999999289 ) ) ;
#105 = DIRECTION ( 'NONE',  ( 0.000000000000000000, -1.000000000000000000, -1.219847428316940174E-16 ) ) ;
#106 = DIRECTION ( 'NONE',  ( -1.000000000000000000, 0.000000000000000000, 0.000000000000000000 ) ) ;
#107 = CYLINDRICAL_SURFACE ( 'NONE', #119, 0.7999999999999890532 ) ;
#108 = EDGE_CURVE ( 'NONE', #233, #267, #295, .T. ) ;
#109 = VECTOR ( 'NONE', #181, 1000.000000000000000 ) ;
#110 = CARTESIAN_POINT ( 'NONE',  ( -2.326828918379972844E-16, 6.249999999999998224, 4.452691193458118590 ) ) ;
#111 = EDGE_CURVE ( 'NONE', #20, #342, #83, .T. ) ;
#112 = CARTESIAN_POINT ( 'NONE',  ( 3.367778697655221998E-16, -2.194208544077902537E-15, 4.849999999999999645 ) ) ;
#113 = VECTOR ( 'NONE', #377, 1000.000000000000000 ) ;
#114 = DIRECTION ( 'NONE',  ( -0.000000000000000000, -1.000000000000000000, -0.000000000000000000 ) ) ;
#115 = DIRECTION ( 'NONE',  ( 0.000000000000000000, 1.219847428316940174E-16, -1.000000000000000000 ) ) ;
#116 = CARTESIAN_POINT ( 'NONE',  ( 2.100000000000000089, 0.000000000000000000, 1.499999999999999556 ) ) ;
#117 = DIRECTION ( 'NONE',  ( 0.000000000000000000, -1.000000000000000000, -1.277752127409284760E-16 ) ) ;
#118 = EDGE_LOOP ( 'NONE', ( #238, #85, #200, #459 ) ) ;
#119 = AXIS2_PLACEMENT_3D ( 'NONE', #24, #135, #362 ) ;
#120 = DIRECTION ( 'NONE',  ( 0.000000000000000000, 1.277752127409284760E-16, -1.000000000000000000 ) ) ;
#121 = ORIENTED_EDGE ( 'NONE', *, *, #275, .T. ) ;
#122 = LINE ( 'NONE', #196, #213 ) ;
#123 = VERTEX_POINT ( 'NONE', #471 ) ;
#124 = ADVANCED_FACE ( 'NONE', ( #78 ), #365, .F. ) ;
#125 = CARTESIAN_POINT ( 'NONE',  ( 2.100000000000000089, 1.199999999999999956, 1.499999999999999778 ) ) ;
#126 = ORIENTED_EDGE ( 'NONE', *, *, #17, .T. ) ;
#127 = COLOUR_RGB ( '',1.000000000000000000, 1.000000000000000000, 1.000000000000000000 ) ;
#128 = AXIS2_PLACEMENT_3D ( 'NONE', #320, #245, #177 ) ;
#129 = EDGE_CURVE ( 'NONE', #203, #306, #225, .T. ) ;
#130 = DIRECTION ( 'NONE',  ( 0.000000000000000000, 0.000000000000000000, -1.000000000000000000 ) ) ;
#131 = ORIENTED_EDGE ( 'NONE', *, *, #241, .F. ) ;
#132 = DIRECTION ( 'NONE',  ( 1.000000000000000000, 0.000000000000000000, -0.000000000000000000 ) ) ;
#133 = ORIENTED_EDGE ( 'NONE', *, *, #204, .F. ) ;
#134 = DIRECTION ( 'NONE',  ( 0.000000000000000000, 0.000000000000000000, -1.000000000000000000 ) ) ;
#135 = DIRECTION ( 'NONE',  ( -0.000000000000000000, -1.000000000000000000, -0.000000000000000000 ) ) ;
#136 = AXIS2_PLACEMENT_3D ( 'NONE', #262, #149, #294 ) ;
#137 = ORIENTED_EDGE ( 'NONE', *, *, #94, .T. ) ;
#138 = DIRECTION ( 'NONE',  ( -0.000000000000000000, -1.277752127409284760E-16, 1.000000000000000000 ) ) ;
#139 = LINE ( 'NONE', #62, #61 ) ;
#140 = DIRECTION ( 'NONE',  ( 0.000000000000000000, 1.000000000000000000, 1.277752127409284760E-16 ) ) ;
#141 = LINE ( 'NONE', #432, #19 ) ;
#142 = EDGE_CURVE ( 'NONE', #451, #202, #150, .T. ) ;
#143 = DIRECTION ( 'NONE',  ( -1.000000000000000000, -0.000000000000000000, -0.000000000000000000 ) ) ;
#144 = PLANE ( 'NONE',  #206 ) ;
#145 = PRODUCT_DEFINITION_SHAPE ( 'NONE', 'NONE',  #48 ) ;
#146 = ADVANCED_FACE ( 'NONE', ( #470 ), #147, .F. ) ;
#147 = PLANE ( 'NONE',  #372 ) ;
#148 = AXIS2_PLACEMENT_3D ( 'NONE', #325, #106, #95 ) ;
#149 = DIRECTION ( 'NONE',  ( -0.000000000000000000, 1.277752127409284760E-16, -1.000000000000000000 ) ) ;
#150 = LINE ( 'NONE', #110, #45 ) ;
#151 = AXIS2_PLACEMENT_3D ( 'NONE', #264, #341, #130 ) ;
#152 = DIRECTION ( 'NONE',  ( 0.000000000000000000, 0.000000000000000000, -1.000000000000000000 ) ) ;
#153 = AXIS2_PLACEMENT_3D ( 'NONE', #381, #31, #140 ) ;
#154 = DIRECTION ( 'NONE',  ( 0.000000000000000000, 0.000000000000000000, 1.000000000000000000 ) ) ;
#155 = EDGE_CURVE ( 'NONE', #283, #123, #73, .T. ) ;
#156 = CARTESIAN_POINT ( 'NONE',  ( -2.100000000000000089, 7.000000000000000000, 0.000000000000000000 ) ) ;
#157 = CARTESIAN_POINT ( 'NONE',  ( 3.367778697655221998E-16, 1.199999999999999512, 4.050000000000010481 ) ) ;
#158 = VERTEX_POINT ( 'NONE', #367 ) ;
#159 = LINE ( 'NONE', #49, #51 ) ;
#160 = ORIENTED_EDGE ( 'NONE', *, *, #155, .F. ) ;
#161 = FACE_OUTER_BOUND ( 'NONE', #118, .T. ) ;
#162 = ORIENTED_EDGE ( 'NONE', *, *, #229, .T. ) ;
#163 = CARTESIAN_POINT ( 'NONE',  ( -9.184850993605169392E-17, 3.949999999999999734, 5.047120903266673890E-16 ) ) ;
#164 = ORIENTED_EDGE ( 'NONE', *, *, #434, .T. ) ;
#165 = ORIENTED_EDGE ( 'NONE', *, *, #256, .T. ) ;
#166 = CIRCLE ( 'NONE', #128, 1.500000000000000000 ) ;
#167 = ORIENTED_EDGE ( 'NONE', *, *, #94, .F. ) ;
#168 = ORIENTED_EDGE ( 'NONE', *, *, #229, .F. ) ;
#169 = DIRECTION ( 'NONE',  ( 1.000000000000000000, 0.000000000000000000, 0.000000000000000000 ) ) ;
#170 = VECTOR ( 'NONE', #75, 1000.000000000000000 ) ;
#171 = CARTESIAN_POINT ( 'NONE',  ( 2.100000000000000089, -1.004210375300829674E-15, 9.699999999999999289 ) ) ;
#172 = ORIENTED_EDGE ( 'NONE', *, *, #70, .F. ) ;
#173 = FACE_OUTER_BOUND ( 'NONE', #378, .T. ) ;
#174 = DIRECTION ( 'NONE',  ( -1.000000000000000000, -0.000000000000000000, -0.000000000000000000 ) ) ;
#175 = AXIS2_PLACEMENT_3D ( 'NONE', #339, #336, #7 ) ;
#176 = ORIENTED_EDGE ( 'NONE', *, *, #191, .F. ) ;
#177 = DIRECTION ( 'NONE',  ( 0.000000000000000000, 0.000000000000000000, -1.000000000000000000 ) ) ;
#178 = CARTESIAN_POINT ( 'NONE',  ( 4.347496136973092040E-16, -2.194208544077902537E-15, 5.649999999999988809 ) ) ;
#179 = ADVANCED_FACE ( 'NONE', ( #257, #72 ), #227, .F. ) ;
#180 = CARTESIAN_POINT ( 'NONE',  ( 0.000000000000000000, 0.000000000000000000, 0.000000000000000000 ) ) ;
#181 = DIRECTION ( 'NONE',  ( 0.000000000000000000, -1.219847428316939927E-16, 1.000000000000000000 ) ) ;
#182 = ADVANCED_BREP_SHAPE_REPRESENTATION ( 'V1_74-100Pin', ( #77, #37 ), #190 ) ;
#183 = ADVANCED_FACE ( 'NONE', ( #332 ), #187, .F. ) ;
#184 = DIRECTION ( 'NONE',  ( 0.000000000000000000, 1.000000000000000000, 0.000000000000000000 ) ) ;
#185 = DIRECTION ( 'NONE',  ( 0.000000000000000000, -1.000000000000000000, -1.219847428316940174E-16 ) ) ;
#186 = FACE_OUTER_BOUND ( 'NONE', #280, .T. ) ;
#187 = CYLINDRICAL_SURFACE ( 'NONE', #136, 1.149999999999999911 ) ;
#188 = DIRECTION ( 'NONE',  ( 0.000000000000000000, 1.000000000000000000, 0.000000000000000000 ) ) ;
#189 = VECTOR ( 'NONE', #208, 1000.000000000000000 ) ;
#190 =( GEOMETRIC_REPRESENTATION_CONTEXT ( 3 ) GLOBAL_UNCERTAINTY_ASSIGNED_CONTEXT ( ( #220 ) ) GLOBAL_UNIT_ASSIGNED_CONTEXT ( ( #391, #355, #98 ) ) REPRESENTATION_CONTEXT ( 'NONE', 'WORKASPACE' ) );
#191 = EDGE_CURVE ( 'NONE', #342, #20, #259, .T. ) ;
#192 = DIRECTION ( 'NONE',  ( -1.000000000000000000, -0.000000000000000000, -0.000000000000000000 ) ) ;
#193 = ADVANCED_FACE ( 'NONE', ( #401 ), #443, .F. ) ;
#194 = FACE_OUTER_BOUND ( 'NONE', #453, .T. ) ;
#195 = ORIENTED_EDGE ( 'NONE', *, *, #361, .T. ) ;
#196 = CARTESIAN_POINT ( 'NONE',  ( 2.100000000000000089, 0.000000000000000000, 1.499999999999999556 ) ) ;
#197 = AXIS2_PLACEMENT_3D ( 'NONE', #441, #36, #154 ) ;
#198 = VERTEX_POINT ( 'NONE', #116 ) ;
#199 = CARTESIAN_POINT ( 'NONE',  ( 3.367778697655221998E-16, -2.194208544077902537E-15, 4.050000000000009592 ) ) ;
#200 = ORIENTED_EDGE ( 'NONE', *, *, #431, .T. ) ;
#201 = CARTESIAN_POINT ( 'NONE',  ( 2.100000000000000089, 1.500000000000000444, -7.027636700751065934E-16 ) ) ;
#202 = VERTEX_POINT ( 'NONE', #263 ) ;
#203 = VERTEX_POINT ( 'NONE', #258 ) ;
#204 = EDGE_CURVE ( 'NONE', #283, #342, #74, .T. ) ;
#205 = ORIENTED_EDGE ( 'NONE', *, *, #364, .T. ) ;
#206 = AXIS2_PLACEMENT_3D ( 'NONE', #246, #105, #249 ) ;
#207 = DIRECTION ( 'NONE',  ( 0.000000000000000000, 1.000000000000000000, 1.277752127409284760E-16 ) ) ;
#208 = DIRECTION ( 'NONE',  ( 0.000000000000000000, 1.000000000000000000, 0.000000000000000000 ) ) ;
#209 = CARTESIAN_POINT ( 'NONE',  ( -2.326828918379972844E-16, 5.099999999999999645, 6.516535849787351636E-16 ) ) ;
#210 = EDGE_LOOP ( 'NONE', ( #236, #97, #380, #66 ) ) ;
#211 = PLANE ( 'NONE',  #148 ) ;
#212 = FACE_OUTER_BOUND ( 'NONE', #455, .T. ) ;
#213 = VECTOR ( 'NONE', #269, 1000.000000000000000 ) ;
#214 = CARTESIAN_POINT ( 'NONE',  ( -2.326828918379972844E-16, 5.099999999999998757, 1.199999999999999289 ) ) ;
#215 = AXIS2_PLACEMENT_3D ( 'NONE', #359, #428, #101 ) ;
#216 = CARTESIAN_POINT ( 'NONE',  ( -2.100000000000000089, 1.199999999999998845, 9.699999999999999289 ) ) ;
#217 = ADVANCED_FACE ( 'NONE', ( #186 ), #331, .F. ) ;
#218 = ORIENTED_EDGE ( 'NONE', *, *, #343, .F. ) ;
#219 = PRODUCT ( 'V1_74-100Pin', 'V1_74-100Pin', '', ( #281 ) ) ;
#220 = UNCERTAINTY_MEASURE_WITH_UNIT (LENGTH_MEASURE( 1.000000000000000082E-05 ), #391, 'distance_accuracy_value', 'NONE');
#221 = CARTESIAN_POINT ( 'NONE',  ( 3.367778697655221998E-16, -2.194208544077902537E-15, 4.849999999999999645 ) ) ;
#222 = AXIS2_PLACEMENT_3D ( 'NONE', #402, #114, #152 ) ;
#223 = CARTESIAN_POINT ( 'NONE',  ( 2.100000000000000089, 1.500000000000000000, 1.499999999999999334 ) ) ;
#224 = CARTESIAN_POINT ( 'NONE',  ( 3.367778697655221998E-16, 1.199999999999999512, 4.849999999999999645 ) ) ;
#225 = LINE ( 'NONE', #297, #439 ) ;
#226 = EDGE_CURVE ( 'NONE', #63, #457, #260, .T. ) ;
#227 = PLANE ( 'NONE',  #338 ) ;
#228 = AXIS2_PLACEMENT_3D ( 'NONE', #418, #234, #52 ) ;
#229 = EDGE_CURVE ( 'NONE', #203, #272, #230, .T. ) ;
#230 = LINE ( 'NONE', #300, #9 ) ;
#231 = ORIENTED_EDGE ( 'NONE', *, *, #129, .T. ) ;
#232 = PLANE ( 'NONE',  #175 ) ;
#233 = VERTEX_POINT ( 'NONE', #201 ) ;
#234 = DIRECTION ( 'NONE',  ( -1.000000000000000000, -0.000000000000000000, -0.000000000000000000 ) ) ;
#235 = VECTOR ( 'NONE', #454, 1000.000000000000000 ) ;
#236 = ORIENTED_EDGE ( 'NONE', *, *, #39, .F. ) ;
#237 = LINE ( 'NONE', #12, #273 ) ;
#238 = ORIENTED_EDGE ( 'NONE', *, *, #361, .F. ) ;
#239 = DIRECTION ( 'NONE',  ( -0.000000000000000000, -1.277752127409284760E-16, 1.000000000000000000 ) ) ;
#240 = ORIENTED_EDGE ( 'NONE', *, *, #23, .F. ) ;
#241 = EDGE_CURVE ( 'NONE', #25, #233, #445, .T. ) ;
#242 = FACE_OUTER_BOUND ( 'NONE', #427, .T. ) ;
#243 = FACE_OUTER_BOUND ( 'NONE', #210, .T. ) ;
#244 = ORIENTED_EDGE ( 'NONE', *, *, #268, .T. ) ;
#245 = DIRECTION ( 'NONE',  ( -1.000000000000000000, -0.000000000000000000, -0.000000000000000000 ) ) ;
#246 = CARTESIAN_POINT ( 'NONE',  ( 2.100000000000000089, -3.935484080939213199E-18, 1.499999999999999112 ) ) ;
#247 = VERTEX_POINT ( 'NONE', #6 ) ;
#248 = FACE_BOUND ( 'NONE', #265, .T. ) ;
#249 = DIRECTION ( 'NONE',  ( 0.000000000000000000, 1.219847428316940174E-16, -1.000000000000000000 ) ) ;
#250 = EDGE_LOOP ( 'NONE', ( #419, #82, #252, #411 ) ) ;
#251 = APPLICATION_PROTOCOL_DEFINITION ( 'draft international standard', 'automotive_design', 1998, #315 ) ;
#252 = ORIENTED_EDGE ( 'NONE', *, *, #3, .T. ) ;
#253 = VECTOR ( 'NONE', #324, 1000.000000000000000 ) ;
#254 = VECTOR ( 'NONE', #458, 1000.000000000000000 ) ;
#255 = CARTESIAN_POINT ( 'NONE',  ( 2.100000000000000089, 7.000000000000000000, 0.000000000000000000 ) ) ;
#256 = EDGE_CURVE ( 'NONE', #306, #349, #159, .T. ) ;
#257 = FACE_BOUND ( 'NONE', #430, .T. ) ;
#258 = CARTESIAN_POINT ( 'NONE',  ( 2.100000000000000089, 7.000000000000000000, 1.199999999999999956 ) ) ;
#259 = CIRCLE ( 'NONE', #28, 0.7999999999999899414 ) ;
#260 = LINE ( 'NONE', #54, #235 ) ;
#261 = EDGE_CURVE ( 'NONE', #337, #267, #266, .T. ) ;
#262 = CARTESIAN_POINT ( 'NONE',  ( -2.326828918379972844E-16, 5.099999999999998757, 4.452691193458118590 ) ) ;
#263 = CARTESIAN_POINT ( 'NONE',  ( -2.326828918379972844E-16, 6.249999999999999112, 7.985950796308029381E-16 ) ) ;
#264 = CARTESIAN_POINT ( 'NONE',  ( -2.100000000000000089, 1.500000000000000000, 1.499999999999999334 ) ) ;
#265 = EDGE_LOOP ( 'NONE', ( #394, #27 ) ) ;
#266 = LINE ( 'NONE', #156, #321 ) ;
#267 = VERTEX_POINT ( 'NONE', #448 ) ;
#268 = EDGE_CURVE ( 'NONE', #349, #15, #88, .T. ) ;
#269 = DIRECTION ( 'NONE',  ( -1.000000000000000000, -0.000000000000000000, -0.000000000000000000 ) ) ;
#270 = ORIENTED_EDGE ( 'NONE', *, *, #256, .F. ) ;
#271 = CARTESIAN_POINT ( 'NONE',  ( 2.100000000000000089, 1.199999999999998845, 9.699999999999999289 ) ) ;
#272 = VERTEX_POINT ( 'NONE', #81 ) ;
#273 = VECTOR ( 'NONE', #305, 1000.000000000000000 ) ;
#274 = CARTESIAN_POINT ( 'NONE',  ( -2.100000000000000089, 7.000000000000000000, 1.199999999999999956 ) ) ;
#275 = EDGE_CURVE ( 'NONE', #302, #352, #371, .T. ) ;
#276 = ORIENTED_EDGE ( 'NONE', *, *, #395, .F. ) ;
#277 = DIRECTION ( 'NONE',  ( 0.000000000000000000, 0.000000000000000000, 1.000000000000000000 ) ) ;
#278 = DIRECTION ( 'NONE',  ( 0.000000000000000000, -1.000000000000000000, -1.219847428316940174E-16 ) ) ;
#279 = ADVANCED_FACE ( 'NONE', ( #404, #194 ), #232, .F. ) ;
#280 = EDGE_LOOP ( 'NONE', ( #167, #160, #382, #11 ) ) ;
#281 = PRODUCT_CONTEXT ( 'NONE', #315, 'mechanical' ) ;
#282 = CARTESIAN_POINT ( 'NONE',  ( 2.100000000000000089, 7.000000000000000000, 0.000000000000000000 ) ) ;
#283 = VERTEX_POINT ( 'NONE', #157 ) ;
#284 = DIRECTION ( 'NONE',  ( 0.000000000000000000, 1.000000000000000000, 1.885568995626964287E-16 ) ) ;
#285 = CARTESIAN_POINT ( 'NONE',  ( -2.100000000000000089, -3.935484080939213199E-18, 1.499999999999999112 ) ) ;
#286 = ORIENTED_EDGE ( 'NONE', *, *, #298, .T. ) ;
#287 = SURFACE_STYLE_FILL_AREA ( #461 ) ;
#288 = PLANE ( 'NONE',  #215 ) ;
#289 = SURFACE_SIDE_STYLE ('',( #287 ) ) ;
#290 = VECTOR ( 'NONE', #422, 1000.000000000000000 ) ;
#291 = CIRCLE ( 'NONE', #80, 1.500000000000000000 ) ;
#292 = CARTESIAN_POINT ( 'NONE',  ( -2.326828918379972844E-16, 5.099999999999998757, 4.452691193458118590 ) ) ;
#293 = VECTOR ( 'NONE', #40, 1000.000000000000000 ) ;
#294 = DIRECTION ( 'NONE',  ( 0.000000000000000000, 1.000000000000000000, 0.000000000000000000 ) ) ;
#295 = LINE ( 'NONE', #4, #170 ) ;
#296 = AXIS2_PLACEMENT_3D ( 'NONE', #224, #185, #38 ) ;
#297 = CARTESIAN_POINT ( 'NONE',  ( 2.100000000000000089, 7.000000000000000000, 1.199999999999999956 ) ) ;
#298 = EDGE_CURVE ( 'NONE', #202, #352, #414, .T. ) ;
#299 = DIRECTION ( 'NONE',  ( -0.000000000000000000, 1.277752127409284760E-16, -1.000000000000000000 ) ) ;
#300 = CARTESIAN_POINT ( 'NONE',  ( 2.100000000000000089, 7.000000000000000000, 1.199999999999999956 ) ) ;
#301 = DIRECTION ( 'NONE',  ( 0.000000000000000000, -1.000000000000000000, -1.277752127409284760E-16 ) ) ;
#302 = VERTEX_POINT ( 'NONE', #409 ) ;
#303 = CARTESIAN_POINT ( 'NONE',  ( -9.184850993605169392E-17, 3.949999999999998845, 4.452691193458118590 ) ) ;
#304 = ORIENTED_EDGE ( 'NONE', *, *, #346, .F. ) ;
#305 = DIRECTION ( 'NONE',  ( 0.000000000000000000, -1.219847428316939927E-16, 1.000000000000000000 ) ) ;
#306 = VERTEX_POINT ( 'NONE', #374 ) ;
#307 = EDGE_CURVE ( 'NONE', #198, #158, #122, .T. ) ;
#308 = DIRECTION ( 'NONE',  ( 0.000000000000000000, 0.000000000000000000, -1.000000000000000000 ) ) ;
#309 = EDGE_LOOP ( 'NONE', ( #176, #351 ) ) ;
#310 = MECHANICAL_DESIGN_GEOMETRIC_PRESENTATION_REPRESENTATION (  '', ( #386 ), #318 ) ;
#311 = VERTEX_POINT ( 'NONE', #125 ) ;
#312 = CIRCLE ( 'NONE', #334, 1.149999999999999911 ) ;
#313 = EDGE_CURVE ( 'NONE', #306, #337, #412, .T. ) ;
#314 = LINE ( 'NONE', #393, #254 ) ;
#315 = APPLICATION_CONTEXT ( 'automotive_design' ) ;
#316 =( LENGTH_UNIT ( ) NAMED_UNIT ( * ) SI_UNIT ( .MILLI., .METRE. ) );
#317 = ORIENTED_EDGE ( 'NONE', *, *, #395, .T. ) ;
#318 =( GEOMETRIC_REPRESENTATION_CONTEXT ( 3 ) GLOBAL_UNCERTAINTY_ASSIGNED_CONTEXT ( ( #69 ) ) GLOBAL_UNIT_ASSIGNED_CONTEXT ( ( #316, #353, #464 ) ) REPRESENTATION_CONTEXT ( 'NONE', 'WORKASPACE' ) );
#319 = LINE ( 'NONE', #468, #253 ) ;
#320 = CARTESIAN_POINT ( 'NONE',  ( 2.100000000000000089, 1.500000000000000000, 1.499999999999999334 ) ) ;
#321 = VECTOR ( 'NONE', #117, 1000.000000000000000 ) ;
#322 = ORIENTED_EDGE ( 'NONE', *, *, #70, .T. ) ;
#323 = CARTESIAN_POINT ( 'NONE',  ( -2.326828918379972844E-16, 6.249999999999998224, 1.199999999999999512 ) ) ;
#324 = DIRECTION ( 'NONE',  ( -1.000000000000000000, -0.000000000000000000, -0.000000000000000000 ) ) ;
#325 = CARTESIAN_POINT ( 'NONE',  ( -2.100000000000000089, 1.500000000000000000, 1.499999999999999334 ) ) ;
#326 = EDGE_LOOP ( 'NONE', ( #465, #304, #240, #13 ) ) ;
#327 = ADVANCED_FACE ( 'NONE', ( #161 ), #86, .T. ) ;
#328 = CARTESIAN_POINT ( 'NONE',  ( 4.347496136973091054E-16, -7.368788530925554963E-16, 5.649999999999987921 ) ) ;
#329 = AXIS2_PLACEMENT_3D ( 'NONE', #429, #278, #96 ) ;
#330 = CARTESIAN_POINT ( 'NONE',  ( 2.100000000000000089, 1.199999999999999956, 1.499999999999999334 ) ) ;
#331 = CYLINDRICAL_SURFACE ( 'NONE', #222, 0.7999999999999890532 ) ;
#332 = FACE_OUTER_BOUND ( 'NONE', #447, .T. ) ;
#333 = DIRECTION ( 'NONE',  ( -0.000000000000000000, -1.000000000000000000, -0.000000000000000000 ) ) ;
#334 = AXIS2_PLACEMENT_3D ( 'NONE', #209, #60, #207 ) ;
#335 = DIRECTION ( 'NONE',  ( 0.000000000000000000, 1.000000000000000000, 1.885568995626964287E-16 ) ) ;
#336 = DIRECTION ( 'NONE',  ( 0.000000000000000000, 1.277752127409284760E-16, -1.000000000000000000 ) ) ;
#337 = VERTEX_POINT ( 'NONE', #14 ) ;
#338 = AXIS2_PLACEMENT_3D ( 'NONE', #330, #398, #115 ) ;
#339 = CARTESIAN_POINT ( 'NONE',  ( 2.100000000000000089, 7.000000000000000000, 1.199999999999999956 ) ) ;
#340 = ORIENTED_EDGE ( 'NONE', *, *, #41, .F. ) ;
#341 = DIRECTION ( 'NONE',  ( -1.000000000000000000, -0.000000000000000000, -0.000000000000000000 ) ) ;
#342 = VERTEX_POINT ( 'NONE', #199 ) ;
#343 = EDGE_CURVE ( 'NONE', #198, #63, #237, .T. ) ;
#344 = DIRECTION ( 'NONE',  ( 0.000000000000000000, 0.000000000000000000, -1.000000000000000000 ) ) ;
#345 = ORIENTED_EDGE ( 'NONE', *, *, #142, .F. ) ;
#346 = EDGE_CURVE ( 'NONE', #247, #58, #452, .T. ) ;
#347 = ORIENTED_EDGE ( 'NONE', *, *, #446, .T. ) ;
#348 = PRESENTATION_LAYER_ASSIGNMENT (  '', '', ( #386 ) ) ;
#349 = VERTEX_POINT ( 'NONE', #89 ) ;
#350 = AXIS2_PLACEMENT_3D ( 'NONE', #92, #239, #335 ) ;
#351 = ORIENTED_EDGE ( 'NONE', *, *, #111, .F. ) ;
#352 = VERTEX_POINT ( 'NONE', #163 ) ;
#353 =( NAMED_UNIT ( * ) PLANE_ANGLE_UNIT ( ) SI_UNIT ( $, .RADIAN. ) );
#354 = ORIENTED_EDGE ( 'NONE', *, *, #90, .T. ) ;
#355 =( NAMED_UNIT ( * ) PLANE_ANGLE_UNIT ( ) SI_UNIT ( $, .RADIAN. ) );
#356 = VECTOR ( 'NONE', #46, 1000.000000000000000 ) ;
#357 = DIRECTION ( 'NONE',  ( -1.000000000000000000, -0.000000000000000000, -0.000000000000000000 ) ) ;
#358 = ORIENTED_EDGE ( 'NONE', *, *, #261, .F. ) ;
#359 = CARTESIAN_POINT ( 'NONE',  ( 2.100000000000000089, 7.000000000000000000, 1.199999999999999956 ) ) ;
#360 = CARTESIAN_POINT ( 'NONE',  ( -2.100000000000000089, 1.199999999999999956, 1.499999999999999334 ) ) ;
#361 = EDGE_CURVE ( 'NONE', #267, #158, #291, .T. ) ;
#362 = DIRECTION ( 'NONE',  ( 0.000000000000000000, 0.000000000000000000, -1.000000000000000000 ) ) ;
#363 = APPLICATION_CONTEXT ( 'automotive_design' ) ;
#364 = EDGE_CURVE ( 'NONE', #451, #302, #21, .T. ) ;
#365 = CYLINDRICAL_SURFACE ( 'NONE', #64, 1.149999999999999911 ) ;
#366 = DIRECTION ( 'NONE',  ( -0.000000000000000000, -1.000000000000000000, -0.000000000000000000 ) ) ;
#367 = CARTESIAN_POINT ( 'NONE',  ( -2.100000000000000089, 0.000000000000000000, 1.499999999999999556 ) ) ;
#368 = DIRECTION ( 'NONE',  ( -1.000000000000000000, 0.000000000000000000, 0.000000000000000000 ) ) ;
#369 = DIRECTION ( 'NONE',  ( 0.000000000000000000, 0.000000000000000000, -1.000000000000000000 ) ) ;
#370 = AXIS2_PLACEMENT_3D ( 'NONE', #467, #460, #132 ) ;
#371 = LINE ( 'NONE', #303, #113 ) ;
#372 = AXIS2_PLACEMENT_3D ( 'NONE', #223, #368, #437 ) ;
#373 = ORIENTED_EDGE ( 'NONE', *, *, #39, .T. ) ;
#374 = CARTESIAN_POINT ( 'NONE',  ( -2.100000000000000089, 7.000000000000000000, 1.199999999999999956 ) ) ;
#375 = ORIENTED_EDGE ( 'NONE', *, *, #434, .F. ) ;
#376 = VECTOR ( 'NONE', #366, 1000.000000000000000 ) ;
#377 = DIRECTION ( 'NONE',  ( -0.000000000000000000, 1.277752127409284760E-16, -1.000000000000000000 ) ) ;
#378 = EDGE_LOOP ( 'NONE', ( #50, #30, #270, #65, #413, #195, #373, #354 ) ) ;
#379 = CARTESIAN_POINT ( 'NONE',  ( -2.100000000000000089, 1.500000000000000000, 1.499999999999999334 ) ) ;
#380 = ORIENTED_EDGE ( 'NONE', *, *, #343, .T. ) ;
#381 = CARTESIAN_POINT ( 'NONE',  ( 2.100000000000000089, 7.000000000000000000, 0.000000000000000000 ) ) ;
#382 = ORIENTED_EDGE ( 'NONE', *, *, #204, .T. ) ;
#383 = ORIENTED_EDGE ( 'NONE', *, *, #275, .F. ) ;
#384 = PLANE ( 'NONE',  #153 ) ;
#385 = ORIENTED_EDGE ( 'NONE', *, *, #431, .F. ) ;
#386 = STYLED_ITEM ( 'NONE', ( #435 ), #77 ) ;
#387 = ORIENTED_EDGE ( 'NONE', *, *, #403, .T. ) ;
#388 = PRODUCT_RELATED_PRODUCT_CATEGORY ( 'part', '', ( #219 ) ) ;
#389 = CARTESIAN_POINT ( 'NONE',  ( 2.100000000000000089, -1.004210375300829674E-15, 9.699999999999999289 ) ) ;
#390 = EDGE_LOOP ( 'NONE', ( #407, #462, #317, #100 ) ) ;
#391 =( LENGTH_UNIT ( ) NAMED_UNIT ( * ) SI_UNIT ( .MILLI., .METRE. ) );
#392 = ORIENTED_EDGE ( 'NONE', *, *, #111, .T. ) ;
#393 = CARTESIAN_POINT ( 'NONE',  ( 2.100000000000000089, 7.000000000000000000, 1.199999999999999956 ) ) ;
#394 = ORIENTED_EDGE ( 'NONE', *, *, #298, .F. ) ;
#395 = EDGE_CURVE ( 'NONE', #203, #25, #314, .T. ) ;
#396 = FILL_AREA_STYLE_COLOUR ( '', #127 ) ;
#397 = ADVANCED_FACE ( 'NONE', ( #173 ), #211, .T. ) ;
#398 = DIRECTION ( 'NONE',  ( 0.000000000000000000, -1.000000000000000000, -1.219847428316940174E-16 ) ) ;
#399 = DIRECTION ( 'NONE',  ( -1.000000000000000000, -0.000000000000000000, -0.000000000000000000 ) ) ;
#400 = LINE ( 'NONE', #328, #293 ) ;
#401 = FACE_OUTER_BOUND ( 'NONE', #22, .T. ) ;
#402 = CARTESIAN_POINT ( 'NONE',  ( 3.367778697655221998E-16, -7.368788530925554963E-16, 4.849999999999999645 ) ) ;
#403 = EDGE_CURVE ( 'NONE', #302, #451, #406, .T. ) ;
#404 = FACE_BOUND ( 'NONE', #91, .T. ) ;
#405 = CIRCLE ( 'NONE', #329, 0.7999999999999890532 ) ;
#406 = CIRCLE ( 'NONE', #417, 1.149999999999999911 ) ;
#407 = ORIENTED_EDGE ( 'NONE', *, *, #313, .F. ) ;
#408 = ADVANCED_FACE ( 'NONE', ( #18 ), #288, .T. ) ;
#409 = CARTESIAN_POINT ( 'NONE',  ( -9.184850993605169392E-17, 3.949999999999998845, 1.199999999999999067 ) ) ;
#410 = PRODUCT_DEFINITION_FORMATION_WITH_SPECIFIED_SOURCE ( 'ไป', '', #219, .NOT_KNOWN. ) ;
#411 = ORIENTED_EDGE ( 'NONE', *, *, #346, .T. ) ;
#412 = LINE ( 'NONE', #274, #424 ) ;
#413 = ORIENTED_EDGE ( 'NONE', *, *, #261, .T. ) ;
#414 = CIRCLE ( 'NONE', #442, 1.149999999999999911 ) ;
#415 = DIRECTION ( 'NONE',  ( -1.000000000000000000, -0.000000000000000000, -0.000000000000000000 ) ) ;
#416 = ORIENTED_EDGE ( 'NONE', *, *, #23, .T. ) ;
#417 = AXIS2_PLACEMENT_3D ( 'NONE', #214, #138, #284 ) ;
#418 = CARTESIAN_POINT ( 'NONE',  ( 2.100000000000000089, 1.500000000000000000, 1.499999999999999334 ) ) ;
#419 = ORIENTED_EDGE ( 'NONE', *, *, #90, .F. ) ;
#420 = ADVANCED_FACE ( 'NONE', ( #466 ), #421, .T. ) ;
#421 = PLANE ( 'NONE',  #370 ) ;
#422 = DIRECTION ( 'NONE',  ( 0.000000000000000000, -1.219847428316939927E-16, 1.000000000000000000 ) ) ;
#423 = EDGE_LOOP ( 'NONE', ( #416, #57, #218, #385, #131, #276, #162, #164 ) ) ;
#424 = VECTOR ( 'NONE', #344, 1000.000000000000000 ) ;
#425 = SHAPE_DEFINITION_REPRESENTATION ( #145, #182 ) ;
#426 = LINE ( 'NONE', #389, #189 ) ;
#427 = EDGE_LOOP ( 'NONE', ( #358, #340, #103, #8 ) ) ;
#428 = DIRECTION ( 'NONE',  ( -0.000000000000000000, 1.000000000000000000, 0.000000000000000000 ) ) ;
#429 = CARTESIAN_POINT ( 'NONE',  ( 3.367778697655221998E-16, 1.199999999999999512, 4.849999999999999645 ) ) ;
#430 = EDGE_LOOP ( 'NONE', ( #87, #126 ) ) ;
#431 = EDGE_CURVE ( 'NONE', #233, #198, #166, .T. ) ;
#432 = CARTESIAN_POINT ( 'NONE',  ( 2.100000000000000089, 1.199999999999999956, 1.499999999999999334 ) ) ;
#433 = APPLICATION_PROTOCOL_DEFINITION ( 'draft international standard', 'automotive_design', 1998, #363 ) ;
#434 = EDGE_CURVE ( 'NONE', #272, #311, #42, .T. ) ;
#435 = PRESENTATION_STYLE_ASSIGNMENT (( #67 ) ) ;
#436 = CLOSED_SHELL ( 'NONE', ( #34, #183, #179, #420, #56, #327, #444, #408, #279, #193, #146, #397, #124, #217 ) ) ;
#437 = DIRECTION ( 'NONE',  ( 0.000000000000000000, 0.000000000000000000, 1.000000000000000000 ) ) ;
#438 = VECTOR ( 'NONE', #188, 1000.000000000000000 ) ;
#439 = VECTOR ( 'NONE', #399, 1000.000000000000000 ) ;
#440 = DIRECTION ( 'NONE',  ( 0.000000000000000000, 0.000000000000000000, -1.000000000000000000 ) ) ;
#441 = CARTESIAN_POINT ( 'NONE',  ( 2.100000000000000089, 1.500000000000000000, 1.499999999999999334 ) ) ;
#442 = AXIS2_PLACEMENT_3D ( 'NONE', #450, #120, #84 ) ;
#443 = CYLINDRICAL_SURFACE ( 'NONE', #197, 0.3000000000000001554 ) ;
#444 = ADVANCED_FACE ( 'NONE', ( #248, #242 ), #384, .T. ) ;
#445 = LINE ( 'NONE', #43, #356 ) ;
#446 = EDGE_CURVE ( 'NONE', #352, #202, #312, .T. ) ;
#447 = EDGE_LOOP ( 'NONE', ( #205, #121, #347, #345 ) ) ;
#448 = CARTESIAN_POINT ( 'NONE',  ( -2.100000000000000089, 1.500000000000000444, -7.027636700751065934E-16 ) ) ;
#449 = ORIENTED_EDGE ( 'NONE', *, *, #142, .T. ) ;
#450 = CARTESIAN_POINT ( 'NONE',  ( -2.326828918379972844E-16, 5.099999999999999645, 6.516535849787351636E-16 ) ) ;
#451 = VERTEX_POINT ( 'NONE', #323 ) ;
#452 = LINE ( 'NONE', #271, #456 ) ;
#453 = EDGE_LOOP ( 'NONE', ( #165, #172, #168, #231 ) ) ;
#454 = DIRECTION ( 'NONE',  ( -1.000000000000000000, -0.000000000000000000, -0.000000000000000000 ) ) ;
#455 = EDGE_LOOP ( 'NONE', ( #53, #137, #392, #133 ) ) ;
#456 = VECTOR ( 'NONE', #415, 1000.000000000000000 ) ;
#457 = VERTEX_POINT ( 'NONE', #104 ) ;
#458 = DIRECTION ( 'NONE',  ( 0.000000000000000000, 0.000000000000000000, -1.000000000000000000 ) ) ;
#459 = ORIENTED_EDGE ( 'NONE', *, *, #307, .T. ) ;
#460 = DIRECTION ( 'NONE',  ( 0.000000000000000000, 0.000000000000000000, 1.000000000000000000 ) ) ;
#461 = FILL_AREA_STYLE ('',( #396 ) ) ;
#462 = ORIENTED_EDGE ( 'NONE', *, *, #129, .F. ) ;
#463 = CARTESIAN_POINT ( 'NONE',  ( 2.100000000000000089, 1.500000000000000000, 1.499999999999999334 ) ) ;
#464 =( NAMED_UNIT ( * ) SI_UNIT ( $, .STERADIAN. ) SOLID_ANGLE_UNIT ( ) );
#465 = ORIENTED_EDGE ( 'NONE', *, *, #59, .T. ) ;
#466 = FACE_OUTER_BOUND ( 'NONE', #250, .T. ) ;
#467 = CARTESIAN_POINT ( 'NONE',  ( 2.100000000000000089, -1.004210375300829674E-15, 9.699999999999999289 ) ) ;
#468 = CARTESIAN_POINT ( 'NONE',  ( 2.100000000000000089, 1.500000000000000000, 1.199999999999999289 ) ) ;
#469 = PRODUCT_DEFINITION_CONTEXT ( 'detailed design', #363, 'design' ) ;
#470 = FACE_OUTER_BOUND ( 'NONE', #423, .T. ) ;
#471 = CARTESIAN_POINT ( 'NONE',  ( 4.347496136973091054E-16, 1.199999999999999512, 5.649999999999987921 ) ) ;
ENDSEC;
END-ISO-10303-21;
