ISO-10303-21;
HEADER;
FILE_DESCRIPTION (( 'STEP AP214' ),
    '1' );
FILE_NAME ('ZB_V1_M2.STEP',
    '2026-09-23T13:20:28',
    ( '' ),
    ( '' ),
    'SwSTEP 2.0',
    'SolidWorks 2025',
    '' );
FILE_SCHEMA (( 'AUTOMOTIVE_DESIGN' ));
ENDSEC;

DATA;
#1 = CARTESIAN_POINT ( 'NONE',  ( 0.000000000000000000, 5.200000000000000178, -1.000000000000000000 ) ) ;
#2 = ADVANCED_BREP_SHAPE_REPRESENTATION ( 'ZB_V1_M2', ( #275, #63 ), #399 ) ;
#3 = DIRECTION ( 'NONE',  ( 0.000000000000000000, 0.000000000000000000, 1.000000000000000000 ) ) ;
#4 = CIRCLE ( 'NONE', #94, 2.000000000000000000 ) ;
#5 = DIRECTION ( 'NONE',  ( 1.000000000000000000, 0.000000000000000000, 0.000000000000000000 ) ) ;
#6 = ORIENTED_EDGE ( 'NONE', *, *, #314, .T. ) ;
#7 = DIRECTION ( 'NONE',  ( 0.000000000000000000, 0.000000000000000000, 1.000000000000000000 ) ) ;
#8 = AXIS2_PLACEMENT_3D ( 'NONE', #307, #340, #363 ) ;
#9 = DIRECTION ( 'NONE',  ( 0.000000000000000000, 0.000000000000000000, 1.000000000000000000 ) ) ;
#10 = EDGE_CURVE ( 'NONE', #413, #414, #90, .T. ) ;
#11 = AXIS2_PLACEMENT_3D ( 'NONE', #128, #258, #126 ) ;
#12 = CARTESIAN_POINT ( 'NONE',  ( -1.977371993328518762, -2.000000000000000000, -0.2999999999999999334 ) ) ;
#13 = FACE_OUTER_BOUND ( 'NONE', #54, .T. ) ;
#14 = CARTESIAN_POINT ( 'NONE',  ( 0.000000000000000000, 2.200000000000000178, 0.000000000000000000 ) ) ;
#15 = DIRECTION ( 'NONE',  ( -0.000000000000000000, -1.000000000000000000, -0.000000000000000000 ) ) ;
#16 = CYLINDRICAL_SURFACE ( 'NONE', #141, 1.000000000000000000 ) ;
#17 = ORIENTED_EDGE ( 'NONE', *, *, #274, .F. ) ;
#18 = ORIENTED_EDGE ( 'NONE', *, *, #383, .T. ) ;
#19 = DIRECTION ( 'NONE',  ( 0.000000000000000000, 1.000000000000000000, 0.000000000000000000 ) ) ;
#20 = DIRECTION ( 'NONE',  ( 0.000000000000000000, 0.000000000000000000, -1.000000000000000000 ) ) ;
#21 = VERTEX_POINT ( 'NONE', #408 ) ;
#22 = PLANE ( 'NONE',  #153 ) ;
#23 = CARTESIAN_POINT ( 'NONE',  ( 0.000000000000000000, -1.400000000000000133, 0.000000000000000000 ) ) ;
#24 = AXIS2_PLACEMENT_3D ( 'NONE', #163, #197, #133 ) ;
#25 = ORIENTED_EDGE ( 'NONE', *, *, #200, .F. ) ;
#26 = DIRECTION ( 'NONE',  ( 0.000000000000000000, 0.000000000000000000, -1.000000000000000000 ) ) ;
#27 = ORIENTED_EDGE ( 'NONE', *, *, #30, .F. ) ;
#28 = AXIS2_PLACEMENT_3D ( 'NONE', #398, #50, #139 ) ;
#29 = DIRECTION ( 'NONE',  ( -0.000000000000000000, -1.000000000000000000, -0.000000000000000000 ) ) ;
#30 = EDGE_CURVE ( 'NONE', #315, #73, #335, .T. ) ;
#31 = LINE ( 'NONE', #386, #338 ) ;
#32 = PRESENTATION_LAYER_ASSIGNMENT (  '', '', ( #304 ) ) ;
#33 = ORIENTED_EDGE ( 'NONE', *, *, #196, .T. ) ;
#34 = DIRECTION ( 'NONE',  ( 0.000000000000000000, 0.000000000000000000, -1.000000000000000000 ) ) ;
#35 = CARTESIAN_POINT ( 'NONE',  ( -1.977371993328518762, -2.000000000000000000, 0.3000000000000000444 ) ) ;
#36 = LINE ( 'NONE', #193, #353 ) ;
#37 = EDGE_LOOP ( 'NONE', ( #92, #246, #179, #58 ) ) ;
#38 = APPLICATION_CONTEXT ( 'automotive_design' ) ;
#39 = ORIENTED_EDGE ( 'NONE', *, *, #381, .T. ) ;
#40 = ADVANCED_FACE ( 'NONE', ( #109 ), #371, .F. ) ;
#41 = CARTESIAN_POINT ( 'NONE',  ( 0.000000000000000000, -2.000000000000000000, 0.000000000000000000 ) ) ;
#42 = AXIS2_PLACEMENT_3D ( 'NONE', #322, #241, #87 ) ;
#43 = DIRECTION ( 'NONE',  ( 0.000000000000000000, 1.000000000000000000, 0.000000000000000000 ) ) ;
#44 = ADVANCED_FACE ( 'NONE', ( #400 ), #212, .T. ) ;
#45 = DIRECTION ( 'NONE',  ( 0.000000000000000000, 0.000000000000000000, 1.000000000000000000 ) ) ;
#46 = CARTESIAN_POINT ( 'NONE',  ( 1.977371993328518762, -1.400000000000000133, -0.2999999999999999334 ) ) ;
#47 = AXIS2_PLACEMENT_3D ( 'NONE', #41, #173, #302 ) ;
#48 = EDGE_LOOP ( 'NONE', ( #25, #6, #377, #255 ) ) ;
#49 = DIRECTION ( 'NONE',  ( -1.000000000000000000, 0.000000000000000000, 0.000000000000000000 ) ) ;
#50 = DIRECTION ( 'NONE',  ( 0.000000000000000000, 1.000000000000000000, 0.000000000000000000 ) ) ;
#51 = CARTESIAN_POINT ( 'NONE',  ( 0.000000000000000000, -2.000000000000000000, -0.2999999999999999334 ) ) ;
#52 = DIRECTION ( 'NONE',  ( 0.000000000000000000, 1.000000000000000000, 0.000000000000000000 ) ) ;
#53 = APPLICATION_CONTEXT ( 'automotive_design' ) ;
#54 = EDGE_LOOP ( 'NONE', ( #374, #405, #293, #78, #369, #205, #33, #336 ) ) ;
#55 = LINE ( 'NONE', #119, #111 ) ;
#56 = CARTESIAN_POINT ( 'NONE',  ( 0.000000000000000000, 0.000000000000000000, 2.000000000000000000 ) ) ;
#57 = EDGE_CURVE ( 'NONE', #81, #171, #351, .T. ) ;
#58 = ORIENTED_EDGE ( 'NONE', *, *, #209, .T. ) ;
#59 = DIRECTION ( 'NONE',  ( 0.000000000000000000, 0.000000000000000000, 1.000000000000000000 ) ) ;
#60 = ADVANCED_FACE ( 'NONE', ( #180 ), #149, .T. ) ;
#61 = DIRECTION ( 'NONE',  ( 0.000000000000000000, 0.000000000000000000, 1.000000000000000000 ) ) ;
#62 = CARTESIAN_POINT ( 'NONE',  ( 0.000000000000000000, 5.200000000000000178, 0.000000000000000000 ) ) ;
#63 = AXIS2_PLACEMENT_3D ( 'NONE', #327, #169, #5 ) ;
#64 = VERTEX_POINT ( 'NONE', #312 ) ;
#65 = DIRECTION ( 'NONE',  ( 0.000000000000000000, 1.000000000000000000, 0.000000000000000000 ) ) ;
#66 = ADVANCED_FACE ( 'NONE', ( #348 ), #253, .T. ) ;
#67 = AXIS2_PLACEMENT_3D ( 'NONE', #392, #43, #337 ) ;
#68 = AXIS2_PLACEMENT_3D ( 'NONE', #320, #152, #59 ) ;
#69 =( LENGTH_UNIT ( ) NAMED_UNIT ( * ) SI_UNIT ( .MILLI., .METRE. ) );
#70 = EDGE_CURVE ( 'NONE', #192, #171, #55, .T. ) ;
#71 = UNCERTAINTY_MEASURE_WITH_UNIT (LENGTH_MEASURE( 1.000000000000000082E-05 ), #69, 'distance_accuracy_value', 'NONE');
#72 = LINE ( 'NONE', #208, #244 ) ;
#73 = VERTEX_POINT ( 'NONE', #248 ) ;
#74 = CLOSED_SHELL ( 'NONE', ( #270, #419, #66, #237, #121, #303, #318, #44, #182, #333, #60, #358, #40, #272 ) ) ;
#75 = CARTESIAN_POINT ( 'NONE',  ( -1.977371993328518762, -1.400000000000000133, -0.2999999999999999334 ) ) ;
#76 = PRODUCT_DEFINITION_FORMATION_WITH_SPECIFIED_SOURCE ( 'ไป', '', #261, .NOT_KNOWN. ) ;
#77 = DIRECTION ( 'NONE',  ( 0.000000000000000000, 0.000000000000000000, 1.000000000000000000 ) ) ;
#78 = ORIENTED_EDGE ( 'NONE', *, *, #287, .T. ) ;
#79 = DIRECTION ( 'NONE',  ( -0.000000000000000000, -1.000000000000000000, -0.000000000000000000 ) ) ;
#80 = CIRCLE ( 'NONE', #301, 1.399999999999999911 ) ;
#81 = VERTEX_POINT ( 'NONE', #373 ) ;
#82 = ORIENTED_EDGE ( 'NONE', *, *, #368, .F. ) ;
#83 = VERTEX_POINT ( 'NONE', #375 ) ;
#84 = EDGE_CURVE ( 'NONE', #81, #21, #420, .T. ) ;
#85 = CIRCLE ( 'NONE', #328, 2.000000000000000000 ) ;
#86 = FACE_OUTER_BOUND ( 'NONE', #251, .T. ) ;
#87 = DIRECTION ( 'NONE',  ( 1.000000000000000000, 0.000000000000000000, -0.000000000000000000 ) ) ;
#88 = DIRECTION ( 'NONE',  ( 0.000000000000000000, -1.000000000000000000, 0.000000000000000000 ) ) ;
#89 = VERTEX_POINT ( 'NONE', #107 ) ;
#90 = LINE ( 'NONE', #256, #406 ) ;
#91 = DIRECTION ( 'NONE',  ( 0.000000000000000000, 1.000000000000000000, 0.000000000000000000 ) ) ;
#92 = ORIENTED_EDGE ( 'NONE', *, *, #314, .F. ) ;
#93 = DIRECTION ( 'NONE',  ( -0.000000000000000000, -1.000000000000000000, -0.000000000000000000 ) ) ;
#94 = AXIS2_PLACEMENT_3D ( 'NONE', #98, #389, #3 ) ;
#95 = ORIENTED_EDGE ( 'NONE', *, *, #164, .T. ) ;
#96 = FACE_OUTER_BOUND ( 'NONE', #221, .T. ) ;
#97 = ORIENTED_EDGE ( 'NONE', *, *, #122, .T. ) ;
#98 = CARTESIAN_POINT ( 'NONE',  ( 0.000000000000000000, -2.000000000000000000, 0.000000000000000000 ) ) ;
#99 = AXIS2_PLACEMENT_3D ( 'NONE', #376, #91, #223 ) ;
#100 = DIRECTION ( 'NONE',  ( 0.000000000000000000, 0.000000000000000000, 1.000000000000000000 ) ) ;
#101 = ORIENTED_EDGE ( 'NONE', *, *, #136, .F. ) ;
#102 = CARTESIAN_POINT ( 'NONE',  ( 0.000000000000000000, 5.200000000000000178, 0.000000000000000000 ) ) ;
#103 = ORIENTED_EDGE ( 'NONE', *, *, #345, .T. ) ;
#104 = LINE ( 'NONE', #341, #415 ) ;
#105 = CARTESIAN_POINT ( 'NONE',  ( 0.000000000000000000, 0.000000000000000000, 0.000000000000000000 ) ) ;
#106 = DIRECTION ( 'NONE',  ( 1.000000000000000000, 0.000000000000000000, 0.000000000000000000 ) ) ;
#107 = CARTESIAN_POINT ( 'NONE',  ( 0.000000000000000000, 2.200000000000000178, -1.399999999999999911 ) ) ;
#108 = AXIS2_PLACEMENT_3D ( 'NONE', #385, #228, #297 ) ;
#109 = FACE_OUTER_BOUND ( 'NONE', #247, .T. ) ;
#110 = CARTESIAN_POINT ( 'NONE',  ( -1.977371993328518762, -2.000000000000000000, 0.3000000000000000444 ) ) ;
#111 = VECTOR ( 'NONE', #15, 1000.000000000000000 ) ;
#112 = VERTEX_POINT ( 'NONE', #213 ) ;
#113 = ORIENTED_EDGE ( 'NONE', *, *, #70, .T. ) ;
#114 = FACE_BOUND ( 'NONE', #393, .T. ) ;
#115 = CIRCLE ( 'NONE', #177, 1.000000000000000000 ) ;
#116 = EDGE_CURVE ( 'NONE', #187, #414, #396, .T. ) ;
#117 = ORIENTED_EDGE ( 'NONE', *, *, #200, .T. ) ;
#118 = ORIENTED_EDGE ( 'NONE', *, *, #235, .T. ) ;
#119 = CARTESIAN_POINT ( 'NONE',  ( -1.977371993328518762, -2.000000000000000000, -0.2999999999999999334 ) ) ;
#120 =( NAMED_UNIT ( * ) SI_UNIT ( $, .STERADIAN. ) SOLID_ANGLE_UNIT ( ) );
#121 = ADVANCED_FACE ( 'NONE', ( #13 ), #300, .T. ) ;
#122 = EDGE_CURVE ( 'NONE', #89, #161, #160, .T. ) ;
#123 = AXIS2_PLACEMENT_3D ( 'NONE', #62, #317, #404 ) ;
#124 = CARTESIAN_POINT ( 'NONE',  ( 0.000000000000000000, 0.000000000000000000, 0.000000000000000000 ) ) ;
#125 = ORIENTED_EDGE ( 'NONE', *, *, #136, .T. ) ;
#126 = DIRECTION ( 'NONE',  ( 0.000000000000000000, -0.000000000000000000, 1.000000000000000000 ) ) ;
#127 = ORIENTED_EDGE ( 'NONE', *, *, #146, .F. ) ;
#128 = CARTESIAN_POINT ( 'NONE',  ( 0.000000000000000000, 0.000000000000000000, 0.000000000000000000 ) ) ;
#129 = ORIENTED_EDGE ( 'NONE', *, *, #384, .F. ) ;
#130 = PRODUCT_CONTEXT ( 'NONE', #38, 'mechanical' ) ;
#131 = EDGE_CURVE ( 'NONE', #89, #64, #72, .T. ) ;
#132 = FACE_OUTER_BOUND ( 'NONE', #407, .T. ) ;
#133 = DIRECTION ( 'NONE',  ( -1.000000000000000000, 0.000000000000000000, -0.000000000000000000 ) ) ;
#134 = AXIS2_PLACEMENT_3D ( 'NONE', #264, #325, #100 ) ;
#135 = APPLICATION_PROTOCOL_DEFINITION ( 'draft international standard', 'automotive_design', 1998, #53 ) ;
#136 = EDGE_CURVE ( 'NONE', #192, #168, #104, .T. ) ;
#137 = ORIENTED_EDGE ( 'NONE', *, *, #116, .F. ) ;
#138 = CIRCLE ( 'NONE', #342, 1.000000000000000000 ) ;
#139 = DIRECTION ( 'NONE',  ( 0.000000000000000000, 0.000000000000000000, 1.000000000000000000 ) ) ;
#140 = LINE ( 'NONE', #291, #292 ) ;
#141 = AXIS2_PLACEMENT_3D ( 'NONE', #145, #280, #20 ) ;
#142 = FACE_OUTER_BOUND ( 'NONE', #391, .T. ) ;
#143 = CARTESIAN_POINT ( 'NONE',  ( 1.714505518806294391E-16, 2.200000000000000178, 1.399999999999999911 ) ) ;
#144 = CARTESIAN_POINT ( 'NONE',  ( 0.000000000000000000, 5.200000000000000178, 0.000000000000000000 ) ) ;
#145 = CARTESIAN_POINT ( 'NONE',  ( 0.000000000000000000, 5.200000000000000178, 0.000000000000000000 ) ) ;
#146 = EDGE_CURVE ( 'NONE', #112, #414, #360, .T. ) ;
#147 = VECTOR ( 'NONE', #207, 1000.000000000000000 ) ;
#148 = ORIENTED_EDGE ( 'NONE', *, *, #206, .F. ) ;
#149 = PLANE ( 'NONE',  #402 ) ;
#150 = ORIENTED_EDGE ( 'NONE', *, *, #283, .T. ) ;
#151 = EDGE_LOOP ( 'NONE', ( #279, #217 ) ) ;
#152 = DIRECTION ( 'NONE',  ( 0.000000000000000000, 1.000000000000000000, 0.000000000000000000 ) ) ;
#153 = AXIS2_PLACEMENT_3D ( 'NONE', #356, #88, #409 ) ;
#154 = CIRCLE ( 'NONE', #134, 1.000000000000000000 ) ;
#155 = CARTESIAN_POINT ( 'NONE',  ( 0.000000000000000000, 2.200000000000000178, 0.000000000000000000 ) ) ;
#156 = DIRECTION ( 'NONE',  ( -0.000000000000000000, 1.000000000000000000, -0.000000000000000000 ) ) ;
#157 = ORIENTED_EDGE ( 'NONE', *, *, #368, .T. ) ;
#158 = EDGE_LOOP ( 'NONE', ( #195, #150 ) ) ;
#159 = FACE_OUTER_BOUND ( 'NONE', #257, .T. ) ;
#160 = CIRCLE ( 'NONE', #67, 1.399999999999999911 ) ;
#161 = VERTEX_POINT ( 'NONE', #143 ) ;
#162 = CYLINDRICAL_SURFACE ( 'NONE', #339, 1.399999999999999911 ) ;
#163 = CARTESIAN_POINT ( 'NONE',  ( -2.500000000000000000, -1.400000000000000133, -0.2999999999999999334 ) ) ;
#164 = EDGE_CURVE ( 'NONE', #354, #83, #138, .T. ) ;
#165 = CYLINDRICAL_SURFACE ( 'NONE', #286, 1.000000000000000000 ) ;
#166 = PRODUCT_RELATED_PRODUCT_CATEGORY ( 'part', '', ( #261 ) ) ;
#167 =( NAMED_UNIT ( * ) SI_UNIT ( $, .STERADIAN. ) SOLID_ANGLE_UNIT ( ) );
#168 = VERTEX_POINT ( 'NONE', #46 ) ;
#169 = DIRECTION ( 'NONE',  ( 0.000000000000000000, 0.000000000000000000, 1.000000000000000000 ) ) ;
#170 = AXIS2_PLACEMENT_3D ( 'NONE', #288, #411, #190 ) ;
#171 = VERTEX_POINT ( 'NONE', #12 ) ;
#172 = AXIS2_PLACEMENT_3D ( 'NONE', #105, #236, #401 ) ;
#173 = DIRECTION ( 'NONE',  ( 0.000000000000000000, 1.000000000000000000, 0.000000000000000000 ) ) ;
#174 = DIRECTION ( 'NONE',  ( 0.000000000000000000, 1.000000000000000000, 0.000000000000000000 ) ) ;
#175 = CIRCLE ( 'NONE', #123, 1.000000000000000000 ) ;
#176 = CARTESIAN_POINT ( 'NONE',  ( 1.977371993328518762, -2.000000000000000000, 0.3000000000000000444 ) ) ;
#177 = AXIS2_PLACEMENT_3D ( 'NONE', #144, #210, #9 ) ;
#178 = CARTESIAN_POINT ( 'NONE',  ( 1.224646799147353207E-16, 5.200000000000000178, 1.000000000000000000 ) ) ;
#179 = ORIENTED_EDGE ( 'NONE', *, *, #131, .T. ) ;
#180 = FACE_OUTER_BOUND ( 'NONE', #151, .T. ) ;
#181 = ORIENTED_EDGE ( 'NONE', *, *, #238, .T. ) ;
#182 = ADVANCED_FACE ( 'NONE', ( #240, #142 ), #239, .T. ) ;
#183 = DIRECTION ( 'NONE',  ( 0.000000000000000000, -0.000000000000000000, 1.000000000000000000 ) ) ;
#184 = DIRECTION ( 'NONE',  ( 0.000000000000000000, 0.000000000000000000, -1.000000000000000000 ) ) ;
#185 = FACE_OUTER_BOUND ( 'NONE', #158, .T. ) ;
#186 = VERTEX_POINT ( 'NONE', #178 ) ;
#187 = VERTEX_POINT ( 'NONE', #362 ) ;
#188 = CARTESIAN_POINT ( 'NONE',  ( -1.977371993328518762, -1.400000000000000133, 0.3000000000000000444 ) ) ;
#189 = EDGE_LOOP ( 'NONE', ( #290, #129 ) ) ;
#190 = DIRECTION ( 'NONE',  ( 0.000000000000000000, 0.000000000000000000, 1.000000000000000000 ) ) ;
#191 = SURFACE_SIDE_STYLE ('',( #352 ) ) ;
#192 = VERTEX_POINT ( 'NONE', #75 ) ;
#193 = CARTESIAN_POINT ( 'NONE',  ( 2.449293598294706414E-16, -2.000000000000000000, -2.000000000000000000 ) ) ;
#194 = CIRCLE ( 'NONE', #8, 1.399999999999999911 ) ;
#195 = ORIENTED_EDGE ( 'NONE', *, *, #30, .T. ) ;
#196 = EDGE_CURVE ( 'NONE', #112, #315, #277, .T. ) ;
#197 = DIRECTION ( 'NONE',  ( 0.000000000000000000, 0.000000000000000000, -1.000000000000000000 ) ) ;
#198 = EDGE_CURVE ( 'NONE', #403, #64, #194, .T. ) ;
#199 = VECTOR ( 'NONE', #93, 1000.000000000000000 ) ;
#200 = EDGE_CURVE ( 'NONE', #161, #89, #80, .T. ) ;
#201 = DIRECTION ( 'NONE',  ( -0.000000000000000000, -1.000000000000000000, -0.000000000000000000 ) ) ;
#202 = ORIENTED_EDGE ( 'NONE', *, *, #198, .F. ) ;
#203 = ORIENTED_EDGE ( 'NONE', *, *, #384, .T. ) ;
#204 = LINE ( 'NONE', #110, #231 ) ;
#205 = ORIENTED_EDGE ( 'NONE', *, *, #329, .T. ) ;
#206 = EDGE_CURVE ( 'NONE', #388, #186, #115, .T. ) ;
#207 = DIRECTION ( 'NONE',  ( -0.000000000000000000, -1.000000000000000000, -0.000000000000000000 ) ) ;
#208 = CARTESIAN_POINT ( 'NONE',  ( 0.000000000000000000, 2.200000000000000178, -1.399999999999999911 ) ) ;
#209 = EDGE_CURVE ( 'NONE', #64, #403, #357, .T. ) ;
#210 = DIRECTION ( 'NONE',  ( 0.000000000000000000, 1.000000000000000000, 0.000000000000000000 ) ) ;
#211 = AXIS2_PLACEMENT_3D ( 'NONE', #276, #344, #7 ) ;
#212 = CYLINDRICAL_SURFACE ( 'NONE', #355, 1.399999999999999911 ) ;
#213 = CARTESIAN_POINT ( 'NONE',  ( 0.000000000000000000, -2.000000000000000000, 2.000000000000000000 ) ) ;
#214 = ORIENTED_EDGE ( 'NONE', *, *, #84, .T. ) ;
#215 = FILL_AREA_STYLE_COLOUR ( '', #216 ) ;
#216 = COLOUR_RGB ( '',1.000000000000000000, 1.000000000000000000, 1.000000000000000000 ) ;
#217 = ORIENTED_EDGE ( 'NONE', *, *, #274, .T. ) ;
#218 = CARTESIAN_POINT ( 'NONE',  ( 0.000000000000000000, -2.000000000000000000, 0.000000000000000000 ) ) ;
#219 = ORIENTED_EDGE ( 'NONE', *, *, #209, .F. ) ;
#220 = FILL_AREA_STYLE ('',( #215 ) ) ;
#221 = EDGE_LOOP ( 'NONE', ( #113, #346, #103, #101 ) ) ;
#222 = ORIENTED_EDGE ( 'NONE', *, *, #84, .F. ) ;
#223 = DIRECTION ( 'NONE',  ( 0.000000000000000000, 0.000000000000000000, 1.000000000000000000 ) ) ;
#224 = EDGE_LOOP ( 'NONE', ( #125, #82, #311, #268 ) ) ;
#225 = AXIS2_PLACEMENT_3D ( 'NONE', #218, #19, #281 ) ;
#226 = ORIENTED_EDGE ( 'NONE', *, *, #10, .F. ) ;
#227 = AXIS2_PLACEMENT_3D ( 'NONE', #124, #366, #61 ) ;
#228 = DIRECTION ( 'NONE',  ( -0.000000000000000000, 1.000000000000000000, -0.000000000000000000 ) ) ;
#229 = CIRCLE ( 'NONE', #99, 2.000000000000000000 ) ;
#230 = CARTESIAN_POINT ( 'NONE',  ( 0.000000000000000000, 2.200000000000000178, 0.000000000000000000 ) ) ;
#231 = VECTOR ( 'NONE', #242, 1000.000000000000000 ) ;
#232 = FACE_OUTER_BOUND ( 'NONE', #48, .T. ) ;
#233 = ORIENTED_EDGE ( 'NONE', *, *, #57, .T. ) ;
#234 = DIRECTION ( 'NONE',  ( 0.000000000000000000, 1.000000000000000000, 0.000000000000000000 ) ) ;
#235 = EDGE_CURVE ( 'NONE', #413, #284, #204, .T. ) ;
#236 = DIRECTION ( 'NONE',  ( 0.000000000000000000, 1.000000000000000000, 0.000000000000000000 ) ) ;
#237 = ADVANCED_FACE ( 'NONE', ( #364 ), #334, .F. ) ;
#238 = EDGE_CURVE ( 'NONE', #186, #83, #140, .T. ) ;
#239 = PLANE ( 'NONE',  #267 ) ;
#240 = FACE_BOUND ( 'NONE', #189, .T. ) ;
#241 = DIRECTION ( 'NONE',  ( 0.000000000000000000, 0.000000000000000000, 1.000000000000000000 ) ) ;
#242 = DIRECTION ( 'NONE',  ( 0.000000000000000000, 1.000000000000000000, 0.000000000000000000 ) ) ;
#243 = ORIENTED_EDGE ( 'NONE', *, *, #252, .F. ) ;
#244 = VECTOR ( 'NONE', #79, 1000.000000000000000 ) ;
#245 = ORIENTED_EDGE ( 'NONE', *, *, #196, .F. ) ;
#246 = ORIENTED_EDGE ( 'NONE', *, *, #122, .F. ) ;
#247 = EDGE_LOOP ( 'NONE', ( #324, #226, #118, #243 ) ) ;
#248 = CARTESIAN_POINT ( 'NONE',  ( 2.449293598294706414E-16, 0.000000000000000000, -2.000000000000000000 ) ) ;
#249 = PRESENTATION_STYLE_ASSIGNMENT (( #378 ) ) ;
#250 =( GEOMETRIC_REPRESENTATION_CONTEXT ( 3 ) GLOBAL_UNCERTAINTY_ASSIGNED_CONTEXT ( ( #331 ) ) GLOBAL_UNIT_ASSIGNED_CONTEXT ( ( #282, #323, #120 ) ) REPRESENTATION_CONTEXT ( 'NONE', 'WORKASPACE' ) );
#251 = EDGE_LOOP ( 'NONE', ( #17, #181, #203, #265 ) ) ;
#252 = EDGE_CURVE ( 'NONE', #187, #284, #372, .T. ) ;
#253 = CYLINDRICAL_SURFACE ( 'NONE', #225, 2.000000000000000000 ) ;
#254 = CARTESIAN_POINT ( 'NONE',  ( -2.500000000000000000, -1.400000000000000133, 0.3000000000000000444 ) ) ;
#255 = ORIENTED_EDGE ( 'NONE', *, *, #131, .F. ) ;
#256 = CARTESIAN_POINT ( 'NONE',  ( 0.000000000000000000, -2.000000000000000000, 0.3000000000000000444 ) ) ;
#257 = EDGE_LOOP ( 'NONE', ( #350, #308, #127 ) ) ;
#258 = DIRECTION ( 'NONE',  ( 0.000000000000000000, 1.000000000000000000, 0.000000000000000000 ) ) ;
#259 = ORIENTED_EDGE ( 'NONE', *, *, #238, .F. ) ;
#260 =( NAMED_UNIT ( * ) PLANE_ANGLE_UNIT ( ) SI_UNIT ( $, .RADIAN. ) );
#261 = PRODUCT ( 'ZB_V1_M2', 'ZB_V1_M2', '', ( #130 ) ) ;
#262 = SHAPE_DEFINITION_REPRESENTATION ( #296, #2 ) ;
#263 = DIRECTION ( 'NONE',  ( 0.000000000000000000, 0.000000000000000000, -1.000000000000000000 ) ) ;
#264 = CARTESIAN_POINT ( 'NONE',  ( 0.000000000000000000, 2.200000000000000178, 0.000000000000000000 ) ) ;
#265 = ORIENTED_EDGE ( 'NONE', *, *, #383, .F. ) ;
#266 = CARTESIAN_POINT ( 'NONE',  ( 1.977371993328518762, -2.000000000000000000, 0.3000000000000000444 ) ) ;
#267 = AXIS2_PLACEMENT_3D ( 'NONE', #269, #174, #273 ) ;
#268 = ORIENTED_EDGE ( 'NONE', *, *, #287, .F. ) ;
#269 = CARTESIAN_POINT ( 'NONE',  ( 0.000000000000000000, 2.200000000000000178, 0.000000000000000000 ) ) ;
#270 = ADVANCED_FACE ( 'NONE', ( #86 ), #16, .T. ) ;
#271 = CIRCLE ( 'NONE', #68, 2.000000000000000000 ) ;
#272 = ADVANCED_FACE ( 'NONE', ( #367 ), #22, .T. ) ;
#273 = DIRECTION ( 'NONE',  ( 0.000000000000000000, -0.000000000000000000, 1.000000000000000000 ) ) ;
#274 = EDGE_CURVE ( 'NONE', #186, #388, #175, .T. ) ;
#275 = MANIFOLD_SOLID_BREP ( '\X2\52079664\X0\-\X2\62c94f38\X0\1', #74 ) ;
#276 = CARTESIAN_POINT ( 'NONE',  ( 0.000000000000000000, -2.000000000000000000, 0.000000000000000000 ) ) ;
#277 = LINE ( 'NONE', #305, #365 ) ;
#278 = ORIENTED_EDGE ( 'NONE', *, *, #146, .T. ) ;
#279 = ORIENTED_EDGE ( 'NONE', *, *, #206, .T. ) ;
#280 = DIRECTION ( 'NONE',  ( -0.000000000000000000, -1.000000000000000000, -0.000000000000000000 ) ) ;
#281 = DIRECTION ( 'NONE',  ( 0.000000000000000000, 0.000000000000000000, 1.000000000000000000 ) ) ;
#282 =( LENGTH_UNIT ( ) NAMED_UNIT ( * ) SI_UNIT ( .MILLI., .METRE. ) );
#283 = EDGE_CURVE ( 'NONE', #73, #315, #271, .T. ) ;
#284 = VERTEX_POINT ( 'NONE', #188 ) ;
#285 = DIRECTION ( 'NONE',  ( -1.000000000000000000, -0.000000000000000000, -0.000000000000000000 ) ) ;
#286 = AXIS2_PLACEMENT_3D ( 'NONE', #102, #201, #34 ) ;
#287 = EDGE_CURVE ( 'NONE', #192, #284, #85, .T. ) ;
#288 = CARTESIAN_POINT ( 'NONE',  ( 0.000000000000000000, -2.000000000000000000, 0.000000000000000000 ) ) ;
#289 = PLANE ( 'NONE',  #410 ) ;
#290 = ORIENTED_EDGE ( 'NONE', *, *, #164, .F. ) ;
#291 = CARTESIAN_POINT ( 'NONE',  ( 1.224646799147353207E-16, 5.200000000000000178, 1.000000000000000000 ) ) ;
#292 = VECTOR ( 'NONE', #310, 1000.000000000000000 ) ;
#293 = ORIENTED_EDGE ( 'NONE', *, *, #70, .F. ) ;
#294 = PLANE ( 'NONE',  #24 ) ;
#295 = CARTESIAN_POINT ( 'NONE',  ( 1.714505518806294391E-16, 0.000000000000000000, 1.399999999999999911 ) ) ;
#296 = PRODUCT_DEFINITION_SHAPE ( 'NONE', 'NONE',  #397 ) ;
#297 = DIRECTION ( 'NONE',  ( -9.769962616701377556E-15, 0.000000000000000000, -1.000000000000000000 ) ) ;
#298 = CARTESIAN_POINT ( 'NONE',  ( 0.000000000000000000, 5.200000000000000178, -1.000000000000000000 ) ) ;
#299 = VECTOR ( 'NONE', #29, 1000.000000000000000 ) ;
#300 = CYLINDRICAL_SURFACE ( 'NONE', #211, 2.000000000000000000 ) ;
#301 = AXIS2_PLACEMENT_3D ( 'NONE', #14, #361, #45 ) ;
#302 = DIRECTION ( 'NONE',  ( 0.000000000000000000, -0.000000000000000000, 1.000000000000000000 ) ) ;
#303 = ADVANCED_FACE ( 'NONE', ( #159 ), #289, .F. ) ;
#304 = STYLED_ITEM ( 'NONE', ( #249 ), #275 ) ;
#305 = CARTESIAN_POINT ( 'NONE',  ( 0.000000000000000000, -2.000000000000000000, 2.000000000000000000 ) ) ;
#306 = CARTESIAN_POINT ( 'NONE',  ( 0.000000000000000000, 2.200000000000000178, 0.000000000000000000 ) ) ;
#307 = CARTESIAN_POINT ( 'NONE',  ( 0.000000000000000000, 0.000000000000000000, 0.000000000000000000 ) ) ;
#308 = ORIENTED_EDGE ( 'NONE', *, *, #10, .T. ) ;
#309 = DIRECTION ( 'NONE',  ( 0.000000000000000000, 1.000000000000000000, 0.000000000000000000 ) ) ;
#310 = DIRECTION ( 'NONE',  ( -0.000000000000000000, -1.000000000000000000, -0.000000000000000000 ) ) ;
#311 = ORIENTED_EDGE ( 'NONE', *, *, #252, .T. ) ;
#312 = CARTESIAN_POINT ( 'NONE',  ( 0.000000000000000000, 0.000000000000000000, -1.399999999999999911 ) ) ;
#313 = PLANE ( 'NONE',  #11 ) ;
#314 = EDGE_CURVE ( 'NONE', #161, #403, #347, .T. ) ;
#315 = VERTEX_POINT ( 'NONE', #56 ) ;
#316 = CARTESIAN_POINT ( 'NONE',  ( 0.000000000000000000, 5.200000000000000178, 0.000000000000000000 ) ) ;
#317 = DIRECTION ( 'NONE',  ( 0.000000000000000000, 1.000000000000000000, 0.000000000000000000 ) ) ;
#318 = ADVANCED_FACE ( 'NONE', ( #114, #185 ), #313, .T. ) ;
#319 = DIRECTION ( 'NONE',  ( 1.000000000000000000, 0.000000000000000000, 0.000000000000000000 ) ) ;
#320 = CARTESIAN_POINT ( 'NONE',  ( 0.000000000000000000, 0.000000000000000000, 0.000000000000000000 ) ) ;
#321 = EDGE_LOOP ( 'NONE', ( #214, #39, #27, #245, #278, #137, #157, #417 ) ) ;
#322 = CARTESIAN_POINT ( 'NONE',  ( -2.500000000000000000, -1.400000000000000133, 0.3000000000000000444 ) ) ;
#323 =( NAMED_UNIT ( * ) PLANE_ANGLE_UNIT ( ) SI_UNIT ( $, .RADIAN. ) );
#324 = ORIENTED_EDGE ( 'NONE', *, *, #116, .T. ) ;
#325 = DIRECTION ( 'NONE',  ( 0.000000000000000000, 1.000000000000000000, 0.000000000000000000 ) ) ;
#326 = CIRCLE ( 'NONE', #108, 2.000000000000000000 ) ;
#327 = CARTESIAN_POINT ( 'NONE',  ( 0.000000000000000000, 0.000000000000000000, 0.000000000000000000 ) ) ;
#328 = AXIS2_PLACEMENT_3D ( 'NONE', #23, #156, #26 ) ;
#329 = EDGE_CURVE ( 'NONE', #413, #112, #229, .T. ) ;
#330 = DIRECTION ( 'NONE',  ( 0.000000000000000000, 1.000000000000000000, 0.000000000000000000 ) ) ;
#331 = UNCERTAINTY_MEASURE_WITH_UNIT (LENGTH_MEASURE( 1.000000000000000082E-05 ), #282, 'distance_accuracy_value', 'NONE');
#332 = VECTOR ( 'NONE', #49, 1000.000000000000000 ) ;
#333 = ADVANCED_FACE ( 'NONE', ( #132 ), #165, .T. ) ;
#334 = PLANE ( 'NONE',  #47 ) ;
#335 = CIRCLE ( 'NONE', #227, 2.000000000000000000 ) ;
#336 = ORIENTED_EDGE ( 'NONE', *, *, #283, .F. ) ;
#337 = DIRECTION ( 'NONE',  ( 0.000000000000000000, 0.000000000000000000, 1.000000000000000000 ) ) ;
#338 = VECTOR ( 'NONE', #65, 1000.000000000000000 ) ;
#339 = AXIS2_PLACEMENT_3D ( 'NONE', #230, #418, #263 ) ;
#340 = DIRECTION ( 'NONE',  ( 0.000000000000000000, 1.000000000000000000, 0.000000000000000000 ) ) ;
#341 = CARTESIAN_POINT ( 'NONE',  ( -2.500000000000000000, -1.400000000000000133, -0.2999999999999999334 ) ) ;
#342 = AXIS2_PLACEMENT_3D ( 'NONE', #306, #394, #77 ) ;
#343 = DIRECTION ( 'NONE',  ( -0.000000000000000000, -1.000000000000000000, -0.000000000000000000 ) ) ;
#344 = DIRECTION ( 'NONE',  ( 0.000000000000000000, 1.000000000000000000, 0.000000000000000000 ) ) ;
#345 = EDGE_CURVE ( 'NONE', #81, #168, #31, .T. ) ;
#346 = ORIENTED_EDGE ( 'NONE', *, *, #57, .F. ) ;
#347 = LINE ( 'NONE', #412, #199 ) ;
#348 = FACE_OUTER_BOUND ( 'NONE', #321, .T. ) ;
#349 = DIRECTION ( 'NONE',  ( 0.000000000000000000, -0.000000000000000000, 1.000000000000000000 ) ) ;
#350 = ORIENTED_EDGE ( 'NONE', *, *, #329, .F. ) ;
#351 = LINE ( 'NONE', #51, #332 ) ;
#352 = SURFACE_STYLE_FILL_AREA ( #220 ) ;
#353 = VECTOR ( 'NONE', #330, 1000.000000000000000 ) ;
#354 = VERTEX_POINT ( 'NONE', #382 ) ;
#355 = AXIS2_PLACEMENT_3D ( 'NONE', #155, #343, #184 ) ;
#356 = CARTESIAN_POINT ( 'NONE',  ( 0.000000000000000000, -1.400000000000000133, 0.000000000000000000 ) ) ;
#357 = CIRCLE ( 'NONE', #172, 1.399999999999999911 ) ;
#358 = ADVANCED_FACE ( 'NONE', ( #96 ), #294, .F. ) ;
#359 = MECHANICAL_DESIGN_GEOMETRIC_PRESENTATION_REPRESENTATION (  '', ( #304 ), #250 ) ;
#360 = CIRCLE ( 'NONE', #28, 2.000000000000000000 ) ;
#361 = DIRECTION ( 'NONE',  ( 0.000000000000000000, 1.000000000000000000, 0.000000000000000000 ) ) ;
#362 = CARTESIAN_POINT ( 'NONE',  ( 1.977371993328518762, -1.400000000000000133, 0.3000000000000000444 ) ) ;
#363 = DIRECTION ( 'NONE',  ( 0.000000000000000000, 0.000000000000000000, 1.000000000000000000 ) ) ;
#364 = FACE_OUTER_BOUND ( 'NONE', #379, .T. ) ;
#365 = VECTOR ( 'NONE', #234, 1000.000000000000000 ) ;
#366 = DIRECTION ( 'NONE',  ( 0.000000000000000000, 1.000000000000000000, 0.000000000000000000 ) ) ;
#367 = FACE_OUTER_BOUND ( 'NONE', #224, .T. ) ;
#368 = EDGE_CURVE ( 'NONE', #187, #168, #326, .T. ) ;
#369 = ORIENTED_EDGE ( 'NONE', *, *, #235, .F. ) ;
#370 = ORIENTED_EDGE ( 'NONE', *, *, #395, .F. ) ;
#371 = PLANE ( 'NONE',  #42 ) ;
#372 = LINE ( 'NONE', #254, #390 ) ;
#373 = CARTESIAN_POINT ( 'NONE',  ( 1.977371993328519206, -2.000000000000000000, -0.2999999999999999334 ) ) ;
#374 = ORIENTED_EDGE ( 'NONE', *, *, #381, .F. ) ;
#375 = CARTESIAN_POINT ( 'NONE',  ( 1.224646799147353207E-16, 2.200000000000000178, 1.000000000000000000 ) ) ;
#376 = CARTESIAN_POINT ( 'NONE',  ( 0.000000000000000000, -2.000000000000000000, 0.000000000000000000 ) ) ;
#377 = ORIENTED_EDGE ( 'NONE', *, *, #198, .T. ) ;
#378 = SURFACE_STYLE_USAGE ( .BOTH. , #191 ) ;
#379 = EDGE_LOOP ( 'NONE', ( #222, #233, #370 ) ) ;
#380 = APPLICATION_PROTOCOL_DEFINITION ( 'draft international standard', 'automotive_design', 1998, #38 ) ;
#381 = EDGE_CURVE ( 'NONE', #21, #73, #36, .T. ) ;
#382 = CARTESIAN_POINT ( 'NONE',  ( 0.000000000000000000, 2.200000000000000178, -1.000000000000000000 ) ) ;
#383 = EDGE_CURVE ( 'NONE', #388, #354, #421, .T. ) ;
#384 = EDGE_CURVE ( 'NONE', #83, #354, #154, .T. ) ;
#385 = CARTESIAN_POINT ( 'NONE',  ( 0.000000000000000000, -1.400000000000000133, 0.000000000000000000 ) ) ;
#386 = CARTESIAN_POINT ( 'NONE',  ( 1.977371993328518762, -2.000000000000000000, -0.2999999999999999334 ) ) ;
#387 = PRODUCT_DEFINITION_CONTEXT ( 'detailed design', #53, 'design' ) ;
#388 = VERTEX_POINT ( 'NONE', #298 ) ;
#389 = DIRECTION ( 'NONE',  ( 0.000000000000000000, 1.000000000000000000, 0.000000000000000000 ) ) ;
#390 = VECTOR ( 'NONE', #285, 1000.000000000000000 ) ;
#391 = EDGE_LOOP ( 'NONE', ( #97, #117 ) ) ;
#392 = CARTESIAN_POINT ( 'NONE',  ( 0.000000000000000000, 2.200000000000000178, 0.000000000000000000 ) ) ;
#393 = EDGE_LOOP ( 'NONE', ( #219, #202 ) ) ;
#394 = DIRECTION ( 'NONE',  ( 0.000000000000000000, 1.000000000000000000, 0.000000000000000000 ) ) ;
#395 = EDGE_CURVE ( 'NONE', #21, #171, #4, .T. ) ;
#396 = LINE ( 'NONE', #176, #147 ) ;
#397 = PRODUCT_DEFINITION ( 'ๆ', '', #76, #387 ) ;
#398 = CARTESIAN_POINT ( 'NONE',  ( 0.000000000000000000, -2.000000000000000000, 0.000000000000000000 ) ) ;
#399 =( GEOMETRIC_REPRESENTATION_CONTEXT ( 3 ) GLOBAL_UNCERTAINTY_ASSIGNED_CONTEXT ( ( #71 ) ) GLOBAL_UNIT_ASSIGNED_CONTEXT ( ( #69, #260, #167 ) ) REPRESENTATION_CONTEXT ( 'NONE', 'WORKASPACE' ) );
#400 = FACE_OUTER_BOUND ( 'NONE', #37, .T. ) ;
#401 = DIRECTION ( 'NONE',  ( 0.000000000000000000, 0.000000000000000000, 1.000000000000000000 ) ) ;
#402 = AXIS2_PLACEMENT_3D ( 'NONE', #316, #309, #183 ) ;
#403 = VERTEX_POINT ( 'NONE', #295 ) ;
#404 = DIRECTION ( 'NONE',  ( 0.000000000000000000, 0.000000000000000000, 1.000000000000000000 ) ) ;
#405 = ORIENTED_EDGE ( 'NONE', *, *, #395, .T. ) ;
#406 = VECTOR ( 'NONE', #319, 1000.000000000000000 ) ;
#407 = EDGE_LOOP ( 'NONE', ( #259, #148, #18, #95 ) ) ;
#408 = CARTESIAN_POINT ( 'NONE',  ( 2.449293598294706414E-16, -2.000000000000000000, -2.000000000000000000 ) ) ;
#409 = DIRECTION ( 'NONE',  ( 0.000000000000000000, -0.000000000000000000, -1.000000000000000000 ) ) ;
#410 = AXIS2_PLACEMENT_3D ( 'NONE', #416, #52, #349 ) ;
#411 = DIRECTION ( 'NONE',  ( 0.000000000000000000, 1.000000000000000000, 0.000000000000000000 ) ) ;
#412 = CARTESIAN_POINT ( 'NONE',  ( 1.714505518806294391E-16, 2.200000000000000178, 1.399999999999999911 ) ) ;
#413 = VERTEX_POINT ( 'NONE', #35 ) ;
#414 = VERTEX_POINT ( 'NONE', #266 ) ;
#415 = VECTOR ( 'NONE', #106, 1000.000000000000000 ) ;
#416 = CARTESIAN_POINT ( 'NONE',  ( 0.000000000000000000, -2.000000000000000000, 0.000000000000000000 ) ) ;
#417 = ORIENTED_EDGE ( 'NONE', *, *, #345, .F. ) ;
#418 = DIRECTION ( 'NONE',  ( -0.000000000000000000, -1.000000000000000000, -0.000000000000000000 ) ) ;
#419 = ADVANCED_FACE ( 'NONE', ( #232 ), #162, .T. ) ;
#420 = CIRCLE ( 'NONE', #170, 2.000000000000000000 ) ;
#421 = LINE ( 'NONE', #1, #299 ) ;
ENDSEC;
END-ISO-10303-21;
