ISO-10303-21;
HEADER;
FILE_DESCRIPTION (( 'STEP AP214' ),
    '1' );
FILE_NAME ('LED_D3.0mm-2x1_RightAngle.step',
    '2026-09-16T13:18:19',
    ( '' ),
    ( '' ),
    'SwSTEP 2.0',
    'SolidWorks 2025',
    '' );
FILE_SCHEMA (( 'AUTOMOTIVE_DESIGN' ));
ENDSEC;

DATA;
#1 = CARTESIAN_POINT ( 'NONE',  ( 2.150000000000012790, 6.349999999999999645, 9.649999999999998579 ) ) ;
#2 = VERTEX_POINT ( 'NONE', #610 ) ;
#3 = ADVANCED_FACE ( 'NONE', ( #936 ), #186, .F. ) ;
#4 = VERTEX_POINT ( 'NONE', #350 ) ;
#5 = EDGE_CURVE ( 'NONE', #1016, #1059, #915, .T. ) ;
#6 = AXIS2_PLACEMENT_3D ( 'NONE', #182, #602, #93 ) ;
#7 = EDGE_CURVE ( 'NONE', #4, #899, #852, .T. ) ;
#8 = ORIENTED_EDGE ( 'NONE', *, *, #396, .F. ) ;
#9 = EDGE_LOOP ( 'NONE', ( #997, #46, #698, #438 ) ) ;
#10 = ORIENTED_EDGE ( 'NONE', *, *, #79, .T. ) ;
#11 = DIRECTION ( 'NONE',  ( 0.000000000000000000, 1.000000000000000000, 0.000000000000000000 ) ) ;
#12 = ADVANCED_FACE ( 'NONE', ( #835 ), #107, .T. ) ;
#13 = ORIENTED_EDGE ( 'NONE', *, *, #665, .T. ) ;
#14 = CARTESIAN_POINT ( 'NONE',  ( 1.270000000000007123, -1.270000000000000240, -1.000000000000000888 ) ) ;
#15 = LINE ( 'NONE', #430, #825 ) ;
#16 = EDGE_CURVE ( 'NONE', #769, #102, #844, .T. ) ;
#17 = DIRECTION ( 'NONE',  ( -0.000000000000000000, 0.000000000000000000, -1.000000000000000000 ) ) ;
#18 = ORIENTED_EDGE ( 'NONE', *, *, #1028, .T. ) ;
#19 = DIRECTION ( 'NONE',  ( 0.000000000000000000, 0.000000000000000000, 1.000000000000000000 ) ) ;
#20 = VECTOR ( 'NONE', #388, 1000.000000000000000 ) ;
#21 = VECTOR ( 'NONE', #23, 1000.000000000000000 ) ;
#22 = CARTESIAN_POINT ( 'NONE',  ( 1.520000000000007567, -1.020000000000000018, -4.000000000000000000 ) ) ;
#23 = DIRECTION ( 'NONE',  ( 0.000000000000000000, -1.000000000000000000, 0.000000000000000000 ) ) ;
#24 = DIRECTION ( 'NONE',  ( 0.000000000000000000, -1.000000000000000000, 0.000000000000000000 ) ) ;
#25 = ORIENTED_EDGE ( 'NONE', *, *, #717, .F. ) ;
#26 = LINE ( 'NONE', #658, #724 ) ;
#27 = ORIENTED_EDGE ( 'NONE', *, *, #424, .T. ) ;
#28 = DIRECTION ( 'NONE',  ( -1.000000000000000000, 0.000000000000000000, 0.000000000000000000 ) ) ;
#29 = CARTESIAN_POINT ( 'NONE',  ( -1.019999999999993134, -1.020000000000000018, -4.000000000000000000 ) ) ;
#30 = ORIENTED_EDGE ( 'NONE', *, *, #968, .F. ) ;
#31 = CARTESIAN_POINT ( 'NONE',  ( -1.519999999929994017, -1.519999999180000172, 0.000000000000000000 ) ) ;
#32 = CARTESIAN_POINT ( 'NONE',  ( 1.269999999180010386, 1.019999999930000456, 0.000000000000000000 ) ) ;
#33 = DIRECTION ( 'NONE',  ( -1.000000000000000000, 0.000000000000000000, 0.000000000000000000 ) ) ;
#34 = ORIENTED_EDGE ( 'NONE', *, *, #920, .F. ) ;
#35 = EDGE_CURVE ( 'NONE', #1018, #729, #502, .T. ) ;
#36 = FACE_OUTER_BOUND ( 'NONE', #332, .T. ) ;
#37 = CARTESIAN_POINT ( 'NONE',  ( 2.150000000000012790, -2.649999999999999467, 4.824999999810001938 ) ) ;
#38 = VECTOR ( 'NONE', #220, 1000.000000000000000 ) ;
#39 = CIRCLE ( 'NONE', #89, 1.500000000000000000 ) ;
#40 = CARTESIAN_POINT ( 'NONE',  ( 1.520000000000007567, 1.520000000000000462, -2.000000000000001776 ) ) ;
#41 = ORIENTED_EDGE ( 'NONE', *, *, #377, .F. ) ;
#42 = FACE_OUTER_BOUND ( 'NONE', #168, .T. ) ;
#43 = DIRECTION ( 'NONE',  ( 0.000000000000000000, 1.000000000000000000, 0.000000000000000000 ) ) ;
#44 = FACE_OUTER_BOUND ( 'NONE', #544, .T. ) ;
#45 = EDGE_CURVE ( 'NONE', #769, #111, #180, .T. ) ;
#46 = ORIENTED_EDGE ( 'NONE', *, *, #269, .F. ) ;
#47 = ORIENTED_EDGE ( 'NONE', *, *, #834, .F. ) ;
#48 = CARTESIAN_POINT ( 'NONE',  ( -1.019999999929993573, 1.519999999929999124, 0.000000000000000000 ) ) ;
#49 = LINE ( 'NONE', #37, #893 ) ;
#50 = ORIENTED_EDGE ( 'NONE', *, *, #484, .F. ) ;
#51 = CARTESIAN_POINT ( 'NONE',  ( 1.500000000000015099, 8.849999999999999645, 2.540000000000000480 ) ) ;
#52 = DIRECTION ( 'NONE',  ( -0.000000000000000000, 0.000000000000000000, -1.000000000000000000 ) ) ;
#53 = VECTOR ( 'NONE', #695, 1000.000000000000000 ) ;
#54 = AXIS2_PLACEMENT_3D ( 'NONE', #368, #287, #203 ) ;
#55 = DIRECTION ( 'NONE',  ( -1.000000000000000000, -0.000000000000000000, 0.000000000000000000 ) ) ;
#56 = CARTESIAN_POINT ( 'NONE',  ( -1.019999999999993134, 1.270000000000000240, -4.000000000000000000 ) ) ;
#57 = ORIENTED_EDGE ( 'NONE', *, *, #16, .F. ) ;
#58 = VECTOR ( 'NONE', #591, 1000.000000000000000 ) ;
#59 = VERTEX_POINT ( 'NONE', #95 ) ;
#60 = DIRECTION ( 'NONE',  ( 0.000000000000000000, 1.000000000000000000, 0.000000000000000000 ) ) ;
#61 = ADVANCED_FACE ( 'NONE', ( #594 ), #683, .T. ) ;
#62 = FACE_OUTER_BOUND ( 'NONE', #509, .T. ) ;
#63 = CARTESIAN_POINT ( 'NONE',  ( -1.519999999999993578, -1.270000000000000240, -4.000000000000000000 ) ) ;
#64 = ORIENTED_EDGE ( 'NONE', *, *, #288, .F. ) ;
#65 = EDGE_CURVE ( 'NONE', #351, #280, #171, .T. ) ;
#66 = CARTESIAN_POINT ( 'NONE',  ( -1.519999999999993578, 1.270000000000000240, -4.000000000000000000 ) ) ;
#67 = CARTESIAN_POINT ( 'NONE',  ( -2.149999999999985256, 6.349999999999999645, 9.649999999999998579 ) ) ;
#68 = ORIENTED_EDGE ( 'NONE', *, *, #252, .T. ) ;
#69 = LINE ( 'NONE', #817, #1043 ) ;
#70 = DIRECTION ( 'NONE',  ( 0.000000000000000000, -1.000000000000000000, 0.000000000000000000 ) ) ;
#71 = VERTEX_POINT ( 'NONE', #507 ) ;
#72 = VECTOR ( 'NONE', #342, 1000.000000000000000 ) ;
#73 = CIRCLE ( 'NONE', #565, 1.500000000000000000 ) ;
#74 = CIRCLE ( 'NONE', #247, 1.500000000000000000 ) ;
#75 = FACE_OUTER_BOUND ( 'NONE', #875, .T. ) ;
#76 = DIRECTION ( 'NONE',  ( 0.000000000000000000, 0.000000000000000000, 1.000000000000000000 ) ) ;
#77 = EDGE_CURVE ( 'NONE', #882, #59, #760, .T. ) ;
#78 = CARTESIAN_POINT ( 'NONE',  ( -1.519999999999993578, -1.020000000000000018, -4.000000000000000000 ) ) ;
#79 = EDGE_CURVE ( 'NONE', #282, #933, #15, .T. ) ;
#80 = DIRECTION ( 'NONE',  ( 0.000000000000000000, 0.000000000000000000, 1.000000000000000000 ) ) ;
#81 = ADVANCED_FACE ( 'NONE', ( #756 ), #520, .T. ) ;
#82 = PLANE ( 'NONE',  #395 ) ;
#83 = ORIENTED_EDGE ( 'NONE', *, *, #453, .F. ) ;
#84 = ADVANCED_FACE ( 'NONE', ( #183, #213, #456 ), #638, .F. ) ;
#85 = CARTESIAN_POINT ( 'NONE',  ( -2.150000000749982654, 1.850000000000000977, 0.000000000000000000 ) ) ;
#86 = ORIENTED_EDGE ( 'NONE', *, *, #309, .F. ) ;
#87 = CARTESIAN_POINT ( 'NONE',  ( -1.519999999999993578, -1.520000000000000462, -4.000000000000000000 ) ) ;
#88 = CIRCLE ( 'NONE', #510, 1.499999999999999556 ) ;
#89 = AXIS2_PLACEMENT_3D ( 'NONE', #114, #302, #719 ) ;
#90 = CARTESIAN_POINT ( 'NONE',  ( 1.520000000000007567, 1.020000000000000018, -2.000000000000001776 ) ) ;
#91 = CARTESIAN_POINT ( 'NONE',  ( -1.269999999999993356, -1.020000000000000018, -4.000000000000000000 ) ) ;
#92 = ORIENTED_EDGE ( 'NONE', *, *, #45, .T. ) ;
#93 = DIRECTION ( 'NONE',  ( -1.000000000000000000, 0.000000000000000000, 0.000000000000000000 ) ) ;
#94 = EDGE_CURVE ( 'NONE', #102, #758, #709, .T. ) ;
#95 = CARTESIAN_POINT ( 'NONE',  ( 1.019999999180010164, -1.519999999180000172, -4.000000000000000000 ) ) ;
#96 = CARTESIAN_POINT ( 'NONE',  ( 1.020000000000007123, 1.520000000000000462, -2.000000000000001776 ) ) ;
#97 = EDGE_LOOP ( 'NONE', ( #1045, #533, #1048, #318 ) ) ;
#98 = DIRECTION ( 'NONE',  ( 1.000000000000000000, 0.000000000000000000, 0.000000000000000000 ) ) ;
#99 = DIRECTION ( 'NONE',  ( -1.000000000000000000, 0.000000000000000000, 0.000000000000000000 ) ) ;
#100 = ORIENTED_EDGE ( 'NONE', *, *, #16, .T. ) ;
#101 = DIRECTION ( 'NONE',  ( -1.000000000000000000, 0.000000000000000000, 0.000000000000000000 ) ) ;
#102 = VERTEX_POINT ( 'NONE', #940 ) ;
#103 = VECTOR ( 'NONE', #646, 1000.000000000000000 ) ;
#104 = CARTESIAN_POINT ( 'NONE',  ( 1.520000000000007567, -1.270000000000000240, -1.000000000000000888 ) ) ;
#105 = AXIS2_PLACEMENT_3D ( 'NONE', #954, #126, #620 ) ;
#106 = VECTOR ( 'NONE', #268, 1000.000000000000000 ) ;
#107 = PLANE ( 'NONE',  #990 ) ;
#108 = PRODUCT_DEFINITION_SHAPE ( 'NONE', 'NONE',  #970 ) ;
#109 = LINE ( 'NONE', #439, #942 ) ;
#110 = DIRECTION ( 'NONE',  ( 0.000000000000000000, 0.000000000000000000, 1.000000000000000000 ) ) ;
#111 = VERTEX_POINT ( 'NONE', #196 ) ;
#112 = EDGE_CURVE ( 'NONE', #945, #390, #556, .T. ) ;
#113 = VERTEX_POINT ( 'NONE', #786 ) ;
#114 = CARTESIAN_POINT ( 'NONE',  ( 1.387778780781445676E-14, 7.350000000000000533, 2.540000000000000480 ) ) ;
#115 = UNCERTAINTY_MEASURE_WITH_UNIT (LENGTH_MEASURE( 1.000000000000000082E-05 ), #757, 'distance_accuracy_value', 'NONE');
#116 = PLANE ( 'NONE',  #766 ) ;
#117 = ADVANCED_FACE ( 'NONE', ( #44 ), #1041, .T. ) ;
#118 = CARTESIAN_POINT ( 'NONE',  ( 1.520000000000007567, 1.020000000000000018, -4.000000000000000000 ) ) ;
#119 = ORIENTED_EDGE ( 'NONE', *, *, #206, .F. ) ;
#120 = EDGE_CURVE ( 'NONE', #899, #174, #626, .T. ) ;
#121 = PLANE ( 'NONE',  #600 ) ;
#122 = FACE_OUTER_BOUND ( 'NONE', #217, .T. ) ;
#123 = CARTESIAN_POINT ( 'NONE',  ( 1.270000000000007123, -1.270000000000000240, 0.000000000000000000 ) ) ;
#124 = ORIENTED_EDGE ( 'NONE', *, *, #231, .F. ) ;
#125 = VERTEX_POINT ( 'NONE', #702 ) ;
#126 = DIRECTION ( 'NONE',  ( 0.000000000000000000, -1.000000000000000000, 0.000000000000000000 ) ) ;
#127 = VECTOR ( 'NONE', #433, 1000.000000000000000 ) ;
#128 = FACE_OUTER_BOUND ( 'NONE', #840, .T. ) ;
#129 = STYLED_ITEM ( 'NONE', ( #609 ), #569 ) ;
#130 = VECTOR ( 'NONE', #559, 1000.000000000000000 ) ;
#131 = ORIENTED_EDGE ( 'NONE', *, *, #580, .T. ) ;
#132 = ORIENTED_EDGE ( 'NONE', *, *, #314, .F. ) ;
#133 = LINE ( 'NONE', #51, #809 ) ;
#134 = CARTESIAN_POINT ( 'NONE',  ( 1.519999999180010608, 1.269999999929998902, 0.000000000000000000 ) ) ;
#135 = DIRECTION ( 'NONE',  ( -0.000000000000000000, 0.000000000000000000, -1.000000000000000000 ) ) ;
#136 = EDGE_LOOP ( 'NONE', ( #966, #913, #172 ) ) ;
#137 = DIRECTION ( 'NONE',  ( -1.000000000000000000, 0.000000000000000000, 0.000000000000000000 ) ) ;
#138 = CARTESIAN_POINT ( 'NONE',  ( -3.699818229563334171E-10, 6.349999999999999645, 2.540000000599999641 ) ) ;
#139 = DIRECTION ( 'NONE',  ( 1.000000000000000000, 0.000000000000000000, 0.000000000000000000 ) ) ;
#140 = CARTESIAN_POINT ( 'NONE',  ( 1.269999999180010386, -1.019999999179999728, -4.000000000000000000 ) ) ;
#141 = EDGE_LOOP ( 'NONE', ( #47, #422, #960, #487, #273 ) ) ;
#142 = PLANE ( 'NONE',  #494 ) ;
#143 = CARTESIAN_POINT ( 'NONE',  ( 2.150000000000012790, 6.349999999999999645, -4.000000000000000000 ) ) ;
#144 = VECTOR ( 'NONE', #614, 1000.000000000000000 ) ;
#145 = AXIS2_PLACEMENT_3D ( 'NONE', #299, #654, #154 ) ;
#146 = DIRECTION ( 'NONE',  ( -0.000000000000000000, 1.000000000000000000, 0.000000000000000000 ) ) ;
#147 = DIRECTION ( 'NONE',  ( 0.000000000000000000, -1.000000000000000000, 0.000000000000000000 ) ) ;
#148 = ORIENTED_EDGE ( 'NONE', *, *, #619, .T. ) ;
#149 = AXIS2_PLACEMENT_3D ( 'NONE', #881, #894, #553 ) ;
#150 = AXIS2_PLACEMENT_3D ( 'NONE', #599, #781, #33 ) ;
#151 = ORIENTED_EDGE ( 'NONE', *, *, #735, .F. ) ;
#152 = EDGE_CURVE ( 'NONE', #824, #758, #49, .T. ) ;
#153 = CARTESIAN_POINT ( 'NONE',  ( 1.519999999180010608, -1.019999999179999728, -4.000000000000000000 ) ) ;
#154 = DIRECTION ( 'NONE',  ( -1.000000000000000000, 0.000000000000000000, 0.000000000000000000 ) ) ;
#155 = ORIENTED_EDGE ( 'NONE', *, *, #396, .T. ) ;
#156 = CARTESIAN_POINT ( 'NONE',  ( 1.020000000000007123, 1.270000000000000240, -4.000000000000000000 ) ) ;
#157 = FACE_OUTER_BOUND ( 'NONE', #464, .T. ) ;
#158 = ORIENTED_EDGE ( 'NONE', *, *, #549, .F. ) ;
#159 = ORIENTED_EDGE ( 'NONE', *, *, #391, .T. ) ;
#160 = DIRECTION ( 'NONE',  ( 0.000000000000000000, 1.000000000000000000, 0.000000000000000000 ) ) ;
#161 = EDGE_CURVE ( 'NONE', #321, #282, #714, .T. ) ;
#162 = CARTESIAN_POINT ( 'NONE',  ( 1.387778780781445676E-14, 7.350000000000000533, 2.540000000000000480 ) ) ;
#163 = VECTOR ( 'NONE', #978, 1000.000000000000000 ) ;
#164 = AXIS2_PLACEMENT_3D ( 'NONE', #989, #1005, #930 ) ;
#165 = DIRECTION ( 'NONE',  ( 0.000000000000000000, 1.000000000000000000, 0.000000000000000000 ) ) ;
#166 = FACE_OUTER_BOUND ( 'NONE', #1035, .T. ) ;
#167 = FACE_OUTER_BOUND ( 'NONE', #141, .T. ) ;
#168 = EDGE_LOOP ( 'NONE', ( #797, #1055, #267, #57 ) ) ;
#169 = ORIENTED_EDGE ( 'NONE', *, *, #295, .T. ) ;
#170 = DIRECTION ( 'NONE',  ( -0.000000000000000000, 0.000000000000000000, -1.000000000000000000 ) ) ;
#171 = LINE ( 'NONE', #357, #1008 ) ;
#172 = ORIENTED_EDGE ( 'NONE', *, *, #965, .T. ) ;
#173 = FACE_OUTER_BOUND ( 'NONE', #832, .T. ) ;
#174 = VERTEX_POINT ( 'NONE', #550 ) ;
#175 = CARTESIAN_POINT ( 'NONE',  ( -1.499999999999987566, 7.350000000000000533, 7.620000000000001883 ) ) ;
#176 = VECTOR ( 'NONE', #537, 1000.000000000000000 ) ;
#177 = VECTOR ( 'NONE', #897, 1000.000000000000000 ) ;
#178 = ADVANCED_FACE ( 'NONE', ( #531 ), #116, .T. ) ;
#179 = AXIS2_PLACEMENT_3D ( 'NONE', #386, #194, #1037 ) ;
#180 = LINE ( 'NONE', #85, #633 ) ;
#181 = FACE_OUTER_BOUND ( 'NONE', #513, .T. ) ;
#182 = CARTESIAN_POINT ( 'NONE',  ( -1.019999999999993134, -1.520000000000000462, -4.000000000000000000 ) ) ;
#183 = FACE_BOUND ( 'NONE', #353, .T. ) ;
#184 = ORIENTED_EDGE ( 'NONE', *, *, #65, .F. ) ;
#185 = DIRECTION ( 'NONE',  ( -1.000000000000000000, 0.000000000000000000, 0.000000000000000000 ) ) ;
#186 = PLANE ( 'NONE',  #1042 ) ;
#187 = ADVANCED_FACE ( 'NONE', ( #128 ), #376, .T. ) ;
#188 = CARTESIAN_POINT ( 'NONE',  ( -1.019999999929993573, -1.019999999179999728, 0.000000000000000000 ) ) ;
#189 = DIRECTION ( 'NONE',  ( -1.000000000000000000, 0.000000000000000000, 0.000000000000000000 ) ) ;
#190 = VERTEX_POINT ( 'NONE', #860 ) ;
#191 = ORIENTED_EDGE ( 'NONE', *, *, #367, .F. ) ;
#192 = EDGE_CURVE ( 'NONE', #364, #321, #793, .T. ) ;
#193 = AXIS2_PLACEMENT_3D ( 'NONE', #325, #745, #228 ) ;
#194 = DIRECTION ( 'NONE',  ( -0.000000000000000000, -0.000000000000000000, -1.000000000000000000 ) ) ;
#195 = VECTOR ( 'NONE', #511, 1000.000000000000000 ) ;
#196 = CARTESIAN_POINT ( 'NONE',  ( -2.150000000749982654, 6.349999999999999645, 0.000000000000000000 ) ) ;
#197 = EDGE_CURVE ( 'NONE', #729, #113, #780, .T. ) ;
#198 = CARTESIAN_POINT ( 'NONE',  ( 1.020000000000007123, 1.020000000000000018, -2.000000000000001776 ) ) ;
#199 = ORIENTED_EDGE ( 'NONE', *, *, #1028, .F. ) ;
#200 = ADVANCED_FACE ( 'NONE', ( #122 ), #298, .F. ) ;
#201 = EDGE_LOOP ( 'NONE', ( #577, #1039, #623, #892 ) ) ;
#202 = CARTESIAN_POINT ( 'NONE',  ( 1.387778780781445676E-14, 7.350000000000000533, 6.120000000000000107 ) ) ;
#203 = DIRECTION ( 'NONE',  ( 0.000000000000000000, 1.000000000000000000, 0.000000000000000000 ) ) ;
#204 = ORIENTED_EDGE ( 'NONE', *, *, #323, .T. ) ;
#205 = EDGE_LOOP ( 'NONE', ( #50, #867, #681, #324, #790 ) ) ;
#206 = EDGE_CURVE ( 'NONE', #125, #782, #631, .T. ) ;
#207 = DIRECTION ( 'NONE',  ( 0.000000000000000000, -1.000000000000000000, 0.000000000000000000 ) ) ;
#208 = DIRECTION ( 'NONE',  ( 0.000000000000000000, -1.000000000000000000, -0.000000000000000000 ) ) ;
#209 = ORIENTED_EDGE ( 'NONE', *, *, #65, .T. ) ;
#210 = ORIENTED_EDGE ( 'NONE', *, *, #917, .F. ) ;
#211 = EDGE_CURVE ( 'NONE', #729, #945, #877, .T. ) ;
#212 = CARTESIAN_POINT ( 'NONE',  ( 1.019999999180010164, 1.269999999929998902, 0.000000000000000000 ) ) ;
#213 = FACE_BOUND ( 'NONE', #444, .T. ) ;
#214 = CIRCLE ( 'NONE', #579, 0.3999999999999999667 ) ;
#215 = VECTOR ( 'NONE', #928, 1000.000000000000000 ) ;
#216 = DIRECTION ( 'NONE',  ( 1.000000000000000000, 0.000000000000000000, 0.000000000000000000 ) ) ;
#217 = EDGE_LOOP ( 'NONE', ( #30, #475, #18, #568 ) ) ;
#218 = CARTESIAN_POINT ( 'NONE',  ( 1.387778780781445676E-14, 7.350000000000000533, 2.540000000000000480 ) ) ;
#219 = DIRECTION ( 'NONE',  ( 0.000000000000000000, 0.000000000000000000, 1.000000000000000000 ) ) ;
#220 = DIRECTION ( 'NONE',  ( -0.000000000000000000, 0.000000000000000000, -1.000000000000000000 ) ) ;
#221 = ORIENTED_EDGE ( 'NONE', *, *, #211, .T. ) ;
#222 = CARTESIAN_POINT ( 'NONE',  ( -1.019999999999993134, 1.520000000000000462, -2.000000000000001776 ) ) ;
#223 = CARTESIAN_POINT ( 'NONE',  ( 1.270000000000007123, -0.8699999999999992184, -1.000000000000000888 ) ) ;
#224 = CARTESIAN_POINT ( 'NONE',  ( -1.519999999929994017, 1.019999999930000456, 0.000000000000000000 ) ) ;
#225 = EDGE_CURVE ( 'NONE', #712, #649, #387, .T. ) ;
#226 = ORIENTED_EDGE ( 'NONE', *, *, #497, .F. ) ;
#227 = ADVANCED_FACE ( 'NONE', ( #662 ), #829, .T. ) ;
#228 = DIRECTION ( 'NONE',  ( -2.960594732330005000E-16, 1.000000000000000000, 0.000000000000000000 ) ) ;
#229 = VECTOR ( 'NONE', #884, 1000.000000000000000 ) ;
#230 = VECTOR ( 'NONE', #244, 1000.000000000000000 ) ;
#231 = EDGE_CURVE ( 'NONE', #1031, #239, #900, .T. ) ;
#232 = FACE_OUTER_BOUND ( 'NONE', #907, .T. ) ;
#233 = ORIENTED_EDGE ( 'NONE', *, *, #45, .F. ) ;
#234 = VECTOR ( 'NONE', #518, 1000.000000000000000 ) ;
#235 = CARTESIAN_POINT ( 'NONE',  ( 1.387778780781445676E-14, 7.350000000000000533, 7.620000000000001883 ) ) ;
#236 = EDGE_CURVE ( 'NONE', #321, #863, #492, .T. ) ;
#237 = DIRECTION ( 'NONE',  ( 0.000000000000000000, 1.000000000000000000, 0.000000000000000000 ) ) ;
#238 = DIRECTION ( 'NONE',  ( -1.000000000000000000, -2.960594732330000070E-16, 0.000000000000000000 ) ) ;
#239 = VERTEX_POINT ( 'NONE', #153 ) ;
#240 = CARTESIAN_POINT ( 'NONE',  ( -1.519999999999993578, 1.520000000000000462, -4.000000000000000000 ) ) ;
#241 = DIRECTION ( 'NONE',  ( -1.000000000000000000, 0.000000000000000000, 0.000000000000000000 ) ) ;
#242 = ORIENTED_EDGE ( 'NONE', *, *, #399, .F. ) ;
#243 = DIRECTION ( 'NONE',  ( -1.000000000000000000, 0.000000000000000000, 0.000000000000000000 ) ) ;
#244 = DIRECTION ( 'NONE',  ( -0.000000000000000000, 0.000000000000000000, -1.000000000000000000 ) ) ;
#245 = CARTESIAN_POINT ( 'NONE',  ( 1.500000000000015099, 8.849999999999999645, 7.620000000000001883 ) ) ;
#246 = VECTOR ( 'NONE', #1050, 1000.000000000000000 ) ;
#247 = AXIS2_PLACEMENT_3D ( 'NONE', #235, #379, #137 ) ;
#248 = ORIENTED_EDGE ( 'NONE', *, *, #774, .T. ) ;
#249 = CARTESIAN_POINT ( 'NONE',  ( 1.020000000000007123, 1.520000000000000462, -4.000000000000000000 ) ) ;
#250 = DIRECTION ( 'NONE',  ( -1.000000000000000000, -2.960594732330000070E-16, 0.000000000000000000 ) ) ;
#251 = ORIENTED_EDGE ( 'NONE', *, *, #323, .F. ) ;
#252 = EDGE_CURVE ( 'NONE', #958, #842, #652, .T. ) ;
#253 = VERTEX_POINT ( 'NONE', #489 ) ;
#254 = DIRECTION ( 'NONE',  ( -0.000000000000000000, 0.000000000000000000, -1.000000000000000000 ) ) ;
#255 = DIRECTION ( 'NONE',  ( -0.000000000000000000, 0.000000000000000000, -1.000000000000000000 ) ) ;
#256 = EDGE_CURVE ( 'NONE', #716, #1016, #69, .T. ) ;
#257 = CARTESIAN_POINT ( 'NONE',  ( -1.269999999929993795, -1.019999999179999728, 0.000000000000000000 ) ) ;
#258 = ORIENTED_EDGE ( 'NONE', *, *, #571, .F. ) ;
#259 = EDGE_LOOP ( 'NONE', ( #856, #929, #570, #199 ) ) ;
#260 = CARTESIAN_POINT ( 'NONE',  ( 1.520000000000007567, 1.520000000000000462, -4.000000000000000000 ) ) ;
#261 = ORIENTED_EDGE ( 'NONE', *, *, #77, .T. ) ;
#262 = CIRCLE ( 'NONE', #1060, 1.499999999999999556 ) ;
#263 = VECTOR ( 'NONE', #340, 1000.000000000000000 ) ;
#264 = AXIS2_PLACEMENT_3D ( 'NONE', #611, #595, #923 ) ;
#265 = DIRECTION ( 'NONE',  ( 0.000000000000000000, 0.000000000000000000, 1.000000000000000000 ) ) ;
#266 = DIRECTION ( 'NONE',  ( 1.000000000000000000, 0.000000000000000000, 0.000000000000000000 ) ) ;
#267 = ORIENTED_EDGE ( 'NONE', *, *, #94, .F. ) ;
#268 = DIRECTION ( 'NONE',  ( -1.000000000000000000, 0.000000000000000000, 0.000000000000000000 ) ) ;
#269 = EDGE_CURVE ( 'NONE', #111, #1059, #910, .T. ) ;
#270 = DIRECTION ( 'NONE',  ( -1.000000000000000000, 0.000000000000000000, 0.000000000000000000 ) ) ;
#271 = APPLICATION_CONTEXT ( 'automotive_design' ) ;
#272 = PLANE ( 'NONE',  #264 ) ;
#273 = ORIENTED_EDGE ( 'NONE', *, *, #484, .T. ) ;
#274 = ADVANCED_FACE ( 'NONE', ( #905 ), #983, .F. ) ;
#275 = PRODUCT ( 'LED_D3.0mm-2x1_RightAngle', 'LED_D3.0mm-2x1_RightAngle', '', ( #382 ) ) ;
#276 = CARTESIAN_POINT ( 'NONE',  ( 1.387778780781445676E-14, 7.350000000000000533, 7.620000000000001883 ) ) ;
#277 = CARTESIAN_POINT ( 'NONE',  ( 1.387778780781445676E-14, 7.350000000000000533, 2.540000000000000480 ) ) ;
#278 = DIRECTION ( 'NONE',  ( 1.000000000000000000, 0.000000000000000000, 0.000000000000000000 ) ) ;
#279 = DIRECTION ( 'NONE',  ( 0.000000000000000000, 0.000000000000000000, 1.000000000000000000 ) ) ;
#280 = VERTEX_POINT ( 'NONE', #78 ) ;
#281 = AXIS2_PLACEMENT_3D ( 'NONE', #962, #947, #951 ) ;
#282 = VERTEX_POINT ( 'NONE', #485 ) ;
#283 = AXIS2_PLACEMENT_3D ( 'NONE', #1, #1063, #694 ) ;
#284 = CYLINDRICAL_SURFACE ( 'NONE', #105, 1.500000000000000000 ) ;
#285 = CIRCLE ( 'NONE', #442, 1.500000000000000000 ) ;
#286 = CIRCLE ( 'NONE', #828, 1.500000000000000000 ) ;
#287 = DIRECTION ( 'NONE',  ( 1.000000000000000000, 0.000000000000000000, 0.000000000000000000 ) ) ;
#288 = EDGE_CURVE ( 'NONE', #428, #4, #315, .T. ) ;
#289 = ORIENTED_EDGE ( 'NONE', *, *, #794, .T. ) ;
#290 = CARTESIAN_POINT ( 'NONE',  ( -1.019999999929993573, 1.269999999929998902, 0.000000000000000000 ) ) ;
#291 = UNCERTAINTY_MEASURE_WITH_UNIT (LENGTH_MEASURE( 1.000000000000000082E-05 ), #906, 'distance_accuracy_value', 'NONE');
#292 = CARTESIAN_POINT ( 'NONE',  ( -1.499999999999987566, 8.849999999999999645, 7.620000000000001883 ) ) ;
#293 = APPLICATION_PROTOCOL_DEFINITION ( 'draft international standard', 'automotive_design', 1998, #668 ) ;
#294 = ORIENTED_EDGE ( 'NONE', *, *, #622, .F. ) ;
#295 = EDGE_CURVE ( 'NONE', #649, #899, #827, .T. ) ;
#296 = EDGE_LOOP ( 'NONE', ( #545, #258, #34, #964 ) ) ;
#297 = FACE_OUTER_BOUND ( 'NONE', #205, .T. ) ;
#298 = PLANE ( 'NONE',  #54 ) ;
#299 = CARTESIAN_POINT ( 'NONE',  ( 1.387778780781445676E-14, 8.849999999999999645, 7.620000000000001883 ) ) ;
#300 = ORIENTED_EDGE ( 'NONE', *, *, #1058, .F. ) ;
#301 = ORIENTED_EDGE ( 'NONE', *, *, #699, .T. ) ;
#302 = DIRECTION ( 'NONE',  ( 0.000000000000000000, 1.000000000000000000, 0.000000000000000000 ) ) ;
#303 = CARTESIAN_POINT ( 'NONE',  ( -3.699818229563334171E-10, -2.649999999999999467, 9.649999999999998579 ) ) ;
#304 = VECTOR ( 'NONE', #466, 1000.000000000000000 ) ;
#305 = VECTOR ( 'NONE', #582, 1000.000000000000000 ) ;
#306 = LINE ( 'NONE', #639, #246 ) ;
#307 = ORIENTED_EDGE ( 'NONE', *, *, #886, .T. ) ;
#308 = CYLINDRICAL_SURFACE ( 'NONE', #653, 1.500000000000000000 ) ;
#309 = EDGE_CURVE ( 'NONE', #539, #327, #1056, .T. ) ;
#310 = CARTESIAN_POINT ( 'NONE',  ( 1.270000000000007123, -0.8699999996300000760, -1.000000000000000888 ) ) ;
#311 = CYLINDRICAL_SURFACE ( 'NONE', #145, 1.500000000000000000 ) ;
#312 = ORIENTED_EDGE ( 'NONE', *, *, #815, .T. ) ;
#313 = ADVANCED_FACE ( 'NONE', ( #75 ), #401, .F. ) ;
#314 = EDGE_CURVE ( 'NONE', #597, #351, #578, .T. ) ;
#315 = LINE ( 'NONE', #732, #909 ) ;
#316 = EDGE_CURVE ( 'NONE', #882, #523, #736, .T. ) ;
#317 = DIRECTION ( 'NONE',  ( 0.000000000000000000, 1.000000000000000000, 0.000000000000000000 ) ) ;
#318 = ORIENTED_EDGE ( 'NONE', *, *, #838, .F. ) ;
#319 = CARTESIAN_POINT ( 'NONE',  ( -1.019999999999993134, -1.520000000000000462, -4.000000000000000000 ) ) ;
#320 = VECTOR ( 'NONE', #715, 1000.000000000000000 ) ;
#321 = VERTEX_POINT ( 'NONE', #319 ) ;
#322 = AXIS2_PLACEMENT_3D ( 'NONE', #555, #798, #701 ) ;
#323 = EDGE_CURVE ( 'NONE', #606, #782, #1046, .T. ) ;
#324 = ORIENTED_EDGE ( 'NONE', *, *, #661, .F. ) ;
#325 = CARTESIAN_POINT ( 'NONE',  ( 1.387778780781445676E-14, 7.350000000000000533, 7.620000000000001883 ) ) ;
#326 = CARTESIAN_POINT ( 'NONE',  ( 1.270000000000007123, -0.8699999999999992184, 0.000000000000000000 ) ) ;
#327 = VERTEX_POINT ( 'NONE', #310 ) ;
#328 = FACE_OUTER_BOUND ( 'NONE', #1051, .T. ) ;
#329 = DIRECTION ( 'NONE',  ( -1.000000000000000000, 0.000000000000000000, 0.000000000000000000 ) ) ;
#330 = SURFACE_STYLE_FILL_AREA ( #1015 ) ;
#331 = ORIENTED_EDGE ( 'NONE', *, *, #225, .F. ) ;
#332 = EDGE_LOOP ( 'NONE', ( #119, #552, #763, #993, #664 ) ) ;
#333 = FACE_OUTER_BOUND ( 'NONE', #97, .T. ) ;
#334 = SURFACE_SIDE_STYLE ('',( #330 ) ) ;
#335 = ORIENTED_EDGE ( 'NONE', *, *, #931, .T. ) ;
#336 = VECTOR ( 'NONE', #710, 1000.000000000000000 ) ;
#337 = FACE_BOUND ( 'NONE', #412, .T. ) ;
#338 = VECTOR ( 'NONE', #792, 1000.000000000000000 ) ;
#339 = EDGE_LOOP ( 'NONE', ( #1013, #880, #398, #734 ) ) ;
#340 = DIRECTION ( 'NONE',  ( 0.000000000000000000, 1.000000000000000000, 0.000000000000000000 ) ) ;
#341 = ADVANCED_FACE ( 'NONE', ( #62 ), #657, .F. ) ;
#342 = DIRECTION ( 'NONE',  ( -1.000000000000000000, 0.000000000000000000, 0.000000000000000000 ) ) ;
#343 = CARTESIAN_POINT ( 'NONE',  ( 2.150000000000012790, -2.649999999999999467, 9.649999999999998579 ) ) ;
#344 = EDGE_CURVE ( 'NONE', #282, #597, #560, .T. ) ;
#345 = DIRECTION ( 'NONE',  ( -0.000000000000000000, 0.000000000000000000, -1.000000000000000000 ) ) ;
#346 = ORIENTED_EDGE ( 'NONE', *, *, #152, .F. ) ;
#347 =( NAMED_UNIT ( * ) PLANE_ANGLE_UNIT ( ) SI_UNIT ( $, .RADIAN. ) );
#348 = ORIENTED_EDGE ( 'NONE', *, *, #295, .F. ) ;
#349 = LINE ( 'NONE', #843, #106 ) ;
#350 = CARTESIAN_POINT ( 'NONE',  ( -1.519999999929994017, 1.519999999929999124, 0.000000000000000000 ) ) ;
#351 = VERTEX_POINT ( 'NONE', #543 ) ;
#352 = PLANE ( 'NONE',  #481 ) ;
#353 = EDGE_LOOP ( 'NONE', ( #801, #378 ) ) ;
#354 = ADVANCED_FACE ( 'NONE', ( #767 ), #522, .T. ) ;
#355 = VECTOR ( 'NONE', #955, 1000.000000000000000 ) ;
#356 = CIRCLE ( 'NONE', #959, 1.500000000000000000 ) ;
#357 = CARTESIAN_POINT ( 'NONE',  ( -1.519999999999993578, -1.020000000000000018, -2.000000000000001776 ) ) ;
#358 = CARTESIAN_POINT ( 'NONE',  ( 1.520000000000007567, -1.020000000000000018, -1.000000000000000888 ) ) ;
#359 = LINE ( 'NONE', #40, #546 ) ;
#360 = ORIENTED_EDGE ( 'NONE', *, *, #120, .F. ) ;
#361 = DIRECTION ( 'NONE',  ( 0.000000000000000000, 0.000000000000000000, 1.000000000000000000 ) ) ;
#362 = DIRECTION ( 'NONE',  ( -1.000000000000000000, 0.000000000000000000, 0.000000000000000000 ) ) ;
#363 = PLANE ( 'NONE',  #150 ) ;
#364 = VERTEX_POINT ( 'NONE', #29 ) ;
#365 = EDGE_LOOP ( 'NONE', ( #210, #233, #100, #953 ) ) ;
#366 = CARTESIAN_POINT ( 'NONE',  ( 1.020000000000007123, -1.020000000000000018, -1.000000000000000888 ) ) ;
#367 = EDGE_CURVE ( 'NONE', #945, #937, #359, .T. ) ;
#368 = CARTESIAN_POINT ( 'NONE',  ( 1.020000000000007123, 1.020000000000000018, -4.000000000000000000 ) ) ;
#369 = LINE ( 'NONE', #96, #375 ) ;
#370 = CARTESIAN_POINT ( 'NONE',  ( 1.019999999180010164, 1.519999999929999124, 0.000000000000000000 ) ) ;
#371 = ORIENTED_EDGE ( 'NONE', *, *, #120, .T. ) ;
#372 = VECTOR ( 'NONE', #480, 1000.000000000000000 ) ;
#373 = DIRECTION ( 'NONE',  ( -1.000000000000000000, 0.000000000000000000, 0.000000000000000000 ) ) ;
#374 = VECTOR ( 'NONE', #845, 1000.000000000000000 ) ;
#375 = VECTOR ( 'NONE', #691, 1000.000000000000000 ) ;
#376 = SPHERICAL_SURFACE ( 'NONE', #393, 1.500000000000000000 ) ;
#377 = EDGE_CURVE ( 'NONE', #71, #539, #214, .T. ) ;
#378 = ORIENTED_EDGE ( 'NONE', *, *, #604, .T. ) ;
#379 = DIRECTION ( 'NONE',  ( 0.000000000000000000, 1.000000000000000000, 0.000000000000000000 ) ) ;
#380 = CARTESIAN_POINT ( 'NONE',  ( -1.269999999929993795, 1.519999999929999124, 0.000000000000000000 ) ) ;
#381 = DIRECTION ( 'NONE',  ( 0.000000000000000000, 1.000000000000000000, 0.000000000000000000 ) ) ;
#382 = PRODUCT_CONTEXT ( 'NONE', #271, 'mechanical' ) ;
#383 = DIRECTION ( 'NONE',  ( 0.000000000000000000, 1.000000000000000000, 0.000000000000000000 ) ) ;
#384 = ORIENTED_EDGE ( 'NONE', *, *, #622, .T. ) ;
#385 = ORIENTED_EDGE ( 'NONE', *, *, #571, .T. ) ;
#386 = CARTESIAN_POINT ( 'NONE',  ( 1.270000000000007123, -1.270000000000000240, -1.000000000000000888 ) ) ;
#387 = LINE ( 'NONE', #415, #1027 ) ;
#388 = DIRECTION ( 'NONE',  ( 0.000000000000000000, -1.000000000000000000, 0.000000000000000000 ) ) ;
#389 = ORIENTED_EDGE ( 'NONE', *, *, #231, .T. ) ;
#390 = VERTEX_POINT ( 'NONE', #370 ) ;
#391 = EDGE_CURVE ( 'NONE', #59, #616, #704, .T. ) ;
#392 = DIRECTION ( 'NONE',  ( 0.000000000000000000, 1.000000000000000000, 0.000000000000000000 ) ) ;
#393 = AXIS2_PLACEMENT_3D ( 'NONE', #727, #1026, #866 ) ;
#394 = DIRECTION ( 'NONE',  ( 0.000000000000000000, 1.000000000000000000, 0.000000000000000000 ) ) ;
#395 = AXIS2_PLACEMENT_3D ( 'NONE', #417, #666, #583 ) ;
#396 = EDGE_CURVE ( 'NONE', #253, #606, #88, .T. ) ;
#397 = CARTESIAN_POINT ( 'NONE',  ( -1.499999999999987566, 8.849999999999999645, 2.540000000000000480 ) ) ;
#398 = ORIENTED_EDGE ( 'NONE', *, *, #968, .T. ) ;
#399 = EDGE_CURVE ( 'NONE', #758, #1016, #306, .T. ) ;
#400 = LINE ( 'NONE', #222, #130 ) ;
#401 = PLANE ( 'NONE',  #839 ) ;
#402 = EDGE_LOOP ( 'NONE', ( #8, #307, #1024 ) ) ;
#403 = ORIENTED_EDGE ( 'NONE', *, *, #771, .F. ) ;
#404 = CARTESIAN_POINT ( 'NONE',  ( -1.519999999999993578, 1.020000000000000018, -4.000000000000000000 ) ) ;
#405 = DIRECTION ( 'NONE',  ( 1.000000000000000000, 0.000000000000000000, 0.000000000000000000 ) ) ;
#406 = ORIENTED_EDGE ( 'NONE', *, *, #197, .F. ) ;
#407 = DIRECTION ( 'NONE',  ( 0.000000000000000000, 1.000000000000000000, 0.000000000000000000 ) ) ;
#408 = AXIS2_PLACEMENT_3D ( 'NONE', #515, #11, #753 ) ;
#409 = VECTOR ( 'NONE', #70, 1000.000000000000000 ) ;
#410 =( NAMED_UNIT ( * ) SI_UNIT ( $, .STERADIAN. ) SOLID_ANGLE_UNIT ( ) );
#411 = ADVANCED_FACE ( 'NONE', ( #963 ), #311, .T. ) ;
#412 = EDGE_LOOP ( 'NONE', ( #25, #406, #221, #458 ) ) ;
#413 = AXIS2_PLACEMENT_3D ( 'NONE', #1002, #608, #185 ) ;
#414 = CARTESIAN_POINT ( 'NONE',  ( 1.500000000000015099, 7.350000000000000533, 7.620000000000001883 ) ) ;
#415 = CARTESIAN_POINT ( 'NONE',  ( -1.269999999999993356, 1.020000000000000018, -4.000000000000000000 ) ) ;
#416 = DIRECTION ( 'NONE',  ( 0.000000000000000000, 1.000000000000000000, 0.000000000000000000 ) ) ;
#417 = CARTESIAN_POINT ( 'NONE',  ( -1.019999999999993134, -1.020000000000000018, -4.000000000000000000 ) ) ;
#418 = DIRECTION ( 'NONE',  ( 1.000000000000000000, 0.000000000000000000, 0.000000000000000000 ) ) ;
#419 = DIRECTION ( 'NONE',  ( 0.000000000000000000, 1.000000000000000000, 0.000000000000000000 ) ) ;
#420 = ORIENTED_EDGE ( 'NONE', *, *, #429, .T. ) ;
#421 = FACE_BOUND ( 'NONE', #948, .T. ) ;
#422 = ORIENTED_EDGE ( 'NONE', *, *, #699, .F. ) ;
#423 = CARTESIAN_POINT ( 'NONE',  ( 1.387778780781445676E-14, 8.849999999999999645, 2.540000000000000480 ) ) ;
#424 = EDGE_CURVE ( 'NONE', #71, #2, #644, .T. ) ;
#425 = EDGE_CURVE ( 'NONE', #327, #2, #853, .T. ) ;
#426 = AXIS2_PLACEMENT_3D ( 'NONE', #474, #216, #383 ) ;
#427 = AXIS2_PLACEMENT_3D ( 'NONE', #14, #514, #833 ) ;
#428 = VERTEX_POINT ( 'NONE', #224 ) ;
#429 = EDGE_CURVE ( 'NONE', #1059, #824, #467, .T. ) ;
#430 = CARTESIAN_POINT ( 'NONE',  ( -1.019999999929993573, -1.269999999179999950, 0.000000000000000000 ) ) ;
#431 = ORIENTED_EDGE ( 'NONE', *, *, #192, .T. ) ;
#432 = CARTESIAN_POINT ( 'NONE',  ( 2.150000000000012790, -2.649999999999999467, 0.000000000000000000 ) ) ;
#433 = DIRECTION ( 'NONE',  ( 0.000000000000000000, 0.000000000000000000, 1.000000000000000000 ) ) ;
#434 = ADVANCED_FACE ( 'NONE', ( #232 ), #901, .F. ) ;
#435 = CARTESIAN_POINT ( 'NONE',  ( 2.150000000000012790, 6.349999999999999645, 9.649999999999998579 ) ) ;
#436 = ORIENTED_EDGE ( 'NONE', *, *, #996, .T. ) ;
#437 = DIRECTION ( 'NONE',  ( -1.000000000000000000, 0.000000000000000000, 0.000000000000000000 ) ) ;
#438 = ORIENTED_EDGE ( 'NONE', *, *, #256, .T. ) ;
#439 = CARTESIAN_POINT ( 'NONE',  ( 1.270000000000007123, 1.520000000000000462, -4.000000000000000000 ) ) ;
#440 = ORIENTED_EDGE ( 'NONE', *, *, #316, .T. ) ;
#441 = VECTOR ( 'NONE', #237, 1000.000000000000000 ) ;
#442 = AXIS2_PLACEMENT_3D ( 'NONE', #138, #207, #1049 ) ;
#443 = FILL_AREA_STYLE_COLOUR ( '', #598 ) ;
#444 = EDGE_LOOP ( 'NONE', ( #783, #738 ) ) ;
#445 = DIRECTION ( 'NONE',  ( 1.000000000000000000, 0.000000000000000000, 0.000000000000000000 ) ) ;
#446 = ORIENTED_EDGE ( 'NONE', *, *, #774, .F. ) ;
#447 = ORIENTED_EDGE ( 'NONE', *, *, #453, .T. ) ;
#448 = ADVANCED_FACE ( 'NONE', ( #800 ), #795, .F. ) ;
#449 = LINE ( 'NONE', #784, #740 ) ;
#450 = CARTESIAN_POINT ( 'NONE',  ( -1.019999999999993134, -1.270000000000000240, -4.000000000000000000 ) ) ;
#451 = LINE ( 'NONE', #532, #21 ) ;
#452 = ORIENTED_EDGE ( 'NONE', *, *, #7, .F. ) ;
#453 = EDGE_CURVE ( 'NONE', #174, #712, #805, .T. ) ;
#454 = DIRECTION ( 'NONE',  ( -1.000000000000000000, 0.000000000000000000, 0.000000000000000000 ) ) ;
#455 = PRODUCT_DEFINITION_CONTEXT ( 'detailed design', #668, 'design' ) ;
#456 = FACE_OUTER_BOUND ( 'NONE', #9, .T. ) ;
#457 = ORIENTED_EDGE ( 'NONE', *, *, #580, .F. ) ;
#458 = ORIENTED_EDGE ( 'NONE', *, *, #112, .T. ) ;
#459 = AXIS2_PLACEMENT_3D ( 'NONE', #276, #416, #99 ) ;
#460 = CARTESIAN_POINT ( 'NONE',  ( -1.019999999999993134, 1.020000000000000018, -4.000000000000000000 ) ) ;
#461 = VECTOR ( 'NONE', #43, 1000.000000000000000 ) ;
#462 = CARTESIAN_POINT ( 'NONE',  ( -1.269999999999993356, 1.520000000000000462, -4.000000000000000000 ) ) ;
#463 = EDGE_LOOP ( 'NONE', ( #1064, #601, #209, #226 ) ) ;
#464 = EDGE_LOOP ( 'NONE', ( #155, #204, #13 ) ) ;
#465 = DIRECTION ( 'NONE',  ( 0.000000000000000000, 1.000000000000000000, 0.000000000000000000 ) ) ;
#466 = DIRECTION ( 'NONE',  ( 0.000000000000000000, 1.000000000000000000, 0.000000000000000000 ) ) ;
#467 = LINE ( 'NONE', #486, #20 ) ;
#468 = ADVANCED_FACE ( 'NONE', ( #561 ), #733, .F. ) ;
#469 = EDGE_LOOP ( 'NONE', ( #985, #457, #83, #151 ) ) ;
#470 = FACE_OUTER_BOUND ( 'NONE', #761, .T. ) ;
#471 = DIRECTION ( 'NONE',  ( -1.000000000000000000, 0.000000000000000000, 0.000000000000000000 ) ) ;
#472 = EDGE_CURVE ( 'NONE', #616, #239, #737, .T. ) ;
#473 = CARTESIAN_POINT ( 'NONE',  ( -1.019999999999993134, 1.020000000000000018, -4.000000000000000000 ) ) ;
#474 = CARTESIAN_POINT ( 'NONE',  ( -1.519999999999993578, -1.520000000000000462, -4.000000000000000000 ) ) ;
#475 = ORIENTED_EDGE ( 'NONE', *, *, #717, .T. ) ;
#476 = DIRECTION ( 'NONE',  ( 0.000000000000000000, -1.000000000000000000, 0.000000000000000000 ) ) ;
#477 = VECTOR ( 'NONE', #765, 1000.000000000000000 ) ;
#478 = PLANE ( 'NONE',  #707 ) ;
#479 = VECTOR ( 'NONE', #189, 1000.000000000000000 ) ;
#480 = DIRECTION ( 'NONE',  ( 1.000000000000000000, 0.000000000000000000, 0.000000000000000000 ) ) ;
#481 = AXIS2_PLACEMENT_3D ( 'NONE', #1021, #278, #516 ) ;
#482 = DIRECTION ( 'NONE',  ( -1.000000000000000000, 0.000000000000000000, 0.000000000000000000 ) ) ;
#483 = ORIENTED_EDGE ( 'NONE', *, *, #619, .F. ) ;
#484 = EDGE_CURVE ( 'NONE', #673, #656, #879, .T. ) ;
#485 = CARTESIAN_POINT ( 'NONE',  ( -1.019999999929993573, -1.519999999180000172, 0.000000000000000000 ) ) ;
#486 = CARTESIAN_POINT ( 'NONE',  ( 2.150000000000012790, 1.850000000000000977, 0.000000000000000000 ) ) ;
#487 = ORIENTED_EDGE ( 'NONE', *, *, #604, .F. ) ;
#488 = EDGE_CURVE ( 'NONE', #634, #125, #73, .T. ) ;
#489 = CARTESIAN_POINT ( 'NONE',  ( 1.387778780781445676E-14, 7.350000000000000533, 9.119999999999995666 ) ) ;
#490 = LINE ( 'NONE', #747, #409 ) ;
#491 = ORIENTED_EDGE ( 'NONE', *, *, #920, .T. ) ;
#492 = LINE ( 'NONE', #575, #617 ) ;
#493 = AXIS2_PLACEMENT_3D ( 'NONE', #647, #135, #979 ) ;
#494 = AXIS2_PLACEMENT_3D ( 'NONE', #967, #641, #60 ) ;
#495 = CARTESIAN_POINT ( 'NONE',  ( -3.699818229563334171E-10, 6.349999999999999645, 0.000000000000000000 ) ) ;
#496 = PLANE ( 'NONE',  #179 ) ;
#497 = EDGE_CURVE ( 'NONE', #863, #280, #813, .T. ) ;
#498 = DIRECTION ( 'NONE',  ( 0.000000000000000000, 0.000000000000000000, 1.000000000000000000 ) ) ;
#499 = ORIENTED_EDGE ( 'NONE', *, *, #735, .T. ) ;
#500 = LINE ( 'NONE', #934, #896 ) ;
#501 = ADVANCED_FACE ( 'NONE', ( #984 ), #822, .T. ) ;
#502 = LINE ( 'NONE', #90, #127 ) ;
#503 = ADVANCED_FACE ( 'NONE', ( #157 ), #772, .T. ) ;
#504 = LINE ( 'NONE', #903, #1029 ) ;
#505 = EDGE_LOOP ( 'NONE', ( #289, #688 ) ) ;
#506 = ADVANCED_FACE ( 'NONE', ( #746 ), #519, .T. ) ;
#507 = CARTESIAN_POINT ( 'NONE',  ( 1.270000000000007123, -1.669999999999999707, 0.000000000000000000 ) ) ;
#508 = VECTOR ( 'NONE', #542, 1000.000000000000000 ) ;
#509 = EDGE_LOOP ( 'NONE', ( #517, #541, #261, #159 ) ) ;
#510 = AXIS2_PLACEMENT_3D ( 'NONE', #898, #238, #1044 ) ;
#511 = DIRECTION ( 'NONE',  ( 1.000000000000000000, 0.000000000000000000, 0.000000000000000000 ) ) ;
#512 = AXIS2_PLACEMENT_3D ( 'NONE', #687, #848, #855 ) ;
#513 = EDGE_LOOP ( 'NONE', ( #887, #527, #814, #191 ) ) ;
#514 = DIRECTION ( 'NONE',  ( -0.000000000000000000, 0.000000000000000000, -1.000000000000000000 ) ) ;
#515 = CARTESIAN_POINT ( 'NONE',  ( 1.520000000000007567, 1.520000000000000462, -4.000000000000000000 ) ) ;
#516 = DIRECTION ( 'NONE',  ( 0.000000000000000000, 1.000000000000000000, 0.000000000000000000 ) ) ;
#517 = ORIENTED_EDGE ( 'NONE', *, *, #472, .T. ) ;
#518 = DIRECTION ( 'NONE',  ( -0.000000000000000000, 0.000000000000000000, -1.000000000000000000 ) ) ;
#519 = PLANE ( 'NONE',  #283 ) ;
#520 = SPHERICAL_SURFACE ( 'NONE', #956, 1.500000000000000000 ) ;
#521 = LINE ( 'NONE', #198, #215 ) ;
#522 = CYLINDRICAL_SURFACE ( 'NONE', #581, 0.3999999999999999667 ) ;
#523 = VERTEX_POINT ( 'NONE', #613 ) ;
#524 = PLANE ( 'NONE',  #635 ) ;
#525 = CARTESIAN_POINT ( 'NONE',  ( 2.150000000000012790, 6.349999999999999645, 4.824999999810001938 ) ) ;
#526 = CARTESIAN_POINT ( 'NONE',  ( 1.020000000000007123, 1.020000000000000018, -4.000000000000000000 ) ) ;
#527 = ORIENTED_EDGE ( 'NONE', *, *, #35, .F. ) ;
#528 = CIRCLE ( 'NONE', #911, 0.3999999999999999667 ) ;
#529 = EDGE_LOOP ( 'NONE', ( #711, #1032, #124, #385 ) ) ;
#530 = DIRECTION ( 'NONE',  ( -0.000000000000000000, 0.000000000000000000, -1.000000000000000000 ) ) ;
#531 = FACE_OUTER_BOUND ( 'NONE', #469, .T. ) ;
#532 = CARTESIAN_POINT ( 'NONE',  ( 1.520000000000007567, 1.270000000000000240, -4.000000000000000000 ) ) ;
#533 = ORIENTED_EDGE ( 'NONE', *, *, #161, .F. ) ;
#534 = EDGE_CURVE ( 'NONE', #1018, #958, #1019, .T. ) ;
#535 = ORIENTED_EDGE ( 'NONE', *, *, #472, .F. ) ;
#536 = CARTESIAN_POINT ( 'NONE',  ( -1.499999999999987566, 7.350000000000000533, 2.540000000000000480 ) ) ;
#537 = DIRECTION ( 'NONE',  ( 1.000000000000000000, 0.000000000000000000, 0.000000000000000000 ) ) ;
#538 = CARTESIAN_POINT ( 'NONE',  ( -0.1077499999999999847, 0.009150000000000000147, -0.02353999999999999843 ) ) ;
#539 = VERTEX_POINT ( 'NONE', #326 ) ;
#540 = ADVANCED_FACE ( 'NONE', ( #830 ), #524, .F. ) ;
#541 = ORIENTED_EDGE ( 'NONE', *, *, #904, .T. ) ;
#542 = DIRECTION ( 'NONE',  ( -1.000000000000000000, 0.000000000000000000, 0.000000000000000000 ) ) ;
#543 = CARTESIAN_POINT ( 'NONE',  ( -1.519999999929994017, -1.019999999179999728, 0.000000000000000000 ) ) ;
#544 = EDGE_LOOP ( 'NONE', ( #846, #403, #627, #1036 ) ) ;
#545 = ORIENTED_EDGE ( 'NONE', *, *, #1058, .T. ) ;
#546 = VECTOR ( 'NONE', #1022, 1000.000000000000000 ) ;
#547 = CARTESIAN_POINT ( 'NONE',  ( -1.019999999929993573, 1.019999999930000456, 0.000000000000000000 ) ) ;
#548 = CIRCLE ( 'NONE', #322, 1.500000000000000000 ) ;
#549 = EDGE_CURVE ( 'NONE', #190, #988, #262, .T. ) ;
#550 = CARTESIAN_POINT ( 'NONE',  ( -1.019999999999993134, 1.520000000000000462, -4.000000000000000000 ) ) ;
#551 = DIRECTION ( 'NONE',  ( 1.000000000000000000, 0.000000000000000000, 0.000000000000000000 ) ) ;
#552 = ORIENTED_EDGE ( 'NONE', *, *, #488, .F. ) ;
#553 = DIRECTION ( 'NONE',  ( -0.000000000000000000, 0.000000000000000000, -1.000000000000000000 ) ) ;
#554 = ORIENTED_EDGE ( 'NONE', *, *, #425, .T. ) ;
#555 = CARTESIAN_POINT ( 'NONE',  ( 1.387778780781445676E-14, 7.350000000000000533, 7.620000000000001883 ) ) ;
#556 = LINE ( 'NONE', #799, #508 ) ;
#557 = DIRECTION ( 'NONE',  ( 0.000000000000000000, 1.000000000000000000, 0.000000000000000000 ) ) ;
#558 = ORIENTED_EDGE ( 'NONE', *, *, #931, .F. ) ;
#559 = DIRECTION ( 'NONE',  ( -0.000000000000000000, 0.000000000000000000, -1.000000000000000000 ) ) ;
#560 = LINE ( 'NONE', #812, #479 ) ;
#561 = FACE_OUTER_BOUND ( 'NONE', #463, .T. ) ;
#562 = ORIENTED_EDGE ( 'NONE', *, *, #497, .T. ) ;
#563 = EDGE_CURVE ( 'NONE', #659, #862, #490, .T. ) ;
#564 = PLANE ( 'NONE',  #149 ) ;
#565 = AXIS2_PLACEMENT_3D ( 'NONE', #891, #147, #482 ) ;
#566 = CARTESIAN_POINT ( 'NONE',  ( -1.519999999929994017, -1.269999999179999950, 0.000000000000000000 ) ) ;
#567 =( GEOMETRIC_REPRESENTATION_CONTEXT ( 3 ) GLOBAL_UNCERTAINTY_ASSIGNED_CONTEXT ( ( #291 ) ) GLOBAL_UNIT_ASSIGNED_CONTEXT ( ( #906, #935, #410 ) ) REPRESENTATION_CONTEXT ( 'NONE', 'WORKASPACE' ) );
#568 = ORIENTED_EDGE ( 'NONE', *, *, #252, .F. ) ;
#569 = MANIFOLD_SOLID_BREP ( 'MANIFOLD_SOLID_BREP #202199', #684 ) ;
#570 = ORIENTED_EDGE ( 'NONE', *, *, #949, .F. ) ;
#571 = EDGE_CURVE ( 'NONE', #1031, #523, #851, .T. ) ;
#572 = CARTESIAN_POINT ( 'NONE',  ( 1.387778780781445676E-14, 7.350000000000000533, 7.620000000000001883 ) ) ;
#573 = EDGE_LOOP ( 'NONE', ( #131, #335, #148, #331 ) ) ;
#574 = CARTESIAN_POINT ( 'NONE',  ( 1.519999999180010608, -1.269999999179999950, -4.000000000000000000 ) ) ;
#575 = CARTESIAN_POINT ( 'NONE',  ( -1.269999999999993356, -1.520000000000000462, -4.000000000000000000 ) ) ;
#576 = DIRECTION ( 'NONE',  ( 0.000000000000000000, 1.000000000000000000, 0.000000000000000000 ) ) ;
#577 = ORIENTED_EDGE ( 'NONE', *, *, #161, .T. ) ;
#578 = LINE ( 'NONE', #566, #441 ) ;
#579 = AXIS2_PLACEMENT_3D ( 'NONE', #123, #279, #944 ) ;
#580 = EDGE_CURVE ( 'NONE', #712, #718, #26, .T. ) ;
#581 = AXIS2_PLACEMENT_3D ( 'NONE', #697, #110, #24 ) ;
#582 = DIRECTION ( 'NONE',  ( 0.000000000000000000, 1.000000000000000000, 0.000000000000000000 ) ) ;
#583 = DIRECTION ( 'NONE',  ( -1.000000000000000000, 0.000000000000000000, 0.000000000000000000 ) ) ;
#584 = ORIENTED_EDGE ( 'NONE', *, *, #225, .T. ) ;
#585 = DIRECTION ( 'NONE',  ( 0.000000000000000000, 1.000000000000000000, 0.000000000000000000 ) ) ;
#586 = EDGE_CURVE ( 'NONE', #634, #918, #663, .T. ) ;
#587 = ADVANCED_FACE ( 'NONE', ( #912, #166 ), #496, .T. ) ;
#588 = CARTESIAN_POINT ( 'NONE',  ( 2.150000000000012790, 6.349999999999999645, -4.000000000000000000 ) ) ;
#589 = SURFACE_STYLE_USAGE ( .BOTH. , #334 ) ;
#590 = PRODUCT_RELATED_PRODUCT_CATEGORY ( 'part', '', ( #275 ) ) ;
#591 = DIRECTION ( 'NONE',  ( 0.000000000000000000, -1.000000000000000000, 0.000000000000000000 ) ) ;
#592 = VERTEX_POINT ( 'NONE', #779 ) ;
#593 = LINE ( 'NONE', #759, #263 ) ;
#594 = FACE_OUTER_BOUND ( 'NONE', #259, .T. ) ;
#595 = DIRECTION ( 'NONE',  ( 0.000000000000000000, 0.000000000000000000, 1.000000000000000000 ) ) ;
#596 = CARTESIAN_POINT ( 'NONE',  ( 1.020000000000007123, -1.020000000000000018, -2.499999999999998668 ) ) ;
#597 = VERTEX_POINT ( 'NONE', #31 ) ;
#598 = COLOUR_RGB ( '',0.7921568627450980005, 0.8196078431372548767, 0.9333333333333333481 ) ;
#599 = CARTESIAN_POINT ( 'NONE',  ( -1.019999999999993134, 1.520000000000000462, -4.000000000000000000 ) ) ;
#600 = AXIS2_PLACEMENT_3D ( 'NONE', #460, #392, #454 ) ;
#601 = ORIENTED_EDGE ( 'NONE', *, *, #314, .T. ) ;
#602 = DIRECTION ( 'NONE',  ( 0.000000000000000000, 1.000000000000000000, 0.000000000000000000 ) ) ;
#603 = VECTOR ( 'NONE', #266, 1000.000000000000000 ) ;
#604 = EDGE_CURVE ( 'NONE', #673, #819, #285, .T. ) ;
#605 = DIRECTION ( 'NONE',  ( 0.000000000000000000, 1.000000000000000000, 0.000000000000000000 ) ) ;
#606 = VERTEX_POINT ( 'NONE', #202 ) ;
#607 = LINE ( 'NONE', #932, #195 ) ;
#608 = DIRECTION ( 'NONE',  ( 0.000000000000000000, 1.000000000000000000, 0.000000000000000000 ) ) ;
#609 = PRESENTATION_STYLE_ASSIGNMENT (( #589 ) ) ;
#610 = CARTESIAN_POINT ( 'NONE',  ( 1.270000000000007123, -1.670000000369998849, -1.000000000000000888 ) ) ;
#611 = CARTESIAN_POINT ( 'NONE',  ( 2.150000000000012790, 6.349999999999999645, -4.000000000000000000 ) ) ;
#612 = ORIENTED_EDGE ( 'NONE', *, *, #982, .T. ) ;
#613 = CARTESIAN_POINT ( 'NONE',  ( 1.520000000000007567, -1.520000000000000462, -1.000000000000000888 ) ) ;
#614 = DIRECTION ( 'NONE',  ( 1.000000000000000000, 0.000000000000000000, 0.000000000000000000 ) ) ;
#615 = CARTESIAN_POINT ( 'NONE',  ( 1.387778780781445676E-14, 7.350000000000000533, 1.039999999999999147 ) ) ;
#616 = VERTEX_POINT ( 'NONE', #938 ) ;
#617 = VECTOR ( 'NONE', #329, 1000.000000000000000 ) ;
#618 = AXIS2_PLACEMENT_3D ( 'NONE', #423, #476, #650 ) ;
#619 = EDGE_CURVE ( 'NONE', #428, #649, #449, .T. ) ;
#620 = DIRECTION ( 'NONE',  ( 1.000000000000000000, 0.000000000000000000, 0.000000000000000000 ) ) ;
#621 = DIRECTION ( 'NONE',  ( -1.000000000000000000, 0.000000000000000000, 0.000000000000000000 ) ) ;
#622 = EDGE_CURVE ( 'NONE', #721, #4, #869, .T. ) ;
#623 = ORIENTED_EDGE ( 'NONE', *, *, #777, .T. ) ;
#624 = ORIENTED_EDGE ( 'NONE', *, *, #236, .T. ) ;
#625 = CARTESIAN_POINT ( 'NONE',  ( -2.149999999999985256, 6.349999999999999645, 9.649999999999998579 ) ) ;
#626 = LINE ( 'NONE', #462, #176 ) ;
#627 = ORIENTED_EDGE ( 'NONE', *, *, #94, .T. ) ;
#628 = ORIENTED_EDGE ( 'NONE', *, *, #1067, .F. ) ;
#629 = ADVANCED_FACE ( 'NONE', ( #297 ), #308, .T. ) ;
#630 = DIRECTION ( 'NONE',  ( 0.000000000000000000, 1.000000000000000000, 0.000000000000000000 ) ) ;
#631 = LINE ( 'NONE', #292, #355 ) ;
#632 = EDGE_LOOP ( 'NONE', ( #300, #685, #902, #440 ) ) ;
#633 = VECTOR ( 'NONE', #1020, 1000.000000000000000 ) ;
#634 = VERTEX_POINT ( 'NONE', #725 ) ;
#635 = AXIS2_PLACEMENT_3D ( 'NONE', #689, #419, #270 ) ;
#636 = DIRECTION ( 'NONE',  ( 0.000000000000000000, -1.000000000000000000, 0.000000000000000000 ) ) ;
#637 = VECTOR ( 'NONE', #742, 1000.000000000000000 ) ;
#638 = PLANE ( 'NONE',  #669 ) ;
#639 = CARTESIAN_POINT ( 'NONE',  ( 2.150000000000012790, 1.850000000000000977, 9.649999999999998579 ) ) ;
#640 = EDGE_LOOP ( 'NONE', ( #796, #431, #624, #562 ) ) ;
#641 = DIRECTION ( 'NONE',  ( 1.000000000000000000, 0.000000000000000000, 0.000000000000000000 ) ) ;
#642 = DIRECTION ( 'NONE',  ( 0.000000000000000000, 0.000000000000000000, 1.000000000000000000 ) ) ;
#643 = EDGE_CURVE ( 'NONE', #125, #634, #752, .T. ) ;
#644 = LINE ( 'NONE', #957, #38 ) ;
#645 = ORIENTED_EDGE ( 'NONE', *, *, #785, .T. ) ;
#646 = DIRECTION ( 'NONE',  ( 0.000000000000000000, 0.000000000000000000, 1.000000000000000000 ) ) ;
#647 = CARTESIAN_POINT ( 'NONE',  ( 1.270000000000007123, -1.270000000000000240, -1.000000000000000888 ) ) ;
#648 = EDGE_CURVE ( 'NONE', #819, #592, #133, .T. ) ;
#649 = VERTEX_POINT ( 'NONE', #859 ) ;
#650 = DIRECTION ( 'NONE',  ( -1.000000000000000000, 0.000000000000000000, 0.000000000000000000 ) ) ;
#651 = AXIS2_PLACEMENT_3D ( 'NONE', #818, #551, #557 ) ;
#652 = LINE ( 'NONE', #156, #163 ) ;
#653 = AXIS2_PLACEMENT_3D ( 'NONE', #1033, #636, #961 ) ;
#654 = DIRECTION ( 'NONE',  ( 0.000000000000000000, -1.000000000000000000, 0.000000000000000000 ) ) ;
#655 = EDGE_LOOP ( 'NONE', ( #371, #447, #584, #169 ) ) ;
#656 = VERTEX_POINT ( 'NONE', #536 ) ;
#657 = PLANE ( 'NONE',  #826 ) ;
#658 = CARTESIAN_POINT ( 'NONE',  ( -1.019999999999993134, 1.020000000000000018, -2.000000000000001776 ) ) ;
#659 = VERTEX_POINT ( 'NONE', #366 ) ;
#660 = LINE ( 'NONE', #574, #58 ) ;
#661 = EDGE_CURVE ( 'NONE', #190, #592, #39, .T. ) ;
#662 = FACE_OUTER_BOUND ( 'NONE', #402, .T. ) ;
#663 = LINE ( 'NONE', #245, #305 ) ;
#664 = ORIENTED_EDGE ( 'NONE', *, *, #665, .F. ) ;
#665 = EDGE_CURVE ( 'NONE', #782, #253, #548, .T. ) ;
#666 = DIRECTION ( 'NONE',  ( 0.000000000000000000, 1.000000000000000000, 0.000000000000000000 ) ) ;
#667 = FACE_OUTER_BOUND ( 'NONE', #201, .T. ) ;
#668 = APPLICATION_CONTEXT ( 'automotive_design' ) ;
#669 = AXIS2_PLACEMENT_3D ( 'NONE', #804, #208, #52 ) ;
#670 = VECTOR ( 'NONE', #1034, 1000.000000000000000 ) ;
#671 = AXIS2_PLACEMENT_3D ( 'NONE', #994, #1000, #243 ) ;
#672 = CARTESIAN_POINT ( 'NONE',  ( 1.270000000000007123, 1.020000000000000018, -4.000000000000000000 ) ) ;
#673 = VERTEX_POINT ( 'NONE', #1025 ) ;
#674 = FACE_BOUND ( 'NONE', #505, .T. ) ;
#675 = ORIENTED_EDGE ( 'NONE', *, *, #563, .F. ) ;
#676 = PLANE ( 'NONE',  #6 ) ;
#677 = CARTESIAN_POINT ( 'NONE',  ( 1.270000000000007123, -1.020000000000000018, -1.000000000000000888 ) ) ;
#678 = EDGE_LOOP ( 'NONE', ( #836, #750, #242, #346 ) ) ;
#679 = ADVANCED_FACE ( 'NONE', ( #36 ), #284, .T. ) ;
#680 = CARTESIAN_POINT ( 'NONE',  ( -3.699818229563334171E-10, 6.349999999999999645, 2.540000000599999641 ) ) ;
#681 = ORIENTED_EDGE ( 'NONE', *, *, #648, .T. ) ;
#682 = CARTESIAN_POINT ( 'NONE',  ( 1.499999999627008140, 6.349999999999999645, 2.540000000599999641 ) ) ;
#683 = PLANE ( 'NONE',  #408 ) ;
#684 = CLOSED_SHELL ( 'NONE', ( #81, #187, #503, #227, #1054, #3, #313, #864, #629, #411, #679, #117, #889, #808, #821, #468, #1006, #178, #693, #274, #61, #974, #540, #200, #868, #506, #84, #448, #922, #354, #501, #587, #434, #755, #731, #12, #341 ) ) ;
#685 = ORIENTED_EDGE ( 'NONE', *, *, #995, .T. ) ;
#686 = PRESENTATION_LAYER_ASSIGNMENT (  '', '', ( #129 ) ) ;
#687 = CARTESIAN_POINT ( 'NONE',  ( 1.387778780781445676E-14, 7.350000000000000533, 2.540000000000000480 ) ) ;
#688 = ORIENTED_EDGE ( 'NONE', *, *, #377, .T. ) ;
#689 = CARTESIAN_POINT ( 'NONE',  ( 1.520000000000007567, 1.020000000000000018, -4.000000000000000000 ) ) ;
#690 = DIRECTION ( 'NONE',  ( 0.000000000000000000, 1.000000000000000000, 0.000000000000000000 ) ) ;
#691 = DIRECTION ( 'NONE',  ( -0.000000000000000000, 0.000000000000000000, -1.000000000000000000 ) ) ;
#692 = ORIENTED_EDGE ( 'NONE', *, *, #643, .F. ) ;
#693 = ADVANCED_FACE ( 'NONE', ( #865 ), #121, .F. ) ;
#694 = DIRECTION ( 'NONE',  ( 0.000000000000000000, 1.000000000000000000, 0.000000000000000000 ) ) ;
#695 = DIRECTION ( 'NONE',  ( 0.000000000000000000, 0.000000000000000000, 1.000000000000000000 ) ) ;
#696 = CARTESIAN_POINT ( 'NONE',  ( -1.269999999929993795, 1.019999999930000456, 0.000000000000000000 ) ) ;
#697 = CARTESIAN_POINT ( 'NONE',  ( 1.270000000000007123, -1.270000000000000240, -1.000000000000000888 ) ) ;
#698 = ORIENTED_EDGE ( 'NONE', *, *, #917, .T. ) ;
#699 = EDGE_CURVE ( 'NONE', #592, #988, #356, .T. ) ;
#700 = EDGE_CURVE ( 'NONE', #718, #721, #708, .T. ) ;
#701 = DIRECTION ( 'NONE',  ( -1.000000000000000000, 0.000000000000000000, 0.000000000000000000 ) ) ;
#702 = CARTESIAN_POINT ( 'NONE',  ( -1.500000000369983155, 6.349999999999999645, 7.620000000670000162 ) ) ;
#703 = LINE ( 'NONE', #257, #741 ) ;
#704 = LINE ( 'NONE', #787, #336 ) ;
#705 = ORIENTED_EDGE ( 'NONE', *, *, #586, .F. ) ;
#706 = VECTOR ( 'NONE', #437, 1000.000000000000000 ) ;
#707 = AXIS2_PLACEMENT_3D ( 'NONE', #810, #730, #1052 ) ;
#708 = LINE ( 'NONE', #290, #338 ) ;
#709 = LINE ( 'NONE', #303, #144 ) ;
#710 = DIRECTION ( 'NONE',  ( 0.000000000000000000, 1.000000000000000000, 0.000000000000000000 ) ) ;
#711 = ORIENTED_EDGE ( 'NONE', *, *, #316, .F. ) ;
#712 = VERTEX_POINT ( 'NONE', #883 ) ;
#713 = DIRECTION ( 'NONE',  ( -1.000000000000000000, 0.000000000000000000, 0.000000000000000000 ) ) ;
#714 = LINE ( 'NONE', #870, #229 ) ;
#715 = DIRECTION ( 'NONE',  ( 1.000000000000000000, 0.000000000000000000, 0.000000000000000000 ) ) ;
#716 = VERTEX_POINT ( 'NONE', #625 ) ;
#717 = EDGE_CURVE ( 'NONE', #113, #390, #950, .T. ) ;
#718 = VERTEX_POINT ( 'NONE', #547 ) ;
#719 = DIRECTION ( 'NONE',  ( -1.000000000000000000, 0.000000000000000000, 0.000000000000000000 ) ) ;
#720 = DIRECTION ( 'NONE',  ( -1.000000000000000000, 0.000000000000000000, 0.000000000000000000 ) ) ;
#721 = VERTEX_POINT ( 'NONE', #48 ) ;
#722 = AXIS2_PLACEMENT_3D ( 'NONE', #572, #165, #972 ) ;
#723 = ORIENTED_EDGE ( 'NONE', *, *, #838, .T. ) ;
#724 = VECTOR ( 'NONE', #76, 1000.000000000000000 ) ;
#725 = CARTESIAN_POINT ( 'NONE',  ( 1.499999999627008140, 6.349999999999999645, 7.620000000670000162 ) ) ;
#726 = CIRCLE ( 'NONE', #413, 1.500000000000000000 ) ;
#727 = CARTESIAN_POINT ( 'NONE',  ( 1.387778780781445676E-14, 7.350000000000000533, 2.540000000000000480 ) ) ;
#728 = DIRECTION ( 'NONE',  ( 0.000000000000000000, 1.000000000000000000, 0.000000000000000000 ) ) ;
#729 = VERTEX_POINT ( 'NONE', #1040 ) ;
#730 = DIRECTION ( 'NONE',  ( 0.000000000000000000, 1.000000000000000000, 0.000000000000000000 ) ) ;
#731 = ADVANCED_FACE ( 'NONE', ( #803 ), #142, .T. ) ;
#732 = CARTESIAN_POINT ( 'NONE',  ( -1.519999999929994017, 1.269999999929998902, 0.000000000000000000 ) ) ;
#733 = PLANE ( 'NONE',  #426 ) ;
#734 = ORIENTED_EDGE ( 'NONE', *, *, #534, .F. ) ;
#735 = EDGE_CURVE ( 'NONE', #721, #174, #400, .T. ) ;
#736 = LINE ( 'NONE', #890, #103 ) ;
#737 = LINE ( 'NONE', #140, #320 ) ;
#738 = ORIENTED_EDGE ( 'NONE', *, *, #643, .T. ) ;
#739 = DIRECTION ( 'NONE',  ( 0.000000000000000000, 0.000000000000000000, 1.000000000000000000 ) ) ;
#740 = VECTOR ( 'NONE', #530, 1000.000000000000000 ) ;
#741 = VECTOR ( 'NONE', #101, 1000.000000000000000 ) ;
#742 = DIRECTION ( 'NONE',  ( 0.000000000000000000, -1.000000000000000000, 0.000000000000000000 ) ) ;
#743 = EDGE_LOOP ( 'NONE', ( #251, #973, #705, #692, #981 ) ) ;
#744 = DIRECTION ( 'NONE',  ( 1.000000000000000000, 0.000000000000000000, 0.000000000000000000 ) ) ;
#745 = DIRECTION ( 'NONE',  ( 1.000000000000000000, 2.960594732330005000E-16, 0.000000000000000000 ) ) ;
#746 = FACE_OUTER_BOUND ( 'NONE', #678, .T. ) ;
#747 = CARTESIAN_POINT ( 'NONE',  ( 1.020000000000007123, -1.270000000000000240, -1.000000000000000888 ) ) ;
#748 = ORIENTED_EDGE ( 'NONE', *, *, #269, .T. ) ;
#749 = ADVANCED_BREP_SHAPE_REPRESENTATION ( 'LED_D3.0mm-2x1_RightAngle', ( #569, #791 ), #811 ) ;
#750 = ORIENTED_EDGE ( 'NONE', *, *, #5, .F. ) ;
#751 = AXIS2_PLACEMENT_3D ( 'NONE', #916, #361, #576 ) ;
#752 = CIRCLE ( 'NONE', #1061, 1.500000000000000000 ) ;
#753 = DIRECTION ( 'NONE',  ( -1.000000000000000000, 0.000000000000000000, 0.000000000000000000 ) ) ;
#754 = ORIENTED_EDGE ( 'NONE', *, *, #995, .F. ) ;
#755 = ADVANCED_FACE ( 'NONE', ( #888 ), #478, .F. ) ;
#756 = FACE_OUTER_BOUND ( 'NONE', #136, .T. ) ;
#757 =( LENGTH_UNIT ( ) NAMED_UNIT ( * ) SI_UNIT ( .MILLI., .METRE. ) );
#758 = VERTEX_POINT ( 'NONE', #343 ) ;
#759 = CARTESIAN_POINT ( 'NONE',  ( -2.149999999999985256, 1.850000000000000977, 9.649999999999998579 ) ) ;
#760 = LINE ( 'NONE', #1011, #72 ) ;
#761 = EDGE_LOOP ( 'NONE', ( #788, #723, #628, #184 ) ) ;
#762 = CARTESIAN_POINT ( 'NONE',  ( 2.150000000000012790, 6.349999999999999645, 0.000000000000000000 ) ) ;
#763 = ORIENTED_EDGE ( 'NONE', *, *, #586, .T. ) ;
#764 = CARTESIAN_POINT ( 'NONE',  ( -1.019999999999993134, -1.520000000000000462, -4.000000000000000000 ) ) ;
#765 = DIRECTION ( 'NONE',  ( -0.000000000000000000, 0.000000000000000000, -1.000000000000000000 ) ) ;
#766 = AXIS2_PLACEMENT_3D ( 'NONE', #473, #139, #394 ) ;
#767 = FACE_OUTER_BOUND ( 'NONE', #998, .T. ) ;
#768 = VECTOR ( 'NONE', #17, 1000.000000000000000 ) ;
#769 = VERTEX_POINT ( 'NONE', #1007 ) ;
#770 = LINE ( 'NONE', #596, #1047 ) ;
#771 = EDGE_CURVE ( 'NONE', #102, #716, #593, .T. ) ;
#772 = SPHERICAL_SURFACE ( 'NONE', #459, 1.500000000000000000 ) ;
#773 = ORIENTED_EDGE ( 'NONE', *, *, #391, .F. ) ;
#774 = EDGE_CURVE ( 'NONE', #659, #616, #770, .T. ) ;
#775 = DIRECTION ( 'NONE',  ( 0.000000000000000000, -1.000000000000000000, 0.000000000000000000 ) ) ;
#776 = ORIENTED_EDGE ( 'NONE', *, *, #794, .F. ) ;
#777 = EDGE_CURVE ( 'NONE', #597, #863, #500, .T. ) ;
#778 = ORIENTED_EDGE ( 'NONE', *, *, #288, .T. ) ;
#779 = CARTESIAN_POINT ( 'NONE',  ( 1.500000000000015099, 7.350000000000000533, 2.540000000000000480 ) ) ;
#780 = LINE ( 'NONE', #32, #941 ) ;
#781 = DIRECTION ( 'NONE',  ( 0.000000000000000000, 1.000000000000000000, 0.000000000000000000 ) ) ;
#782 = VERTEX_POINT ( 'NONE', #175 ) ;
#783 = ORIENTED_EDGE ( 'NONE', *, *, #488, .T. ) ;
#784 = CARTESIAN_POINT ( 'NONE',  ( -1.519999999999993578, 1.020000000000000018, -2.000000000000001776 ) ) ;
#785 = EDGE_CURVE ( 'NONE', #2, #327, #854, .T. ) ;
#786 = CARTESIAN_POINT ( 'NONE',  ( 1.019999999180010164, 1.019999999930000456, 0.000000000000000000 ) ) ;
#787 = CARTESIAN_POINT ( 'NONE',  ( 1.019999999180010164, -1.269999999179999950, -4.000000000000000000 ) ) ;
#788 = ORIENTED_EDGE ( 'NONE', *, *, #996, .F. ) ;
#789 = VECTOR ( 'NONE', #471, 1000.000000000000000 ) ;
#790 = ORIENTED_EDGE ( 'NONE', *, *, #965, .F. ) ;
#791 = AXIS2_PLACEMENT_3D ( 'NONE', #538, #146, #55 ) ;
#792 = DIRECTION ( 'NONE',  ( 0.000000000000000000, 1.000000000000000000, 0.000000000000000000 ) ) ;
#793 = LINE ( 'NONE', #450, #670 ) ;
#794 = EDGE_CURVE ( 'NONE', #539, #71, #528, .T. ) ;
#795 = PLANE ( 'NONE',  #991 ) ;
#796 = ORIENTED_EDGE ( 'NONE', *, *, #1067, .T. ) ;
#797 = ORIENTED_EDGE ( 'NONE', *, *, #815, .F. ) ;
#798 = DIRECTION ( 'NONE',  ( 0.000000000000000000, 1.000000000000000000, 0.000000000000000000 ) ) ;
#799 = CARTESIAN_POINT ( 'NONE',  ( 1.269999999180010386, 1.519999999929999124, 0.000000000000000000 ) ) ;
#800 = FACE_OUTER_BOUND ( 'NONE', #365, .T. ) ;
#801 = ORIENTED_EDGE ( 'NONE', *, *, #999, .T. ) ;
#802 = ORIENTED_EDGE ( 'NONE', *, *, #309, .T. ) ;
#803 = FACE_OUTER_BOUND ( 'NONE', #529, .T. ) ;
#804 = CARTESIAN_POINT ( 'NONE',  ( 2.150000000000012790, 6.349999999999999645, 9.649999999999998579 ) ) ;
#805 = LINE ( 'NONE', #56, #807 ) ;
#806 = EDGE_LOOP ( 'NONE', ( #483, #778, #823, #348 ) ) ;
#807 = VECTOR ( 'NONE', #1057, 1000.000000000000000 ) ;
#808 = ADVANCED_FACE ( 'NONE', ( #333 ), #925, .T. ) ;
#809 = VECTOR ( 'NONE', #630, 1000.000000000000000 ) ;
#810 = CARTESIAN_POINT ( 'NONE',  ( 1.520000000000007567, -1.520000000000000462, -4.000000000000000000 ) ) ;
#811 =( GEOMETRIC_REPRESENTATION_CONTEXT ( 3 ) GLOBAL_UNCERTAINTY_ASSIGNED_CONTEXT ( ( #115 ) ) GLOBAL_UNIT_ASSIGNED_CONTEXT ( ( #757, #347, #878 ) ) REPRESENTATION_CONTEXT ( 'NONE', 'WORKASPACE' ) );
#812 = CARTESIAN_POINT ( 'NONE',  ( -1.269999999929993795, -1.519999999180000172, 0.000000000000000000 ) ) ;
#813 = LINE ( 'NONE', #63, #926 ) ;
#814 = ORIENTED_EDGE ( 'NONE', *, *, #982, .F. ) ;
#815 = EDGE_CURVE ( 'NONE', #824, #769, #349, .T. ) ;
#816 = EDGE_CURVE ( 'NONE', #918, #606, #726, .T. ) ;
#817 = CARTESIAN_POINT ( 'NONE',  ( -3.699818229563334171E-10, 6.349999999999999645, 9.649999999999998579 ) ) ;
#818 = CARTESIAN_POINT ( 'NONE',  ( 1.020000000000007123, -1.520000000000000462, -4.000000000000000000 ) ) ;
#819 = VERTEX_POINT ( 'NONE', #682 ) ;
#820 = CARTESIAN_POINT ( 'NONE',  ( 2.150000000000012790, 6.349999999999999645, -4.000000000000000000 ) ) ;
#821 = ADVANCED_FACE ( 'NONE', ( #667 ), #676, .F. ) ;
#822 = CYLINDRICAL_SURFACE ( 'NONE', #751, 0.3999999999999999667 ) ;
#823 = ORIENTED_EDGE ( 'NONE', *, *, #7, .T. ) ;
#824 = VERTEX_POINT ( 'NONE', #432 ) ;
#825 = VECTOR ( 'NONE', #605, 1000.000000000000000 ) ;
#826 = AXIS2_PLACEMENT_3D ( 'NONE', #143, #642, #969 ) ;
#827 = LINE ( 'NONE', #66, #976 ) ;
#828 = AXIS2_PLACEMENT_3D ( 'NONE', #680, #775, #28 ) ;
#829 = SPHERICAL_SURFACE ( 'NONE', #193, 1.500000000000000000 ) ;
#830 = FACE_OUTER_BOUND ( 'NONE', #339, .T. ) ;
#831 = LINE ( 'NONE', #677, #992 ) ;
#832 = EDGE_LOOP ( 'NONE', ( #294, #499, #360, #452 ) ) ;
#833 = DIRECTION ( 'NONE',  ( -1.000000000000000000, 0.000000000000000000, 0.000000000000000000 ) ) ;
#834 = EDGE_CURVE ( 'NONE', #988, #656, #1010, .T. ) ;
#835 = FACE_OUTER_BOUND ( 'NONE', #980, .T. ) ;
#836 = ORIENTED_EDGE ( 'NONE', *, *, #429, .F. ) ;
#837 = CARTESIAN_POINT ( 'NONE',  ( -1.019999999999993134, -1.020000000000000018, -2.000000000000001776 ) ) ;
#838 = EDGE_CURVE ( 'NONE', #933, #364, #919, .T. ) ;
#839 = AXIS2_PLACEMENT_3D ( 'NONE', #820, #739, #1062 ) ;
#840 = EDGE_LOOP ( 'NONE', ( #158, #1004, #301 ) ) ;
#841 = LINE ( 'NONE', #91, #603 ) ;
#842 = VERTEX_POINT ( 'NONE', #249 ) ;
#843 = CARTESIAN_POINT ( 'NONE',  ( -3.699818229563334171E-10, -2.649999999999999467, 0.000000000000000000 ) ) ;
#844 = LINE ( 'NONE', #927, #53 ) ;
#845 = DIRECTION ( 'NONE',  ( -1.000000000000000000, 0.000000000000000000, 0.000000000000000000 ) ) ;
#846 = ORIENTED_EDGE ( 'NONE', *, *, #256, .F. ) ;
#847 = CYLINDRICAL_SURFACE ( 'NONE', #618, 1.500000000000000000 ) ;
#848 = DIRECTION ( 'NONE',  ( 0.000000000000000000, 1.000000000000000000, 0.000000000000000000 ) ) ;
#849 = ORIENTED_EDGE ( 'NONE', *, *, #949, .T. ) ;
#850 = CARTESIAN_POINT ( 'NONE',  ( 1.270000000000007123, -1.270000000000000240, 0.000000000000000000 ) ) ;
#851 = LINE ( 'NONE', #104, #637 ) ;
#852 = LINE ( 'NONE', #921, #477 ) ;
#853 = CIRCLE ( 'NONE', #493, 0.4000000003729999865 ) ;
#854 = CIRCLE ( 'NONE', #427, 0.4000000003729999865 ) ;
#855 = DIRECTION ( 'NONE',  ( -1.000000000000000000, 0.000000000000000000, 0.000000000000000000 ) ) ;
#856 = ORIENTED_EDGE ( 'NONE', *, *, #112, .F. ) ;
#857 = PRODUCT_DEFINITION_FORMATION_WITH_SPECIFIED_SOURCE ( 'ไป', '', #275, .NOT_KNOWN. ) ;
#858 = ORIENTED_EDGE ( 'NONE', *, *, #425, .F. ) ;
#859 = CARTESIAN_POINT ( 'NONE',  ( -1.519999999999993578, 1.020000000000000018, -4.000000000000000000 ) ) ;
#860 = CARTESIAN_POINT ( 'NONE',  ( 1.387778780781445676E-14, 7.350000000000000533, 4.040000000000001812 ) ) ;
#861 = CARTESIAN_POINT ( 'NONE',  ( 1.020000000000007123, -1.520000000000000462, -2.499999999999998668 ) ) ;
#862 = VERTEX_POINT ( 'NONE', #914 ) ;
#863 = VERTEX_POINT ( 'NONE', #87 ) ;
#864 = ADVANCED_FACE ( 'NONE', ( #167 ), #847, .T. ) ;
#865 = FACE_OUTER_BOUND ( 'NONE', #573, .T. ) ;
#866 = DIRECTION ( 'NONE',  ( -2.960594732330005000E-16, 1.000000000000000000, 0.000000000000000000 ) ) ;
#867 = ORIENTED_EDGE ( 'NONE', *, *, #999, .F. ) ;
#868 = ADVANCED_FACE ( 'NONE', ( #42 ), #564, .T. ) ;
#869 = LINE ( 'NONE', #380, #789 ) ;
#870 = CARTESIAN_POINT ( 'NONE',  ( -1.019999999999993134, -1.520000000000000462, -2.000000000000001776 ) ) ;
#871 = APPLICATION_PROTOCOL_DEFINITION ( 'draft international standard', 'automotive_design', 1998, #271 ) ;
#872 = ORIENTED_EDGE ( 'NONE', *, *, #424, .F. ) ;
#873 = AXIS2_PLACEMENT_3D ( 'NONE', #404, #418, #407 ) ;
#874 = AXIS2_PLACEMENT_3D ( 'NONE', #764, #98, #585 ) ;
#875 = EDGE_LOOP ( 'NONE', ( #849, #612, #1001, #68 ) ) ;
#876 = CARTESIAN_POINT ( 'NONE',  ( -3.699818229563334171E-10, 6.349999999999999645, 7.620000000670000162 ) ) ;
#877 = LINE ( 'NONE', #134, #304 ) ;
#878 =( NAMED_UNIT ( * ) SI_UNIT ( $, .STERADIAN. ) SOLID_ANGLE_UNIT ( ) );
#879 = LINE ( 'NONE', #397, #895 ) ;
#880 = ORIENTED_EDGE ( 'NONE', *, *, #197, .T. ) ;
#881 = CARTESIAN_POINT ( 'NONE',  ( 2.150000000000012790, -2.649999999999999467, 9.649999999999998579 ) ) ;
#882 = VERTEX_POINT ( 'NONE', #975 ) ;
#883 = CARTESIAN_POINT ( 'NONE',  ( -1.019999999999993134, 1.020000000000000018, -4.000000000000000000 ) ) ;
#884 = DIRECTION ( 'NONE',  ( 0.000000000000000000, 0.000000000000000000, 1.000000000000000000 ) ) ;
#885 = DIRECTION ( 'NONE',  ( 0.000000000000000000, 1.000000000000000000, 0.000000000000000000 ) ) ;
#886 = EDGE_CURVE ( 'NONE', #253, #918, #74, .T. ) ;
#887 = ORIENTED_EDGE ( 'NONE', *, *, #211, .F. ) ;
#888 = FACE_OUTER_BOUND ( 'NONE', #632, .T. ) ;
#889 = ADVANCED_FACE ( 'NONE', ( #470 ), #82, .T. ) ;
#890 = CARTESIAN_POINT ( 'NONE',  ( 1.520000000000007567, -1.520000000000000462, -2.499999999999998668 ) ) ;
#891 = CARTESIAN_POINT ( 'NONE',  ( -3.699818229563334171E-10, 6.349999999999999645, 7.620000000670000162 ) ) ;
#892 = ORIENTED_EDGE ( 'NONE', *, *, #236, .F. ) ;
#893 = VECTOR ( 'NONE', #219, 1000.000000000000000 ) ;
#894 = DIRECTION ( 'NONE',  ( 0.000000000000000000, -1.000000000000000000, -0.000000000000000000 ) ) ;
#895 = VECTOR ( 'NONE', #728, 1000.000000000000000 ) ;
#896 = VECTOR ( 'NONE', #170, 1000.000000000000000 ) ;
#897 = DIRECTION ( 'NONE',  ( -0.000000000000000000, 0.000000000000000000, -1.000000000000000000 ) ) ;
#898 = CARTESIAN_POINT ( 'NONE',  ( 1.387778780781445676E-14, 7.350000000000000533, 7.620000000000001883 ) ) ;
#899 = VERTEX_POINT ( 'NONE', #240 ) ;
#900 = LINE ( 'NONE', #1053, #177 ) ;
#901 = PLANE ( 'NONE',  #651 ) ;
#902 = ORIENTED_EDGE ( 'NONE', *, *, #77, .F. ) ;
#903 = CARTESIAN_POINT ( 'NONE',  ( -2.149999999999985256, 6.349999999999999645, 4.824999999810001938 ) ) ;
#904 = EDGE_CURVE ( 'NONE', #239, #882, #660, .T. ) ;
#905 = FACE_OUTER_BOUND ( 'NONE', #806, .T. ) ;
#906 =( LENGTH_UNIT ( ) NAMED_UNIT ( * ) SI_UNIT ( .MILLI., .METRE. ) );
#907 = EDGE_LOOP ( 'NONE', ( #675, #248, #773, #754 ) ) ;
#908 = LINE ( 'NONE', #696, #374 ) ;
#909 = VECTOR ( 'NONE', #160, 1000.000000000000000 ) ;
#910 = LINE ( 'NONE', #495, #372 ) ;
#911 = AXIS2_PLACEMENT_3D ( 'NONE', #850, #19, #1014 ) ;
#912 = FACE_BOUND ( 'NONE', #296, .T. ) ;
#913 = ORIENTED_EDGE ( 'NONE', *, *, #834, .T. ) ;
#914 = CARTESIAN_POINT ( 'NONE',  ( 1.020000000000007123, -1.520000000000000462, -1.000000000000000888 ) ) ;
#915 = LINE ( 'NONE', #525, #939 ) ;
#916 = CARTESIAN_POINT ( 'NONE',  ( 1.270000000000007123, -1.270000000000000240, -1.000000000000000888 ) ) ;
#917 = EDGE_CURVE ( 'NONE', #111, #716, #504, .T. ) ;
#918 = VERTEX_POINT ( 'NONE', #414 ) ;
#919 = LINE ( 'NONE', #837, #234 ) ;
#920 = EDGE_CURVE ( 'NONE', #659, #1031, #831, .T. ) ;
#921 = CARTESIAN_POINT ( 'NONE',  ( -1.519999999999993578, 1.520000000000000462, -2.000000000000001776 ) ) ;
#922 = ADVANCED_FACE ( 'NONE', ( #1065, #421, #337, #674, #328 ), #986, .F. ) ;
#923 = DIRECTION ( 'NONE',  ( -1.000000000000000000, 0.000000000000000000, 0.000000000000000000 ) ) ;
#924 = ORIENTED_EDGE ( 'NONE', *, *, #700, .T. ) ;
#925 = PLANE ( 'NONE',  #874 ) ;
#926 = VECTOR ( 'NONE', #317, 1000.000000000000000 ) ;
#927 = CARTESIAN_POINT ( 'NONE',  ( -2.149999999999985256, -2.649999999999999467, 4.824999999810001938 ) ) ;
#928 = DIRECTION ( 'NONE',  ( -0.000000000000000000, 0.000000000000000000, -1.000000000000000000 ) ) ;
#929 = ORIENTED_EDGE ( 'NONE', *, *, #367, .T. ) ;
#930 = DIRECTION ( 'NONE',  ( -1.000000000000000000, 0.000000000000000000, 0.000000000000000000 ) ) ;
#931 = EDGE_CURVE ( 'NONE', #718, #428, #908, .T. ) ;
#932 = CARTESIAN_POINT ( 'NONE',  ( 1.270000000000007123, -1.520000000000000462, -1.000000000000000888 ) ) ;
#933 = VERTEX_POINT ( 'NONE', #188 ) ;
#934 = CARTESIAN_POINT ( 'NONE',  ( -1.519999999999993578, -1.520000000000000462, -2.000000000000001776 ) ) ;
#935 =( NAMED_UNIT ( * ) PLANE_ANGLE_UNIT ( ) SI_UNIT ( $, .RADIAN. ) );
#936 = FACE_OUTER_BOUND ( 'NONE', #655, .T. ) ;
#937 = VERTEX_POINT ( 'NONE', #260 ) ;
#938 = CARTESIAN_POINT ( 'NONE',  ( 1.019999999180010164, -1.019999999179999728, -4.000000000000000000 ) ) ;
#939 = VECTOR ( 'NONE', #255, 1000.000000000000000 ) ;
#940 = CARTESIAN_POINT ( 'NONE',  ( -2.149999999999985256, -2.649999999999999467, 9.649999999999998579 ) ) ;
#941 = VECTOR ( 'NONE', #720, 1000.000000000000000 ) ;
#942 = VECTOR ( 'NONE', #445, 1000.000000000000000 ) ;
#943 = CARTESIAN_POINT ( 'NONE',  ( 1.519999999180010608, 1.519999999929999124, 0.000000000000000000 ) ) ;
#944 = DIRECTION ( 'NONE',  ( -1.000000000000000000, 0.000000000000000000, 0.000000000000000000 ) ) ;
#945 = VERTEX_POINT ( 'NONE', #943 ) ;
#946 = DIRECTION ( 'NONE',  ( 0.000000000000000000, -1.000000000000000000, 0.000000000000000000 ) ) ;
#947 = DIRECTION ( 'NONE',  ( 0.000000000000000000, 0.000000000000000000, 1.000000000000000000 ) ) ;
#948 = EDGE_LOOP ( 'NONE', ( #64, #558, #924, #384 ) ) ;
#949 = EDGE_CURVE ( 'NONE', #842, #937, #109, .T. ) ;
#950 = LINE ( 'NONE', #212, #461 ) ;
#951 = DIRECTION ( 'NONE',  ( -1.000000000000000000, 0.000000000000000000, 0.000000000000000000 ) ) ;
#952 = ORIENTED_EDGE ( 'NONE', *, *, #785, .F. ) ;
#953 = ORIENTED_EDGE ( 'NONE', *, *, #771, .T. ) ;
#954 = CARTESIAN_POINT ( 'NONE',  ( 1.387778780781445676E-14, 8.849999999999999645, 7.620000000000001883 ) ) ;
#955 = DIRECTION ( 'NONE',  ( 0.000000000000000000, 1.000000000000000000, 0.000000000000000000 ) ) ;
#956 = AXIS2_PLACEMENT_3D ( 'NONE', #277, #381, #621 ) ;
#957 = CARTESIAN_POINT ( 'NONE',  ( 1.270000000000007123, -1.669999999999999707, -1.000000000000000888 ) ) ;
#958 = VERTEX_POINT ( 'NONE', #526 ) ;
#959 = AXIS2_PLACEMENT_3D ( 'NONE', #218, #465, #373 ) ;
#960 = ORIENTED_EDGE ( 'NONE', *, *, #648, .F. ) ;
#961 = DIRECTION ( 'NONE',  ( 1.000000000000000000, 0.000000000000000000, 0.000000000000000000 ) ) ;
#962 = CARTESIAN_POINT ( 'NONE',  ( 2.150000000000012790, 6.349999999999999645, 9.649999999999998579 ) ) ;
#963 = FACE_OUTER_BOUND ( 'NONE', #743, .T. ) ;
#964 = ORIENTED_EDGE ( 'NONE', *, *, #563, .T. ) ;
#965 = EDGE_CURVE ( 'NONE', #656, #190, #977, .T. ) ;
#966 = ORIENTED_EDGE ( 'NONE', *, *, #549, .T. ) ;
#967 = CARTESIAN_POINT ( 'NONE',  ( 1.520000000000007567, -1.520000000000000462, -4.000000000000000000 ) ) ;
#968 = EDGE_CURVE ( 'NONE', #113, #958, #521, .T. ) ;
#969 = DIRECTION ( 'NONE',  ( -1.000000000000000000, 0.000000000000000000, 0.000000000000000000 ) ) ;
#970 = PRODUCT_DEFINITION ( 'ๆ', '', #857, #455 ) ;
#971 = EDGE_LOOP ( 'NONE', ( #872, #776, #802, #952 ) ) ;
#972 = DIRECTION ( 'NONE',  ( -1.000000000000000000, 0.000000000000000000, 0.000000000000000000 ) ) ;
#973 = ORIENTED_EDGE ( 'NONE', *, *, #816, .F. ) ;
#974 = ADVANCED_FACE ( 'NONE', ( #181 ), #352, .T. ) ;
#975 = CARTESIAN_POINT ( 'NONE',  ( 1.519999999180010608, -1.519999999180000172, -4.000000000000000000 ) ) ;
#976 = VECTOR ( 'NONE', #987, 1000.000000000000000 ) ;
#977 = CIRCLE ( 'NONE', #512, 1.500000000000000000 ) ;
#978 = DIRECTION ( 'NONE',  ( 0.000000000000000000, 1.000000000000000000, 0.000000000000000000 ) ) ;
#979 = DIRECTION ( 'NONE',  ( -1.000000000000000000, 0.000000000000000000, 0.000000000000000000 ) ) ;
#980 = EDGE_LOOP ( 'NONE', ( #389, #535, #446, #491 ) ) ;
#981 = ORIENTED_EDGE ( 'NONE', *, *, #206, .T. ) ;
#982 = EDGE_CURVE ( 'NONE', #937, #1018, #451, .T. ) ;
#983 = PLANE ( 'NONE',  #873 ) ;
#984 = FACE_OUTER_BOUND ( 'NONE', #971, .T. ) ;
#985 = ORIENTED_EDGE ( 'NONE', *, *, #700, .F. ) ;
#986 = PLANE ( 'NONE',  #671 ) ;
#987 = DIRECTION ( 'NONE',  ( 0.000000000000000000, 1.000000000000000000, 0.000000000000000000 ) ) ;
#988 = VERTEX_POINT ( 'NONE', #615 ) ;
#989 = CARTESIAN_POINT ( 'NONE',  ( 1.387778780781445676E-14, 7.350000000000000533, 2.540000000000000480 ) ) ;
#990 = AXIS2_PLACEMENT_3D ( 'NONE', #22, #690, #362 ) ;
#991 = AXIS2_PLACEMENT_3D ( 'NONE', #67, #405, #885 ) ;
#992 = VECTOR ( 'NONE', #744, 1000.000000000000000 ) ;
#993 = ORIENTED_EDGE ( 'NONE', *, *, #886, .F. ) ;
#994 = CARTESIAN_POINT ( 'NONE',  ( 2.150000000000012790, 6.349999999999999645, 0.000000000000000000 ) ) ;
#995 = EDGE_CURVE ( 'NONE', #862, #59, #1012, .T. ) ;
#996 = EDGE_CURVE ( 'NONE', #933, #351, #703, .T. ) ;
#997 = ORIENTED_EDGE ( 'NONE', *, *, #5, .T. ) ;
#998 = EDGE_LOOP ( 'NONE', ( #858, #86, #41, #27 ) ) ;
#999 = EDGE_CURVE ( 'NONE', #819, #673, #286, .T. ) ;
#1000 = DIRECTION ( 'NONE',  ( 0.000000000000000000, 0.000000000000000000, 1.000000000000000000 ) ) ;
#1001 = ORIENTED_EDGE ( 'NONE', *, *, #534, .T. ) ;
#1002 = CARTESIAN_POINT ( 'NONE',  ( 1.387778780781445676E-14, 7.350000000000000533, 7.620000000000001883 ) ) ;
#1003 = DIRECTION ( 'NONE',  ( -1.000000000000000000, 0.000000000000000000, 0.000000000000000000 ) ) ;
#1004 = ORIENTED_EDGE ( 'NONE', *, *, #661, .T. ) ;
#1005 = DIRECTION ( 'NONE',  ( 0.000000000000000000, 1.000000000000000000, 0.000000000000000000 ) ) ;
#1006 = ADVANCED_FACE ( 'NONE', ( #173 ), #363, .T. ) ;
#1007 = CARTESIAN_POINT ( 'NONE',  ( -2.150000000749982654, -2.649999999999999467, 0.000000000000000000 ) ) ;
#1008 = VECTOR ( 'NONE', #345, 1000.000000000000000 ) ;
#1009 = MECHANICAL_DESIGN_GEOMETRIC_PRESENTATION_REPRESENTATION (  '', ( #129 ), #567 ) ;
#1010 = CIRCLE ( 'NONE', #164, 1.500000000000000000 ) ;
#1011 = CARTESIAN_POINT ( 'NONE',  ( 1.269999999180010386, -1.519999999180000172, -4.000000000000000000 ) ) ;
#1012 = LINE ( 'NONE', #861, #768 ) ;
#1013 = ORIENTED_EDGE ( 'NONE', *, *, #35, .T. ) ;
#1014 = DIRECTION ( 'NONE',  ( -1.000000000000000000, 0.000000000000000000, 0.000000000000000000 ) ) ;
#1015 = FILL_AREA_STYLE ('',( #443 ) ) ;
#1016 = VERTEX_POINT ( 'NONE', #435 ) ;
#1017 = FACE_OUTER_BOUND ( 'NONE', #640, .T. ) ;
#1018 = VERTEX_POINT ( 'NONE', #118 ) ;
#1019 = LINE ( 'NONE', #672, #706 ) ;
#1020 = DIRECTION ( 'NONE',  ( 0.000000000000000000, 1.000000000000000000, 0.000000000000000000 ) ) ;
#1021 = CARTESIAN_POINT ( 'NONE',  ( 1.520000000000007567, 1.020000000000000018, -4.000000000000000000 ) ) ;
#1022 = DIRECTION ( 'NONE',  ( -0.000000000000000000, 0.000000000000000000, -1.000000000000000000 ) ) ;
#1023 = ORIENTED_EDGE ( 'NONE', *, *, #344, .F. ) ;
#1024 = ORIENTED_EDGE ( 'NONE', *, *, #816, .T. ) ;
#1025 = CARTESIAN_POINT ( 'NONE',  ( -1.500000000369983155, 6.349999999999999645, 2.540000000599999641 ) ) ;
#1026 = DIRECTION ( 'NONE',  ( 1.000000000000000000, 2.960594732330005000E-16, 0.000000000000000000 ) ) ;
#1027 = VECTOR ( 'NONE', #241, 1000.000000000000000 ) ;
#1028 = EDGE_CURVE ( 'NONE', #390, #842, #369, .T. ) ;
#1029 = VECTOR ( 'NONE', #498, 1000.000000000000000 ) ;
#1030 = SHAPE_DEFINITION_REPRESENTATION ( #108, #749 ) ;
#1031 = VERTEX_POINT ( 'NONE', #358 ) ;
#1032 = ORIENTED_EDGE ( 'NONE', *, *, #904, .F. ) ;
#1033 = CARTESIAN_POINT ( 'NONE',  ( 1.387778780781445676E-14, 8.849999999999999645, 2.540000000000000480 ) ) ;
#1034 = DIRECTION ( 'NONE',  ( 0.000000000000000000, -1.000000000000000000, 0.000000000000000000 ) ) ;
#1035 = EDGE_LOOP ( 'NONE', ( #645, #554 ) ) ;
#1036 = ORIENTED_EDGE ( 'NONE', *, *, #399, .T. ) ;
#1037 = DIRECTION ( 'NONE',  ( 0.000000000000000000, -1.000000000000000000, 0.000000000000000000 ) ) ;
#1038 = EDGE_LOOP ( 'NONE', ( #132, #1023, #10, #436 ) ) ;
#1039 = ORIENTED_EDGE ( 'NONE', *, *, #344, .T. ) ;
#1040 = CARTESIAN_POINT ( 'NONE',  ( 1.519999999180010608, 1.019999999930000456, 0.000000000000000000 ) ) ;
#1041 = PLANE ( 'NONE',  #281 ) ;
#1042 = AXIS2_PLACEMENT_3D ( 'NONE', #588, #265, #1003 ) ;
#1043 = VECTOR ( 'NONE', #1066, 1000.000000000000000 ) ;
#1044 = DIRECTION ( 'NONE',  ( 0.000000000000000000, 0.000000000000000000, 1.000000000000000000 ) ) ;
#1045 = ORIENTED_EDGE ( 'NONE', *, *, #79, .F. ) ;
#1046 = CIRCLE ( 'NONE', #722, 1.500000000000000000 ) ;
#1047 = VECTOR ( 'NONE', #254, 1000.000000000000000 ) ;
#1048 = ORIENTED_EDGE ( 'NONE', *, *, #192, .F. ) ;
#1049 = DIRECTION ( 'NONE',  ( -1.000000000000000000, 0.000000000000000000, 0.000000000000000000 ) ) ;
#1050 = DIRECTION ( 'NONE',  ( 0.000000000000000000, 1.000000000000000000, 0.000000000000000000 ) ) ;
#1051 = EDGE_LOOP ( 'NONE', ( #92, #748, #420, #312 ) ) ;
#1052 = DIRECTION ( 'NONE',  ( -1.000000000000000000, 0.000000000000000000, 0.000000000000000000 ) ) ;
#1053 = CARTESIAN_POINT ( 'NONE',  ( 1.520000000000007567, -1.020000000000000018, -2.499999999999998668 ) ) ;
#1054 = ADVANCED_FACE ( 'NONE', ( #1017 ), #272, .F. ) ;
#1055 = ORIENTED_EDGE ( 'NONE', *, *, #152, .T. ) ;
#1056 = LINE ( 'NONE', #223, #230 ) ;
#1057 = DIRECTION ( 'NONE',  ( 0.000000000000000000, -1.000000000000000000, 0.000000000000000000 ) ) ;
#1058 = EDGE_CURVE ( 'NONE', #862, #523, #607, .T. ) ;
#1059 = VERTEX_POINT ( 'NONE', #762 ) ;
#1060 = AXIS2_PLACEMENT_3D ( 'NONE', #162, #250, #80 ) ;
#1061 = AXIS2_PLACEMENT_3D ( 'NONE', #876, #946, #713 ) ;
#1062 = DIRECTION ( 'NONE',  ( -1.000000000000000000, 0.000000000000000000, 0.000000000000000000 ) ) ;
#1063 = DIRECTION ( 'NONE',  ( 1.000000000000000000, 0.000000000000000000, 0.000000000000000000 ) ) ;
#1064 = ORIENTED_EDGE ( 'NONE', *, *, #777, .F. ) ;
#1065 = FACE_BOUND ( 'NONE', #1038, .T. ) ;
#1066 = DIRECTION ( 'NONE',  ( 1.000000000000000000, 0.000000000000000000, 0.000000000000000000 ) ) ;
#1067 = EDGE_CURVE ( 'NONE', #280, #364, #841, .T. ) ;
ENDSEC;
END-ISO-10303-21;
